<?xml version="1.0" encoding="utf-8"?>
<!-- Generator: Adobe Illustrator 16.0.0, SVG Export Plug-In . SVG Version: 6.00 Build 0)  -->
<!DOCTYPE svg PUBLIC "-//W3C//DTD SVG 1.1//EN" "http://www.w3.org/Graphics/SVG/1.1/DTD/svg11.dtd">
<svg version="1.1" id="Layer_1" xmlns="http://www.w3.org/2000/svg" xmlns:xlink="http://www.w3.org/1999/xlink" x="0px" y="0px"
	 width="36.996px" height="27.996px" viewBox="0 0 36.996 27.996" enable-background="new 0 0 36.996 27.996" xml:space="preserve">
<g>
	<path fill="#FFFFFF" d="M3,0c0,5.113,0,10.226,0,15.63c6.559,0,12.264,0,18.246,0c-0.729-2.16-1.39-4.11-2.104-6.22
		c5.283,2.838,10.197,5.479,15.141,8.134c-4.729,2.597-9.66,5.306-15.052,8.269c0.709-2.201,1.336-4.147,2.196-6.813
		c-7.338,0-14.383,0-21.428,0C0,12.665,0,6.332,0,0C1.044,0,2.022,0,3,0z"/>
</g>
</svg>
