<?xml version="1.0" encoding="utf-8"?>
<!-- Generator: Adobe Illustrator 16.0.0, SVG Export Plug-In . SVG Version: 6.00 Build 0)  -->
<!DOCTYPE svg PUBLIC "-//W3C//DTD SVG 1.1//EN" "http://www.w3.org/Graphics/SVG/1.1/DTD/svg11.dtd">
<svg version="1.1" id="Layer_1" xmlns="http://www.w3.org/2000/svg" xmlns:xlink="http://www.w3.org/1999/xlink" x="0px" y="0px"
	 width="512px" height="365.5px" viewBox="0 0 512 365.5" enable-background="new 0 0 512 365.5" xml:space="preserve">
<g>
	<path fill="none" stroke="#000000" stroke-width="2" stroke-linecap="round" stroke-linejoin="round" stroke-miterlimit="10" d="
		M91.136,340.199c1.618,2.99,3.98,5.137,6.86,6.992c2.719,1.754,4.983,4.207,7.481,6.313c2.504,2.11,5.391,2.956,8.695,3.144
		c6.066,0.346,12.139,0.686,18.188,1.406c2.868,0.342,5.821,0.486,8.695,0.473c5.65-0.024,11.266,0.507,16.893,0.72
		c6.161,0.231,12.278,1.542,18.441,1.849c4.237,0.211,8.51,0.288,12.813-0.281c3.548-0.473,7.127-1.008,10.732-1.192
		c3.507-0.181,7.006-0.979,10.497-0.908c4.709,0.097,9.401,0.798,14.092,1.371c3.313,0.406,6.65,0.742,9.979,1.054
		c5.699,0.53,11.386,1.228,17.148,1.127c6.53-0.111,12.991-0.684,19.469-1.47c2.597-0.315,5.262-0.598,7.922-0.651
		c7.264-0.146,14.51,0.246,21.761,0.525c0.854,0.033,1.738,0.165,2.56-0.245"/>
	<path fill="none" stroke="#000000" stroke-width="2" stroke-linecap="round" stroke-linejoin="round" stroke-miterlimit="10" d="
		M186.88,81.896c4.585-4.891,8.949-9.937,11.259-16.386c0.957-2.672,0.298-5.486,0.361-8.193c0.076-3.3,0.188-6.667-0.126-9.978
		c-0.733-7.715-0.711-15.532-3.037-23.045c-2.409-7.78-6.186-14.537-13.576-18.687c-3.661-2.056-7.637-3.185-11.778-3.286
		c-14.246-0.346-27.474,3.458-39.937,10.196c-7.25,3.919-10.904,10.581-13.516,17.941c-0.991,2.792-1.468,5.773-2.076,8.69
		c-0.324,1.554,0.365,2.973,1.007,4.346c2.099,4.486,5.115,7.434,10.478,8.056c4.98,0.577,9.919,0.061,14.86,0.412
		c2.056,0.146,4.102,0.463,6.145,0.757c3.276,0.471,5.343,2.959,7.638,4.908c3.492,2.964,6.61,6.365,10.061,9.382
		c1.952,1.707,2.465,4.413,4.515,6.088c4.618-3.313,8.002-7.776,12.249-11.385c1.94,2.058,3.086,4.242,3.158,6.874
		c0.104,3.87-1.023,5.128-4.854,5.35c-1.291,0.074-2.412,0.208-2.286,1.816c0.332,4.253-1.839,7.637-4.188,10.695
		c-3.34,4.352-6.911,8.644-11.484,11.776c-3.296,2.258-6.905,4.064-11.233,2.908c-1.593-0.425-2.989-0.916-3.569-2.596
		c-0.804-2.329-3.275-3.054-4.614-4.862"/>
	<path fill="none" stroke="#000000" stroke-width="2" stroke-linecap="round" stroke-linejoin="round" stroke-miterlimit="10" d="
		M74.497,305.383c0.251,3.992-0.198,7.65-4.083,10.006c-2.719,1.648-5.415,3.11-8.711,3.373c-1.845,0.148-2.478-0.27-2.601-2.111
		c-0.254-3.787,0.747-7.484,0.58-11.269c-0.167-3.78-1.388-5.118-5.152-5.118c-4.864,0-9.737,0.178-14.589-0.063
		c-3.263-0.162-6.563-0.377-9.743-1.438c-1.986-0.662-2.733-1.813-2.856-3.873c-0.175-2.914,0.68-5.752,0.137-8.724
		c-0.514-2.812-2.272-4.455-5.202-3.813c-3.854,0.844-6.925,2.928-9.216,6.136c-4.747,6.649-8.43,13.827-10.482,21.762
		c-2.208,8.532-2.227,16.896,3.353,24.285c4.444,5.886,10.578,9.644,17.373,12.305c6.9,2.703,14.031,4.113,21.498,4.177
		c6.186,0.051,12.331-0.412,18.421-1.182c6.316-0.797,12.648-1.679,18.73-3.922c3.634-1.341,6.245-3.95,9.102-6.205
		c1.617-1.277,1.718-3.684,1.133-5.916c-2.013-7.691-1.156-15.064,2.82-21.993c0.473-0.823,0.793-1.489,0.216-2.313
		c-0.096-0.137-0.324-0.206-0.505-0.246c-0.063-0.014-0.167,0.154-0.252,0.24"/>
	<path fill="none" stroke="#000000" stroke-width="2" stroke-linecap="round" stroke-linejoin="round" stroke-miterlimit="10" d="
		M303.872,360.68c-0.892-3.459-1.59-6.945-2.099-10.488c-0.478-3.334-0.933-6.754-0.311-9.963c0.549-2.828-0.036-5.677,0.922-8.545
		c0.545-1.632,0.239-4.06-0.238-6.332c-5.185,0-10.311,0.142-15.426-0.035c-6.434-0.225-12.679,0.756-18.967,1.974
		c-3.04,0.588-6.27,0.269-9.475-0.263c-2.854-0.473-5.795-0.813-8.667-1.258c-4.437-0.688-8.981,0.008-13.395-1.785
		c-2.344-0.952-5.459-0.549-8.109-0.086c-4.774,0.834-9.548,1.057-14.35,0.908c-2.73-0.086-5.436,0.161-8.217-0.344
		c-2.59-0.469-4.553-1.63-6.351-3.234c-2.092-1.869-4.194-2.754-7.197-2.69c-3.36,0.069-6.436-1.82-9.493-3.376
		c-6.232-3.173-12.273-6.85-19.181-8.477c-3.95-0.93-7.968-1.455-12.019-1.888c-5.3-0.565-10.588-0.289-15.879-0.459
		c-1.914-0.062-3.771,0.183-5.632,0.532"/>
	<path fill="none" stroke="#000000" stroke-width="2" stroke-linecap="round" stroke-linejoin="round" stroke-miterlimit="10" d="
		M319.744,275.175c0.344,0.81,0.987,1.16,1.768,1.581c6.973,3.753,14.365,5.488,22.295,5.668c6.15,0.141,12.317,0.549,18.44,1.405
		c2.356,0.33,4.771,0.235,7.169,0.495c5.957,0.643,11.945,1.186,17.918,1.484c5.617,0.28,11.275,1.267,16.877,0.527
		c3.103-0.408,6.179-0.059,9.225-0.445c5.286-0.67,10.582-0.432,15.878-0.457c1.285-0.008,2.553-0.14,3.872,0.414
		c0.966,0.403,2.26,0.213,3.296-0.434"/>
	<path fill="none" stroke="#000000" stroke-width="2" stroke-linecap="round" stroke-linejoin="round" stroke-miterlimit="10" d="
		M184.32,261.607c-0.558,2.113-0.434,4.311-0.162,6.388c0.247,1.88,2.192,2.823,3.781,3.514c1.129,0.49,2.367-0.22,3.045-1.448
		c0.111-0.203,0.5-0.371,0.479-0.514c-0.405-2.734,1.798-5.367,0.093-8.236c-0.864-1.453-0.802-3.16-0.527-5.106
		c0.554-3.915,0.501-8.011-0.118-12.192c3.097-3.431,6.175-7.142,9.595-10.504c1.742-1.712,1.754-3.883,1.844-5.699
		c0.229-4.586,2.661-8.06,4.752-11.769c5.534-9.813,11.516-19.389,15.629-29.947c1.65-4.235,2.164-8.764,3.554-13.066
		c1.942-6.011,4.604-11.774,6.158-17.915c0.894-3.532,1.396-7.124,1.85-10.745c0.813-6.489,0.365-13.222,2.632-19.417
		c1.273-3.481,1.978-6.929,2.495-10.533c0.335-2.341,1.976-4.201,3.264-6.155c4.94-7.49,4.438-12.588-0.827-19.663
		c-5.131-6.894-11.964-11.966-19.077-16.777c-6.391-4.322-13.466-6.163-20.798-7.583c-1.018-0.197-1.977-0.767-3.071-0.521"/>
	<path fill="none" stroke="#000000" stroke-width="2" stroke-linecap="round" stroke-linejoin="round" stroke-miterlimit="10" d="
		M272.384,270.313c4.658,0.631,9.228-0.392,13.832-0.621c5.687-0.285,11.353-1.137,17.168-0.315
		c4.562,0.644,8.429,2.297,12.289,4.476c1.117,0.631,2.603,1.172,3.804,0.991c5.164-0.768,10.259,0.25,15.368,0.429
		c5.802,0.203,11.604,0.678,17.407,1.01c6.059,0.346,12.112,0.72,18.177,1.009c7.852,0.375,15.7,0.733,23.55,1.092
		c2.979,0.138,6.007,0.015,8.961,0.421c5.613,0.773,11.292,0.594,16.914,1.4c3.34,0.479,6.768,0.422,9.963,1.654
		c2.423,0.934,4.789,1.881,7.003,3.441c2.258,1.594,5.229,2.202,7.89,3.079c8.232,2.713,16.331,5.792,24.535,8.571
		c8.075,2.734,16.217,5.304,24.597,6.81c6.052,1.089,12.197,2.011,18.416,1.625"/>
	<path fill="none" stroke="#000000" stroke-width="2" stroke-linecap="round" stroke-linejoin="round" stroke-miterlimit="10" d="
		M127.232,52.456c-0.203,1.961-1.153,3.709-1.625,5.61c-0.996,4.01-0.15,6.88,3.345,9.34c1.641,1.155,4.103,2.293,3.887,5.016
		c-0.309,3.896,1.409,8.103-2.72,11.357c-3.112,2.454-5.471,5.82-7.754,9.124c-1.545,2.238-2.138,4.78-2.279,7.427
		c-0.086,1.637-0.592,3.185-0.591,4.863c0.003,5.37,0.277,10.52,2.484,15.673c2.587,6.041,3.717,12.609,4.783,19.136
		c0.875,5.359,1.485,10.734,2.074,16.127c0.653,5.972,0.771,11.942,1.044,17.923c0.207,4.547,0.896,9.09,1.881,13.589
		c0.805,3.672,0.931,7.493,1.357,11.247"/>
	<path fill="none" stroke="#000000" stroke-width="2" stroke-linecap="round" stroke-linejoin="round" stroke-miterlimit="10" d="
		M230.656,162.279c5.058,3.898,7.335,9.414,8.671,15.368c1.453,6.476,1.929,13.097,1.507,19.7c-0.41,6.4-0.443,12.82-1.014,19.2
		c-0.496,5.547-0.905,11.113-1.577,16.633c-0.636,5.228-0.183,10.423-0.417,15.627c-0.211,4.692-0.771,9.373-0.514,14.082"/>
	<path fill="none" stroke="#000000" stroke-width="2" stroke-linecap="round" stroke-linejoin="round" stroke-miterlimit="10" d="
		M357.12,344.809c5.462,0,10.927,0.129,16.383-0.033c7.087-0.209,14.208-0.291,21.237-1.092c7.069-0.807,14.063-2.297,21.024-3.902
		c3.553-0.818,7.243-1.534,10.987-1.122c2.524,0.276,4.576,1.817,6.92,2.536c4.417,1.354,8.894,2.33,13.554,2.664
		c4.634,0.334,9.217,1.334,13.833,1.947c1.528,0.203,3.118,0.369,4.608,0.407c2.669,0.067,5.283,0.536,7.928,0.712
		c7.682,0.51,15.361,0.417,23.044,0.438c5.211,0.014,10.396-0.851,15.616-0.509"/>
	<path fill="none" stroke="#000000" stroke-width="2" stroke-linecap="round" stroke-linejoin="round" stroke-miterlimit="10" d="
		M133.632,199.015c-1.565,0.056-1.272,1.225-1.274,2.176c-0.013,4.778-0.197,9.567,0.041,14.333c0.327,6.58,0.84,13.158,1.528,19.71
		c0.674,6.418,1.603,12.813,2.546,19.2c0.545,3.689,1.363,7.337,2.004,11.016c0.13,0.743,0.019,1.532,0.019,2.3"/>
	<path fill="none" stroke="#000000" stroke-width="2" stroke-linecap="round" stroke-linejoin="round" stroke-miterlimit="10" d="
		M147.712,132.071c3.872,5.221,7.757,10.43,9.987,16.639c1.612,4.489,2.513,9.178,3.246,13.837
		c1.625,10.332,4.42,20.339,7.819,30.174c2.024,5.855,3.055,11.804,3.579,17.937c0.372,4.352,1.015,8.679,0.967,13.061
		c-0.009,0.805,0.12,1.518,1.026,1.792"/>
	<path fill="none" stroke="#000000" stroke-width="2" stroke-linecap="round" stroke-linejoin="round" stroke-miterlimit="10" d="
		M252.928,325.863c0.618-2.178,0.573-4.504,0.621-6.659c0.133-6.044,1.609-11.832,2.811-17.64
		c1.359-6.571,3.085-13.063,4.017-19.729c0.635-4.542,1.495-9.052,2.251-13.558c1.981-1.041,4.099-0.828,6.173-0.764
		c2.396,0.072,3.076,1.104,2.842,3.567c-0.219,2.298-0.304,4.625-0.416,6.915c-0.291,5.847-1.725,11.368-3.425,16.896
		c-2.272,7.39-3.864,14.959-5.3,22.541c-0.419,2.209-1.02,4.553-0.6,6.89c0.174,0.954-0.323,1.716-0.525,2.563"/>
	<path fill="none" stroke="#000000" stroke-width="2" stroke-linecap="round" stroke-linejoin="round" stroke-miterlimit="10" d="
		M210.176,123.624c-5.556,11.102-11.301,22.129-15.58,33.805c-4.829,13.176-9.214,26.511-13.315,39.933
		c-1.168,3.823-1.863,7.761-2.459,11.748c-0.666,4.45-0.268,9.134-2.428,13.335c-2.095,4.072-4.106,8.187-6.154,12.283"/>
	<path fill="none" stroke="#000000" stroke-width="2" stroke-linecap="round" stroke-linejoin="round" stroke-miterlimit="10" d="
		M352,348.902c0.961,4.349,0.179,5.433-4.605,6.666c-3.768,0.974-7.514,2.033-11.263,3.074c-0.282,0.078-0.538,0.504-0.769,0.475
		c-4.868-0.631-9.713,1.398-14.608,0.074c-1.192-0.322-2.552-0.125-3.826-0.034c-4.103,0.288-7.989-0.673-11.749-2.136
		c-0.629-0.244-1.188-0.385-1.818-0.438"/>
	<path fill="none" stroke="#000000" stroke-width="2" stroke-linecap="round" stroke-linejoin="round" stroke-miterlimit="10" d="
		M192.512,76.52c3.279,4.443,3.225,9.424,1.729,14.317c-2.5,8.177-5.088,16.355-8.243,24.293c-1.944,4.89-5.273,9.154-8.857,13.091
		c-0.687,0.755-1.474,1.401-1.269,2.57"/>
	<path fill="none" stroke="#000000" stroke-width="2" stroke-linecap="round" stroke-linejoin="round" stroke-miterlimit="10" d="
		M133.632,199.399c1.175,1.504,1.173,3.427,1.737,5.138c3.589,10.893,8.294,21.165,16.222,29.642
		c1.843,1.971,2.217,4.348,2.737,6.701c0.773,3.498,1.348,7.032,2.198,10.523c0.308,1.267,0.429,3.236-1.1,4.611
		c-1.998,1.798-3.47,4.069-4.927,6.343c-1.491,2.326-1.79,4.75-0.643,7.141c0.342,0.715,0.059,1.546,0.672,2.094"/>
	<path fill="none" stroke="#000000" stroke-width="2" stroke-linecap="round" stroke-linejoin="round" stroke-miterlimit="10" d="
		M261.632,271.335c-3.575-2.543-7.147-5.116-11.522-6.13c-3.028-0.702-6.087-1.123-9.21-1.337
		c-15.697-1.078-31.408-0.144-47.107-0.457c-0.425-0.009-0.932-0.231-1.28,0.243"/>
	<path fill="none" stroke="#000000" stroke-width="2" stroke-linecap="round" stroke-linejoin="round" stroke-miterlimit="10" d="
		M345.088,328.936c-0.469-3.513-3.683-3.433-5.916-3.979c-4.239-1.037-8.777-0.496-13.015-1.698
		c-4.347-1.231-7.434,1.168-10.772,3.104c-2.973,1.725-5.604,4.027-9.186,4.736c-1.135,0.227-2.246,0.194-3.352,0.396"/>
	<path fill="none" stroke="#000000" stroke-width="2" stroke-linecap="round" stroke-linejoin="round" stroke-miterlimit="10" d="
		M131.328,280.039c-1.071,1.365-2.649,2.05-4.112,2.784c-11.994,6.017-21.595,14.801-29.691,25.366
		c-0.509,0.666-1.183,1.203-1.78,1.802"/>
	<path fill="none" stroke="#000000" stroke-width="2" stroke-linecap="round" stroke-linejoin="round" stroke-miterlimit="10" d="
		M162.048,98.792c4.811,9.384,10.577,18.33,13.252,28.688c0.176,0.685,0.999,0.896,0.828,1.648"/>
	<path fill="none" stroke="#000000" stroke-width="2" stroke-linecap="round" stroke-linejoin="round" stroke-miterlimit="10" d="
		M94.977,309.225c0.003-4.354,1.58-8.394,2.644-12.522c0.151-0.586,0.212-1.259,0.463-1.798c0.463-0.998,1.139-2.098,0.67-3.059
		c-0.721-1.475-2.314-0.728-3.522-0.769c-2.813-0.095-5.635,0.057-8.445-0.068c-1.308-0.059-1.93,0.325-2.33,1.567
		c-1.185,3.677-1.688,7.472-2.363,11.256c-0.821,4.602,0.332,9.333-1.197,13.839"/>
	<path fill="none" stroke="#000000" stroke-width="2" stroke-linecap="round" stroke-linejoin="round" stroke-miterlimit="10" d="
		M179.2,273.127c0.256-2.304,0.499-4.609,0.772-6.911c0.197-1.663-0.661-2.809-1.795-3.842c-0.756-0.688-1.72-0.659-2.551-0.465
		c-0.993,0.229-0.606,1.272-0.806,1.993c-0.655,2.371-0.52,4.777-0.469,7.177c0.065,3.038,1.77,3.864,4.593,2.304"/>
	<path fill="none" stroke="#000000" stroke-width="2" stroke-linecap="round" stroke-linejoin="round" stroke-miterlimit="10" d="
		M157.185,251.879c4.897-1.262,9.922-0.966,14.84-0.646c4.303,0.278,8.8,0.259,12.823,2.41c0.398,0.213,1.009,0.029,1.521,0.029"/>
	<path fill="none" stroke="#000000" stroke-width="2" stroke-linecap="round" stroke-linejoin="round" stroke-miterlimit="10" d="
		M148.736,266.473c-8.713,1.209-17.474,2.334-25.313,6.711c-2.188,1.223-4.508,2.563-5.664,5.063"/>
	<path fill="none" stroke="#000000" stroke-width="2" stroke-linecap="round" stroke-linejoin="round" stroke-miterlimit="10" d="
		M84.736,263.398c1.969,0.935,2.57,2.965,3.541,4.635c1.126,1.938,1.97,4.05,2.847,6.123c1.033,2.443,2.64,4.416,4.609,6.152
		c0.637,0.561,1.393,1.084,1.548,2.033"/>
	<path fill="none" stroke="#000000" stroke-width="2" stroke-linecap="round" stroke-linejoin="round" stroke-miterlimit="10" d="
		M152.32,271.848c-1.374-0.213-2.613,0.213-3.842,0.764c-4.602,2.061-9.228,4.07-13.813,6.166c-1.516,0.691-2.943,1.488-4.625,0.51
		c-0.191-0.111-0.504-0.03-0.759-0.014c-5.905,0.404-11.762-0.647-17.665-0.572c-2.72,0.035-5.245,0.408-7.683,1.587
		c-3.502,1.692-7.283,2.584-11.014,3.558c-3.92,1.022-5.342,2.875-4.854,6.946"/>
	<path fill="none" stroke="#000000" stroke-width="2" stroke-linecap="round" stroke-linejoin="round" stroke-miterlimit="10" d="
		M353.536,338.919c2.015-0.698,2.44-2.286,2.021-4.09c-0.894-3.843-2.109-5.236-4.839-5.351c-3.331-0.14-6.66-0.263-9.987-0.431
		c-2.079-0.104-3.886-0.948-5.863-1.26c-2.846-0.448-5.65-0.231-8.467-0.39"/>
	<path fill="none" stroke="#000000" stroke-width="2" stroke-linecap="round" stroke-linejoin="round" stroke-miterlimit="10" d="
		M60.161,272.104c-0.123-1.276,0.18-2.56-0.236-3.847c-0.779-2.411-2.054-2.891-4.125-1.544c-1.772,1.153-3.087,2.792-4.28,4.412
		c-1.865,2.532-4.316,4.21-7.015,5.501c-0.975,0.466-2.777,0.325-2.925,1.38c-0.383,2.723-2.581,4.992-1.894,7.92
		c0.402,1.713,0.849,3.415,1.275,5.121"/>
	<path fill="none" stroke="#000000" stroke-width="2" stroke-linecap="round" stroke-linejoin="round" stroke-miterlimit="10" d="
		M70.4,262.889c2.133,1.051,4.327,0.726,6.382-0.05c1.771-0.667,3.384-1.752,4.945-2.587c3.446,1.438,2.325,4.605,2.964,6.999
		c0.891,3.339,0.423,6.813,0.602,10.226c0.081,1.526-0.826,2.854-0.557,4.354"/>
	<path fill="none" stroke="#000000" stroke-width="2" stroke-linecap="round" stroke-linejoin="round" stroke-miterlimit="10" d="
		M190.464,244.199c-0.512-0.213-1.246-0.278-1.503-0.662c-4.174-6.229-10.062-8.892-17.442-8.576
		c-0.163,0.007-0.341-0.319-0.511-0.49"/>
	<path fill="none" stroke="#000000" stroke-width="2" stroke-linecap="round" stroke-linejoin="round" stroke-miterlimit="10" d="
		M171.776,235.239c-1.248,4.696-4.001,8.591-6.642,12.554c-0.638,0.957-1.388,1.915-1.294,3.19"/>
	<path fill="none" stroke="#000000" stroke-width="2" stroke-linecap="round" stroke-linejoin="round" stroke-miterlimit="10" d="
		M162.561,167.399c3.083,0.901,5.983,2.292,9.193,2.931c2.098,0.418,4.117,0.368,6.167,0.371c3.84,0.007,7.68-0.144,11.52-0.229"/>
	<path fill="none" stroke="#000000" stroke-width="2" stroke-linecap="round" stroke-linejoin="round" stroke-miterlimit="10" d="
		M41.473,277.734c-0.341-0.64-0.814-0.098-1.005,0.029c-4.075,2.713-8.786,4.109-13.075,6.37"/>
	<path fill="none" stroke="#000000" stroke-width="2" stroke-linecap="round" stroke-linejoin="round" stroke-miterlimit="10" d="
		M72.96,314.087c5.704,2.218,10.764,5.321,14.622,10.218c1.061,1.346,1.579,3.082,3.042,4.118"/>
	<path fill="none" stroke="#000000" stroke-width="2" stroke-linecap="round" stroke-linejoin="round" stroke-miterlimit="10" d="
		M161.536,257.255c-2.259,3.063-1.659,6.841-2.488,10.259c-0.577,2.377-0.582,4.879-2.657,6.633
		c-3.206-0.709-3.768-1.484-3.841-4.347c-0.129-5.041,3.234-7.479,6.938-9.729"/>
	<path fill="none" stroke="#000000" stroke-width="2" stroke-linecap="round" stroke-linejoin="round" stroke-miterlimit="10" d="
		M149.249,68.583c-2.366,0.302-4.489-1.177-6.921-0.833c-1.555,0.22-2.994,0.363-4.087,1.601"/>
	<path fill="none" stroke="#000000" stroke-width="2" stroke-linecap="round" stroke-linejoin="round" stroke-miterlimit="10" d="
		M141.568,72.936c0,3.67,0.704,4.249,4.084,3.04c1.445-0.517,2.885-1.204,3.852-2.528"/>
	<path fill="none" stroke="#000000" stroke-width="2" stroke-linecap="round" stroke-linejoin="round" stroke-miterlimit="10" d="
		M343.296,348.393c3.328,0,6.657,0.051,9.983-0.018c2.775-0.059,4.394-2.674,3.311-5.354c-0.726-1.797-2.284-3.092-3.677-4.223
		c-0.739-0.601-2.745-0.084-3.957,0.44c-2.021,0.875-4.257-0.181-6.172,0.959"/>
	<path fill="none" stroke="#000000" stroke-width="2" stroke-linecap="round" stroke-linejoin="round" stroke-miterlimit="10" d="
		M167.424,262.375c0.506,0.962,0.978,1.916,0.776,3.074c-0.362,2.085,0.522,4.066,0.576,6.14c0.037,1.441-0.558,2.521-1.413,3.261
		c-0.771,0.668-2.36,0.813-2.937-0.228c-0.84-1.517-1.875-2.931-1.467-5.101c0.563-2.994,1.016-5.801,3.96-7.391
		c0.97-0.523,0.738-1.607,1.273-2.316"/>
	<path fill="none" stroke="#000000" stroke-width="2" stroke-linecap="round" stroke-linejoin="round" stroke-miterlimit="10" d="
		M62.208,275.432c-3.806-0.423-7.924,2.547-9.211,6.657c-0.291,0.929-0.517,1.876-0.773,2.813"/>
	<path fill="none" stroke="#000000" stroke-width="2" stroke-linecap="round" stroke-linejoin="round" stroke-miterlimit="10" d="
		M188.928,243.943c-3.354,5.031-4.267,8.836,1.28,13.568"/>
	<path fill="none" stroke="#000000" stroke-width="2" stroke-linecap="round" stroke-linejoin="round" stroke-miterlimit="10" d="
		M137.472,85.735c0.688,1.79,1.175,3.642,2.001,5.398c0.865,1.84,1.661,2.684,3.919,1.858c1.945-0.711,3.936-1.33,5.927-1.991
		c-0.537-1.824-1.352-3.289-2.626-4.502c-1.236-1.178-2.281-2.426-1.559-4.353c0.332-0.885-0.555-1.251-1.006-1.786"/>
	<path fill="none" stroke="#000000" stroke-width="2" stroke-linecap="round" stroke-linejoin="round" stroke-miterlimit="10" d="
		M183.296,73.447c1.934,2.581,2.122,5.776,3.126,8.685c0.31,0.896-0.157,1.393-0.311,2.067"/>
	<path fill="none" stroke="#000000" stroke-width="2" stroke-linecap="round" stroke-linejoin="round" stroke-miterlimit="10" d="
		M190.976,266.729c-1.475-2.937-3.968-4.679-6.912-5.89"/>
	<path fill="none" stroke="#000000" stroke-width="2" stroke-linecap="round" stroke-linejoin="round" stroke-miterlimit="10" d="
		M184.32,269.543c-0.532,1.313-0.538,2.875-1.795,3.837c-1.096,0.838-2.216,1.185-3.325,0.003"/>
	<path fill="none" stroke="#000000" stroke-width="2" stroke-linecap="round" stroke-linejoin="round" stroke-miterlimit="10" d="
		M132.096,82.664c0.79,2.781,1.132,2.934,5.888,2.558c2.183-0.172,4.329-0.539,6.4-1.278"/>
	<path fill="none" stroke="#000000" stroke-width="2" stroke-linecap="round" stroke-linejoin="round" stroke-miterlimit="10" d="
		M69.121,266.473c-0.592-0.857-1.184-1.716-1.903-2.758c-2.349,1.344-4.703,2.689-7.057,4.036"/>
	<path fill="none" stroke="#000000" stroke-width="2" stroke-linecap="round" stroke-linejoin="round" stroke-miterlimit="10" d="
		M48.896,280.551c-0.004,1.725,0.071,3.443-0.486,5.129c-0.201,0.607-0.664,0.564-1.05,0.76"/>
	<path fill="none" stroke="#000000" stroke-width="2" stroke-linecap="round" stroke-linejoin="round" stroke-miterlimit="10" d="
		M168.96,272.871c2.773,2.271,3.427,2.359,5.632,0.77"/>
	<path fill="none" stroke="#000000" stroke-width="2" stroke-linecap="round" stroke-linejoin="round" stroke-miterlimit="10" d="
		M162.561,271.848c-0.913,0.563-0.862,1.983-2.049,2.305c-1.118,0.097-1.046-1.196-1.791-1.536"/>
	<path fill="none" stroke="#000000" stroke-width="2" stroke-linecap="round" stroke-linejoin="round" stroke-miterlimit="10" d="
		M52.993,281.063c-2.187-0.908-4.387-1.48-6.656-0.256"/>
</g>
</svg>
