<?xml version="1.0" encoding="utf-8"?>
<!-- Generator: Adobe Illustrator 16.0.0, SVG Export Plug-In . SVG Version: 6.00 Build 0)  -->
<!DOCTYPE svg PUBLIC "-//W3C//DTD SVG 1.1//EN" "http://www.w3.org/Graphics/SVG/1.1/DTD/svg11.dtd">
<svg version="1.1" id="Layer_1" xmlns="http://www.w3.org/2000/svg" xmlns:xlink="http://www.w3.org/1999/xlink" x="0px" y="0px"
	 width="512px" height="325.451px" viewBox="0 0 512 325.451" enable-background="new 0 0 512 325.451" xml:space="preserve">
<g>
	<path fill="none" stroke="#000000" stroke-width="2" stroke-linecap="round" stroke-linejoin="round" stroke-miterlimit="10" d="
		M240.384,299.496c0.598,0.768,1.232,1.51,1.785,2.309c1.593,2.303,3.543,4.081,6.408,4.604c-1.794,6.559,1.638,9.613,6.92,11.234
		c5.659,1.738,11.521,2.51,17.399,3.099c3.666,0.368,7.346,0.688,10.998,1.11c5.881,0.68,11.785,0.99,17.678,1.396
		c13.633,0.94,27.301,0.546,40.956,0.555c5.033,0.003,10.069-0.288,15.104-0.216c12.289,0.176,24.586,0.258,36.861,0.8
		c15.699,0.692,31.411,1.46,47.102,0.835c11.098-0.441,22.233,0.391,33.276-0.962c4.373-0.534,8.719-0.5,13.063-0.384
		c5.195,0.141,10.269-0.583,15.362-1.333c3.188-0.47,6.193,0.086,8.959,1.786"/>
	<path fill="none" stroke="#000000" stroke-width="2" stroke-linecap="round" stroke-linejoin="round" stroke-miterlimit="10" d="
		M55.552,101.864c-3.698,4.695-6.373,10.035-9.448,15.118c-6.23,10.301-12.384,20.668-17.625,31.504
		c-5.957,12.315-11.762,24.716-16.517,37.576c-0.555,1.502-1.488,2.899-3.194,3.967c-6.138,3.843-6.312,5.316-4.595,12.168
		c0.408,1.63,0.711,2.693-0.529,4.165c-2.323,2.755-2.899,5.721-1.482,9.476c1.586,4.203,3.083,8.351,5.777,11.977
		c3.521,4.739,8.756,7.147,13.866,9.371c8.315,3.619,16.943,6.527,25.819,8.518c6.151,1.379,12.311,2.803,18.681,2.875
		c1.772,0.02,3.29,1.039,4.865,1.764c5.359,2.469,10.793,4.766,16.389,6.642c4.234,1.416,6.591,0.66,8.698-2.543"/>
	<path fill="none" stroke="#000000" stroke-width="2" stroke-linecap="round" stroke-linejoin="round" stroke-miterlimit="10" d="
		M298.24,208.104c0.512-4.778,0.822-9.589,1.58-14.329c1.381-8.644,3.021-17.246,4.564-25.862
		c1.102-6.146,2.442-12.258,3.273-18.439c1.23-9.167,1.815-18.359,0.904-27.649c-0.637-6.489-1.236-12.978-3.217-19.172
		c-3.271-10.235-9.205-18.995-16.07-27.153c-5.848-6.951-12.016-13.66-19.279-19.092c-4.53-3.388-7.251-7.823-10.223-12.355
		c-6.286-9.583-13.161-18.753-20.652-27.451c-3.395-3.94-6.845-7.814-10.48-11.538c-2.051-2.101-4.36-2.803-7.203-2.82
		c-8.432-0.052-16.745,1.055-25.098,2.003c-6.924,0.786-13.816,1.783-20.721,2.68c-12.601,1.637-25.101,3.76-36.875,8.908
		c-8.618,3.767-16.826,8.292-24.538,13.629c-8.485,5.874-16.716,12.168-23.748,19.751c-2.963,3.196-6.239,5.514-10.058,7.376
		c-2.362,1.153-4.509,2.726-6.417,4.572c-6.162,5.962-12.154,12.021-15.916,19.946c-2.791,5.878-3.337,11.885-2.278,18.2
		c1.352,8.057,5.436,14.861,9.432,21.79c4.957,8.594,9.41,17.472,13.928,26.311c3.841,7.513,7.919,14.887,13.206,21.575
		c5.131,6.492,11.583,10.47,19.503,12.543c6.781,1.776,13.539,3.757,20.5,4.487c9.638,1.01,18.815-0.867,27.114-6.092
		c3.161-1.991,6.158-4.243,9.23-6.377"/>
	<path fill="none" stroke="#000000" stroke-width="2" stroke-linecap="round" stroke-linejoin="round" stroke-miterlimit="10" d="
		M472.32,201.192c-2.476-1.792-5.146-3.369-7.382-5.422c-4.241-3.896-9.092-4.187-14.384-3.305c-9.2,1.534-18.42,2.977-27.648,4.338
		c-2.268,0.334-4.603,0.235-6.906,0.288c-19.625,0.452-39.257-0.009-58.878,0.359c-8.198,0.154-16.441,0.322-24.59,1.89
		c-8.287,1.595-16.271,4.029-24.056,7.222c-1.349,0.554-2.846,0.836-4.069,1.58c-3.173,1.924-6.351,0.225-9.494,0.156
		c-5.638-0.122-11.263-0.672-16.897-0.951c-11.088-0.55-22.187-0.155-33.28-0.27c-1.017-0.011-2.122-0.178-2.801,0.781
		c-1.236,1.748-3.093,1.61-4.878,1.793c-1.031,0.105-2.11,0.172-3.059,0.537c-1.428,0.548-2.394,1.474-2.361,3.292
		c0.041,2.303-1.189,4.541-0.469,6.911"/>
	<path fill="none" stroke="#000000" stroke-width="2" stroke-linecap="round" stroke-linejoin="round" stroke-miterlimit="10" d="
		M101.376,248.808c2.949,2.336,3.004,6.338,5.195,9.129c0.188,0.239-0.212,1.345-0.612,1.578c-3.277,1.914-3.726,5.395-4.827,8.496
		c-1.761,4.961-2.452,10.137-2.541,15.355c-0.188,11.01,4.429,19.713,13.299,26.087c8.838,6.353,19.007,9.687,29.427,12.293
		c8.814,2.206,17.772,3.719,26.874,3.551c11.568-0.214,22.786-2.405,33.55-6.829c5.875-2.414,11.378-5.406,16.679-8.912
		c2.934-1.938,5.1-4.41,5.951-7.539c0.717-2.639,1.059-5.596,0.613-8.403c-0.573-3.616-0.944-7.294-2.268-10.757
		c-0.704-1.84,0.301-3.571,0.285-5.377c-0.062-6.571-0.209-13.148,0.02-19.711c0.326-9.34,0.759-18.696,2.551-27.898
		c0.896-4.597,2.576-8.482,7.868-10.098c6.252-1.909,12.292-4.491,18.977-4.499c2.709-0.003,2.855,0.044,2.274,2.807
		c-1.241,5.902-3.174,11.623-4.818,17.419c-2.198,7.747-4.297,15.522-6.396,23.297c-0.234,0.864,0.013,1.764,0.492,2.555"/>
	<path fill="none" stroke="#000000" stroke-width="2" stroke-linecap="round" stroke-linejoin="round" stroke-miterlimit="10" d="
		M312.576,250.856c4.92,4.005,10.658,5.537,16.893,5.931c6.328,0.4,12.639,1.107,18.946,1.761
		c7.556,0.781,15.167,1.376,22.512,3.382c5.41,1.478,10.632,3.69,16.151,4.764c11.583,2.254,23.006,5.447,34.813,6.394
		c7.061,0.565,14.152,0.672,21.245,0.574c6.91-0.095,13.823-0.031,20.735-0.017c5.466,0.012,10.965-0.439,16.377,0.547
		c4.195,0.765,8.283,2.02,12.545,2.57c5.122,0.664,10.201,1.647,15.365,2.014c0.859,0.063,1.707,0.326,2.561,0.498"/>
	<path fill="none" stroke="#000000" stroke-width="2" stroke-linecap="round" stroke-linejoin="round" stroke-miterlimit="10" d="
		M266.496,54.248c-0.26,1.723,0.928,2.99,1.593,4.323c7.946,15.93,13.052,32.797,16.229,50.222c1.5,8.227,1.66,16.696-0.983,24.795
		c-3.454,10.581-9.075,19.616-19.653,24.598c-2.924,1.376-6.006,2.219-9.218,2.275c-9.045,0.159-17.653,2.124-25.855,5.915
		c-0.173,0.08-0.336,0.184-0.513,0.253c-2.461,0.975-5.88,0.917-7.247,2.938c-2.119,3.132-3.056,7.058-4.534,10.631
		c-2.487,6.018-3.674,12.393-5.066,18.7c-0.551,2.495-0.561,5.109-0.816,7.669"/>
	<path fill="none" stroke="#000000" stroke-width="2" stroke-linecap="round" stroke-linejoin="round" stroke-miterlimit="10" d="
		M239.104,64.232c0.532,7.738,3.523,14.68,6.899,21.51c1.736,3.511,1.901,7.185,1.064,11.008c-1.135,5.181-1.57,10.572-3.225,15.568
		c-2.165,6.541-7.09,11.374-11.876,16.2c-3.216,3.242-7.341,4.732-11.271,6.672c-0.924,0.457-1.559-0.259-2.327-0.047"/>
	<path fill="none" stroke="#000000" stroke-width="2" stroke-linecap="round" stroke-linejoin="round" stroke-miterlimit="10" d="
		M167.68,76.008c1.653-0.061,2.969,0.885,4.341,1.559c9.045,4.441,18.345,8.363,26.938,13.726c2.561,1.599,4.351,3.649,6.125,5.942
		c3.632,4.694,8.016,8.708,12.292,12.789c5.616,5.359,6.367,11.819,5.125,18.984c-0.567,3.271-2.955,5.703-5.245,6.706
		c-7.473,3.274-13.063,9.265-20.144,12.986c-5.51,2.896-10.776,6.33-16.891,7.938c-0.617,0.162-1.103,0.132-1.318,1.026
		c-1.211,5.046-4.251,9.083-7.695,12.757c-1.671,1.784-2.209,3.664-2.278,5.939c-0.04,1.332,0.429,2.193,1.56,2.828
		c1.167,0.655,1.871-0.184,2.551-0.795c2.726-2.452,4.492-5.613,6.477-8.647c2.084-3.188,3.778-6.908,8.078-8.215
		c1.445,0.888,1.547,2.568,1.55,4.079c0.012,6.829,0.387,13.678-0.519,20.474c-0.258,1.938,1.033,3.019,2.144,3.464
		c1.606,0.644,2.516,2.096,4.045,2.686"/>
	<path fill="none" stroke="#000000" stroke-width="2" stroke-linecap="round" stroke-linejoin="round" stroke-miterlimit="10" d="
		M466.432,272.872c1.192-24.935,4.647-49.661,6.618-74.619c5.766,0.536,11.228,1.042,16.864,1.566
		c-0.767,25.058-4.432,49.759-6.586,74.589"/>
	<path fill="none" stroke="#000000" stroke-width="2" stroke-linecap="round" stroke-linejoin="round" stroke-miterlimit="10" d="
		M199.424,254.952c3.336,2.698,3.229,6.21,1.455,9.427c-2.818,5.109-6.709,9.387-12.221,11.788
		c-1.561,0.681-3.277,0.694-4.589-0.739c-4.502-4.925-7.931-10.227-6.439-17.41c0.392-1.888,1.021-3.898-0.719-5.64
		c-2.604-2.604-4.11-2.86-7.702-1.281c-2.321,1.02-4.455,2.363-6.678,3.545c-3.562,1.893-7.537,2.111-11.485,1.774
		c-0.757-0.064-1.548-0.044-2.31-0.183"/>
	<path fill="none" stroke="#000000" stroke-width="2" stroke-linecap="round" stroke-linejoin="round" stroke-miterlimit="10" d="
		M170.496,76.52c-0.395-5.5-2.342-10.614-4.437-15.581c-2.511-5.953-5.464-11.724-10.129-16.445
		c-4.347-4.4-9.677-6.326-15.645-6.576c-3.535-0.148-5.918,2.157-7.935,4.809c-1.166,1.533-2.262,3.108-3.071,4.865"/>
	<path fill="none" stroke="#000000" stroke-width="2" stroke-linecap="round" stroke-linejoin="round" stroke-miterlimit="10" d="
		M88.32,52.2c2.263,0.606,4.112-0.843,6.129-1.342c7.416-1.834,14.882-3.084,22.543-3.016c3.583,0.032,7.194-0.271,10.746,0.067
		c6.182,0.588,12.221,1.759,17.19,6.045c1.705,1.471,2.989,3.104,3.913,5.164c2.601-0.141,5.224,0.301,7.835,0.999
		c2.569,0.686,4.59,2.196,5.83,4.401c1.91,3.396,3.708,6.872,4.705,10.71c0.42,1.62-0.091,3.202-0.67,4.304
		c-1.926,3.668-4.863,6.445-9.357,6.391c-1.76-0.021-2.44,0.793-2.796,2.122c-1.561,5.815-1.258,11.465,0.941,17.17
		c2.628,6.819,7.209,12.321,11.338,18.144c3.028,4.27,6.188,8.452,8.68,13.071c1.184,2.195,1.214,4.876,2.828,6.905"/>
	<path fill="none" stroke="#000000" stroke-width="2" stroke-linecap="round" stroke-linejoin="round" stroke-miterlimit="10" d="
		M83.456,156.136c-1.261,0.404-1.159,1.638-1.526,2.564c-2.21,5.576-5.137,10.707-8.947,15.375
		c-5.514,6.755-9.302,14.669-14.331,21.761c-0.991,1.398-1.933,2.818-3.148,4.156c0.616,1.113,1.829,1.435,2.869,1.959
		c7.917,3.992,15.788,8.026,23.36,12.697c5.1,3.146,10.846,5.249,16.321,7.778c1.23,0.568,2.58,0.901,3.322,2.189"/>
	<path fill="none" stroke="#000000" stroke-width="2" stroke-linecap="round" stroke-linejoin="round" stroke-miterlimit="10" d="
		M169.728,208.616c-2.272-3.748-5.399-6.591-9.212-8.712c-0.203-0.113-0.346-0.334-0.566-0.554c-1.829,1.054-1.333,3.114-1.98,4.665
		c-0.122,0.291,0.073,0.707-0.031,1.012c-1.663,4.881-1.341,4.985-6.129,3.328c-5.963-2.063-5.496-0.624-6.357,3.598
		c-0.652,3.197-0.839,6.485-1.337,9.717c-0.859,5.563-1.248,6.214-6.643,6.658"/>
	<path fill="none" stroke="#000000" stroke-width="2" stroke-linecap="round" stroke-linejoin="round" stroke-miterlimit="10" d="
		M106.24,260.072c1.212,2.693,2.518,5.311,4.281,7.73c0.838,1.15,0.784,2.909,1.374,4.29c3.028,7.089,7.431,13.161,13.333,18.08
		c2.596-1.835,3.395-4.371,1.97-6.786c-1.911-3.236-4.118-6.3-6.074-9.514c-0.55-0.903-1.449-1.645-1.572-2.794"/>
	<path fill="none" stroke="#000000" stroke-width="2" stroke-linecap="round" stroke-linejoin="round" stroke-miterlimit="10" d="
		M142.848,186.6c-1.11,5.802-2.427,11.575-3.265,17.417c-0.729,5.077-0.812,10.243-1.383,15.346
		c-0.326,2.902,0.039,5.872-0.952,8.72c-0.424,1.221,0.504,2.252,0.991,3.317c0.743,1.626,1.918,3.147,1.441,5.027
		c-3.857,1.615-6.322-0.482-8.89-2.693c-2.937-2.529-3.428-2.41-6.358,0.497c-0.386,0.383-0.57,0.97-1.035,1.289
		c-1.615-0.302-2.12-1.282-2.564-2.328"/>
	<path fill="none" stroke="#000000" stroke-width="2" stroke-linecap="round" stroke-linejoin="round" stroke-miterlimit="10" d="
		M117.504,261.096c5.973,1.622,11.999,3.079,17.896,4.942c2.466,0.778,4.794,1.7,7.447,1.769c2.271,0.06,5.481-2.195,5.32-4.402
		c-0.139-1.902-1.755-3.189-3.3-3.766c-4.004-1.488-7.567-3.824-11.45-5.546c-4.773-2.117-9.777-3.468-14.64-5.265
		c-0.197-0.073-0.504,0.15-0.76,0.236"/>
	<path fill="none" stroke="#000000" stroke-width="2" stroke-linecap="round" stroke-linejoin="round" stroke-miterlimit="10" d="
		M227.328,167.4c0.597,3.226-0.994,6.05-1.862,8.939c-2.274,7.567-5.524,14.78-8.619,22.043c-1.366,3.206-2.575,6.479-3.854,9.722"
		/>
	<path fill="none" stroke="#000000" stroke-width="2" stroke-linecap="round" stroke-linejoin="round" stroke-miterlimit="10" d="
		M274.176,228.84c-4.185,2.646-7.599,6.213-11.25,9.488c-4.631,4.155-9.323,8.314-12.999,13.347
		c-2.42,3.313-4.534,6.966-6.089,10.752c-1.081,2.634-1.39,5.761-1.32,8.65c0.146,6.065,0.81,12.116,1.179,18.179
		c0.227,3.73-1.687,6.762-3.632,9.686c-0.419,0.631-1.616,0.896-2.501,1.037c-4.171,0.662-8.358,1.224-12.54,1.82"/>
	<path fill="none" stroke="#000000" stroke-width="2" stroke-linecap="round" stroke-linejoin="round" stroke-miterlimit="10" d="
		M190.464,189.928c-0.583,2.464,1.037,4.483,1.933,6.332c4.655,9.6,8.143,19.657,12.147,29.508"/>
	<path fill="none" stroke="#000000" stroke-width="2" stroke-linecap="round" stroke-linejoin="round" stroke-miterlimit="10" d="
		M209.408,140.52c4.279,2.659,7.983,5.961,9.127,11.028c0.83,3.677,0.761,7.542-0.435,11.241c-0.522,1.616-3.993,3.977-5.874,3.809
		c-3.501-0.313-5.764,2.151-6.18,6.175c-0.54,5.221-0.55,10.529-2.044,15.611c-0.875,2.976-2.042,5.865-3.815,8.454
		c-1.127,1.647-2.644,1.767-3.826,0.25c-1.239-1.591-1.659-3.724-0.941-5.325c2.581-5.763,2.809-11.867,3.216-17.963
		c0.193-2.895,0.189-5.801,0.274-8.703"/>
	<path fill="none" stroke="#000000" stroke-width="2" stroke-linecap="round" stroke-linejoin="round" stroke-miterlimit="10" d="
		M188.16,186.6c-1.6-1.1-3.074-0.374-4.328,0.544c-2.051,1.501-4.05,3.105-5.88,4.864c-1.509,1.45-3.095,1.507-4.895,0.99
		c-0.259-0.075-0.507-0.197-0.77-0.25c-3.332-0.673-4.193-0.047-4.064,3.322c0.108,2.822,0.412,5.643,0.786,8.443
		c0.095,0.712,0.284,1.273-0.304,1.798"/>
	<path fill="none" stroke="#000000" stroke-width="2" stroke-linecap="round" stroke-linejoin="round" stroke-miterlimit="10" d="
		M178.432,94.184c4.535,6.293,7.087,13.412,8.109,21.003c0.535,3.975,2.154,6.184,6.226,6.409c0.52,0.028,1.025,0.322,1.537,0.492"
		/>
	<path fill="none" stroke="#000000" stroke-width="2" stroke-linecap="round" stroke-linejoin="round" stroke-miterlimit="10" d="
		M57.088,282.344c-2.043,0.532-4.086,1.063-6.401,1.667c-1.796-6.222-3.578-12.395-5.417-18.76
		c-4.204,1.463-8.384,2.917-12.738,4.433c2.058,6.137,4.057,12.098,6.082,18.135c-1.473,1.5-4.137,1.039-5.462,2.975"/>
	<path fill="none" stroke="#000000" stroke-width="2" stroke-linecap="round" stroke-linejoin="round" stroke-miterlimit="10" d="
		M222.208,280.296c-2.396-2.374-3.404-5.68-5.599-8.221c-2.57-2.978-4.889-6.171-7.938-8.784c-3.381,2.441-6.248,5.404-9.75,7.549
		c-0.829,0.508-1.566,1.076-2.569,0.496"/>
	<path fill="none" stroke="#000000" stroke-width="2" stroke-linecap="round" stroke-linejoin="round" stroke-miterlimit="10" d="
		M103.168,224.744c-3.921,0.145-6.257,2.694-8.167,5.648c-3.724,5.76-5.805,12.181-6.592,18.938
		c-0.287,2.46,0.585,5.011,1.446,7.414"/>
	<path fill="none" stroke="#000000" stroke-width="2" stroke-linecap="round" stroke-linejoin="round" stroke-miterlimit="10" d="
		M179.456,228.584c-0.839,1.265,0.243,2.247,0.532,3.322c1.131,4.199,2.341,8.376,3.568,12.725
		c3.479-1.169,6.907-2.321,10.485-3.524c-1.708-5.124-3.321-9.963-4.981-14.945c2.139-0.741,3.911-2.244,6.269-2.186"/>
	<path fill="none" stroke="#000000" stroke-width="2" stroke-linecap="round" stroke-linejoin="round" stroke-miterlimit="10" d="
		M139.52,268.008c0.197,6.244-0.36,6.352-6.132,5.068c-7.109-1.58-14.529-1.895-21.268-5.051c-0.28-0.133-0.675-0.019-1.016-0.019"
		/>
	<path fill="none" stroke="#000000" stroke-width="2" stroke-linecap="round" stroke-linejoin="round" stroke-miterlimit="10" d="
		M123.392,235.496c4.098,3.905,8.652,7.177,13.556,10.005c3.231,1.863,6.368,3.917,8.962,6.645c3.085,3.244,3.325,3.861,0.266,7.415
		"/>
	<path fill="none" stroke="#000000" stroke-width="2" stroke-linecap="round" stroke-linejoin="round" stroke-miterlimit="10" d="
		M115.712,236.008c-3.585,1.954-4.143,2.71-3.252,6.896c0.596,2.801,0.495,4.643-2.612,5.716c-2.095,0.723-1.756,3.052-2.031,4.803
		c-0.205,1.299,0.017,2.667-0.808,3.833"/>
	<path fill="none" stroke="#000000" stroke-width="2" stroke-linecap="round" stroke-linejoin="round" stroke-miterlimit="10" d="
		M136.96,228.328c-1.39-0.316-1.846-1.678-2.496-2.605c-2.608-3.727-6.453-4.56-10.545-5.404c-4.925-1.015-8.155,0.992-10.481,4.954
		c-1.79,3.049-4.137,4.035-7.457,2.807c-2.024-0.749-4.344-0.62-6.141-2.057"/>
	<path fill="none" stroke="#000000" stroke-width="2" stroke-linecap="round" stroke-linejoin="round" stroke-miterlimit="10" d="
		M200.448,118.504c2.555-0.583,4.533,0.699,6.088,2.356c1.454,1.549,2.539,3.479,3.605,5.344c0.672,1.175,0.965,2.558,0.029,3.817
		c-1.86,2.501-3.673,5.029-6.638,6.431c-1.362,0.644-2.736,0.374-4.109,0.485"/>
	<path fill="none" stroke="#000000" stroke-width="2" stroke-linecap="round" stroke-linejoin="round" stroke-miterlimit="10" d="
		M194.816,129c-4.926-1.091-8.904,0.102-11.25,4.871c-2.087,4.247-4.909,8.143-6.158,12.793"/>
	<path fill="none" stroke="#000000" stroke-width="2" stroke-linecap="round" stroke-linejoin="round" stroke-miterlimit="10" d="
		M212.992,113.384c1.819,5.266,2.52,10.592,1.336,16.14c-0.375,1.76-1.401,3.176-1.849,4.852"/>
	<path fill="none" stroke="#000000" stroke-width="2" stroke-linecap="round" stroke-linejoin="round" stroke-miterlimit="10" d="
		M490.496,202.472c6.636,1.896,13.441,1.568,20.224,1.536"/>
	<path fill="none" stroke="#000000" stroke-width="2" stroke-linecap="round" stroke-linejoin="round" stroke-miterlimit="10" d="
		M148.224,210.152c-0.468,3.147,1.154,3.752,4.352,4.102c1.135,0.125,3.063-0.562,3.182,0.775c0.169,1.898,1.648,3.826-0.067,5.91
		c-3.608,4.383-3.959,9.485-2.596,14.812c0.217,0.848,0.425,1.682,0.25,2.562"/>
	<path fill="none" stroke="#000000" stroke-width="2" stroke-linecap="round" stroke-linejoin="round" stroke-miterlimit="10" d="
		M199.936,198.12c4.097,4.557,8.872,8.219,14.33,11.021c3.873,1.988,8.026,2.747,12.295,3.042c1.529,0.105,3.071,0.017,4.607,0.017"
		/>
	<path fill="none" stroke="#000000" stroke-width="2" stroke-linecap="round" stroke-linejoin="round" stroke-miterlimit="10" d="
		M58.112,281.832c-2.56,5.29-5.249,10.525-7.608,15.902c-0.791,1.804-1.548,1.707-2.89,0.996c-4.688-2.482-9.416-4.896-14.05-7.478
		c-0.874-0.485-1.657-0.721-2.588-0.718"/>
	<path fill="none" stroke="#000000" stroke-width="2" stroke-linecap="round" stroke-linejoin="round" stroke-miterlimit="10" d="
		M180.48,216.808c4.41,2.285,9.005,4.23,13.056,7.168"/>
	<path fill="none" stroke="#000000" stroke-width="2" stroke-linecap="round" stroke-linejoin="round" stroke-miterlimit="10" d="
		M179.968,215.784c0.279,0.512,0.278,1.013,0.004,1.538c-2.28,4.366-4.8,8.619-6.396,13.313c-0.225,0.66-0.888,0.464-1.287,0.765"/>
	<path fill="none" stroke="#000000" stroke-width="2" stroke-linecap="round" stroke-linejoin="round" stroke-miterlimit="10" d="
		M300.288,209.384c-1.069,1.702-3.13,1.767-4.646,2.757c-2.063,1.347-4.399,2.277-6.617,3.387"/>
	<path fill="none" stroke="#000000" stroke-width="2" stroke-linecap="round" stroke-linejoin="round" stroke-miterlimit="10" d="
		M185.6,98.28c2.625,1.449,3.953,3.572,3.604,6.658c-0.124,1.096-0.02,2.216-0.02,3.326"/>
	<path fill="none" stroke="#000000" stroke-width="2" stroke-linecap="round" stroke-linejoin="round" stroke-miterlimit="10" d="
		M143.616,232.936c1.665,3.234,3.083,6.577,4.352,9.984"/>
	<path fill="none" stroke="#000000" stroke-width="2" stroke-linecap="round" stroke-linejoin="round" stroke-miterlimit="10" d="
		M184.832,138.728c1.16,3.61-0.619,6.151-3.072,8.448"/>
	<path fill="none" stroke="#000000" stroke-width="2" stroke-linecap="round" stroke-linejoin="round" stroke-miterlimit="10" d="
		M202.496,137.192c1.381,1.88,0.719,3.433-0.766,4.866c-0.955,0.922-2.303,1.452-2.818,2.814"/>
	<path fill="none" stroke="#000000" stroke-width="2" stroke-linecap="round" stroke-linejoin="round" stroke-miterlimit="10" d="
		M89.344,252.136c1.735-0.203,3.375,0.547,4.819,1.133c3.101,1.257,6.424,0.948,9.524,1.916c0.287,0.089,0.675-0.147,1.017-0.232"/>
	<path fill="none" stroke="#000000" stroke-width="2" stroke-linecap="round" stroke-linejoin="round" stroke-miterlimit="10" d="
		M217.856,120.04c0.019,2.692-0.241,5.348-1.024,7.936"/>
	<path fill="none" stroke="#000000" stroke-width="2" stroke-linecap="round" stroke-linejoin="round" stroke-miterlimit="10" d="
		M163.072,215.272c-2.048,1.194-4.096,2.39-6.144,3.584"/>
	<path fill="none" stroke="#000000" stroke-width="2" stroke-linecap="round" stroke-linejoin="round" stroke-miterlimit="10" d="
		M148.736,231.144c-3.788-0.73-6.273,1.494-8.704,3.84"/>
	<path fill="none" stroke="#000000" stroke-width="2" stroke-linecap="round" stroke-linejoin="round" stroke-miterlimit="10" d="
		M217.6,164.584c0.783,1.964-1.004,3.694-0.512,5.632"/>
	<path fill="none" stroke="#000000" stroke-width="2" stroke-linecap="round" stroke-linejoin="round" stroke-miterlimit="10" d="
		M206.592,112.872c0.202,1.613-1.027,2.256-2.038,3.083c-0.815,0.668-1.546,1.439-2.313,2.165"/>
	<path fill="none" stroke="#000000" stroke-width="2" stroke-linecap="round" stroke-linejoin="round" stroke-miterlimit="10" d="
		M212.736,167.144c0.653,4.062,1.671,4.286,4.617,3.094c0.793-0.32,1.697-0.364,2.551-0.534"/>
	<path fill="none" stroke="#000000" stroke-width="2" stroke-linecap="round" stroke-linejoin="round" stroke-miterlimit="10" d="
		M178.688,229.608c-1.61-0.187-2.905,1.513-4.608,0.768"/>
	<path fill="none" stroke="#000000" stroke-width="2" stroke-linecap="round" stroke-linejoin="round" stroke-miterlimit="10" d="
		M130.304,233.96c-1.28,1.28-2.56,2.56-3.84,3.84"/>
</g>
</svg>
