<?xml version="1.0" encoding="utf-8"?>
<!-- Generator: Adobe Illustrator 16.0.0, SVG Export Plug-In . SVG Version: 6.00 Build 0)  -->
<!DOCTYPE svg PUBLIC "-//W3C//DTD SVG 1.1//EN" "http://www.w3.org/Graphics/SVG/1.1/DTD/svg11.dtd">
<svg version="1.1" id="Layer_1" xmlns="http://www.w3.org/2000/svg" xmlns:xlink="http://www.w3.org/1999/xlink" x="0px" y="0px"
	 width="512px" height="512px" viewBox="0 0 512 512" enable-background="new 0 0 512 512" xml:space="preserve">
<g>
	<path fill="#FFFFFF" d="M113.864,314.077c-8.225-2.658-16.095-5.198-23.962-7.746c-1.278-0.415-1.793-0.14-2.109,1.347
		c-1.25,5.883-3.511,11.317-7.412,16.026C74.51,330.793,66.94,334.71,57.9,335.521c-9.401,0.842-18.058-1.666-25.141-7.959
		c-6.619-5.879-11.167-13.185-11.191-22.41c-0.083-31.78,0.198-63.565-0.138-95.344c-0.149-14.078,11.514-28.647,26.231-31.452
		c11.22-2.138,21.16,0.442,29.667,7.88c5.603,4.897,8.776,11.431,10.288,18.669c0.458,2.189,1.048,2.404,3.104,1.739
		c19.494-6.302,39.025-12.489,58.552-18.686c22.36-7.097,44.73-14.163,67.091-21.256c22.057-6.996,44.108-14.016,66.163-21.016
		c22.259-7.065,44.519-14.127,66.781-21.175c18.721-5.926,37.426-11.897,56.191-17.672c2.945-0.906,4.107-2.146,3.952-5.305
		c-0.271-5.533-0.057-11.088-0.079-16.634c-0.039-8.778,3.164-16.448,8.414-23.231c6.559-8.47,15.228-13.975,25.854-15.485
		c12.231-1.739,23.675,0.504,33.585,8.578c8.106,6.604,12.877,15.069,14.856,25.218c0.241,1.241,0.291,2.536,0.292,3.806
		c0.013,115.185,0.028,230.368-0.022,345.553c-0.004,8.504-3.456,15.903-8.564,22.528c-6.521,8.453-15.212,13.714-25.664,15.205
		c-12.563,1.793-24.277-0.547-34.281-9.212c-7.623-6.604-12.475-14.707-14.109-24.569c-1.015-6.104-0.182-12.342-0.355-18.516
		c-0.229-8.041,1.521-6.515-6.806-9.104c-16.017-4.981-31.956-10.201-47.942-15.28c-22.044-7.003-44.1-13.966-66.337-21.004
		c-0.504,3.549,0.231,6.953,0.024,10.379c-0.865,14.2-11.815,26.277-25.953,29.414c-8.001,1.775-15.568,0.016-23.119-2.467
		c-21.286-6.993-42.597-13.907-63.902-20.842c-16.154-5.258-32.368-10.336-48.453-15.797c-13.57-4.604-21.206-14.223-22.83-28.563
		C102.853,330.875,106.454,321.98,113.864,314.077z M409.375,256.723c0-14.826,0-29.653,0-44.479c0-28.16-0.032-56.32,0.049-84.479
		c0.008-2.842-0.638-3.449-3.42-2.541c-10.695,3.49-21.469,6.744-32.196,10.139c-17.104,5.412-34.192,10.876-51.295,16.3
		c-27.321,8.667-54.649,17.312-81.974,25.977c-17,5.391-33.993,10.803-50.99,16.204c-32.581,10.352-65.156,20.721-97.754,31.015
		c-2.393,0.755-3.331,1.862-3.313,4.499c0.122,18.132,0.122,36.266,0.001,54.399c-0.018,2.728,0.875,3.925,3.452,4.72
		c16.024,4.953,32,10.062,47.99,15.123c26.519,8.393,53.038,16.781,79.552,25.188c17.811,5.646,35.612,11.322,53.419,16.98
		c31.77,10.096,63.537,20.195,95.313,30.277c12.345,3.916,24.69,7.83,37.063,11.656c4.06,1.254,4.103,1.124,4.103-3.297
		C409.375,341.843,409.375,299.283,409.375,256.723z M475.295,256.84c0-54.38,0.001-108.76-0.004-163.139
		c0-3.505,0.023-6.991-0.602-10.486c-2.537-14.205-17.912-23.879-31.565-18.676c-10.656,4.062-16.652,13.205-16.653,25.085
		c-0.01,111.319-0.013,222.637,0.019,333.955c0.002,5.043,1.102,9.847,3.62,14.342c5.257,9.381,18.266,15.427,29.655,10.385
		c9.762-4.32,15.524-13.011,15.526-24.168C475.3,368.371,475.295,312.605,475.295,256.84z M254.727,392.096
		c5.013,0,9.73-2.029,12.248-5.123c7.5-9.226,3.822-22.074-7.459-25.754c-23.726-7.736-47.479-15.383-71.209-23.102
		c-13.635-4.436-27.217-9.034-40.885-13.36c-5.079-1.606-10.099-3.796-15.76-1.426c-5.733,2.401-11.116,9.431-10.385,15.119
		c0.951,7.399,4.504,12.842,12.07,15.233c19.438,6.146,38.842,12.399,58.235,18.688c19.396,6.288,38.763,12.665,58.137,19.021
		C251.466,391.966,253.229,392.238,254.727,392.096z M70.814,256.631c0-14.822,0.02-29.644-0.007-44.465
		c-0.017-9.15-7.123-16.67-15.738-16.739c-8.987-0.072-16.37,7.105-16.402,16.438c-0.102,29.856-0.096,59.714-0.001,89.57
		c0.028,8.691,7.172,16.201,15.143,16.416c9.415,0.254,16.962-6.987,16.993-16.436C70.849,286.486,70.814,271.561,70.814,256.631z"
		/>
</g>
</svg>
