<?xml version="1.0" encoding="utf-8"?>
<!-- Generator: Adobe Illustrator 16.0.0, SVG Export Plug-In . SVG Version: 6.00 Build 0)  -->
<!DOCTYPE svg PUBLIC "-//W3C//DTD SVG 1.1//EN" "http://www.w3.org/Graphics/SVG/1.1/DTD/svg11.dtd">
<svg version="1.1" id="Layer_1" xmlns="http://www.w3.org/2000/svg" xmlns:xlink="http://www.w3.org/1999/xlink" x="0px" y="0px"
	 width="512px" height="512px" viewBox="0 0 512 512" enable-background="new 0 0 512 512" xml:space="preserve">
<g>
	<path fill="#FFFFFF" d="M148.813,33.117c20.381-0.861,38.593,4.107,55.75,12.953c13.712,7.071,25.622,16.557,35.762,28.314
		c5.303,6.147,9.965,12.686,14.23,19.542c0.907,1.458,1.254,1.644,2.232,0.033c6.271-10.326,13.783-19.698,22.715-27.822
		c17.503-15.921,37.774-26.466,61.069-31.206c11.396-2.318,22.924-2.585,34.323-1.679c22.891,1.82,43.463,10.263,61.604,24.381
		c21.489,16.72,36.113,38.39,45.544,63.747c5.283,14.204,8.364,28.876,9.766,43.962c1.469,15.794,0.451,31.386-2.8,46.884
		c-3.969,18.918-10.23,37.043-19.109,54.197c-7.24,13.988-15.845,27.111-25.979,39.231c-5.12,6.123-10.25,12.258-16.034,17.713
		c-10.665,10.056-21.709,19.71-32.575,29.55c-5.122,4.638-10.195,9.328-15.307,13.978c-11.554,10.512-23.131,20.998-34.674,31.521
		c-5.657,5.158-11.225,10.413-16.895,15.556c-10.7,9.708-21.466,19.346-32.166,29.055c-5.826,5.287-11.553,10.685-17.356,15.994
		c-7.136,6.528-14.317,13.006-21.449,19.536c-1.278,1.171-2.246,0.991-3.612,0.003c-4.249-3.072-7.661-7.052-11.569-10.493
		c-7.819-6.888-15.202-14.269-22.832-21.373c-11.515-10.727-23.086-21.391-34.635-32.078c-8.504-7.872-16.958-15.799-25.529-23.599
		c-11.875-10.808-23.615-21.76-35.351-32.717c-8.236-7.689-16.672-15.165-24.817-22.957c-4.529-4.331-9.487-8.232-13.85-12.717
		c-6.663-6.85-13.146-13.889-18.982-21.482c-9.478-12.332-17.923-25.326-24.612-39.379c-8.805-18.496-14.902-37.848-18.339-58.094
		c-1.958-11.535-2.294-23.113-1.642-34.661c0.663-11.738,2.699-23.379,5.948-34.734c5.008-17.5,12.353-33.938,23.049-48.727
		c18.005-24.895,41.441-42.123,71.518-49.59C131.188,33.728,140.347,32.333,148.813,33.117z M307.296,216.323
		c-4.101-0.647-7.312-1.227-10.541-1.65c-13.552-1.779-27.118-3.441-40.662-5.281c-13.12-1.783-26.211-3.768-39.324-5.601
		c-12.378-1.73-24.771-3.365-37.152-5.075c-1.741-0.241-4.456,0.639-4.952-1.149c-0.492-1.774,1.734-3.377,3.123-4.814
		c10.441-10.803,21.372-21.114,31.619-32.124c11.25-12.087,23.491-23.223,34.731-35.344c2.274-2.452,2.666-4.233,1.276-7.173
		c-7.063-14.945-16.108-28.38-28.505-39.496c-7.178-6.436-14.916-12.08-23.582-16.149c-17.827-8.371-36.466-12.003-56.296-9.251
		C115.29,56.233,96.76,65.587,80.969,80.442c-12.292,11.564-21.606,25.373-28.124,40.961c-9.227,22.068-13.876,44.941-11.697,68.971
		c1.117,12.31,3.761,24.297,7.416,36.074c4.237,13.656,10.167,26.572,17.224,38.991c7.752,13.644,17.072,26.131,27.899,37.459
		c10.52,11.006,21.915,21.104,33.166,31.351c11.791,10.737,23.411,21.663,35.114,32.497c8.348,7.729,16.716,15.432,25.063,23.159
		c11.704,10.835,23.417,21.658,35.086,32.528c7.473,6.96,14.762,14.124,22.371,20.932c2.575,2.304,4.997,4.827,7.769,7.063
		c0.296-0.6,0.532-0.96,0.66-1.354c4.085-12.624,8.125-25.264,12.243-37.876c5.142-15.749,10.329-31.483,15.543-47.209
		c0.608-1.836,0.578-3.043-1.341-4.221c-7.059-4.334-13.989-8.873-20.971-13.332c-16.917-10.8-33.813-21.629-50.775-32.355
		c-2.324-1.469-2.454-2.699-0.343-4.23c4.933-3.582,8.851-8.266,13.382-12.293c10.252-9.111,20.134-18.64,30.121-28.048
		c8.675-8.173,17.12-16.601,26.005-24.535c3.885-3.469,7.515-7.198,11.442-10.625C294.617,228.768,300.592,222.708,307.296,216.323z
		 M278.766,432.082c2.887-2.069,5.479-4.405,8.082-6.72c9.607-8.546,19.053-17.272,28.563-25.928
		c11.79-10.728,23.589-21.445,35.378-32.175c9.589-8.727,19.166-17.467,28.755-26.191c9.354-8.512,18.847-16.873,28.039-25.553
		c11.458-10.82,22.287-22.229,31.243-35.295c14.948-21.804,25.724-45.425,31.117-71.371c2.752-13.238,4.384-26.539,2.899-40.158
		c-1.502-13.784-4.119-27.242-9.045-40.223c-8.063-21.246-20.078-39.652-37.952-54.073c-17.782-14.347-38.156-21.409-60.772-22.254
		c-6.451-0.241-12.925,0.618-19.287,1.872c-23.92,4.712-44.007,16.067-60.39,34.237c-10.42,11.557-17.719,24.82-23.394,39.134
		c-0.356,0.901-0.95,1.887-0.125,2.681c2.493,2.399,0.871,4.217-0.722,6.061c-0.766,0.886-1.571,1.741-2.4,2.568
		c-14.174,14.164-28.392,28.286-42.168,42.842c-0.596,0.63-1.691,1.052-1.347,2.345c3.047,0.419,6.081,0.835,9.114,1.253
		c8.292,1.143,16.581,2.312,24.877,3.424c10.292,1.379,20.596,2.669,30.884,4.077c11.544,1.58,23.071,3.276,34.615,4.871
		c11.122,1.537,22.256,3.007,33.383,4.513c0.697,0.094,1.65-0.129,1.83,0.859c0.148,0.826-0.587,1.299-1.13,1.798
		c-7.356,6.761-14.8,13.432-22.05,20.304c-9.728,9.219-19.539,18.346-29.351,27.475c-9.811,9.127-19.587,18.295-29.365,27.458
		c-9.779,9.162-19.435,18.457-29.428,27.391c-1.427,1.274-2.016,1.936,0.177,3.323c21.08,13.36,42.043,26.903,63.122,40.267
		c2.168,1.373,2.593,2.612,1.813,4.916c-2.416,7.142-4.639,14.349-6.984,21.514C290.768,395.581,284.761,413.83,278.766,432.082z"/>
</g>
</svg>
