<?xml version="1.0" encoding="iso-8859-1"?>
<!-- Generator: Adobe Illustrator 16.0.0, SVG Export Plug-In . SVG Version: 6.00 Build 0)  -->
<!DOCTYPE svg PUBLIC "-//W3C//DTD SVG 1.1//EN" "http://www.w3.org/Graphics/SVG/1.1/DTD/svg11.dtd">
<svg version="1.1" id="Layer_1" xmlns="http://www.w3.org/2000/svg" xmlns:xlink="http://www.w3.org/1999/xlink" x="0px" y="0px"
	 width="288.578px" height="459.006px" viewBox="0 0 288.578 459.006" style="enable-background:new 0 0 288.578 459.006;"
	 xml:space="preserve">
<g>
	<path style="fill:none;" d="M282.964,1c18.331,0,36.663,0.057,54.993-0.066c2.502-0.017,3.063,0.567,3.063,3.066
		c-0.068,150.648-0.068,301.295,0,451.943c0.002,2.499-0.563,3.063-3.063,3.063c-111.319-0.072-222.638-0.072-333.958,0
		c-2.498,0.002-3.063-0.563-3.062-3.063C1.007,305.296,1.019,154.647,0.884,4C0.881,0.563,2.318,0.975,4.5,0.977
		C42.995,1.009,81.49,1,119.985,1c-4.321,1.991-5.449,5.959-6.294,10.12c-5.086,25.011-10.118,50.033-15.288,75.026
		C87.96,136.618,77.42,187.068,66.972,237.539c-1.982,9.576,2.278,14.702,12.081,14.735c12.996,0.045,25.993,0.012,38.989,0.014
		c8.096,0.001,8.096,0.002,5.124,7.437c-0.062,0.153-0.156,0.295-0.215,0.45c-9.63,25.628-19.279,51.249-28.881,76.888
		c-9.894,26.414-19.745,52.847-29.607,79.272c-3.364,9.016-6.85,17.989-10.007,27.077c-2.09,6.016-0.722,11.222,2.993,13.552
		c4.228,2.65,9.959,1.589,14.271-2.802c13.393-13.633,26.155-27.853,39.066-41.938c18.076-19.719,36.438-39.172,54.652-58.765
		c12.441-13.382,24.815-26.826,37.259-40.207c18.329-19.712,36.693-39.392,55.042-59.084c9.288-9.968,18.551-19.96,27.881-29.89
		c3.271-3.479,3.479-7.749,2.139-11.675c-1.315-3.848-5.047-5.548-9.132-5.884c-1.49-0.122-2.997-0.063-4.496-0.063
		c-18.995-0.004-37.99-0.057-56.984,0.045c-3.487,0.019-4.98-0.55-3.43-4.451c13.234-33.31,26.36-66.662,39.522-100
		c11.395-28.864,22.815-57.718,34.172-86.597C289.908,9.304,288.386,4.607,282.964,1z"/>
	<path d="M282.964,1c5.422,3.607,6.944,8.304,4.446,14.655c-11.355,28.879-22.777,57.733-34.172,86.597
		c-13.162,33.338-26.288,66.69-39.522,100c-1.55,3.901-0.057,4.469,3.43,4.451c18.994-0.102,37.989-0.049,56.984-0.045
		c1.499,0,3.007-0.059,4.496,0.063c4.085,0.335,7.815,2.036,9.132,5.884c1.342,3.926,1.133,8.196-2.139,11.675
		c-9.33,9.93-18.592,19.921-27.881,29.89c-18.35,19.693-36.713,39.372-55.042,59.084c-12.443,13.381-24.817,26.825-37.259,40.207
		c-18.213,19.594-36.576,39.046-54.652,58.765c-12.911,14.085-25.673,28.305-39.066,41.938c-4.312,4.391-10.043,5.452-14.271,2.802
		c-3.715-2.33-5.083-7.536-2.993-13.552c3.157-9.088,6.643-18.063,10.007-27.077c9.863-26.427,19.714-52.857,29.607-79.273
		c9.602-25.638,19.251-51.258,28.881-76.887c0.059-0.154,0.153-0.297,0.215-0.451c2.972-7.434,2.972-7.435-5.124-7.436
		c-12.996-0.002-25.993,0.031-38.989-0.014c-9.803-0.033-14.063-5.16-12.081-14.735C77.42,187.068,87.96,136.618,98.403,86.146
		c5.17-24.993,10.202-50.015,15.288-75.026c0.845-4.161,1.973-8.129,6.294-10.12C174.312,1,228.638,1,282.964,1z M255.833,226.29
		c-3.096,0-4.909,0-6.721,0c-16.824,0-33.659-0.353-50.468,0.138c-9.362,0.273-13.462-6.155-10.071-14.967
		c12.81-33.287,25.999-66.429,39.091-99.606c11.448-29.012,22.948-58.002,34.453-86.992c1.098-2.765,1.561-4.606-2.646-4.597
		c-40.977,0.093-81.955,0.088-122.932-0.004c-3.181-0.007-4.529,1.385-5.103,4.167c-6.025,29.208-12.083,58.41-18.076,87.625
		c-7.858,38.304-15.603,76.631-23.587,114.908c-0.909,4.359-0.356,5.868,4.462,5.787c15.321-0.257,30.648-0.124,45.973-0.079
		c7.594,0.021,10.986,3.883,9.981,11.377c-0.239,1.782-0.909,3.529-1.544,5.231c-4.468,11.965-8.991,23.91-13.475,35.869
		c-11.122,29.668-22.241,59.336-33.34,89.013c-3.5,9.358-6.936,18.741-10.401,28.114c2.292-1.033,3.827-2.516,5.263-4.086
		c6.378-6.986,12.69-14.033,19.097-20.992c12.033-13.073,24.077-26.137,36.186-39.141c19.133-20.545,38.312-41.048,57.494-61.548
		c10.558-11.282,21.449-22.272,31.616-33.896C245.627,237.416,251.005,232.942,255.833,226.29z"/>
	<path style="fill:none;" d="M255.833,226.29c-4.828,6.652-10.206,11.125-14.749,16.32c-10.167,11.624-21.058,22.615-31.616,33.896
		c-19.182,20.5-38.361,41.003-57.494,61.549c-12.109,13.002-24.153,26.065-36.186,39.139c-6.406,6.959-12.719,14.007-19.097,20.992
		c-1.436,1.571-2.971,3.054-5.263,4.086c3.465-9.371,6.901-18.756,10.401-28.113c11.099-29.678,22.218-59.346,33.34-89.012
		c4.483-11.959,9.006-23.904,13.475-35.87c0.635-1.702,1.305-3.449,1.544-5.231c1.005-7.494-2.387-11.356-9.981-11.377
		c-15.325-0.045-30.652-0.178-45.973,0.079c-4.818,0.081-5.371-1.428-4.462-5.787c7.984-38.277,15.729-76.604,23.587-114.908
		c5.993-29.215,12.05-58.417,18.076-87.625c0.574-2.781,1.922-4.173,5.103-4.167c40.977,0.092,81.955,0.097,122.931,0.004
		c4.208-0.009,3.745,1.833,2.647,4.597c-11.505,28.989-23.005,57.98-34.453,86.992c-13.092,33.177-26.281,66.32-39.091,99.606
		c-3.391,8.813,0.709,15.24,10.071,14.967c16.81-0.49,33.644-0.138,50.468-0.138C250.924,226.29,252.737,226.29,255.833,226.29z
		 M165.278,48.183c0.077-8.601-2.324-11.935-7.708-12.461c-6.627-0.647-10.5,2.46-11.971,9.099
		c-6.021,27.186-12.148,54.35-18.236,81.521c-1.847,8.247-3.861,16.462-5.485,24.753c-1.44,7.352,3.993,13.2,11.126,12.093
		c5.768-0.895,8.043-5.105,9.206-10.361c6.268-28.318,12.635-56.616,18.925-84.93C162.715,60.786,164.135,53.641,165.278,48.183z
		 M119.666,219.284c4.718-0.041,8.48-3.064,9.523-7.772c1.147-5.175,2.155-10.38,3.32-15.552c1.434-6.366-1.452-11.603-7.306-13.064
		c-5.436-1.357-11.123,2.569-12.441,8.625c-1.092,5.017-2.104,10.051-3.214,15.064C107.861,214.2,111.944,219.35,119.666,219.284z"
		/>
	<path d="M165.278,48.183c-1.143,5.458-2.563,12.604-4.143,19.714c-6.29,28.314-12.657,56.611-18.925,84.93
		c-1.163,5.256-3.438,9.467-9.206,10.361c-7.133,1.106-12.567-4.742-11.126-12.093c1.624-8.291,3.638-16.506,5.485-24.753
		c6.087-27.171,12.215-54.335,18.236-81.521c1.471-6.639,5.344-9.747,11.971-9.099C162.954,36.248,165.355,39.582,165.278,48.183z"
		/>
	<path d="M119.666,219.284c-7.722,0.066-11.804-5.084-10.118-12.699c1.11-5.013,2.122-10.047,3.214-15.064
		c1.319-6.057,7.006-9.983,12.441-8.625c5.854,1.461,8.74,6.698,7.306,13.064c-1.165,5.171-2.173,10.377-3.32,15.552
		C128.146,216.22,124.383,219.243,119.666,219.284z"/>
</g>
</svg>
