<?xml version="1.0" encoding="iso-8859-1"?>
<!-- Generator: Adobe Illustrator 16.0.0, SVG Export Plug-In . SVG Version: 6.00 Build 0)  -->
<!DOCTYPE svg PUBLIC "-//W3C//DTD SVG 1.1//EN" "http://www.w3.org/Graphics/SVG/1.1/DTD/svg11.dtd">
<svg version="1.1" id="Layer_1" xmlns="http://www.w3.org/2000/svg" xmlns:xlink="http://www.w3.org/1999/xlink" x="0px" y="0px"
	 width="338px" height="454.5px" viewBox="1.526 0 338 454.5" style="enable-background:new 1.526 0 338 454.5;"
	 xml:space="preserve">
<g>
	<path style="fill:none;" d="M1,385.951C1,259.135,1.019,132.316,0.906,5.5C0.902,1.751,1.75,0.901,5.5,0.905
		C115.986,1.022,226.472,1.02,336.958,0.904c3.424-0.003,4.098,0.672,4.095,4.095c-0.108,149.981-0.108,299.962,0,449.943
		c0.003,3.424-0.671,4.099-4.095,4.096c-110.652-0.116-221.305-0.116-331.958,0c-3.423,0.003-4.142-0.665-4.102-4.097
		C1.113,436.28,1,417.614,1,398.949c2.345,3.288,5.734,3.358,9.356,3.356c106.643-0.048,213.286-0.039,319.928-0.041
		c1.333,0,2.672,0.046,3.998-0.053c3.467-0.26,5.665-2.165,5.864-5.603c0.202-3.471,0.146-7.01-0.307-10.452
		c-1.746-13.298-3.734-26.563-5.557-39.853c-2.138-15.589-4.149-31.193-6.296-46.781c-2.192-15.912-4.485-31.809-6.73-47.711
		c-2.245-15.902-4.514-31.802-6.722-47.71c-2.116-15.258-4.75-30.473-6.105-45.8c-1.785-20.2-17.535-35.607-37.754-35.631
		c-21.495-0.025-42.991,0.008-64.486-0.033c-1.768-0.003-4.258,0.817-5.125-0.965c-1.637-3.37-1.206-7.26-0.343-10.732
		c0.672-2.707,3.697-1.586,5.696-1.59c33.159-0.063,66.318-0.042,99.477-0.049c10.996-0.002,19.269-4.956,25.729-13.687
		c6.252-8.448,5.764-18.073,5.669-27.736c-0.096-9.723-1.504-11.203-11.263-11.204c-103.644-0.002-207.287-0.001-310.93,0
		c-1.333,0-2.669-0.044-3.999,0.03c-4.978,0.28-7.214,2.467-7.374,7.5c-0.14,4.495-0.053,8.998-0.043,13.497
		C3.721,95.238,17.796,109.29,35.385,109.3c33.159,0.018,66.319,0.116,99.477-0.108c5.228-0.036,6.055,2.069,5.901,6.508
		c-0.143,4.137,0.134,7.199-5.823,7.102c-21.323-0.347-42.655-0.144-63.983-0.133c-18.894,0.011-33.339,11.025-37.175,29.631
		c-2.568,12.459-3.608,25.231-5.382,37.856c-2.213,15.741-4.526,31.468-6.704,47.214c-2.155,15.586-4.146,31.194-6.299,46.782
		c-2.855,20.668-5.789,41.322-8.709,61.98C4.81,359.408,2.896,372.68,1,385.951z"/>
	<path d="M1,385.951c1.896-13.271,3.81-26.543,5.686-39.818c2.92-20.658,5.854-41.313,8.709-61.98
		c2.153-15.588,4.144-31.196,6.299-46.782c2.178-15.746,4.491-31.473,6.704-47.214c1.774-12.625,2.814-25.397,5.382-37.856
		c3.836-18.606,18.281-29.621,37.175-29.631c21.328-0.011,42.661-0.214,63.983,0.133c5.957,0.098,5.68-2.964,5.823-7.102
		c0.153-4.439-0.674-6.544-5.901-6.508c-33.157,0.225-66.317,0.126-99.477,0.108C17.796,109.29,3.721,95.238,3.684,77.702
		c-0.009-4.5-0.097-9.002,0.045-13.497c0.159-5.033,2.396-7.22,7.374-7.5c1.329-0.074,2.665-0.03,3.999-0.03
		c103.643-0.001,207.287-0.002,310.93,0c9.759,0.001,11.167,1.48,11.263,11.204c0.095,9.663,0.583,19.288-5.669,27.736
		c-6.461,8.731-14.732,13.685-25.729,13.687c-33.158,0.007-66.317-0.015-99.477,0.049c-1.999,0.004-5.024-1.116-5.696,1.59
		c-0.863,3.472-1.294,7.362,0.343,10.732c0.867,1.783,3.356,0.962,5.125,0.965c21.495,0.041,42.991,0.008,64.486,0.033
		c20.219,0.024,35.969,15.432,37.754,35.631c1.355,15.327,3.989,30.542,6.105,45.8c2.208,15.908,4.477,31.808,6.722,47.71
		c2.245,15.904,4.538,31.799,6.73,47.711c2.146,15.588,4.159,31.192,6.296,46.781c1.821,13.289,3.811,26.555,5.557,39.853
		c0.452,3.442,0.509,6.981,0.308,10.452c-0.2,3.438-2.398,5.343-5.865,5.603c-1.326,0.099-2.665,0.053-3.998,0.053
		c-106.642,0.002-213.285-0.007-319.928,0.041c-3.622,0.002-7.011-0.068-9.356-3.356C1,394.617,1,390.284,1,385.951z
		 M170.51,386.633c48.974,0,97.948,0.002,146.923-0.003c5.575-0.001,5.88-0.409,5.112-5.983
		c-3.342-24.271-6.655-48.547-9.994-72.818c-3.995-29.029-7.971-58.061-12.019-87.083c-2.903-20.823-5.976-41.621-8.849-62.446
		c-1.574-11.414-9.852-18.984-21.289-18.987c-66.632-0.02-133.264-0.011-199.896-0.002c-1.986,0-3.921,0.093-5.902,0.688
		c-11.605,3.481-14.898,12.583-16.25,23.247c-2.646,20.86-5.348,41.715-8.216,62.546c-3.139,22.794-6.542,45.551-9.736,68.337
		c-4.044,28.854-7.991,57.722-11.985,86.581c-0.77,5.563-0.479,5.921,5.177,5.922C72.562,386.635,121.536,386.633,170.51,386.633z
		 M170.41,72.309c-47.301,0-94.603,0-141.904,0.001c-1.333,0-2.671,0.085-3.996-0.009c-2.902-0.203-4.134,0.901-4.249,3.991
		c-0.331,8.973,6.481,16.358,15.627,16.36c89.773,0.025,179.545,0.021,269.317,0.001c7.04-0.001,13.323-4.875,15.151-11.525
		c1.837-6.688,0.268-8.816-6.547-8.817C266.012,72.308,218.211,72.309,170.41,72.309z M170.065,109.313
		c-2.82,0-5.648,0.131-8.459-0.034c-3.25-0.191-4.586,1.184-4.322,4.384c0.123,1.483,0.138,2.996-0.004,4.476
		c-0.339,3.515,1.256,4.695,4.654,4.572c5.137-0.187,10.313-0.375,15.421,0.047c5.114,0.422,6.694-1.404,6.407-6.444
		c-0.397-6.981-0.088-6.999-7.226-7.008C174.379,109.303,172.223,109.305,170.065,109.313z"/>
	<path style="fill:none;" d="M170.51,386.633c-48.974,0-97.948,0.002-146.922-0.003c-5.656-0.001-5.947-0.358-5.177-5.922
		c3.994-28.858,7.941-57.728,11.985-86.581c3.194-22.786,6.598-45.543,9.736-68.337c2.868-20.831,5.569-41.686,8.216-62.546
		c1.353-10.664,4.646-19.766,16.25-23.247c1.981-0.595,3.916-0.688,5.902-0.688c66.632-0.009,133.263-0.018,199.895,0.002
		c11.438,0.003,19.717,7.573,21.291,18.987c2.873,20.826,5.943,41.624,8.848,62.446c4.048,29.022,8.022,58.053,12.019,87.083
		c3.339,24.271,6.652,48.547,9.994,72.817c0.769,5.576,0.463,5.983-5.112,5.984C268.458,386.635,219.484,386.633,170.51,386.633z
		 M170.356,151.663c-60.623-1.394-108.692,49.615-110.767,105.638c-2.499,67.446,50.161,115.908,108.263,116.979
		c64.118,1.182,111.481-49.678,113.589-107.719C283.783,202.113,229.993,149.684,170.356,151.663z"/>
	<path style="fill:none;" d="M170.41,72.309c47.801,0,95.602-0.001,143.402,0.002c6.813,0.001,8.383,2.129,6.546,8.817
		c-1.828,6.65-8.111,11.524-15.151,11.525c-89.772,0.021-179.544,0.024-269.317-0.001c-9.146-0.002-15.958-7.388-15.627-16.36
		c0.114-3.089,1.347-4.194,4.249-3.991c1.325,0.094,2.664,0.009,3.996,0.009C75.807,72.309,123.108,72.309,170.41,72.309z"/>
	<path style="fill:none;" d="M170.065,109.309c2.157-0.004,4.314-0.006,6.471-0.003c7.138,0.009,6.828,0.026,7.226,7.008
		c0.287,5.041-1.293,6.866-6.407,6.444c-5.108-0.422-10.284-0.233-15.421-0.047c-3.397,0.123-4.993-1.057-4.654-4.572
		c0.142-1.48,0.126-2.993,0.004-4.476c-0.264-3.201,1.072-4.576,4.322-4.384C164.417,109.443,167.245,109.313,170.065,109.309z"/>
	<path d="M170.356,151.663c59.637-1.979,113.427,50.451,111.085,114.899c-2.108,58.039-49.471,108.898-113.589,107.719
		c-58.102-1.072-110.762-49.534-108.263-116.98C61.664,201.277,109.733,150.269,170.356,151.663z M76.309,262.682
		c-1.334,50.82,41.447,93.693,91.279,94.965c55.48,1.416,95.135-43.89,97.223-89.678c2.592-56.898-42.706-100.37-94.189-100.413
		C118.735,167.513,75.459,210.558,76.309,262.682z"/>
	<path style="fill:none;" d="M76.309,262.682c-0.85-52.124,42.426-95.167,94.311-95.125c51.485,0.043,96.782,43.514,94.188,100.413
		c-2.088,45.788-41.742,91.094-97.222,89.678C117.756,356.375,74.975,313.502,76.309,262.682z M170.388,343.275
		c44.927,1.039,81.15-36.174,80.679-80.957c-0.481-45.695-35.252-80.401-80.499-80.443c-45.521-0.042-80.38,34.956-80.678,80.762
		C89.599,307.32,125.754,344.227,170.388,343.275z"/>
	<path d="M170.388,343.275c-44.634,0.949-80.79-35.955-80.498-80.639c0.298-45.807,35.157-80.804,80.678-80.762
		c45.247,0.042,80.018,34.748,80.499,80.443C251.538,307.102,215.315,344.314,170.388,343.275z M170.485,198.293
		c-34.778,0.282-64.282,28.704-64.046,64.236c0.244,36.459,27.889,64.558,64.032,64.559c36.051,0.002,63.475-27.869,64.058-64.046
		C235.098,227.797,205.429,198.294,170.485,198.293z"/>
	<path style="fill:none;" d="M170.485,198.293c34.944,0.001,64.612,29.504,64.044,64.749c-0.583,36.177-28.007,64.048-64.058,64.046
		c-36.143-0.001-63.789-28.1-64.032-64.559C106.203,226.998,135.707,198.576,170.485,198.293z M196.287,288.848
		c0.507-7.035-2.251-13.563-4.066-20.252c-4.511-16.624-9.248-33.187-13.79-49.804c-1.204-4.402-3.915-6.255-8.359-6.135
		c-4.064,0.109-6.417,2.066-7.486,5.958c-5.311,19.325-10.604,38.656-16.079,57.936c-1.849,6.512-2.867,13.084-1.172,19.625
		c3.128,12.068,16.134,20.852,28.034,18.944C186.559,313.008,197.087,303.331,196.287,288.848z"/>
	<path d="M196.287,288.848c0.8,14.483-9.728,24.16-22.918,26.272c-11.9,1.907-24.906-6.876-28.034-18.944
		c-1.695-6.541-0.677-13.113,1.172-19.625c5.476-19.279,10.769-38.61,16.079-57.936c1.069-3.893,3.422-5.849,7.486-5.958
		c4.444-0.12,7.155,1.733,8.359,6.135c4.542,16.617,9.279,33.18,13.79,49.804C194.036,275.283,196.793,281.813,196.287,288.848z
		 M170.48,251.958c-3.427,12.431-6.816,23.862-9.629,35.435c-0.892,3.67,1.027,7.258,4.266,9.459
		c3.458,2.349,7.301,2.346,10.753-0.021c3.229-2.217,5.119-5.801,4.224-9.475C177.279,275.795,173.899,264.373,170.48,251.958z"/>
	<path style="fill:none;" d="M170.48,251.958c3.419,12.416,6.799,23.837,9.614,35.397c0.895,3.674-0.995,7.258-4.224,9.475
		c-3.453,2.367-7.295,2.37-10.753,0.021c-3.239-2.201-5.158-5.789-4.266-9.459C163.664,275.82,167.053,264.389,170.48,251.958z"/>
</g>
</svg>
