<?xml version="1.0" encoding="iso-8859-1"?>
<!-- Generator: Adobe Illustrator 19.0.1, SVG Export Plug-In . SVG Version: 6.00 Build 0)  -->
<svg version="1.1" id="ICON" xmlns="http://www.w3.org/2000/svg" xmlns:xlink="http://www.w3.org/1999/xlink" x="0px" y="0px"
	 viewBox="0 0 521 521" style="enable-background:new 0 0 521 521;" xml:space="preserve">
<g id="ICON_1_">
	<g>
		<g id="DA_icon_7_">
			<path style="fill:#C43E56;" d="M51.282,374.819c-0.852-1.486-0.935-3.056-0.935-4.692c0.017-12.875,0.017-25.749,0.017-38.624
				v-11.138l20.69-23.061c0.033,24.046,0.033,48.126,0,72.172c-0.017,5.143-3.423,9.535-7.949,10.537
				C58.179,381.098,53.77,379.144,51.282,374.819z"/>
			<path style="fill:#C43E56;" d="M71.354,479.303l-14.327,15.764c-1.82-1.52-3.607-3.089-5.36-4.726
				c-19.504-18.202-30.909-40.611-35.284-66.711c-0.584-3.473-0.935-7.064-0.935-10.687v-53.653l0.033-0.033l20.723-23.111
				c0,22.66,0,45.32-0.017,67.98c0,5.778,0.301,11.505,1.303,17.233C41.564,445.071,52.885,464.458,71.354,479.303z"/>
			<path style="fill:#C43E56;" d="M242.632,118.277c-0.017,57.544-0.033,115.087-0.033,172.614l-20.623,22.694
				c-0.017-12.858-0.033-25.733,0-38.591c0-3.457-1.119-4.258-4.392-4.241c-29.507,0.117-59.03,0.067-88.536,0.067H94.816
				l18.536-20.673h103.331c5.21,0,5.21,0,5.21-5.36c0-38.557-0.017-77.115,0.033-115.672l20.473-22.81
				C242.616,110.295,242.632,114.286,242.632,118.277z"/>
			<path style="fill:#C43E56;" d="M474.527,35.736l-14.311,15.747c-3.807-4.125-8.049-7.982-12.741-11.555
				c-18.419-14.027-39.392-20.306-62.72-18.419c-11.589,0.935-22.577,3.857-32.93,8.934c-12.424,6.078-23.061,14.561-31.728,25.399
				c-13.042,16.315-20.606,35-20.84,55.79c-0.451,39.058-0.2,78.116-0.217,117.175l-20.656,22.727
				c-0.017-47.107,0-94.214,0.033-141.321c0.017-14.511,3.69-28.321,9.351-41.63c6.696-15.713,16.649-29.106,29.373-40.361
				c15.914-14.11,34.366-23.311,55.506-26.634c6.796-1.069,13.526-1.62,20.155-1.62c17.868,0,35.117,3.991,51.632,12.691
				c9.168,4.826,17.367,10.921,24.965,18.001C471.171,32.312,472.874,33.999,474.527,35.736z"/>
			<path style="fill:#65394A;" d="M242.666,406.497c0.017,15.396-2.939,30.074-8.7,44.218
				c-6.796,16.699-17.283,30.876-30.809,42.699c-14.545,12.691-31.277,21.408-50.313,25.148c-8.266,1.62-16.465,2.471-24.614,2.471
				c-14.394,0-28.571-2.672-42.481-8.45c-10.537-4.392-20.038-10.27-28.722-17.517l14.327-15.764
				c0.802,0.651,1.636,1.286,2.471,1.92c18.385,13.877,39.225,20.105,62.436,18.235c11.589-0.935,22.577-3.857,32.913-8.95
				c11.973-5.895,22.209-14.027,30.792-24.363c13.71-16.532,21.491-35.552,21.758-56.826c0.401-31.911,0.301-63.822,0.25-95.734
				l20.623-22.694C242.599,329.432,242.632,367.956,242.666,406.497z"/>
			<path style="fill:#65394A;" d="M391.935,250.147h51.399l-18.803,20.69c-10.787,0-21.575-0.017-32.362-0.017h-88.536
				c-4.525,0-4.542,0.017-4.542,4.642c0,42.348,0.033,84.696-0.017,127.027c0,2.071,0.033,4.141,0.134,6.212l-18.736,20.606
				c-0.25-1.286-0.501-2.588-0.718-3.891c-1.302-7.565-1.386-15.179-1.386-22.81c0.017-50.363,0-100.71,0.017-151.073l20.656-22.727
				c0,5.728,0,11.439-0.017,17.166c0,3.423,1.102,4.241,4.375,4.241C332.906,250.097,362.429,250.147,391.935,250.147z"/>
			<path style="fill:#65394A;" d="M469.902,148.335c0.067,24.196,0.067,48.376,0,72.572l-13.392,14.762
				c-4.375-1.069-7.231-4.676-7.264-9.669c-0.05-12.992-0.017-25.983-0.017-38.975c0-12.641-0.033-25.282,0.017-37.923
				c0.017-9.602,8.366-12.274,15.346-9.418C468.282,141.205,469.885,144.528,469.902,148.335z"/>
			<path style="fill:#65394A;" d="M505.553,110.746v70.953l-0.067,0.067l-20.69,22.76c0-29.34,0-58.679,0.017-88.019
				c0-5.678-0.351-11.272-1.302-16.899c-3.206-18.803-11.004-34.884-23.295-48.126l14.311-15.747
				c11.839,12.474,20.439,26.968,25.766,43.5C503.583,89.422,505.553,99.909,505.553,110.746z"/>
			<path style="fill:#49D3A3;" d="M386.976,499.642l-17.433,19.17c-8.583-1.636-16.949-4.292-25.115-8.065
				c-10.22-4.742-19.571-10.938-27.937-18.552c-10.37-9.435-19.02-20.256-25.432-32.713c-4.926-9.568-8.433-19.654-10.587-30.175
				l18.736-20.606c0.167,4.041,0.534,8.065,1.219,12.073c3.924,23.261,14.695,42.632,32.98,57.661
				C349.32,491.51,367.121,498.723,386.976,499.642z"/>
			<path style="fill:#49D3A3;" d="M459.264,236.003c-0.969,0-1.887-0.117-2.755-0.334l13.392-14.762c0.017,1.787,0,3.574,0,5.36
				C469.885,232.263,465.593,236.036,459.264,236.003z"/>
			<path style="fill:#49D3A3;" d="M505.553,181.699v187.476l-0.05,0.05l-20.74,22.81c0.117-38.941,0-77.883,0.1-116.807
				c0.017-3.557-0.985-4.492-4.509-4.475c-18.602,0.083-37.221,0.083-55.824,0.083l18.803-20.69h36.453
				c4.993,0,5.01-0.017,5.01-4.876v-40.745l20.69-22.76L505.553,181.699z"/>
			<path style="fill:#2E646C;" d="M505.503,369.225v39.96c0.017,20.673-5.828,39.676-16.548,57.176
				c-11.956,19.487-28.254,34.416-49.011,44.168c-13.843,6.496-28.438,9.919-43.884,10.353c-9.051,0.25-17.901-0.401-26.518-2.071
				l17.433-19.17c3.924,0.167,7.949,0.117,12.04-0.2c15.58-1.186,29.891-5.961,42.899-14.461
				c16.114-10.554,27.97-24.764,35.485-42.498c4.358-10.303,7.264-21.057,7.314-32.228c0.033-6.078,0.05-12.14,0.05-18.218
				L505.503,369.225z"/>
			<path style="fill:#EED586;" d="M167.689,6.58l-15.597,17.383c-12.24-3.323-24.965-3.924-38.056-1.603
				c-18.703,3.323-35.051,11.322-48.76,24.664c-7.047,6.846-12.858,14.494-17.617,23.078c-6.913,12.457-11.171,25.833-11.305,39.927
				c-0.134,14.378-0.184,28.772-0.2,43.166l-20.64,23.011c0-21.458-0.017-42.899-0.033-64.357
				c-0.017-20.673,5.811-39.693,16.532-57.176c11.923-19.504,28.221-34.433,48.977-44.201c13.843-6.496,28.421-9.952,43.884-10.387
				C139.718-0.317,153.979,1.654,167.689,6.58z"/>
			<path style="fill:#E06A56;" d="M71.053,292.912v4.392l-20.69,23.061c0-9.168-0.017-18.318,0-27.486
				c0.017-5.995,4.542-10.721,10.103-10.637C66.161,282.325,71.037,287.151,71.053,292.912z"/>
			<path style="fill:#E06A56;" d="M113.351,250.147L94.816,270.82H41.196c-4.976,0-4.993,0-4.993,4.876v60.449L15.48,359.256
				l-0.033,0.033V176.272l0.067-0.067l20.64-23.011c-0.05,30.859,0.067,61.718-0.017,92.561c-0.017,3.574,1.019,4.475,4.525,4.459
				C64.892,250.097,89.105,250.13,113.351,250.147z"/>
			<path style="fill:#E06A56;" d="M242.399,106.288v0.017l-20.473,22.81c-0.017-3.907,0-7.798,0-11.706
				c0-12.24-1.854-24.113-6.229-35.602c-8.566-22.493-23.545-39.409-44.803-50.463c-6.128-3.189-12.39-5.661-18.803-7.381
				L167.689,6.58c2.956,1.052,5.911,2.254,8.817,3.607c10.119,4.676,19.404,10.787,27.686,18.285
				c10.57,9.568,19.37,20.556,25.866,33.264c5.427,10.654,9.134,21.925,11.171,33.731
				C241.864,99.074,242.198,102.664,242.399,106.288z"/>
		</g>
	</g>
</g>
</svg>
