<?xml version="1.0" encoding="iso-8859-1"?>
<!-- Generator: Adobe Illustrator 16.0.0, SVG Export Plug-In . SVG Version: 6.00 Build 0)  -->
<!DOCTYPE svg PUBLIC "-//W3C//DTD SVG 1.1//EN" "http://www.w3.org/Graphics/SVG/1.1/DTD/svg11.dtd">
<svg version="1.1" id="Layer_1" xmlns="http://www.w3.org/2000/svg" xmlns:xlink="http://www.w3.org/1999/xlink" x="0px" y="0px"
	 width="512px" height="381.094px" viewBox="0 0 512 381.094" style="enable-background:new 0 0 512 381.094;" xml:space="preserve"
	>
<g>
	<path style="fill-rule:evenodd;clip-rule:evenodd;fill:none;" d="M325.266,381.059c-107.726,0-215.452-0.004-323.178,0.035
		c-1.423,0-1.744-0.32-1.743-1.743c0.038-125.754,0.038-251.509,0-377.263c0-1.423,0.32-1.744,1.743-1.744
		c80.146,0.04,160.292,0.036,240.438,0.036c-2.906,0.513-5.879,0.677-8.752,1.253c-4.979,0.998-9.91,2.206-14.787,3.738
		c-6.028,1.894-11.829,4.28-17.429,7.086c-6.219,3.117-12.058,6.924-17.6,11.179c-4.354,3.343-8.457,6.981-12.273,10.877
		c-4.792,4.891-9.117,10.211-13.005,15.894c-4.082,5.966-7.564,12.235-10.4,18.858c-2.321,5.419-4.319,10.953-5.759,16.699
		c-1.809,7.219-3.272,14.481-3.336,21.937c-0.077,8.95-0.465,17.927,1.139,26.806c1.544,8.544,3.88,16.877,7.271,24.868
		c3.156,7.436,7.016,14.486,11.609,21.181c6.525,9.51,14.399,17.687,23.318,24.898c7.612,6.154,15.972,11.145,24.925,15.077
		c7.545,3.313,15.356,5.913,23.467,7.454c5.494,1.043,11.007,2.029,16.646,1.96c4.743-0.057,9.489-0.086,14.23,0.011
		c4.254,0.087,8.391-0.82,12.557-1.368c5.547-0.73,10.936-2.348,16.227-4.134c9.14-3.085,17.799-7.238,25.945-12.436
		c8.83-5.634,16.457-12.668,23.609-20.251c4.034-4.276,7.48-9.012,10.726-13.908c1.87-2.821,3.515-5.759,5.139-8.724
		c2.509-4.578,4.587-9.352,6.378-14.226c1.985-5.406,3.661-10.924,4.664-16.631c0.957-5.451,2.113-10.877,1.995-16.442
		c-0.175-8.248,0.435-16.494-0.986-24.742c-0.854-4.959-1.942-9.844-3.229-14.674c-0.898-3.372-2.264-6.643-3.509-9.932
		c-3.313-8.748-7.837-16.802-13.208-24.407c-5.551-7.858-12.235-14.716-19.424-21.04c-6.726-5.917-14.199-10.848-22.188-14.927
		c-8.314-4.246-17.114-7.21-26.142-9.531c-4.695-1.208-9.533-1.548-14.286-2.405c81.664,0,163.329,0.004,244.993-0.036
		c1.423,0,1.744,0.321,1.743,1.744c-0.038,125.754-0.038,251.509,0,377.263c0.001,1.423-0.32,1.744-1.743,1.743
		c-58.133-0.041-116.266-0.035-174.398-0.035c3.926-1.167,7.376-3.05,10.281-6.048c8.215-8.479,7.848-23.171-2.356-31.083
		c-8.984-6.968-23.462-5.527-30.596,3.537c-5.049,6.414-6.007,16.398-1.992,23.443C315.006,376.202,319.523,379.397,325.266,381.059
		z M203.187,356.112c5.292,6.931,10.287,13.381,15.181,19.908c3.606,4.81,3.548,4.781,9.496,4.834
		c1.893,0.017,2.354-0.663,2.305-2.422c-0.109-3.853-0.033-7.711-0.033-11.567c0-8.154-0.029-16.309,0.024-24.463
		c0.01-1.51-0.392-2.211-2.019-2.111c-1.763,0.109-3.542,0.1-5.307,0.002c-1.532-0.085-2.152,0.424-2.101,2.029
		c0.097,3.095,0.027,6.194,0.026,9.292c0,4.023,0,8.047,0,12.592c-4.441-5.853-8.633-11.241-12.676-16.739
		c-5.355-7.282-5.305-7.318-12.292-7.151c-0.126,0.003-0.254,0.014-0.379,0.004c-1.099-0.081-1.606,0.366-1.604,1.527
		c0.019,12.453,0.022,24.906-0.004,37.359c-0.002,1.27,0.557,1.648,1.725,1.614c1.705-0.05,3.413-0.005,5.12-0.01
		c2.525-0.007,2.535-0.011,2.537-2.487C203.19,371.12,203.187,363.918,203.187,356.112z M256.437,360.499
		c0,6.008,0.066,12.017-0.039,18.021c-0.033,1.872,0.614,2.465,2.4,2.316c1.508-0.124,3.042-0.129,4.549,0.001
		c1.857,0.161,2.594-0.414,2.508-2.405c-0.154-3.535,0.052-7.085-0.082-10.62c-0.069-1.813,0.591-2.248,2.289-2.216
		c4.993,0.095,9.991-0.002,14.985,0.052c1.534,0.017,2.212-0.533,2.135-2.103c-0.075-1.514-0.103-3.041,0.008-4.55
		c0.135-1.851-0.653-2.419-2.436-2.39c-5.058,0.082-10.117-0.002-15.176,0.047c-1.289,0.013-1.872-0.384-1.782-1.734
		c0.08-1.196,0.131-2.416-0.011-3.601c-0.234-1.964,0.551-2.468,2.451-2.431c5.879,0.117,11.762,0.005,17.642,0.066
		c1.484,0.016,2.058-0.479,1.966-1.97c-0.094-1.512-0.116-3.042,0.005-4.55c0.136-1.694-0.54-2.162-2.177-2.15
		c-9.043,0.064-18.086,0.069-27.128-0.002c-1.699-0.015-2.159,0.57-2.138,2.195C256.483,348.484,256.437,354.492,256.437,360.499z
		 M157.757,360.573c0,6.067,0.041,12.135-0.028,18.202c-0.018,1.567,0.506,2.149,2.071,2.059c1.764-0.102,3.543-0.104,5.307,0
		c1.588,0.095,2.065-0.533,2.05-2.078c-0.064-6.51-0.026-13.021-0.026-19.53c0-5.625-0.044-11.25,0.026-16.874
		c0.02-1.568-0.506-2.149-2.071-2.06c-1.764,0.103-3.543,0.104-5.306,0c-1.588-0.095-2.068,0.533-2.051,2.079
		C157.796,348.438,157.757,354.506,157.757,360.573z"/>
	<path style="fill-rule:evenodd;clip-rule:evenodd;" d="M266.058,0.379c4.753,0.856,9.591,1.197,14.286,2.405
		c9.027,2.321,17.827,5.286,26.142,9.531c7.988,4.079,15.462,9.01,22.188,14.927c7.188,6.323,13.873,13.182,19.424,21.04
		c5.371,7.605,9.895,15.66,13.208,24.407c1.245,3.289,2.61,6.56,3.509,9.932c1.287,4.83,2.376,9.715,3.229,14.674
		c1.421,8.249,0.812,16.494,0.986,24.742c0.118,5.565-1.038,10.991-1.995,16.442c-1.003,5.707-2.679,11.226-4.664,16.631
		c-1.791,4.874-3.869,9.648-6.378,14.226c-1.624,2.965-3.269,5.902-5.139,8.724c-3.245,4.896-6.691,9.631-10.726,13.908
		c-7.152,7.583-14.779,14.617-23.609,20.251c-8.146,5.198-16.806,9.351-25.945,12.436c-5.291,1.786-10.68,3.403-16.227,4.134
		c-4.166,0.548-8.303,1.455-12.557,1.368c-4.741-0.097-9.487-0.068-14.23-0.011c-5.639,0.069-11.152-0.917-16.646-1.96
		c-8.111-1.541-15.922-4.141-23.467-7.454c-8.953-3.932-17.313-8.923-24.925-15.077c-8.919-7.212-16.793-15.388-23.318-24.898
		c-4.593-6.695-8.453-13.746-11.609-21.181c-3.391-7.991-5.727-16.324-7.271-24.868c-1.604-8.879-1.216-17.856-1.139-26.806
		c0.064-7.456,1.527-14.718,3.336-21.937c1.44-5.747,3.438-11.28,5.759-16.699c2.836-6.623,6.318-12.893,10.4-18.858
		c3.888-5.683,8.213-11.003,13.005-15.894c3.816-3.896,7.919-7.534,12.273-10.877c5.542-4.255,11.381-8.062,17.6-11.179
		c5.6-2.806,11.401-5.192,17.429-7.086c4.876-1.532,9.808-2.74,14.787-3.738c2.873-0.577,5.847-0.74,8.752-1.253
		C250.37,0.379,258.214,0.379,266.058,0.379z M148.279,129.433c0.589-1.067,0.998-1.7,1.303-2.38
		c3.041-6.794,7.386-12.721,12.475-18.062c5.464-5.737,11.742-10.485,18.97-13.84c1.579-0.733,1.717-1.64,0.972-2.961
		c-0.567-1.005-0.916-2.072-1.03-3.214c-0.234-2.34,0.773-4.01,2.821-4.704c2.176-0.737,4.117-0.008,5.283,2.123
		c0.506,0.926,0.793,1.974,1.158,2.975c0.455,1.25,1.102,1.844,2.574,1.294c1.335-0.498,2.807-0.656,4.188-1
		c6.553-1.632,13.134-1.815,19.854-1.458c6.3,0.335,12.291,1.701,18.185,3.75c0.75,0.261,1.329,0.225,1.444-0.574
		c0.241-1.676,1.512-2.843,1.976-4.441c0.66-2.271,3.566-3.494,5.706-2.705c2.221,0.819,3.407,3.133,2.624,5.532
		c-0.542,1.657-1.288,3.268-2.119,4.804c-0.472,0.872-0.493,1.329,0.423,1.793c1.169,0.593,2.315,1.239,3.436,1.92
		c4.754,2.892,9.094,6.379,12.941,10.339c4.688,4.825,8.792,10.166,11.901,16.215c0.515,1.002,0.479,2.646,1.766,2.909
		c1.21,0.248,2.376-0.669,3.537-1.149c2.358-0.976,5.591,0.139,6.354,2.165c0.9,2.393-0.281,4.816-2.902,5.902
		c-0.872,0.361-1.781,0.633-2.646,1.008c-0.791,0.343-1.529,0.826-1.037,1.861c1.073,2.254,1.272,4.737,1.753,7.117
		c1.174,5.816,1.194,11.695,0.924,17.647c-0.283,6.251-1.767,12.152-3.568,18.035c-0.305,0.997-0.073,1.361,0.782,1.694
		c1.348,0.525,2.673,1.108,4,1.686c2.485,1.083,3.628,3.897,2.544,6.231c-0.938,2.018-3.691,2.84-6.06,1.804
		c-1.212-0.53-2.465-0.989-3.614-1.633c-1.12-0.627-1.692-0.509-2.317,0.714c-2.671,5.229-6.286,9.828-10.261,14.085
		c-5.227,5.596-11.276,10.2-18.148,13.662c-1.462,0.736-2.922,1.478-4.711,2.383c5.118,0.731,9.856,0.521,14.555,0.93
		c2.212,0.193,4.373-0.536,6.6-0.391c3.489,0.227,6.875-0.613,10.297-1.13c3.417-0.516,6.826-1.094,10.134-2.042
		c5.011-1.437,9.99-3.024,14.741-5.201c1.927-0.882,4.285-1.248,5.646-2.872c1.917-2.289,3.712-4.75,4.924-7.541
		c2.393-5.512-1.548-11.923-7.187-13.07c-2.622-0.534-5.313-0.958-7.996-1.29c-1.739-0.215-3.114-1.596-3.126-3.175
		c-0.04-4.933-0.045-9.868-0.004-14.801c0.015-1.813,0.796-3.156,2.731-3.564c1.659-0.35,3.298-0.845,4.973-1.054
		c3.291-0.411,6.1-1.508,8.333-4.161c2.168-2.575,2.608-8.025,0.794-10.716c-1.653-2.453-3.641-4.66-5.134-7.222
		c-0.979-1.682-0.97-3.724,0.193-4.885c3.324-3.319,6.661-6.624,10.01-9.918c1.274-1.254,3.921-1.544,5.334-0.58
		c2.646,1.805,5.25,3.66,8.013,5.297c5.571,3.303,11.89,0.763,14.124-4.843c1.208-3.033,1.24-6.271,2.042-9.371
		c0.95-3.679,2.273-4.857,6.147-4.87c3.099-0.011,6.198,0.022,9.298-0.012c1.959-0.021,3.868,0.068,5.478,1.58
		c0.448-7.015-1.869-25.875-4.554-30.495c-1.054,2.946-3.054,5.244-4.572,7.831c-0.639,1.089-2.185,1.921-2.291,2.974
		c-0.124,1.222,1.642,1.899,2.423,2.957c1.521,2.062,1.316,4.409-0.549,6.125c-1.796,1.651-3.69,1.632-5.723-0.091
		c-0.721-0.611-1.462-1.22-2.068-1.938c-0.545-0.646-0.897-0.661-1.501-0.083c-1.63,1.562-3.512,2.778-5.422,3.985
		c-6.088,3.848-12.592,6.541-19.77,7.442c-4.125,0.518-4.131,0.476-4.55,4.644c-0.166,1.651-1.839,3.507-3.315,3.678
		c-2.697,0.313-4.482-0.596-5.307-2.617c-0.424-1.041-0.456-2.119-0.33-3.17c0.188-1.583-0.468-2.095-1.975-2.191
		c-5.062-0.32-9.84-1.813-14.516-3.696c-4.766-1.92-9.073-4.599-13.023-7.855c-0.62-0.511-0.921-0.587-1.511,0.015
		c-0.917,0.936-1.848,1.879-3.06,2.479c-1.889,0.935-3.758,0.666-5.159-0.797c-1.446-1.509-1.648-3.326-0.604-5.174
		c0.626-1.11,1.479-2.028,2.402-2.879c0.573-0.529,0.647-0.894,0.053-1.52c-2.082-2.194-3.631-4.786-5.121-7.389
		c-2.208-3.859-3.908-7.931-5.057-12.256c-0.731-2.754-1.169-5.525-1.434-8.342c-0.101-1.076-0.654-1.582-1.745-1.523
		c-0.568,0.03-1.139,0.015-1.708-0.004c-2.039-0.069-3.99-1.267-4.408-2.693c-0.643-2.198,0.08-4.35,1.827-5.636
		c1.005-0.741,2.153-0.79,3.266-0.633c2.04,0.288,2.641-0.749,2.798-2.533c0.302-3.455,1.05-6.827,2.153-10.116
		c1.821-5.433,4.533-10.412,7.77-15.115c0.669-0.971,2.293-1.674,2.123-2.695c-0.178-1.059-1.497-1.921-2.306-2.88
		c-1.771-2.102-1.828-3.619-0.22-5.542c1.496-1.791,4.385-2.577,5.846-0.836c2.737,3.264,4.628,2.116,7.134-0.114
		c2.056-1.829,4.62-3.054,7.421-4.376c-4.139-1.449-7.997-1.969-11.782-2.82c-5.779-1.299-11.631-1.484-17.45-1.585
		c-5.129-0.088-10.322,0.016-15.435,0.969c-1.107,0.207-1.855,0.596-2.458,1.487c-1.889,2.791-0.652,7.754,2.392,9.199
		c1.874,0.889,3.806,1.577,5.953,1.674c3.541,0.159,5.598,2.03,5.671,5.07c0.079,3.288,0.084,6.58-0.004,9.867
		c-0.075,2.779-1.744,4.353-4.479,4.666c-1.807,0.207-3.61,0.528-5.383,0.935c-5.665,1.3-6.888,7.056-4.683,10.556
		c0.969,1.54,2.123,2.964,3.188,4.444c0.978,1.359,1.112,4.639,0.069,5.536c-2.833,2.44-5.276,5.271-8.009,7.806
		c-1.92,1.781-4.166,1.891-6.134,0.225c-1.169-0.99-2.546-1.638-3.751-2.526c-4.307-3.174-10.341,1.436-10.274,5.879
		c0.023,1.523-0.379,2.999-0.88,4.425c-0.487,1.388-1.518,2.154-3.015,2.159c-4.174,0.015-8.35,0.052-12.524-0.017
		c-1.733-0.028-2.826-1.205-3.127-2.774c-0.429-2.229-1.173-4.384-1.536-6.611c-0.691-4.247-6.632-6.407-10.102-3.994
		c-1.55,1.077-3.078,2.192-4.554,3.368c-2.148,1.711-4.351,1.748-6.279-0.113c-2.352-2.27-4.646-4.599-6.934-6.934
		c-0.766-0.781-1.182-1.029-1.911,0.177c-1.75,2.894-3.252,5.931-4.501,9.028c-2.43,6.032-4.586,12.165-6.03,18.556
		c-1.856,8.218-2.666,16.518-2.683,24.901c-0.004,2.313,0.43,4.644,0.312,6.978C147.669,125.373,148.213,127.132,148.279,129.433z
		 M211.033,96.502c-3.247,0.251-7.407,0.458-11.466,1.315c-4.91,1.036-9.641,2.671-14.156,4.919
		c-7.5,3.733-14.167,8.58-19.531,15.019c-6.825,8.193-11.341,17.555-13.376,28.069c-0.125,0.643-0.154,1.209,0.069,1.839
		c1.738,4.885,3.58,9.71,5.891,14.378c3.007,6.077,6.468,11.854,10.583,17.216c4.214,5.493,8.771,10.672,14.018,15.266
		c5.978,5.234,12.339,9.838,19.253,13.753c5.875,3.327,12.057,5.893,18.386,8.157c0.758,0.271,1.515,0.639,2.381,0.466
		c5.823-1.163,11.474-2.93,16.717-5.689c6.288-3.309,12.001-7.391,16.811-12.777c3.16-3.539,6.053-7.246,8.243-11.376
		c3.681-6.938,6.329-14.213,7.32-22.17c0.759-6.097,0.614-12.092-0.301-18.025c-1.064-6.904-3.611-13.458-7.116-19.509
		c-5.854-10.108-13.868-18.036-24.269-23.583C231.525,98.988,222.013,96.724,211.033,96.502z M307.943,107.309
		c2.544-0.352,5.35-0.648,8.138-1.162c8.79-1.619,16.32-5.694,22.84-11.677c5.475-5.025,9.119-11.308,11.734-18.19
		c0.693-1.825,1.366-3.804,0.262-5.779c-0.397-0.711-0.866-1.388-1.204-2.125c-2.802-6.109-6.374-11.762-10.416-17.098
		c-4.491-5.928-9.395-11.499-15.113-16.315c-2.976-2.506-5.931-5.051-9.152-7.22c-4.684-3.155-9.567-5.98-14.592-8.592
		c-2.651-1.378-5.03-1.442-7.673-0.457c-4.68,1.745-9.043,4.087-12.977,7.142c-8.294,6.441-13.58,14.969-16.184,25.022
		c-1.443,5.572-2.065,11.309-0.889,17.16c1.056,5.252,2.37,10.408,4.974,15.064c3.421,6.118,7.879,11.354,13.706,15.484
		C289.324,104.183,298.189,106.576,307.943,107.309z M315.912,201.667c0.59-0.294,0.958-0.417,1.257-0.635
		c4.583-3.355,8.824-7.107,12.873-11.086c0.748-0.734,0.383-1.344,0.014-2.024c-0.719-1.324-1.615-2.587-2.109-3.99
		c-2.589-7.352-2.455-14.557,1.4-21.519c3.027-5.468,7.461-9.275,13.224-11.669c3.508-1.458,7.139-1.429,10.797-1.319
		c1.123,0.034,1.753-0.321,2.087-1.418c1.097-3.597,2.197-7.19,2.974-10.874c0.112-0.534,0.038-0.99-0.329-1.409
		c-2.457-2.804-3.337-6.254-3.983-9.794c-0.634-3.476-0.703-2.744-3.491-2.825c-0.253-0.007-0.511,0.03-0.759-0.006
		c-1.897-0.279-2.29,0.784-2.488,2.419c-0.479,3.937-1.532,7.625-3.95,10.976c-5.753,7.977-18.188,9.529-25.861,3.798
		c-3.932-2.936-3.916-2.909-7.157,0.554c-0.706,0.754-0.759,1.231-0.074,2.06c2.924,3.543,4.819,7.476,4.831,12.237
		c0.017,6.834-2.688,12.109-8.333,15.982c-2.689,1.845-5.791,2.36-8.804,3.2c-0.793,0.222-1.526,0.471-1.445,1.431
		c0.13,1.534-0.506,3.146,0.429,4.587c0.097,0.149,0.467,0.16,0.712,0.167c2.303,0.071,4.488,0.709,6.58,1.572
		c5.188,2.142,8.891,5.724,10.749,11.155C315.979,195.945,315.914,198.692,315.912,201.667z M227.244,12.13
		c-4.221,0.925-8.087,2.418-11.998,3.77c-1.111,0.384-1.194,0.876-0.397,1.704c0.777,0.807,1.558,1.631,2.197,2.545
		c3.302,4.726,3.639,10.189,2.578,15.443c-1.673,8.285-8.706,14.133-17.126,14.969c-8.9,0.885-16.609-3.919-20.125-12.261
		c-0.537-1.274-0.992-1.135-1.817-0.26c-2.034,2.155-4.215,4.165-6.107,6.462c-0.584,0.71-0.608,1.375-0.422,2.094
		c0.571,2.199,0.356,4.361-0.103,6.541c-0.423,2.009-1.365,3.784-2.472,5.456c-0.922,1.392,0.054,2.027,0.823,2.855
		c0.925,0.995,1.404,0.125,1.986-0.399c1.485-1.338,3.332-2.171,5.173-2.579c4.11-0.91,8.187-0.911,12.074,1.318
		c4.512,2.587,7.177,6.323,7.866,11.446c0.134,0.997,0.472,1.386,1.49,1.531c1.733,0.246,2.102-0.765,2.439-2.102
		c2.676-10.594,14.814-15.018,23.523-9.4c0.875,0.564,1.513,0.856,2.409-0.096c0.884-0.939,1.126-1.663,0.338-2.769
		c-1.316-1.849-2.41-3.795-2.637-6.155c-0.502-5.22,0.193-10.016,4.166-13.913c2.608-2.558,5.59-4.226,9.259-4.571
		c0.947-0.089,1.792-0.063,1.715-1.547c-0.069-1.331-0.121-2.289-1.729-2.472c-3.176-0.361-5.886-1.826-8.124-4.018
		C228.507,22.083,226.861,17.583,227.244,12.13z M200.653,41.995c4.248-0.109,8.459-2.654,10.041-7.046
		c1.488-4.132,0.928-8.165-2.384-11.463c-2.935-2.923-2.939-2.938-6.52-1.039c-4.047,2.147-7.846,4.679-11.477,7.467
		c-0.471,0.362-0.802,0.787-0.738,1.437C190.157,37.316,194.416,41.856,200.653,41.995z M351.772,157.779
		c-15.08,0.749-19.938,16.425-14.693,24.074C342.975,174.5,347.88,166.572,351.772,157.779z"/>
	<path style="fill-rule:evenodd;clip-rule:evenodd;" d="M325.266,381.059c-5.742-1.661-10.26-4.856-13.276-10.15
		c-4.015-7.045-3.057-17.029,1.992-23.443c7.134-9.064,21.611-10.505,30.596-3.537c10.204,7.912,10.571,22.604,2.356,31.083
		c-2.905,2.998-6.355,4.881-10.281,6.048C332.856,381.059,329.062,381.059,325.266,381.059z M319.327,360.389
		c-0.117,6.942,4.984,12.64,11.653,12.485c6.746-0.156,11.694-4.605,11.788-12.319c0.082-6.81-5.198-12.179-11.796-12.203
		C324.36,348.328,319.338,353.521,319.327,360.389z"/>
	<path style="fill-rule:evenodd;clip-rule:evenodd;" d="M203.187,356.112c0,7.806,0.003,15.008-0.002,22.211
		c-0.002,2.477-0.012,2.48-2.537,2.487c-1.707,0.005-3.415-0.04-5.12,0.01c-1.168,0.034-1.728-0.345-1.725-1.614
		c0.026-12.453,0.023-24.906,0.004-37.359c-0.002-1.161,0.506-1.608,1.604-1.527c0.125,0.01,0.253-0.001,0.379-0.004
		c6.987-0.167,6.937-0.131,12.292,7.151c4.043,5.498,8.235,10.887,12.676,16.739c0-4.545,0-8.568,0-12.592
		c0-3.098,0.07-6.197-0.026-9.292c-0.051-1.605,0.569-2.114,2.101-2.029c1.765,0.098,3.543,0.107,5.307-0.002
		c1.626-0.1,2.028,0.602,2.019,2.111c-0.053,8.154-0.024,16.309-0.024,24.463c0,3.856-0.076,7.715,0.033,11.567
		c0.05,1.759-0.412,2.438-2.305,2.422c-5.948-0.053-5.89-0.024-9.496-4.834C213.474,369.493,208.479,363.043,203.187,356.112z"/>
	<path style="fill-rule:evenodd;clip-rule:evenodd;" d="M256.437,360.499c0-6.007,0.047-12.015-0.03-18.021
		c-0.021-1.625,0.438-2.21,2.138-2.195c9.042,0.071,18.085,0.066,27.128,0.002c1.637-0.012,2.313,0.456,2.177,2.15
		c-0.121,1.508-0.099,3.038-0.005,4.55c0.092,1.49-0.481,1.985-1.966,1.97c-5.88-0.062-11.763,0.051-17.642-0.066
		c-1.9-0.037-2.686,0.467-2.451,2.431c0.142,1.185,0.091,2.404,0.011,3.601c-0.09,1.351,0.493,1.747,1.782,1.734
		c5.059-0.049,10.118,0.035,15.176-0.047c1.782-0.029,2.57,0.539,2.436,2.39c-0.11,1.509-0.083,3.036-0.008,4.55
		c0.077,1.569-0.601,2.119-2.135,2.103c-4.994-0.054-9.992,0.043-14.985-0.052c-1.698-0.032-2.358,0.403-2.289,2.216
		c0.134,3.535-0.072,7.085,0.082,10.62c0.086,1.991-0.65,2.566-2.508,2.405c-1.507-0.13-3.041-0.125-4.549-0.001
		c-1.786,0.148-2.434-0.444-2.4-2.316C256.503,372.516,256.437,366.507,256.437,360.499z"/>
	<path style="fill-rule:evenodd;clip-rule:evenodd;" d="M157.757,360.573c0-6.067,0.039-12.136-0.028-18.202
		c-0.017-1.546,0.462-2.174,2.051-2.079c1.763,0.104,3.542,0.103,5.306,0c1.565-0.09,2.091,0.491,2.071,2.06
		c-0.071,5.624-0.026,11.249-0.026,16.874c0,6.51-0.038,13.021,0.026,19.53c0.015,1.545-0.462,2.173-2.05,2.078
		c-1.764-0.104-3.543-0.102-5.307,0c-1.565,0.091-2.089-0.491-2.071-2.059C157.798,372.708,157.757,366.641,157.757,360.573z"/>
	<path style="fill-rule:evenodd;clip-rule:evenodd;fill:none;" d="M148.279,129.433c-0.066-2.301-0.61-4.06-0.516-5.905
		c0.118-2.334-0.316-4.665-0.312-6.978c0.017-8.383,0.826-16.683,2.683-24.901c1.443-6.391,3.6-12.523,6.03-18.556
		c1.249-3.098,2.75-6.134,4.501-9.028c0.729-1.206,1.145-0.958,1.911-0.177c2.288,2.334,4.583,4.664,6.934,6.934
		c1.928,1.861,4.131,1.824,6.279,0.113c1.476-1.176,3.004-2.291,4.554-3.368c3.469-2.414,9.41-0.253,10.102,3.994
		c0.363,2.228,1.107,4.382,1.536,6.611c0.302,1.569,1.394,2.746,3.127,2.774c4.174,0.069,8.35,0.032,12.524,0.017
		c1.497-0.005,2.528-0.771,3.015-2.159c0.5-1.426,0.903-2.901,0.88-4.425c-0.067-4.443,5.967-9.053,10.274-5.879
		c1.205,0.888,2.582,1.536,3.751,2.526c1.968,1.666,4.214,1.556,6.134-0.225c2.733-2.536,5.177-5.366,8.009-7.806
		c1.042-0.897,0.908-4.177-0.069-5.536c-1.065-1.48-2.218-2.904-3.188-4.444c-2.205-3.5-0.982-9.256,4.683-10.556
		c1.773-0.407,3.576-0.728,5.383-0.935c2.735-0.313,4.404-1.887,4.479-4.666c0.088-3.287,0.083-6.579,0.004-9.867
		c-0.073-3.04-2.13-4.911-5.671-5.07c-2.147-0.097-4.079-0.785-5.953-1.674c-3.044-1.444-4.281-6.408-2.392-9.199
		c0.603-0.891,1.35-1.28,2.458-1.487c5.112-0.953,10.305-1.058,15.435-0.969c5.819,0.101,11.671,0.286,17.45,1.585
		c3.785,0.851,7.644,1.372,11.782,2.82c-2.801,1.322-5.365,2.547-7.421,4.376c-2.506,2.23-4.396,3.377-7.134,0.114
		c-1.461-1.741-4.35-0.954-5.846,0.836c-1.608,1.922-1.552,3.439,0.22,5.542c0.809,0.958,2.128,1.821,2.306,2.88
		c0.17,1.021-1.454,1.724-2.123,2.695c-3.236,4.704-5.948,9.683-7.77,15.115c-1.103,3.289-1.851,6.661-2.153,10.116
		c-0.157,1.785-0.758,2.821-2.798,2.533c-1.112-0.157-2.26-0.108-3.266,0.633c-1.747,1.287-2.47,3.438-1.827,5.636
		c0.418,1.427,2.369,2.625,4.408,2.693c0.569,0.019,1.14,0.034,1.708,0.004c1.091-0.059,1.644,0.448,1.745,1.523
		c0.264,2.817,0.702,5.588,1.434,8.342c1.149,4.325,2.849,8.397,5.057,12.256c1.49,2.603,3.039,5.194,5.121,7.389
		c0.595,0.626,0.521,0.991-0.053,1.52c-0.923,0.851-1.776,1.769-2.402,2.879c-1.044,1.848-0.842,3.665,0.604,5.174
		c1.401,1.463,3.271,1.732,5.159,0.797c1.212-0.6,2.143-1.543,3.06-2.479c0.59-0.602,0.891-0.526,1.511-0.015
		c3.95,3.256,8.258,5.936,13.023,7.855c4.676,1.883,9.454,3.376,14.516,3.696c1.507,0.096,2.163,0.608,1.975,2.191
		c-0.126,1.051-0.094,2.13,0.33,3.17c0.824,2.021,2.609,2.93,5.307,2.617c1.477-0.171,3.149-2.027,3.315-3.678
		c0.419-4.167,0.425-4.126,4.55-4.644c7.178-0.901,13.682-3.595,19.77-7.442c1.91-1.207,3.792-2.424,5.422-3.985
		c0.604-0.578,0.956-0.563,1.501,0.083c0.606,0.717,1.348,1.327,2.068,1.938c2.032,1.723,3.927,1.742,5.723,0.091
		c1.865-1.715,2.07-4.063,0.549-6.125c-0.781-1.058-2.547-1.735-2.423-2.957c0.106-1.053,1.652-1.885,2.291-2.974
		c1.519-2.587,3.519-4.885,4.572-7.831c2.685,4.621,5.002,23.48,4.554,30.495c-1.609-1.512-3.519-1.601-5.478-1.58
		c-3.1,0.034-6.199,0.001-9.298,0.012c-3.874,0.013-5.197,1.191-6.147,4.87c-0.802,3.1-0.834,6.337-2.042,9.371
		c-2.234,5.606-8.553,8.146-14.124,4.843c-2.763-1.637-5.367-3.493-8.013-5.297c-1.413-0.964-4.06-0.674-5.334,0.58
		c-3.349,3.294-6.686,6.599-10.01,9.918c-1.163,1.161-1.173,3.203-0.193,4.885c1.493,2.563,3.48,4.769,5.134,7.222
		c1.814,2.691,1.374,8.141-0.794,10.716c-2.233,2.653-5.042,3.75-8.333,4.161c-1.675,0.209-3.313,0.705-4.973,1.054
		c-1.936,0.409-2.717,1.752-2.731,3.564c-0.041,4.934-0.036,9.868,0.004,14.801c0.012,1.579,1.387,2.959,3.126,3.175
		c2.683,0.332,5.374,0.756,7.996,1.29c5.639,1.147,9.579,7.559,7.187,13.07c-1.212,2.792-3.007,5.252-4.924,7.541
		c-1.36,1.624-3.719,1.99-5.646,2.872c-4.751,2.176-9.73,3.764-14.741,5.201c-3.308,0.948-6.717,1.526-10.134,2.042
		c-3.422,0.517-6.808,1.357-10.297,1.13c-2.228-0.145-4.388,0.584-6.6,0.391c-4.699-0.409-9.437-0.199-14.555-0.93
		c1.789-0.905,3.249-1.647,4.711-2.383c6.872-3.462,12.921-8.066,18.148-13.662c3.975-4.257,7.59-8.856,10.261-14.085
		c0.625-1.224,1.197-1.341,2.317-0.714c1.149,0.644,2.402,1.103,3.614,1.633c2.368,1.037,5.122,0.214,6.06-1.804
		c1.084-2.334-0.059-5.148-2.544-6.231c-1.327-0.578-2.652-1.161-4-1.686c-0.855-0.333-1.087-0.697-0.782-1.694
		c1.802-5.883,3.285-11.784,3.568-18.035c0.271-5.953,0.25-11.831-0.924-17.647c-0.48-2.38-0.68-4.863-1.753-7.117
		c-0.492-1.035,0.246-1.519,1.037-1.861c0.865-0.375,1.774-0.646,2.646-1.008c2.621-1.086,3.803-3.509,2.902-5.902
		c-0.763-2.026-3.995-3.14-6.354-2.165c-1.161,0.48-2.327,1.397-3.537,1.149c-1.286-0.263-1.251-1.907-1.766-2.909
		c-3.109-6.049-7.214-11.39-11.901-16.215c-3.847-3.959-8.187-7.447-12.941-10.339c-1.12-0.682-2.266-1.328-3.436-1.92
		c-0.916-0.465-0.895-0.921-0.423-1.793c0.831-1.536,1.577-3.146,2.119-4.804c0.783-2.399-0.403-4.713-2.624-5.532
		c-2.139-0.789-5.046,0.435-5.706,2.705c-0.464,1.599-1.735,2.766-1.976,4.441c-0.115,0.798-0.693,0.835-1.444,0.574
		c-5.894-2.049-11.885-3.415-18.185-3.75c-6.72-0.358-13.301-0.174-19.854,1.458c-1.381,0.344-2.854,0.502-4.188,1
		c-1.472,0.55-2.119-0.044-2.574-1.294c-0.364-1.001-0.651-2.049-1.158-2.975c-1.166-2.131-3.107-2.86-5.283-2.123
		c-2.047,0.694-3.055,2.364-2.821,4.704c0.114,1.142,0.463,2.208,1.03,3.214c0.745,1.322,0.607,2.228-0.972,2.961
		c-7.228,3.355-13.505,8.104-18.97,13.84c-5.088,5.341-9.434,11.268-12.475,18.062C149.277,127.732,148.868,128.365,148.279,129.433
		z"/>
	<path style="fill-rule:evenodd;clip-rule:evenodd;fill:none;" d="M211.033,96.502c10.98,0.222,20.492,2.486,29.458,7.268
		c10.4,5.546,18.414,13.474,24.269,23.583c3.505,6.051,6.052,12.605,7.116,19.509c0.915,5.933,1.06,11.928,0.301,18.025
		c-0.991,7.958-3.64,15.232-7.32,22.17c-2.19,4.131-5.083,7.837-8.243,11.376c-4.81,5.386-10.523,9.468-16.811,12.777
		c-5.244,2.759-10.894,4.527-16.717,5.689c-0.866,0.173-1.624-0.195-2.381-0.466c-6.329-2.265-12.511-4.831-18.386-8.157
		c-6.915-3.915-13.275-8.52-19.253-13.753c-5.247-4.594-9.803-9.773-14.018-15.266c-4.114-5.361-7.575-11.139-10.583-17.216
		c-2.311-4.668-4.152-9.493-5.891-14.378c-0.224-0.629-0.194-1.196-0.069-1.839c2.035-10.515,6.551-19.876,13.376-28.069
		c5.364-6.439,12.032-11.285,19.531-15.019c4.516-2.248,9.247-3.883,14.156-4.919C203.626,96.96,207.786,96.753,211.033,96.502z
		 M243.039,157.34c0.445-17.51-14.247-30.114-28.708-31.139c-18.549-1.314-35.239,14.047-33.388,34.129
		c1.346,14.603,13.125,27.144,29.614,28.066C228.415,189.396,243.56,174.426,243.039,157.34z"/>
	<path style="fill-rule:evenodd;clip-rule:evenodd;fill:none;" d="M307.943,107.309c-9.754-0.732-18.619-3.125-26.546-8.742
		c-5.827-4.13-10.285-9.366-13.706-15.484c-2.604-4.657-3.918-9.812-4.974-15.064c-1.177-5.851-0.555-11.588,0.889-17.16
		c2.604-10.053,7.89-18.581,16.184-25.022c3.934-3.055,8.297-5.397,12.977-7.142c2.643-0.985,5.021-0.921,7.673,0.457
		c5.024,2.612,9.908,5.437,14.592,8.592c3.222,2.169,6.177,4.714,9.152,7.22c5.719,4.817,10.622,10.387,15.113,16.315
		c4.042,5.336,7.614,10.988,10.416,17.098c0.338,0.737,0.807,1.414,1.204,2.125c1.104,1.975,0.432,3.954-0.262,5.779
		c-2.615,6.882-6.26,13.165-11.734,18.19c-6.52,5.983-14.05,10.058-22.84,11.677C313.293,106.66,310.487,106.957,307.943,107.309z
		 M307.619,77.18c8.581,0.569,15.92-6.438,15.871-15.708c-0.046-8.951-7.176-15.595-15.733-15.662
		c-8.871-0.069-15.664,7.057-15.789,15.73C291.838,70.596,299.729,77.934,307.619,77.18z"/>
	<path style="fill-rule:evenodd;clip-rule:evenodd;fill:none;" d="M315.912,201.667c0.002-2.975,0.066-5.722-0.859-8.429
		c-1.858-5.432-5.562-9.014-10.749-11.155c-2.092-0.863-4.277-1.501-6.58-1.572c-0.245-0.007-0.615-0.019-0.712-0.167
		c-0.935-1.441-0.299-3.054-0.429-4.587c-0.081-0.96,0.652-1.209,1.445-1.431c3.013-0.839,6.114-1.354,8.804-3.2
		c5.646-3.873,8.35-9.148,8.333-15.982c-0.012-4.761-1.907-8.694-4.831-12.237c-0.685-0.829-0.632-1.306,0.074-2.06
		c3.241-3.463,3.226-3.489,7.157-0.554c7.674,5.73,20.108,4.178,25.861-3.798c2.418-3.351,3.471-7.039,3.95-10.976
		c0.198-1.635,0.591-2.698,2.488-2.419c0.248,0.036,0.506-0.001,0.759,0.006c2.788,0.081,2.857-0.651,3.491,2.825
		c0.646,3.54,1.526,6.99,3.983,9.794c0.367,0.418,0.441,0.875,0.329,1.409c-0.776,3.684-1.877,7.277-2.974,10.874
		c-0.334,1.097-0.964,1.452-2.087,1.418c-3.658-0.109-7.289-0.138-10.797,1.319c-5.763,2.394-10.196,6.201-13.224,11.669
		c-3.855,6.961-3.989,14.167-1.4,21.519c0.494,1.403,1.391,2.667,2.109,3.99c0.369,0.68,0.734,1.29-0.014,2.024
		c-4.049,3.979-8.29,7.73-12.873,11.086C316.87,201.25,316.502,201.373,315.912,201.667z"/>
	<path style="fill-rule:evenodd;clip-rule:evenodd;fill:none;" d="M227.244,12.13c-0.383,5.453,1.263,9.953,4.979,13.593
		c2.237,2.192,4.947,3.657,8.124,4.018c1.608,0.183,1.66,1.141,1.729,2.472c0.077,1.484-0.768,1.458-1.715,1.547
		c-3.669,0.345-6.651,2.013-9.259,4.571c-3.973,3.897-4.667,8.693-4.166,13.913c0.227,2.36,1.32,4.307,2.637,6.155
		c0.788,1.106,0.546,1.83-0.338,2.769c-0.896,0.952-1.534,0.66-2.409,0.096c-8.709-5.618-20.848-1.194-23.523,9.4
		c-0.338,1.337-0.706,2.348-2.439,2.102c-1.018-0.145-1.355-0.534-1.49-1.531c-0.689-5.123-3.354-8.859-7.866-11.446
		c-3.887-2.229-7.964-2.228-12.074-1.318c-1.841,0.407-3.688,1.241-5.173,2.579c-0.582,0.525-1.061,1.395-1.986,0.399
		c-0.77-0.828-1.746-1.463-0.823-2.855c1.107-1.671,2.049-3.446,2.472-5.456c0.459-2.18,0.674-4.342,0.103-6.541
		c-0.187-0.719-0.162-1.384,0.422-2.094c1.892-2.298,4.073-4.308,6.107-6.462c0.825-0.875,1.28-1.014,1.817,0.26
		c3.516,8.342,11.225,13.146,20.125,12.261c8.421-0.836,15.453-6.685,17.126-14.969c1.061-5.254,0.724-10.717-2.578-15.443
		c-0.639-0.915-1.42-1.739-2.197-2.545c-0.797-0.827-0.714-1.32,0.397-1.704C219.157,14.548,223.023,13.055,227.244,12.13z"/>
	<path style="fill-rule:evenodd;clip-rule:evenodd;fill:none;" d="M200.653,41.995c-6.237-0.139-10.496-4.679-11.078-10.644
		c-0.063-0.649,0.267-1.075,0.738-1.437c3.631-2.788,7.43-5.32,11.477-7.467c3.581-1.899,3.585-1.884,6.52,1.039
		c3.312,3.298,3.872,7.331,2.384,11.463C209.112,39.34,204.901,41.886,200.653,41.995z"/>
	<path style="fill-rule:evenodd;clip-rule:evenodd;fill:none;" d="M351.772,157.779c-3.893,8.793-8.798,16.721-14.693,24.074
		C331.834,174.205,336.692,158.528,351.772,157.779z"/>
	<path style="fill-rule:evenodd;clip-rule:evenodd;fill:none;" d="M319.327,360.389c0.011-6.868,5.033-12.061,11.646-12.037
		c6.598,0.024,11.878,5.394,11.796,12.203c-0.094,7.714-5.042,12.163-11.788,12.319C324.312,373.028,319.21,367.331,319.327,360.389
		z"/>
	<path style="fill-rule:evenodd;clip-rule:evenodd;" d="M243.039,157.34c0.521,17.085-14.625,32.056-32.481,31.057
		c-16.489-0.922-28.269-13.463-29.614-28.066c-1.851-20.083,14.839-35.444,33.388-34.129
		C228.792,127.226,243.484,139.83,243.039,157.34z M234.421,157.309c-0.127-12.395-9.968-22.432-22.403-22.432
		c-12.849,0-22.508,10.39-22.406,22.519c0.106,12.604,9.799,22.331,22.445,22.289C224.596,179.643,234.223,169.798,234.421,157.309z
		"/>
	<path style="fill-rule:evenodd;clip-rule:evenodd;" d="M307.619,77.18c-7.891,0.754-15.781-6.584-15.651-15.641
		c0.125-8.673,6.918-15.799,15.789-15.73c8.558,0.067,15.688,6.711,15.733,15.662C323.539,70.742,316.2,77.75,307.619,77.18z
		 M314.87,61.443c-0.067-3.71-3.402-7.019-7.076-7.02c-3.812-0.001-7.533,3.741-7.349,7.388c0.174,3.424,3.957,7.112,7.228,7.045
		C311.369,68.78,314.937,65.106,314.87,61.443z"/>
	<path style="fill-rule:evenodd;clip-rule:evenodd;fill:none;" d="M234.421,157.309c-0.199,12.489-9.825,22.334-22.363,22.376
		c-12.646,0.042-22.339-9.685-22.445-22.289c-0.102-12.128,9.557-22.519,22.406-22.519
		C224.453,134.877,234.294,144.914,234.421,157.309z M227.857,157.448c0.156-9.081-7.165-15.896-15.566-16.019
		c-9.01-0.132-16.118,7.112-16.188,15.661c-0.072,8.872,7.196,16.207,16.045,16.087C220.729,173.06,227.737,166.296,227.857,157.448
		z"/>
	<path style="fill-rule:evenodd;clip-rule:evenodd;fill:none;" d="M314.87,61.443c0.066,3.664-3.501,7.337-7.197,7.413
		c-3.271,0.067-7.054-3.621-7.228-7.045c-0.185-3.647,3.537-7.389,7.349-7.388C311.468,54.424,314.803,57.732,314.87,61.443z"/>
	<path style="fill-rule:evenodd;clip-rule:evenodd;" d="M227.857,157.448c-0.121,8.848-7.128,15.612-15.708,15.729
		c-8.849,0.12-16.117-7.215-16.045-16.087c0.069-8.549,7.178-15.792,16.188-15.661C220.693,141.552,228.013,148.367,227.857,157.448
		z M218.865,157.38c-0.016-4.472-2.599-6.966-7.193-6.949c-4.232,0.016-6.613,2.784-6.649,7.731
		c-0.023,3.262,3.331,6.059,7.247,6.044C216.203,164.192,218.879,161.421,218.865,157.38z"/>
	<path style="fill-rule:evenodd;clip-rule:evenodd;fill:none;" d="M218.865,157.38c0.015,4.041-2.662,6.812-6.595,6.827
		c-3.917,0.015-7.27-2.782-7.247-6.044c0.036-4.947,2.417-7.715,6.649-7.731C216.266,150.414,218.849,152.909,218.865,157.38z"/>
</g>
</svg>
