<?xml version="1.0" encoding="iso-8859-1"?>
<!-- Generator: Adobe Illustrator 16.0.0, SVG Export Plug-In . SVG Version: 6.00 Build 0)  -->
<!DOCTYPE svg PUBLIC "-//W3C//DTD SVG 1.1//EN" "http://www.w3.org/Graphics/SVG/1.1/DTD/svg11.dtd">
<svg version="1.1" id="Layer_1" xmlns="http://www.w3.org/2000/svg" xmlns:xlink="http://www.w3.org/1999/xlink" x="0px" y="0px"
	 width="512px" height="381.059px" viewBox="0 0 512 381.059" style="enable-background:new 0 0 512 381.059;" xml:space="preserve"
	>
<g>
	<path style="fill-rule:evenodd;clip-rule:evenodd;fill:none;" d="M209.506,381.059c-69.14,0-138.279-0.006-207.419,0.035
		c-1.423,0.001-1.744-0.32-1.743-1.743c0.038-125.754,0.038-251.509,0-377.263c0-1.422,0.32-1.744,1.743-1.744
		c81.665,0.04,163.329,0.036,244.993,0.036c-3.621,1.263-6.821,3.123-9.467,5.996c-4.273,4.64-5.938,10.175-4.89,16.184
		c1.339,7.682,5.868,13.103,13.422,15.631c1.537,0.514,1.68,1.473,1.542,2.749c-0.166,1.534-1.378,1.033-2.208,1.036
		c-9.235,0.033-18.47,0.031-27.705,0.009c-1.221-0.002-2.344,0.278-3.504,0.629c-4.953,1.496-8.816,7.225-8.357,12.391
		c0.239,2.699-0.041,5.439,0.073,8.155c0.068,1.629-0.568,2.063-2.095,2.016c-2.97-0.093-5.947,0.036-8.917-0.054
		c-1.442-0.043-2.481,0.409-3.499,1.439c-6.581,6.658-13.223,13.255-19.837,19.879c-1.861,1.863-1.862,2.124-0.008,3.98
		c6.705,6.713,13.441,13.394,20.103,20.15c1.119,1.134,2.257,1.563,3.831,1.559c16.635-0.049,33.271-0.015,49.906-0.055
		c1.517-0.003,2.275,0.216,2.271,2.031c-0.055,25.174-0.049,50.349-0.009,75.523c0.002,1.53-0.517,1.954-1.981,1.934
		c-4.997-0.069-9.995,0.023-14.991-0.053c-1.577-0.024-2.094,0.521-2.059,2.078c0.085,3.667-0.015,7.337,0.046,11.005
		c0.022,1.313-0.432,1.802-1.757,1.766c-2.591-0.071-5.188,0.033-7.778-0.038c-1.376-0.038-1.9,0.438-1.89,1.852
		c0.05,6.705,0.049,13.41,0,20.114c-0.01,1.395,0.48,1.87,1.872,1.868c22.012-0.029,44.024-0.03,66.036,0
		c1.412,0.002,1.862-0.513,1.853-1.887c-0.047-6.704-0.051-13.41,0.001-20.114c0.012-1.435-0.553-1.868-1.908-1.833
		c-2.592,0.068-5.188-0.035-7.779,0.039c-1.347,0.039-1.758-0.492-1.737-1.785c0.058-3.667-0.042-7.338,0.046-11.005
		c0.038-1.579-0.522-2.082-2.078-2.059c-4.996,0.074-9.995-0.042-14.989,0.066c-1.588,0.034-1.977-0.406-1.974-1.98
		c0.053-25.174,0.052-50.349,0.002-75.523c-0.003-1.537,0.319-2.024,1.939-2.012c10.183,0.077,20.367,0.117,30.55,0.013
		c7.414-0.077,13.379-5.345,13.106-13.064c-0.096-2.716,0.063-5.442-0.044-8.158c-0.061-1.544,0.529-1.972,1.988-1.929
		c2.907,0.087,5.823-0.07,8.727,0.062c1.747,0.079,2.979-0.499,4.117-1.785c1.583-1.789,3.32-3.441,5.012-5.13
		c5.074-5.067,10.155-10.126,15.24-15.181c0.927-0.921,0.737-1.908-0.025-2.689c-2.361-2.421-4.823-4.745-7.22-7.131
		c-4.318-4.299-8.642-8.593-12.909-12.943c-1.329-1.354-2.648-2.188-4.72-2.177c-17.9,0.089-35.801,0.059-53.701,0.021
		c-0.672-0.001-1.887,0.637-1.973-0.672c-0.071-1.085-0.741-2.625,1.267-2.989c0.788-0.143,1.524-0.583,2.277-0.904
		c4.481-1.914,7.539-5.232,9.739-9.53c1.864-3.64,1.576-7.494,1.408-11.313c-0.204-4.634-2.653-8.255-5.832-11.438
		c-2.328-2.332-5.342-3.478-8.286-4.739c84.574,0,169.148,0.004,253.723-0.036c1.423,0,1.744,0.321,1.743,1.744
		c-0.038,125.754-0.038,251.508,0,377.263c0,1.422-0.32,1.744-1.743,1.743c-79.134-0.04-158.269-0.035-237.402-0.035
		c1.429-3.63,2.846-7.264,4.289-10.887c3.724-9.354,7.427-18.715,11.22-28.04c0.631-1.552,0.21-1.873-1.261-1.831
		c-2.085,0.06-4.18,0.123-6.256-0.021c-1.582-0.109-2.284,0.64-2.76,1.963c-1.383,3.849-2.791,7.688-4.208,11.524
		c-1.671,4.521-3.36,9.034-5.142,13.82c-0.405-0.842-0.718-1.376-0.931-1.947c-2.897-7.783-5.825-15.555-8.629-23.371
		c-0.545-1.519-1.295-2.079-2.871-1.984c-2.016,0.121-4.044,0.021-6.067,0.032c-2.14,0.011-2.21,0.137-1.423,2.109
		c2.938,7.364,5.807,14.755,8.819,22.088c2.268,5.523,4.262,11.162,6.87,16.544c-15.182,0-30.363,0-45.545,0
		c5.929-1.461,10.107-5.625,10.104-11.931c-0.001-3.612-0.779-6.767-4.009-9.033c-3.185-2.234-6.823-3.143-10.438-4.197
		c-1.807-0.527-3.675-0.9-5.284-1.948c-1.01-0.657-1.747-1.609-1.505-2.824c0.234-1.178,0.852-2.236,2.221-2.571
		c0.734-0.18,1.447-0.372,2.22-0.395c3.567-0.108,6.645,1.253,9.494,3.195c1.03,0.702,1.628,0.626,2.291-0.41
		c0.949-1.482,1.942-2.944,3.02-4.334c0.91-1.173,0.74-1.89-0.5-2.714c-4.834-3.214-10.046-4.645-15.876-4.007
		c-4.072,0.444-7.528,1.839-10.028,5.195c-3.633,4.878-3.195,14.238,3.93,17.198c2.099,0.872,4.247,1.554,6.408,2.228
		c2.217,0.691,4.543,1.066,6.607,2.21c1.005,0.557,1.923,1.147,1.983,2.521c0.092,2.112-1.374,3.496-3.829,3.725
		c-4.596,0.428-8.582-0.996-12.103-3.841c-1.01-0.816-1.632-0.872-2.437,0.278c-0.897,1.282-2.021,2.408-3.058,3.592
		c-1.44,1.644-1.36,2.236,0.44,3.558C202.448,378.786,205.881,380.135,209.506,381.059z M102.722,364.243
		c-5.248-6.946-10.22-13.354-14.982-19.915c-2.058-2.834-4.224-4.885-8.026-4.033c-0.602,0.135-1.266,0.077-1.891,0.01
		c-1.558-0.168-2.097,0.47-2.075,2.043c0.074,5.31,0.026,10.62,0.027,15.93c0,6.827,0.037,13.654-0.026,20.481
		c-0.014,1.549,0.47,2.172,2.054,2.075c1.7-0.104,3.419-0.12,5.117,0.004c1.746,0.128,2.285-0.523,2.264-2.258
		c-0.083-6.763-0.04-13.527-0.021-20.291c0.001-0.555-0.233-1.2,0.295-1.753c5.922,7.733,11.782,15.358,17.594,23.019
		c0.636,0.838,1.287,1.295,2.347,1.266c1.705-0.046,3.414-0.046,5.12-0.004c1.118,0.027,1.587-0.411,1.585-1.557
		c-0.02-12.453-0.019-24.905,0-37.358c0.001-1.111-0.398-1.622-1.55-1.592c-1.706,0.045-3.413,0.003-5.12,0.006
		c-2.702,0.004-2.707,0.007-2.708,2.697C102.72,349.893,102.722,356.773,102.722,364.243z M312.609,360.505
		c0,6.131,0.013,12.262-0.01,18.394c-0.005,1.146,0.141,1.933,1.605,1.927c9.418-0.039,18.836-0.03,28.254-0.008
		c1.156,0.002,1.571-0.495,1.541-1.6c-0.041-1.516-0.104-3.042,0.021-4.549c0.143-1.725-0.599-2.15-2.202-2.122
		c-4.739,0.082-9.48,0.028-14.221,0.028c-5.68,0-5.612-0.001-5.654-5.641c-0.013-1.739,0.62-2.122,2.216-2.094
		c4.865,0.086,9.735-0.04,14.6,0.066c1.783,0.039,2.358-0.599,2.224-2.296c-0.11-1.382-0.127-2.789,0.003-4.168
		c0.17-1.812-0.627-2.246-2.299-2.219c-4.929,0.084-9.86-0.021-14.789,0.06c-1.521,0.024-2.056-0.499-1.933-1.977
		c0.095-1.13,0.114-2.284-0.003-3.409c-0.187-1.784,0.412-2.428,2.295-2.389c5.687,0.115,11.378-0.027,17.064,0.08
		c1.864,0.035,2.493-0.603,2.317-2.395c-0.116-1.189-0.102-2.406-0.003-3.6c0.137-1.664-0.382-2.336-2.198-2.318
		c-8.911,0.083-17.824,0.077-26.736,0.004c-1.716-0.015-2.142,0.604-2.122,2.21C312.652,348.494,312.608,354.5,312.609,360.505z
		 M173.206,380.811c1.012,0,2.025-0.043,3.034,0.01c1.573,0.083,1.994-0.278,1.265-1.922c-2.446-5.521-4.711-11.12-7.071-16.679
		c-2.95-6.949-5.938-13.883-8.874-20.838c-0.46-1.089-1.142-1.516-2.317-1.465c-1.767,0.076-3.543,0.096-5.307-0.007
		c-1.219-0.071-1.781,0.435-2.233,1.506c-3.522,8.346-7.102,16.668-10.65,25.003c-1.823,4.283-3.587,8.591-5.441,12.86
		c-0.531,1.224-0.197,1.568,1.04,1.543c2.148-0.045,4.299-0.051,6.446,0.003c1.019,0.024,1.669-0.316,2.046-1.279
		c0.757-1.932,1.583-3.837,2.331-5.772c0.46-1.191,1.137-1.771,2.54-1.726c3.347,0.11,6.699,0.035,10.049,0.035
		c4.732,0,4.732,0,6.55,4.396C168.404,380.813,168.405,380.813,173.206,380.811z M386.887,364.909c0-4.743,0.032-9.486-0.021-14.229
		c-0.016-1.31,0.423-1.802,1.752-1.771c2.907,0.068,5.818-0.014,8.727,0.03c1.196,0.019,1.734-0.405,1.695-1.647
		c-0.059-1.833-0.04-3.668-0.011-5.502c0.018-1.037-0.421-1.492-1.466-1.476c-1.77,0.029-3.541-0.001-5.312-0.001
		c-8.285,0-16.57,0.032-24.854-0.026c-1.574-0.012-2.15,0.518-2.054,2.077c0.103,1.639,0.07,3.289,0.013,4.931
		c-0.044,1.246,0.505,1.669,1.698,1.645c2.339-0.049,4.68-0.022,7.02-0.007c3.859,0.025,3.424-0.42,3.431,3.457
		c0.017,8.791,0.035,17.582-0.021,26.373c-0.01,1.556,0.481,2.163,2.061,2.07c1.765-0.104,3.545-0.104,5.31,0
		c1.583,0.094,2.083-0.521,2.058-2.075C386.834,374.144,386.883,369.526,386.887,364.909z M432.047,360.761
		c0-6.194-0.027-12.388,0.021-18.582c0.011-1.376-0.442-1.944-1.854-1.882c-1.83,0.082-3.67,0.098-5.497-0.005
		c-1.567-0.088-2.091,0.495-2.069,2.061c0.073,5.309,0.026,10.618,0.026,15.928c0,6.825,0.037,13.651-0.025,20.477
		c-0.014,1.548,0.467,2.174,2.053,2.077c1.7-0.104,3.419-0.119,5.116,0.004c1.74,0.127,2.292-0.516,2.266-2.255
		C431.994,372.644,432.049,366.702,432.047,360.761z"/>
	<path style="fill-rule:evenodd;clip-rule:evenodd;" d="M257.328,0.379c2.944,1.261,5.958,2.407,8.286,4.739
		c3.179,3.183,5.628,6.804,5.832,11.438c0.168,3.82,0.456,7.673-1.408,11.313c-2.2,4.297-5.258,7.616-9.739,9.53
		c-0.753,0.321-1.489,0.761-2.277,0.904c-2.008,0.364-1.338,1.904-1.267,2.989c0.086,1.309,1.301,0.671,1.973,0.672
		c17.9,0.039,35.801,0.068,53.701-0.021c2.071-0.01,3.391,0.823,4.72,2.177c4.268,4.35,8.591,8.644,12.909,12.943
		c2.396,2.387,4.858,4.71,7.22,7.131c0.763,0.782,0.952,1.768,0.025,2.689c-5.085,5.055-10.166,10.114-15.24,15.181
		c-1.691,1.689-3.429,3.342-5.012,5.13c-1.138,1.287-2.37,1.864-4.117,1.785c-2.903-0.132-5.819,0.026-8.727-0.062
		c-1.459-0.043-2.049,0.384-1.988,1.929c0.106,2.716-0.052,5.441,0.044,8.158c0.272,7.72-5.692,12.988-13.106,13.064
		c-10.183,0.104-20.367,0.064-30.55-0.013c-1.62-0.012-1.942,0.475-1.939,2.012c0.05,25.174,0.051,50.349-0.002,75.523
		c-0.003,1.574,0.386,2.014,1.974,1.98c4.994-0.107,9.993,0.008,14.989-0.066c1.556-0.023,2.116,0.479,2.078,2.059
		c-0.088,3.667,0.012,7.337-0.046,11.005c-0.021,1.293,0.391,1.824,1.737,1.785c2.591-0.074,5.188,0.03,7.779-0.039
		c1.355-0.035,1.92,0.398,1.908,1.833c-0.052,6.704-0.048,13.41-0.001,20.114c0.01,1.375-0.44,1.89-1.853,1.887
		c-22.012-0.03-44.024-0.029-66.036,0c-1.391,0.001-1.882-0.473-1.872-1.868c0.049-6.705,0.05-13.41,0-20.114
		c-0.01-1.414,0.514-1.889,1.89-1.852c2.591,0.071,5.188-0.033,7.778,0.038c1.325,0.036,1.779-0.452,1.757-1.766
		c-0.061-3.668,0.039-7.338-0.046-11.005c-0.036-1.557,0.482-2.102,2.059-2.078c4.996,0.076,9.994-0.017,14.991,0.053
		c1.464,0.021,1.984-0.403,1.981-1.934c-0.04-25.174-0.046-50.349,0.009-75.523c0.003-1.815-0.754-2.034-2.271-2.031
		c-16.635,0.04-33.271,0.006-49.906,0.055c-1.574,0.004-2.712-0.424-3.831-1.559c-6.662-6.756-13.398-13.438-20.103-20.15
		c-1.854-1.856-1.853-2.117,0.008-3.98c6.615-6.625,13.257-13.222,19.837-19.879c1.018-1.03,2.057-1.482,3.499-1.439
		c2.97,0.089,5.947-0.039,8.917,0.054c1.527,0.048,2.163-0.386,2.095-2.016c-0.113-2.715,0.167-5.456-0.073-8.155
		c-0.459-5.167,3.405-10.896,8.357-12.391c1.16-0.351,2.283-0.631,3.504-0.629c9.235,0.021,18.47,0.023,27.705-0.009
		c0.83-0.003,2.042,0.499,2.208-1.036c0.138-1.275-0.005-2.234-1.542-2.749c-7.554-2.528-12.083-7.95-13.422-15.631
		c-1.048-6.009,0.617-11.544,4.89-16.184c2.646-2.873,5.846-4.732,9.467-5.996C250.497,0.379,253.912,0.379,257.328,0.379z
		 M243.69,103.101c15.244,0,30.487,0.002,45.731-0.002c2.634-0.001,4.267-1.768,4.252-4.413c-0.038-6.768-0.055-13.536-0.024-20.303
		c0.015-3.251-1.234-4.613-4.514-4.614c-30.298-0.006-60.596,0.002-90.894-0.024c-1.233-0.001-2.139,0.341-3.005,1.231
		c-3.964,4.075-8.047,8.029-11.896,12.22c-1.071,1.167-0.88,1.694,0.088,2.646c4.021,3.953,7.991,7.956,11.95,11.97
		c0.944,0.957,1.964,1.327,3.339,1.322C213.708,103.082,228.7,103.102,243.69,103.101z M214.543,59.052c0.01,0,0.02,0,0.03,0
		c0,1.329,0.131,2.673-0.032,3.98c-0.225,1.803,0.489,2.155,2.176,2.151c24.73-0.053,49.46-0.019,74.189-0.061
		c2.851-0.005,5.088,1.184,7.147,2.926c3.049,2.579,4.402,5.915,4.172,9.865c-0.091,1.567,0.447,2.16,2.038,2.062
		c1.827-0.114,3.671-0.102,5.5-0.001c1.378,0.075,2.371-0.367,3.336-1.361c3.993-4.114,8.058-8.161,12.108-12.219
		c0.818-0.82,0.6-1.376-0.183-2.141c-4.066-3.982-8.107-7.993-12.071-12.077c-1.103-1.136-2.221-1.599-3.813-1.596
		c-29.726,0.044-59.452,0.033-89.179,0.033c-0.506,0-1.015-0.026-1.517,0.02c-2.478,0.228-3.965,1.944-3.909,4.436
		C214.568,56.396,214.543,57.724,214.543,59.052z M241.418,19.526c-0.057,6.854,5.177,10.986,10.813,10.923
		c6.476-0.072,10.689-4.608,10.862-10.828c0.173-6.201-4.429-11.019-10.898-11.026C246.328,8.59,241.405,12.814,241.418,19.526z
		 M252.203,221.897c7.337,0,14.674,0,22.012,0c4.249,0,4.146-0.003,4.28-4.179c0.063-1.963-0.576-2.436-2.472-2.426
		c-15.244,0.073-30.488,0.041-45.732,0.041c-4.379,0-4.305,0.001-4.37,4.463c-0.024,1.697,0.54,2.149,2.182,2.135
		C236.136,221.857,244.169,221.897,252.203,221.897z M252.389,199.771c-3.542,0-7.084,0-10.627,0c-4.482,0-4.416,0-4.451,4.568
		c-0.012,1.613,0.557,2.037,2.09,2.024c7.653-0.062,15.308,0.025,22.961-0.046c5.546-0.051,4.57,1.063,4.718-4.835
		c0.034-1.354-0.503-1.747-1.788-1.731C260.991,199.806,256.689,199.772,252.389,199.771z"/>
	<path style="fill-rule:evenodd;clip-rule:evenodd;" d="M209.506,381.059c-3.625-0.924-7.059-2.272-10.103-4.505
		c-1.8-1.321-1.88-1.914-0.44-3.558c1.037-1.184,2.161-2.31,3.058-3.592c0.805-1.15,1.427-1.095,2.437-0.278
		c3.521,2.845,7.507,4.269,12.103,3.841c2.455-0.229,3.921-1.612,3.829-3.725c-0.06-1.374-0.979-1.965-1.983-2.521
		c-2.064-1.144-4.391-1.519-6.607-2.21c-2.161-0.674-4.309-1.355-6.408-2.228c-7.125-2.96-7.563-12.32-3.93-17.198
		c2.5-3.356,5.956-4.751,10.028-5.195c5.831-0.638,11.042,0.793,15.876,4.007c1.24,0.824,1.41,1.541,0.5,2.714
		c-1.078,1.39-2.071,2.852-3.02,4.334c-0.663,1.036-1.26,1.112-2.291,0.41c-2.85-1.942-5.927-3.304-9.494-3.195
		c-0.773,0.022-1.485,0.215-2.22,0.395c-1.369,0.335-1.986,1.394-2.221,2.571c-0.242,1.215,0.495,2.167,1.505,2.824
		c1.609,1.048,3.477,1.421,5.284,1.948c3.616,1.055,7.253,1.963,10.438,4.197c3.23,2.267,4.008,5.421,4.009,9.033
		c0.003,6.306-4.175,10.47-10.104,11.931C216.338,381.059,212.922,381.059,209.506,381.059z"/>
	<path style="fill-rule:evenodd;clip-rule:evenodd;" d="M265.299,381.059c-2.608-5.382-4.603-11.021-6.87-16.544
		c-3.012-7.333-5.881-14.724-8.819-22.088c-0.787-1.973-0.716-2.099,1.423-2.109c2.023-0.012,4.051,0.089,6.067-0.032
		c1.576-0.095,2.326,0.466,2.871,1.984c2.804,7.816,5.731,15.588,8.629,23.371c0.213,0.571,0.525,1.105,0.931,1.947
		c1.781-4.786,3.471-9.3,5.142-13.82c1.417-3.836,2.825-7.676,4.208-11.524c0.476-1.323,1.178-2.072,2.76-1.963
		c2.076,0.144,4.171,0.08,6.256,0.021c1.471-0.042,1.892,0.279,1.261,1.831c-3.793,9.325-7.496,18.687-11.22,28.04
		c-1.443,3.623-2.86,7.257-4.289,10.887C270.865,381.059,268.082,381.059,265.299,381.059z"/>
	<path style="fill-rule:evenodd;clip-rule:evenodd;" d="M102.722,364.243c0-7.47-0.002-14.351,0.001-21.23
		c0.001-2.69,0.007-2.693,2.708-2.697c1.707-0.003,3.415,0.039,5.12-0.006c1.152-0.03,1.552,0.48,1.55,1.592
		c-0.018,12.453-0.019,24.905,0,37.358c0.002,1.146-0.468,1.584-1.585,1.557c-1.706-0.042-3.415-0.042-5.12,0.004
		c-1.06,0.029-1.711-0.428-2.347-1.266c-5.812-7.66-11.672-15.285-17.594-23.019c-0.528,0.553-0.293,1.198-0.295,1.753
		c-0.019,6.764-0.062,13.528,0.021,20.291c0.021,1.734-0.518,2.386-2.264,2.258c-1.698-0.124-3.417-0.108-5.117-0.004
		c-1.584,0.097-2.068-0.526-2.054-2.075c0.063-6.827,0.026-13.654,0.026-20.481c0-5.31,0.047-10.62-0.027-15.93
		c-0.022-1.573,0.517-2.211,2.075-2.043c0.625,0.067,1.289,0.125,1.891-0.01c3.802-0.852,5.968,1.199,8.026,4.033
		C92.502,350.889,97.475,357.297,102.722,364.243z"/>
	<path style="fill-rule:evenodd;clip-rule:evenodd;" d="M312.609,360.505c-0.001-6.005,0.043-12.011-0.03-18.014
		c-0.02-1.605,0.406-2.225,2.122-2.21c8.912,0.073,17.825,0.079,26.736-0.004c1.816-0.018,2.335,0.654,2.198,2.318
		c-0.099,1.193-0.113,2.41,0.003,3.6c0.176,1.792-0.453,2.43-2.317,2.395c-5.687-0.107-11.378,0.035-17.064-0.08
		c-1.883-0.039-2.481,0.604-2.295,2.389c0.117,1.125,0.098,2.279,0.003,3.409c-0.123,1.478,0.411,2.001,1.933,1.977
		c4.929-0.08,9.86,0.024,14.789-0.06c1.672-0.027,2.469,0.407,2.299,2.219c-0.13,1.379-0.113,2.786-0.003,4.168
		c0.135,1.697-0.44,2.335-2.224,2.296c-4.864-0.106-9.734,0.02-14.6-0.066c-1.596-0.028-2.229,0.354-2.216,2.094
		c0.042,5.64-0.025,5.641,5.654,5.641c4.74,0,9.481,0.054,14.221-0.028c1.604-0.028,2.345,0.397,2.202,2.122
		c-0.124,1.507-0.062,3.033-0.021,4.549c0.03,1.104-0.385,1.602-1.541,1.6c-9.418-0.022-18.836-0.031-28.254,0.008
		c-1.465,0.006-1.61-0.781-1.605-1.927C312.622,372.767,312.609,366.636,312.609,360.505z"/>
	<path style="fill-rule:evenodd;clip-rule:evenodd;" d="M173.206,380.812c-4.801,0.001-4.801,0.001-6.593-4.333
		c-1.818-4.396-1.818-4.396-6.55-4.396c-3.35,0-6.702,0.075-10.049-0.035c-1.402-0.046-2.079,0.534-2.54,1.726
		c-0.748,1.936-1.574,3.841-2.331,5.772c-0.377,0.963-1.028,1.304-2.046,1.279c-2.147-0.054-4.298-0.048-6.446-0.003
		c-1.237,0.025-1.571-0.319-1.04-1.543c1.854-4.27,3.618-8.577,5.441-12.86c3.548-8.335,7.128-16.657,10.65-25.003
		c0.452-1.071,1.014-1.577,2.233-1.506c1.764,0.103,3.541,0.083,5.307,0.007c1.175-0.051,1.857,0.376,2.317,1.465
		c2.936,6.955,5.924,13.889,8.874,20.838c2.359,5.559,4.625,11.158,7.071,16.679c0.729,1.644,0.308,2.005-1.265,1.922
		C175.231,380.768,174.217,380.811,173.206,380.812z M156.48,351.753c-1.525,3.776-2.835,7.104-4.22,10.401
		c-0.414,0.985-0.322,1.355,0.837,1.327c2.271-0.057,4.545-0.021,6.818-0.021c0.858,0,1.355-0.192,0.916-1.229
		C159.409,358.88,158.035,355.508,156.48,351.753z"/>
	<path style="fill-rule:evenodd;clip-rule:evenodd;" d="M386.885,364.909c-0.002,4.617-0.051,9.234,0.026,13.85
		c0.025,1.554-0.475,2.169-2.058,2.075c-1.765-0.104-3.545-0.104-5.31,0c-1.579,0.093-2.07-0.515-2.061-2.07
		c0.056-8.791,0.037-17.582,0.021-26.373c-0.007-3.877,0.429-3.432-3.431-3.457c-2.34-0.016-4.681-0.042-7.02,0.007
		c-1.193,0.024-1.742-0.398-1.698-1.645c0.058-1.642,0.09-3.292-0.013-4.931c-0.097-1.56,0.479-2.089,2.054-2.077
		c8.284,0.059,16.569,0.026,24.854,0.026c1.771,0,3.542,0.03,5.312,0.001c1.045-0.017,1.483,0.438,1.466,1.476
		c-0.029,1.834-0.048,3.669,0.011,5.502c0.039,1.242-0.499,1.666-1.695,1.647c-2.908-0.044-5.819,0.038-8.727-0.03
		c-1.329-0.031-1.768,0.461-1.752,1.771C386.919,355.423,386.887,360.166,386.885,364.909z"/>
	<path style="fill-rule:evenodd;clip-rule:evenodd;" d="M432.048,360.761c0.001,5.941-0.054,11.883,0.035,17.822
		c0.026,1.739-0.525,2.382-2.266,2.255c-1.697-0.123-3.416-0.108-5.116-0.004c-1.586,0.097-2.066-0.529-2.053-2.077
		c0.063-6.825,0.025-13.651,0.025-20.477c0-5.31,0.047-10.619-0.026-15.928c-0.021-1.565,0.502-2.148,2.069-2.061
		c1.827,0.103,3.667,0.087,5.497,0.005c1.412-0.063,1.865,0.506,1.854,1.882C432.02,348.373,432.047,354.566,432.048,360.761z"/>
	<path style="fill-rule:evenodd;clip-rule:evenodd;fill:none;" d="M243.69,103.101c-14.991,0-29.982-0.019-44.973,0.032
		c-1.375,0.005-2.395-0.365-3.339-1.322c-3.959-4.014-7.93-8.018-11.95-11.97c-0.968-0.952-1.16-1.479-0.088-2.646
		c3.849-4.191,7.933-8.146,11.896-12.22c0.866-0.89,1.772-1.232,3.005-1.231c30.298,0.027,60.596,0.019,90.894,0.024
		c3.279,0.001,4.528,1.363,4.514,4.614c-0.03,6.768-0.014,13.536,0.024,20.303c0.015,2.646-1.618,4.412-4.252,4.413
		C274.178,103.104,258.935,103.101,243.69,103.101z"/>
	<path style="fill-rule:evenodd;clip-rule:evenodd;fill:none;" d="M214.543,59.052c0-1.328,0.025-2.656-0.005-3.984
		c-0.057-2.492,1.431-4.208,3.909-4.436c0.502-0.046,1.011-0.02,1.517-0.02c29.727,0,59.453,0.011,89.179-0.033
		c1.592-0.002,2.71,0.46,3.813,1.596c3.964,4.084,8.005,8.095,12.071,12.077c0.782,0.765,1.001,1.321,0.183,2.141
		c-4.051,4.059-8.115,8.105-12.108,12.219c-0.965,0.994-1.958,1.436-3.336,1.361c-1.829-0.1-3.673-0.112-5.5,0.001
		c-1.591,0.099-2.129-0.495-2.038-2.062c0.23-3.95-1.123-7.286-4.172-9.865c-2.06-1.742-4.297-2.932-7.147-2.926
		c-24.729,0.042-49.459,0.008-74.189,0.061c-1.687,0.003-2.401-0.348-2.176-2.151c0.163-1.308,0.032-2.652,0.032-3.98
		C214.563,59.052,214.553,59.052,214.543,59.052z"/>
	<path style="fill-rule:evenodd;clip-rule:evenodd;fill:none;" d="M241.418,19.526c-0.013-6.712,4.909-10.937,10.777-10.93
		c6.47,0.007,11.071,4.825,10.898,11.026c-0.173,6.22-4.386,10.755-10.862,10.828C246.595,30.512,241.361,26.38,241.418,19.526z"/>
	<path style="fill-rule:evenodd;clip-rule:evenodd;fill:none;" d="M252.203,221.897c-8.034,0-16.067-0.04-24.099,0.033
		c-1.642,0.015-2.206-0.438-2.182-2.135c0.065-4.461-0.01-4.463,4.37-4.463c15.244,0,30.488,0.032,45.732-0.041
		c1.896-0.009,2.534,0.463,2.472,2.426c-0.135,4.176-0.031,4.179-4.28,4.179C266.877,221.897,259.54,221.897,252.203,221.897z"/>
	<path style="fill-rule:evenodd;clip-rule:evenodd;fill:none;" d="M252.389,199.772c4.301,0,8.603,0.034,12.903-0.02
		c1.285-0.016,1.822,0.377,1.788,1.731c-0.147,5.897,0.828,4.784-4.718,4.835c-7.653,0.071-15.308-0.016-22.961,0.046
		c-1.534,0.012-2.103-0.411-2.09-2.024c0.035-4.568-0.031-4.568,4.451-4.568C245.304,199.771,248.846,199.771,252.389,199.772z"/>
	<path style="fill-rule:evenodd;clip-rule:evenodd;fill:none;" d="M156.48,351.753c1.554,3.755,2.929,7.127,4.351,10.479
		c0.439,1.036-0.057,1.229-0.916,1.229c-2.272,0-4.546-0.036-6.818,0.021c-1.159,0.028-1.251-0.342-0.837-1.327
		C153.646,358.857,154.956,355.529,156.48,351.753z"/>
</g>
</svg>
