<?xml version="1.0" encoding="iso-8859-1"?>
<!-- Generator: Adobe Illustrator 16.0.0, SVG Export Plug-In . SVG Version: 6.00 Build 0)  -->
<!DOCTYPE svg PUBLIC "-//W3C//DTD SVG 1.1//EN" "http://www.w3.org/Graphics/SVG/1.1/DTD/svg11.dtd">
<svg version="1.1" id="Layer_1" xmlns="http://www.w3.org/2000/svg" xmlns:xlink="http://www.w3.org/1999/xlink" x="0px" y="0px"
	 width="512px" height="381.059px" viewBox="0 0 512 381.059" style="enable-background:new 0 0 512 381.059;" xml:space="preserve"
	>
<g>
	<path style="fill-rule:evenodd;clip-rule:evenodd;fill:none;" d="M250.117,381.059c-82.676,0-165.353-0.005-248.029,0.035
		c-1.423,0.001-1.744-0.32-1.743-1.743c0.038-125.754,0.038-251.509,0-377.263c0-1.423,0.32-1.744,1.743-1.743
		c169.654,0.038,339.309,0.038,508.963,0c1.423,0,1.744,0.32,1.743,1.743c-0.038,125.754-0.038,251.509,0,377.263
		c0.001,1.423-0.32,1.744-1.743,1.743c-61.296-0.041-122.592-0.035-183.888-0.035c3.771-0.932,7.227-2.498,10.309-4.904
		c0.762-0.595,1.23-1.136,1.223-2.148c-0.035-4.994-0.04-9.989-0.002-14.983c0.01-1.248-0.516-1.646-1.703-1.639
		c-4.867,0.035-9.736,0.052-14.604-0.01c-1.443-0.019-1.894,0.566-1.822,1.915c0.074,1.387,0.101,2.787-0.006,4.17
		c-0.126,1.62,0.408,2.316,2.123,2.198c1.825-0.125,3.665-0.031,5.499-0.019c0.494,0.003,1.02-0.058,1.353,0.468
		c0.827,1.305-0.022,4.904-1.41,5.506c-2.828,1.228-5.774,1.706-8.858,1.153c-8.217-1.473-11.403-10.921-8.288-17.488
		c1.669-3.521,4.135-6.023,8.082-6.701c4.138-0.71,7.873,0.424,11.122,2.972c1.123,0.88,1.727,0.636,2.476-0.286
		c1.188-1.465,2.383-2.927,3.617-4.353c0.995-1.15,0.953-1.926-0.402-2.881c-5.552-3.908-11.649-5.18-18.29-4.111
		c-12.005,1.934-19.362,12.305-17.282,24.782c1.456,8.73,6.814,14.222,15.479,16.359c-18.092,0-36.183,0-54.274,0
		c3.927-1.167,7.376-3.05,10.281-6.048c8.215-8.479,7.848-23.171-2.355-31.083c-8.985-6.968-23.462-5.527-30.597,3.537
		c-5.048,6.414-6.006,16.398-1.992,23.443C239.857,376.202,244.375,379.397,250.117,381.059z M358.419,115.381
		c0-22.513-0.002-45.026,0.008-67.539c0-1.205-0.138-2.373-0.377-3.558c-1.04-5.14-2.688-10.1-5.19-14.671
		c-2.485-4.538-5.672-8.59-9.492-12.198c-6.332-5.98-13.576-10.13-22.071-11.977c-8.119-1.765-16.263-1.627-24.324,0.393
		c-6.244,1.565-11.809,4.569-16.824,8.568c-4.566,3.64-8.389,7.944-11.467,12.935c-2.144,3.476-3.752,7.124-4.989,11.027
		c-1.382,4.359-2.288,8.768-2.293,13.298c-0.049,41.738,0.002,83.475-0.064,125.212c-0.009,5.997,0.962,11.789,2.896,17.391
		c2.062,5.97,5.326,11.344,9.518,16.067c7.399,8.339,16.663,13.738,27.626,15.492c6.992,1.119,14.107,1.063,21.185-0.816
		c10.15-2.695,18.196-8.337,24.929-16.154c3.305-3.837,5.924-8.136,7.729-12.831c1.845-4.797,3.236-9.739,3.225-14.998
		C358.391,159.143,358.419,137.262,358.419,115.381z M149.785,115.094c0,22.386,0.021,44.773-0.022,67.16
		c-0.007,3.396,0.912,6.625,1.824,9.775c1.088,3.759,2.779,7.34,4.798,10.782c3.223,5.492,7.561,9.976,12.383,13.909
		c5.511,4.496,12.018,7.197,18.963,8.887c4.698,1.144,9.429,0.467,14.137,0.752c3.943,0.238,7.619-0.983,11.263-2.086
		c5.144-1.555,9.853-4.089,14.167-7.352c4.834-3.655,8.792-8.08,12.007-13.19c2.271-3.608,3.976-7.455,5.275-11.534
		c1.213-3.809,2.179-7.699,2.188-11.624c0.103-43.445,0.094-86.89,0.01-130.334c-0.007-3.612-0.835-7.207-1.847-10.723
		c-1.465-5.091-3.582-9.876-6.65-14.184c-5.47-7.678-12.302-13.726-21.118-17.395c-5.161-2.147-10.434-3.646-16.067-3.506
		c-3.594,0.089-7.201-0.329-10.781,0.242c-4.175,0.666-8.206,1.817-12.052,3.601c-6.881,3.189-12.796,7.636-17.598,13.521
		c-3.102,3.802-5.696,7.92-7.465,12.515c-1.854,4.816-3.447,9.676-3.436,14.953C149.812,71.207,149.785,93.15,149.785,115.094z
		 M177.114,360.513c0,6.134,0.025,12.268-0.02,18.401c-0.01,1.344,0.375,1.98,1.823,1.915c1.894-0.085,3.796-0.076,5.69-0.001
		c1.365,0.055,1.952-0.412,1.898-1.84c-0.082-2.146-0.019-4.299-0.018-6.449c0-4.263,0.002-4.182,4.35-4.293
		c1.664-0.042,2.672,0.501,3.55,1.885c1.957,3.082,4.11,6.039,6.083,9.111c0.778,1.212,1.693,1.67,3.115,1.598
		c2.145-0.108,4.299-0.008,6.448-0.04c0.667-0.01,1.557,0.308,1.94-0.346c0.4-0.681-0.373-1.258-0.734-1.793
		c-2.468-3.65-4.938-7.301-7.508-10.879c-0.736-1.025-0.587-1.419,0.481-1.958c6.517-3.29,7.7-9.095,6.733-15.156
		c-1.052-6.604-7.015-10.121-13.338-10.313c-6.128-0.185-12.268,0.014-18.4-0.075c-1.717-0.024-2.145,0.603-2.125,2.21
		C177.157,348.497,177.113,354.505,177.114,360.513z M115.249,360.402c0,6.129,0.042,12.26-0.028,18.389
		c-0.019,1.585,0.539,2.125,2.086,2.043c1.891-0.099,3.792,0.032,5.686-0.032c4.47-0.152,8.981,0.52,13.41-0.382
		c11.611-2.365,18.143-12.158,16.146-23.792c-1.711-9.975-10.134-15.839-19.377-16.268c-5.297-0.245-10.615,0.005-15.922-0.074
		c-1.61-0.023-2.043,0.586-2.027,2.106C115.286,348.395,115.248,354.398,115.249,360.402z M363.847,360.577
		c0,6.005,0.056,12.011-0.035,18.014c-0.026,1.752,0.552,2.271,2.273,2.254c7.773-0.075,15.549-0.032,23.323-0.032
		c5.869,0,5.789-0.002,5.871-5.839c0.027-1.95-0.601-2.473-2.485-2.438c-5.877,0.108-11.757,0-17.635,0.066
		c-1.48,0.018-2.082-0.441-1.957-1.949c0.099-1.192,0.126-2.412-0.005-3.599c-0.2-1.813,0.575-2.249,2.272-2.216
		c4.929,0.095,9.86-0.012,14.79,0.058c1.496,0.021,2.043-0.499,1.957-1.978c-0.092-1.574-0.099-3.164,0.002-4.737
		c0.097-1.521-0.534-1.975-1.988-1.948c-3.854,0.07-7.71,0.022-11.565,0.022c-5.474-0.001-5.395-0.002-5.486-5.431
		c-0.032-1.883,0.609-2.341,2.389-2.311c5.75,0.099,11.504-0.007,17.255,0.064c1.573,0.02,2.163-0.516,2.052-2.076
		c-0.099-1.383-0.102-2.785,0.001-4.168c0.118-1.596-0.545-2.055-2.082-2.046c-8.976,0.055-17.951,0.058-26.927,0
		c-1.586-0.011-2.063,0.544-2.046,2.086C363.887,348.441,363.847,354.51,363.847,360.577z"/>
	<path style="fill-rule:evenodd;clip-rule:evenodd;" d="M250.117,381.059c-5.742-1.661-10.26-4.856-13.277-10.15
		c-4.014-7.045-3.056-17.029,1.992-23.443c7.135-9.064,21.611-10.505,30.597-3.537c10.203,7.912,10.57,22.604,2.355,31.083
		c-2.905,2.998-6.354,4.881-10.281,6.048C257.708,381.059,253.912,381.059,250.117,381.059z M244.178,360.588
		c-0.009,6.813,4.992,12.44,11.664,12.284c6.776-0.159,11.695-4.638,11.777-12.327c0.072-6.822-5.218-12.187-11.805-12.193
		C249.118,348.346,244.177,353.542,244.178,360.588z"/>
	<path style="fill-rule:evenodd;clip-rule:evenodd;" d="M315.777,381.059c-8.665-2.138-14.023-7.629-15.479-16.359
		c-2.08-12.478,5.277-22.849,17.282-24.782c6.641-1.068,12.738,0.203,18.29,4.111c1.355,0.955,1.397,1.73,0.402,2.881
		c-1.234,1.426-2.429,2.888-3.617,4.353c-0.749,0.922-1.353,1.166-2.476,0.286c-3.249-2.548-6.984-3.682-11.122-2.972
		c-3.947,0.678-6.413,3.181-8.082,6.701c-3.115,6.567,0.071,16.016,8.288,17.488c3.084,0.553,6.03,0.074,8.858-1.153
		c1.388-0.602,2.237-4.201,1.41-5.506c-0.333-0.525-0.858-0.465-1.353-0.468c-1.834-0.013-3.674-0.106-5.499,0.019
		c-1.715,0.118-2.249-0.578-2.123-2.198c0.106-1.383,0.08-2.783,0.006-4.17c-0.071-1.349,0.379-1.934,1.822-1.915
		c4.867,0.062,9.736,0.045,14.604,0.01c1.188-0.008,1.713,0.391,1.703,1.639c-0.038,4.994-0.033,9.989,0.002,14.983
		c0.008,1.013-0.461,1.554-1.223,2.148c-3.082,2.406-6.537,3.973-10.309,4.904C323.368,381.059,319.572,381.059,315.777,381.059z"/>
	<path style="fill-rule:evenodd;clip-rule:evenodd;" d="M358.419,115.381c0,21.88-0.028,43.761,0.021,65.642
		c0.012,5.258-1.38,10.2-3.225,14.998c-1.806,4.695-4.425,8.994-7.729,12.831c-6.732,7.816-14.778,13.458-24.929,16.154
		c-7.077,1.879-14.192,1.936-21.185,0.816c-10.963-1.754-20.227-7.153-27.626-15.492c-4.191-4.723-7.456-10.097-9.518-16.067
		c-1.934-5.602-2.904-11.394-2.896-17.391c0.066-41.737,0.016-83.475,0.064-125.212c0.005-4.53,0.911-8.938,2.293-13.298
		c1.237-3.904,2.846-7.552,4.989-11.027c3.078-4.991,6.9-9.295,11.467-12.935c5.016-3.999,10.58-7.003,16.824-8.568
		c8.062-2.02,16.205-2.158,24.324-0.393c8.495,1.847,15.739,5.997,22.071,11.977c3.82,3.608,7.007,7.66,9.492,12.198
		c2.502,4.571,4.15,9.531,5.19,14.671c0.239,1.185,0.377,2.353,0.377,3.558C358.417,70.355,358.419,92.868,358.419,115.381z
		 M310.227,120.068c-12.398,0-24.797,0.037-37.194-0.04c-1.862-0.011-2.328,0.578-2.322,2.374
		c0.059,18.534-0.003,37.068,0.078,55.602c0.012,2.748,0.238,5.59,0.978,8.217c1.134,4.028,2.628,7.935,4.817,11.608
		c3.632,6.092,8.45,10.952,14.582,14.292c6.756,3.679,14.027,5.729,21.891,4.865c6.545-0.719,12.699-2.587,18.185-6.258
		c6.448-4.314,11.308-9.957,14.464-17.166c2.156-4.925,3.613-9.986,3.657-15.274c0.157-18.596,0.035-37.194,0.102-55.791
		c0.007-1.891-0.461-2.487-2.422-2.474C334.771,120.112,322.498,120.068,310.227,120.068z M309.965,110.692
		c12.331,0,24.661,0.001,36.991-0.001c2.461,0,2.466-0.006,2.466-2.53c0.002-18.653,0.002-37.307-0.003-55.96
		c0-0.694,0.021-1.399-0.089-2.08c-0.919-5.72-2.334-11.25-5.238-16.374c-3.181-5.609-7.39-10.289-12.722-13.736
		c-7.641-4.94-16.107-7.266-25.291-6.195c-4.637,0.54-9.137,1.705-13.288,3.88c-7.713,4.041-13.65,9.787-17.605,17.7
		c-2.73,5.462-4.316,11.162-4.374,17.137c-0.179,18.651-0.043,37.307-0.103,55.959c-0.006,1.772,0.539,2.244,2.266,2.235
		C285.305,110.662,297.635,110.692,309.965,110.692z"/>
	<path style="fill-rule:evenodd;clip-rule:evenodd;" d="M149.785,115.094c0-21.944,0.027-43.888-0.02-65.831
		c-0.011-5.277,1.582-10.136,3.436-14.953c1.769-4.595,4.363-8.713,7.465-12.515c4.802-5.886,10.717-10.332,17.598-13.521
		c3.846-1.783,7.877-2.935,12.052-3.601c3.58-0.571,7.187-0.153,10.781-0.242c5.634-0.14,10.907,1.358,16.067,3.506
		c8.816,3.669,15.648,9.717,21.118,17.395c3.069,4.308,5.186,9.093,6.65,14.184c1.012,3.516,1.84,7.111,1.847,10.723
		c0.084,43.445,0.093,86.89-0.01,130.334c-0.009,3.925-0.976,7.815-2.188,11.624c-1.299,4.079-3.005,7.925-5.275,11.534
		c-3.215,5.11-7.173,9.535-12.007,13.19c-4.315,3.262-9.024,5.796-14.167,7.352c-3.645,1.103-7.32,2.324-11.263,2.086
		c-4.708-0.285-9.438,0.392-14.137-0.752c-6.946-1.69-13.452-4.392-18.963-8.887c-4.822-3.933-9.16-8.417-12.383-13.909
		c-2.02-3.441-3.71-7.023-4.798-10.782c-0.912-3.15-1.831-6.379-1.824-9.775C149.806,159.867,149.785,137.48,149.785,115.094z
		 M198.115,110.692c12.141,0,24.281,0,36.422,0c2.92,0,2.921-0.001,2.921-2.835c0-16.82-0.001-33.64,0-50.459
		c0.001-5.22-0.215-10.371-1.805-15.455c-1.385-4.433-3.316-8.563-6.024-12.234c-5.547-7.516-12.888-12.625-22.017-14.879
		c-3.466-0.856-7.037-1.733-10.623-1.321c-3.783,0.435-7.607,0.791-11.25,2.147c-3.742,1.393-7.414,2.978-10.515,5.457
		c-4.587,3.666-8.52,7.89-11.368,13.208c-2.979,5.562-4.911,11.4-4.989,17.568c-0.24,18.84-0.062,37.686-0.127,56.529
		c-0.006,1.876,0.602,2.321,2.383,2.311C173.455,110.66,185.785,110.692,198.115,110.692z M198.206,120.068
		c-12.265,0-24.53-0.001-36.794,0c-2.625,0-2.629,0.003-2.63,2.556c-0.001,16.69,0.059,33.381-0.032,50.07
		c-0.033,6.151,0.433,12.148,2.539,18.007c1.765,4.911,4.285,9.335,7.736,13.175c4.796,5.339,10.559,9.259,17.54,11.318
		c4.125,1.217,8.319,2.327,12.58,2.054c5.707-0.365,11.31-1.636,16.445-4.333c7.826-4.11,13.704-10.118,17.658-18.075
		c2.654-5.339,4.114-10.978,4.159-16.854c0.142-18.523,0.021-37.047,0.098-55.57c0.008-2.003-0.659-2.399-2.504-2.388
		C222.735,120.104,210.471,120.068,198.206,120.068z"/>
	<path style="fill-rule:evenodd;clip-rule:evenodd;" d="M177.114,360.513c-0.001-6.008,0.043-12.016-0.031-18.022
		c-0.02-1.607,0.408-2.234,2.125-2.21c6.132,0.089,12.271-0.109,18.4,0.075c6.323,0.191,12.286,3.709,13.338,10.313
		c0.966,6.062-0.216,11.866-6.733,15.156c-1.068,0.539-1.217,0.933-0.481,1.958c2.57,3.578,5.04,7.229,7.508,10.879
		c0.362,0.535,1.135,1.112,0.734,1.793c-0.383,0.653-1.273,0.336-1.94,0.346c-2.149,0.032-4.304-0.068-6.448,0.04
		c-1.422,0.072-2.337-0.386-3.115-1.598c-1.972-3.072-4.126-6.029-6.083-9.111c-0.878-1.384-1.887-1.927-3.55-1.885
		c-4.348,0.111-4.35,0.03-4.35,4.293c0,2.15-0.063,4.303,0.018,6.449c0.054,1.428-0.533,1.895-1.898,1.84
		c-1.894-0.075-3.796-0.084-5.69,0.001c-1.448,0.065-1.833-0.571-1.823-1.915C177.14,372.78,177.114,366.646,177.114,360.513z
		 M192.222,348.936c-1.45,0-2.899,0.02-4.348-0.007c-0.936-0.018-1.396,0.35-1.388,1.33c0.023,2.71,0.017,5.42,0.005,8.13
		c-0.004,0.857,0.36,1.28,1.24,1.276c2.899-0.014,5.805,0.121,8.695-0.046c3.241-0.187,5.443-2.576,5.347-5.47
		c-0.102-3.065-2.42-5.168-5.77-5.215C194.743,348.917,193.482,348.932,192.222,348.936z"/>
	<path style="fill-rule:evenodd;clip-rule:evenodd;" d="M115.248,360.402c0-6.004,0.038-12.008-0.026-18.01
		c-0.016-1.521,0.417-2.13,2.027-2.106c5.307,0.079,10.625-0.171,15.922,0.074c9.243,0.429,17.666,6.293,19.377,16.268
		c1.997,11.634-4.535,21.427-16.146,23.792c-4.429,0.901-8.939,0.229-13.41,0.382c-1.894,0.064-3.795-0.066-5.686,0.032
		c-1.547,0.082-2.104-0.458-2.086-2.043C115.291,372.662,115.249,366.531,115.248,360.402z M124.625,360.67
		c0,3.41-0.003,6.82,0.002,10.23c0.001,0.761-0.082,1.618,1.041,1.652c3.467,0.104,6.971,0.149,10.262-1.049
		c5.946-2.165,7.807-7.848,6.841-13.396c-0.653-3.749-2.788-6.443-6.321-8.134c-3.278-1.567-6.691-0.803-10.047-1.057
		c-1.472-0.111-1.828,0.56-1.8,1.9C124.669,354.102,124.624,357.386,124.625,360.67z"/>
	<path style="fill-rule:evenodd;clip-rule:evenodd;" d="M363.847,360.577c0-6.067,0.04-12.136-0.026-18.203
		c-0.017-1.542,0.46-2.097,2.046-2.086c8.976,0.058,17.951,0.055,26.927,0c1.537-0.009,2.2,0.45,2.082,2.046
		c-0.103,1.383-0.1,2.785-0.001,4.168c0.111,1.561-0.479,2.096-2.052,2.076c-5.751-0.071-11.505,0.034-17.255-0.064
		c-1.779-0.03-2.421,0.428-2.389,2.311c0.092,5.429,0.013,5.43,5.486,5.431c3.855,0,7.712,0.048,11.565-0.022
		c1.454-0.026,2.085,0.427,1.988,1.948c-0.101,1.573-0.094,3.163-0.002,4.737c0.086,1.479-0.461,1.999-1.957,1.978
		c-4.93-0.069-9.861,0.037-14.79-0.058c-1.697-0.033-2.473,0.403-2.272,2.216c0.131,1.187,0.104,2.406,0.005,3.599
		c-0.125,1.508,0.477,1.967,1.957,1.949c5.878-0.066,11.758,0.042,17.635-0.066c1.885-0.034,2.513,0.488,2.485,2.438
		c-0.082,5.837-0.002,5.839-5.871,5.839c-7.774,0-15.55-0.043-23.323,0.032c-1.722,0.017-2.3-0.502-2.273-2.254
		C363.902,372.588,363.847,366.582,363.847,360.577z"/>
	<path style="fill-rule:evenodd;clip-rule:evenodd;fill:none;" d="M244.178,360.588c-0.001-7.046,4.94-12.242,11.636-12.236
		c6.587,0.007,11.877,5.371,11.805,12.193c-0.082,7.689-5.001,12.168-11.777,12.327C249.169,373.028,244.169,367.4,244.178,360.588z
		"/>
	<path style="fill-rule:evenodd;clip-rule:evenodd;fill:none;" d="M310.227,120.068c12.271,0,24.544,0.043,36.814-0.045
		c1.961-0.014,2.429,0.583,2.422,2.474c-0.066,18.597,0.056,37.195-0.102,55.791c-0.044,5.288-1.501,10.349-3.657,15.274
		c-3.156,7.209-8.016,12.851-14.464,17.166c-5.485,3.671-11.64,5.539-18.185,6.258c-7.863,0.864-15.135-1.187-21.891-4.865
		c-6.132-3.34-10.95-8.2-14.582-14.292c-2.189-3.673-3.684-7.581-4.817-11.608c-0.739-2.626-0.966-5.469-0.978-8.217
		c-0.081-18.534-0.02-37.068-0.078-55.602c-0.006-1.795,0.46-2.385,2.322-2.374C285.43,120.105,297.828,120.068,310.227,120.068z"/>
	<path style="fill-rule:evenodd;clip-rule:evenodd;fill:none;" d="M309.965,110.692c-12.33,0-24.66-0.031-36.99,0.035
		c-1.727,0.009-2.271-0.463-2.266-2.235c0.06-18.653-0.076-37.308,0.103-55.959c0.058-5.975,1.644-11.674,4.374-17.137
		c3.955-7.913,9.893-13.659,17.605-17.7c4.151-2.175,8.651-3.34,13.288-3.88c9.184-1.071,17.65,1.255,25.291,6.195
		c5.332,3.447,9.541,8.127,12.722,13.736c2.904,5.124,4.319,10.654,5.238,16.374c0.11,0.681,0.089,1.386,0.089,2.08
		c0.005,18.654,0.005,37.307,0.003,55.96c0,2.524-0.005,2.53-2.466,2.53C334.626,110.693,322.296,110.692,309.965,110.692z
		 M343.615,84.269c0-5.435,0.021-10.869-0.009-16.303c-0.017-2.97-1.896-4.728-4.92-4.714c-2.913,0.013-4.423,1.529-4.432,4.65
		c-0.028,10.868-0.023,21.736-0.004,32.605c0.005,2.829,1.869,4.752,4.491,4.757c2.792,0.005,4.858-2.039,4.868-4.882
		C343.63,95.011,343.616,89.64,343.615,84.269z"/>
	<path style="fill-rule:evenodd;clip-rule:evenodd;fill:none;" d="M198.115,110.692c-12.33,0-24.661-0.033-36.99,0.036
		c-1.781,0.01-2.39-0.435-2.383-2.311c0.065-18.843-0.113-37.688,0.127-56.529c0.078-6.168,2.01-12.006,4.989-17.568
		c2.848-5.317,6.781-9.542,11.368-13.208c3.101-2.479,6.773-4.064,10.515-5.457c3.644-1.356,7.467-1.712,11.25-2.147
		c3.586-0.412,7.157,0.465,10.623,1.321c9.128,2.255,16.47,7.363,22.017,14.879c2.708,3.67,4.639,7.801,6.024,12.234
		c1.589,5.084,1.806,10.235,1.805,15.455c-0.001,16.82,0,33.64,0,50.459c0,2.834-0.001,2.835-2.921,2.835
		C222.396,110.692,210.256,110.692,198.115,110.692z"/>
	<path style="fill-rule:evenodd;clip-rule:evenodd;fill:none;" d="M198.206,120.068c12.265,0,24.529,0.036,36.794-0.039
		c1.845-0.011,2.512,0.385,2.504,2.388c-0.077,18.523,0.044,37.047-0.098,55.57c-0.045,5.876-1.505,11.516-4.159,16.854
		c-3.954,7.957-9.832,13.964-17.658,18.075c-5.135,2.697-10.738,3.967-16.445,4.333c-4.261,0.273-8.455-0.837-12.58-2.054
		c-6.98-2.059-12.743-5.979-17.54-11.318c-3.451-3.84-5.971-8.265-7.736-13.175c-2.106-5.859-2.572-11.856-2.539-18.007
		c0.091-16.689,0.03-33.38,0.032-50.07c0-2.552,0.004-2.556,2.63-2.556C173.676,120.067,185.941,120.068,198.206,120.068z
		 M164.588,145.55c0,5.624-0.006,11.247,0.008,16.871c0.002,0.674-0.094,1.352,0.357,1.998c1.154,1.65,3.549,2.477,5.747,1.896
		c1.839-0.487,2.879-2.03,2.88-4.333c0.005-10.931-0.088-21.864,0.057-32.793c0.044-3.354-2.221-4.474-4.731-4.734
		c-2.489-0.258-4.305,1.864-4.313,4.605C164.577,134.556,164.588,140.053,164.588,145.55z"/>
	<path style="fill-rule:evenodd;clip-rule:evenodd;fill:none;" d="M192.222,348.934c1.26-0.002,2.521-0.017,3.781,0.001
		c3.35,0.047,5.668,2.149,5.77,5.215c0.096,2.894-2.106,5.283-5.347,5.47c-2.89,0.167-5.796,0.032-8.695,0.046
		c-0.879,0.004-1.244-0.419-1.24-1.276c0.012-2.71,0.019-5.42-0.005-8.13c-0.008-0.98,0.452-1.348,1.388-1.33
		C189.323,348.955,190.772,348.936,192.222,348.934z"/>
	<path style="fill-rule:evenodd;clip-rule:evenodd;fill:none;" d="M124.624,360.67c0-3.284,0.045-6.568-0.022-9.852
		c-0.027-1.341,0.329-2.012,1.8-1.9c3.356,0.254,6.769-0.511,10.047,1.057c3.533,1.69,5.668,4.385,6.321,8.134
		c0.966,5.548-0.895,11.23-6.841,13.396c-3.291,1.198-6.794,1.153-10.262,1.049c-1.123-0.034-1.039-0.892-1.041-1.652
		C124.622,367.49,124.625,364.08,124.624,360.67z"/>
	<path style="fill-rule:evenodd;clip-rule:evenodd;" d="M343.615,84.269c0.001,5.371,0.015,10.742-0.005,16.113
		c-0.01,2.844-2.076,4.887-4.868,4.882c-2.622-0.004-4.486-1.928-4.491-4.757c-0.02-10.869-0.024-21.737,0.004-32.605
		c0.009-3.121,1.519-4.638,4.432-4.65c3.024-0.013,4.903,1.745,4.92,4.714C343.637,73.4,343.615,78.834,343.615,84.269z"/>
	<path style="fill-rule:evenodd;clip-rule:evenodd;" d="M164.588,145.55c0-5.498-0.011-10.995,0.005-16.492
		c0.008-2.741,1.824-4.863,4.313-4.605c2.511,0.26,4.776,1.38,4.731,4.734c-0.145,10.929-0.052,21.862-0.057,32.793
		c-0.001,2.304-1.041,3.847-2.88,4.333c-2.198,0.582-4.593-0.245-5.747-1.896c-0.452-0.646-0.355-1.323-0.357-1.998
		C164.582,156.797,164.588,151.174,164.588,145.55z"/>
</g>
</svg>
