<?xml version="1.0" encoding="iso-8859-1"?>
<!-- Generator: Adobe Illustrator 16.0.0, SVG Export Plug-In . SVG Version: 6.00 Build 0)  -->
<!DOCTYPE svg PUBLIC "-//W3C//DTD SVG 1.1//EN" "http://www.w3.org/Graphics/SVG/1.1/DTD/svg11.dtd">
<svg version="1.1" id="Layer_1" xmlns="http://www.w3.org/2000/svg" xmlns:xlink="http://www.w3.org/1999/xlink" x="0px" y="0px"
	 width="512px" height="380.815px" viewBox="0 0 512 380.815" style="enable-background:new 0 0 512 380.815;" xml:space="preserve"
	>
<g>
	<path style="fill-rule:evenodd;clip-rule:evenodd;fill:none;" d="M263.78,381.059c-36.056,0-72.112,0-108.169,0
		c3.926-1.168,7.376-3.05,10.281-6.048c8.215-8.479,7.848-23.171-2.355-31.083c-8.985-6.968-23.463-5.526-30.597,3.537
		c-5.048,6.414-6.006,16.398-1.992,23.443c3.017,5.294,7.535,8.489,13.277,10.15c-36.689,0-73.377,0-110.066,0
		c3.926-1.168,7.376-3.05,10.281-6.048c8.215-8.479,7.848-23.171-2.356-31.083c-8.985-6.968-23.462-5.526-30.596,3.537
		c-5.048,6.414-6.006,16.398-1.992,23.443c3.017,5.294,7.535,8.489,13.277,10.15c-7.085,0-14.169-0.021-21.254,0.024
		c-0.95,0.007-1.323-0.214-1.144-1.164c0.035-0.184,0.005-0.379,0.005-0.568c0-125.754,0.003-251.509-0.035-377.263
		c0-1.422,0.32-1.744,1.743-1.743c169.654,0.038,339.309,0.038,508.963,0c1.422,0,1.744,0.32,1.743,1.743
		c-0.038,125.754-0.038,251.508,0,377.262c0,1.423-0.319,1.745-1.743,1.744c-78.628-0.04-157.256-0.035-235.884-0.035
		c3.926-1.167,7.376-3.05,10.281-6.048c8.215-8.479,7.848-23.171-2.356-31.083c-8.984-6.968-23.462-5.527-30.596,3.537
		c-5.048,6.414-6.006,16.398-1.992,23.443C253.52,376.202,258.038,379.397,263.78,381.059z M187.297,142.023
		c-3.335,3.868-4.805,8.142-4.141,13.14c0.784,5.911,4.103,9.906,9.315,12.313c2.834,1.309,5.921,2.081,8.908,3.051
		c4.953,1.609,9.92,3.17,14.873,4.778c3.459,1.123,6.896,2.314,10.357,3.434c3.343,1.081,6.705,2.105,10.058,3.158
		c4.555,1.43,8.998,3.208,13.673,4.262c5.462,1.231,11.937-1.043,15.573-5.759c2.479-3.214,3.458-6.718,2.968-10.699
		c-0.199-1.623,0.202-1.959,1.738-1.45c0.955,0.316,1.874,0.748,2.834,1.045c6.409,1.978,12.838,3.896,19.236,5.907
		c6.646,2.088,13.262,4.271,19.899,6.388c3.408,1.086,6.835,2.117,10.253,3.175c1.329,0.411,2.073,1.098,1.954,2.711
		c-0.171,2.328-0.026,4.677-0.048,7.017c-0.019,1.964,0.237,3.873,0.83,5.755c1.261,4.003,3.955,6.924,7.138,9.435
		c2.151,1.697,4.661,3.051,7.345,3.268c5.343,0.432,10.669,0.477,15.334-3.115c4.667-3.593,7.936-7.895,7.939-13.984
		c0.033-53.566,0.015-107.132,0.024-160.698c0.002-7.588-4.047-12.691-10.343-16.023c-5.247-2.777-10.906-2.572-16.479-0.605
		c-2.246,0.793-4.084,2.258-5.792,3.834c-2.861,2.641-4.906,5.786-5.641,9.713c-0.671,3.583-0.322,7.185-0.291,10.771
		c0.015,1.698-0.694,2.394-2.092,2.82c-3.241,0.99-6.486,1.968-9.718,2.987c-9.635,3.036-19.268,6.079-28.895,9.141
		c-4.73,1.505-9.435,3.09-14.169,4.583c-7.836,2.471-15.693,4.875-23.529,7.347c-4.912,1.55-9.79,3.211-14.703,4.755
		c-9.279,2.916-18.583,5.753-27.859,8.679c-8.805,2.778-17.594,5.606-26.37,8.477c-0.934,0.305-1.237,0.052-1.491-0.735
		c-0.422-1.311-0.735-2.684-1.35-3.901c-4.701-9.324-16.557-11.162-23.949-5.301c-3.044,2.413-5.434,5.452-5.444,9.629
		c-0.037,15.937-0.015,31.874-0.014,47.811c0,1.746,0.507,3.341,1.411,4.83c2.757,4.543,6.606,7.426,12.021,7.919
		c5.481,0.5,10.129-1.083,13.826-5.332c1.745-2.005,2.647-4.338,3.419-6.791c0.204-0.649,0.257-1.532,1.472-1.052
		C180.536,139.956,183.916,140.533,187.297,142.023z M315.646,360.369c0,6.197,0.029,12.395-0.021,18.592
		c-0.011,1.394,0.475,1.927,1.871,1.868c1.894-0.08,3.796-0.082,5.689,0c1.417,0.062,1.884-0.512,1.853-1.888
		c-0.067-2.97-0.025-5.943-0.012-8.915c0.003-0.737-0.153-1.694,0.978-1.697c2.849-0.009,6.035-0.952,7.585,2.78
		c0.424,1.021,1.27,1.868,1.929,2.791c1.604,2.245,2.498,5.52,4.857,6.558c2.344,1.031,5.46,0.308,8.238,0.354
		c0.126,0.002,0.255,0.014,0.379-0.004c0.537-0.074,1.238,0.216,1.556-0.381c0.322-0.608-0.303-1.063-0.591-1.489
		c-2.501-3.705-5.013-7.403-7.615-11.036c-0.732-1.023-0.781-1.495,0.44-2.105c6.405-3.203,7.675-9.043,6.687-15.173
		c-1.055-6.545-7.067-10.098-13.375-10.271c-6.066-0.167-12.141,0.016-18.211-0.07c-1.726-0.024-2.3,0.506-2.273,2.256
		C315.701,348.48,315.645,354.425,315.646,360.369z M497.937,380.809c1.138,0,2.277-0.042,3.413,0.011
		c1.498,0.068,1.679-0.436,1.104-1.779c-5.322-12.434-10.599-24.887-15.852-37.35c-0.535-1.27-1.256-1.886-2.697-1.782
		c-1.636,0.117-3.289,0.099-4.928,0.004c-1.244-0.072-1.907,0.344-2.408,1.533c-3.49,8.291-7.057,16.551-10.596,24.822
		c-1.731,4.049-3.467,8.096-5.178,12.153c-0.982,2.328-0.934,2.384,1.535,2.39c1.833,0.005,3.668-0.06,5.498,0.021
		c1.188,0.053,1.888-0.394,2.31-1.481c0.683-1.759,1.51-3.467,2.111-5.251c0.492-1.458,1.243-2.114,2.875-2.053
		c3.282,0.124,6.572,0.037,9.858,0.037c4.707,0,4.707,0,6.531,4.426C493.287,380.813,493.287,380.813,497.937,380.809z
		 M205.536,372.575c2.511-2.941,4.729-5.563,6.971-8.164c4.15-4.814,8.369-9.571,12.432-14.458c0.979-1.178,2.275-2.179,2.225-4.179
		c-0.136-5.456-0.011-5.46-5.513-5.46c-8.599,0-17.198,0.03-25.796-0.026c-1.563-0.01-2.175,0.496-2.062,2.066
		c0.1,1.384,0.102,2.787,0,4.171c-0.117,1.588,0.529,2.073,2.076,2.052c5.121-0.072,10.243-0.043,15.364-0.011
		c0.988,0.006,2.468-0.489,2.856,0.246c0.507,0.962-1.037,1.477-1.563,2.281c-0.034,0.052-0.085,0.094-0.126,0.142
		c-5.372,6.251-10.809,12.448-16.067,18.793c-1.201,1.45-3.135,2.526-3.25,4.725c-0.079,1.514,0.002,3.035-0.029,4.552
		c-0.021,1.012,0.365,1.506,1.435,1.505c10.369-0.015,20.738-0.017,31.107,0.006c1.186,0.003,1.531-0.562,1.506-1.635
		c-0.037-1.579-0.067-3.164,0.012-4.74c0.069-1.382-0.444-1.921-1.854-1.885c-2.843,0.073-5.689,0.02-8.535,0.02
		C213.144,372.574,209.563,372.575,205.536,372.575z M74.637,360.54c0,6.001,0,12.002,0,18.003c0,0.063,0.008,0.128,0,0.189
		c-0.189,1.516,0.384,2.201,2,2.103c1.762-0.108,3.54-0.1,5.304-0.002c1.531,0.085,2.159-0.425,2.098-2.029
		c-0.101-2.649,0.017-5.306-0.043-7.957c-0.028-1.251,0.312-1.855,1.696-1.822c2.642,0.062,5.274-0.062,7.919-0.319
		c6.202-0.604,12.395-4.835,13.272-11.799c1.249-9.912-5.042-16.046-13.718-16.534c-5.415-0.305-10.862,0.001-16.293-0.091
		c-1.728-0.029-2.294,0.513-2.268,2.257C74.692,348.537,74.637,354.539,74.637,360.54z M410.91,360.369
		c0,6.133,0.001,12.267-0.001,18.399c0,1.034-0.101,2.052,1.469,2.047c8.852-0.028,17.704-0.021,26.556-0.005
		c1.045,0.002,1.484-0.44,1.465-1.477c-0.029-1.58-0.121-3.173,0.031-4.739c0.19-1.963-0.591-2.478-2.475-2.438
		c-5.309,0.112-10.622,0.008-15.933,0.06c-1.32,0.013-1.877-0.448-1.745-1.764c0.051-0.501,0.007-1.011,0.007-1.517
		c0-8.853-0.028-17.705,0.025-26.557c0.009-1.537-0.446-2.187-2.044-2.087c-1.7,0.105-3.419,0.118-5.118-0.004
		c-1.732-0.124-2.3,0.502-2.273,2.25C410.966,348.48,410.909,354.425,410.91,360.369z M384.225,360.76
		c0-6.194-0.027-12.388,0.021-18.581c0.011-1.378-0.444-1.944-1.855-1.882c-1.829,0.082-3.67,0.098-5.496-0.005
		c-1.569-0.089-2.09,0.497-2.068,2.063c0.072,5.308,0.026,10.617,0.026,15.926c0,6.826,0.037,13.652-0.026,20.478
		c-0.014,1.549,0.469,2.17,2.054,2.076c1.764-0.104,3.543-0.103,5.307,0c1.568,0.091,2.086-0.497,2.067-2.062
		C384.186,372.769,384.227,366.764,384.225,360.76z"/>
	<path style="fill-rule:evenodd;clip-rule:evenodd;" d="M22.772,381.059c-5.742-1.661-10.26-4.856-13.277-10.15
		c-4.014-7.045-3.056-17.029,1.992-23.443c7.134-9.063,21.611-10.505,30.596-3.537c10.204,7.912,10.571,22.604,2.356,31.083
		c-2.905,2.998-6.355,4.88-10.281,6.048C30.363,381.059,26.568,381.059,22.772,381.059z M28.459,348.352
		c-6.774,0.012-11.675,5.214-11.615,12.436c0.055,6.692,4.99,12.24,11.662,12.083c6.801-0.159,11.697-4.669,11.766-12.335
		C40.333,353.705,35.03,348.341,28.459,348.352z"/>
	<path style="fill-rule:evenodd;clip-rule:evenodd;" d="M144.225,381.059c-5.742-1.661-10.26-4.856-13.277-10.15
		c-4.014-7.045-3.056-17.029,1.992-23.443c7.134-9.063,21.611-10.505,30.597-3.537c10.203,7.912,10.571,22.604,2.355,31.083
		c-2.905,2.998-6.355,4.88-10.281,6.048C151.816,381.059,148.021,381.059,144.225,381.059z M138.287,360.303
		c-0.164,6.922,4.884,12.661,11.568,12.572c6.508-0.086,11.825-4.313,11.842-12.234c0.015-6.858-4.487-12.113-11.68-12.24
		C143.105,348.279,138.269,353.657,138.287,360.303z"/>
	<path style="fill-rule:evenodd;clip-rule:evenodd;" d="M263.78,381.059c-5.742-1.661-10.26-4.856-13.277-10.15
		c-4.014-7.045-3.056-17.029,1.992-23.443c7.134-9.064,21.612-10.505,30.596-3.537c10.204,7.912,10.571,22.604,2.356,31.083
		c-2.905,2.998-6.355,4.881-10.281,6.048C271.371,381.059,267.576,381.059,263.78,381.059z M257.841,360.603
		c0.001,6.816,5.009,12.437,11.679,12.27c6.812-0.171,11.696-4.685,11.76-12.342c0.057-6.835-5.254-12.2-11.817-12.179
		C262.75,348.374,257.84,353.55,257.841,360.603z"/>
	<path style="fill-rule:evenodd;clip-rule:evenodd;" d="M187.297,142.023c-3.381-1.491-6.761-2.067-9.916-3.312
		c-1.215-0.479-1.268,0.403-1.472,1.052c-0.772,2.453-1.674,4.786-3.419,6.791c-3.697,4.249-8.345,5.832-13.826,5.332
		c-5.415-0.493-9.264-3.376-12.021-7.919c-0.904-1.489-1.411-3.084-1.411-4.83c-0.001-15.937-0.023-31.874,0.014-47.811
		c0.01-4.177,2.4-7.216,5.444-9.629c7.392-5.86,19.248-4.023,23.949,5.301c0.614,1.218,0.927,2.591,1.35,3.901
		c0.254,0.788,0.557,1.041,1.491,0.735c8.775-2.87,17.565-5.699,26.37-8.477c9.276-2.926,18.58-5.764,27.859-8.679
		c4.914-1.544,9.791-3.205,14.703-4.755c7.836-2.472,15.693-4.876,23.529-7.347c4.734-1.493,9.438-3.078,14.169-4.583
		c9.627-3.062,19.26-6.105,28.895-9.141c3.231-1.019,6.477-1.997,9.718-2.987c1.397-0.427,2.106-1.123,2.092-2.82
		c-0.031-3.586-0.38-7.188,0.291-10.771c0.734-3.927,2.779-7.072,5.641-9.713c1.708-1.577,3.546-3.042,5.792-3.834
		c5.572-1.967,11.231-2.172,16.479,0.605c6.296,3.332,10.345,8.435,10.343,16.023c-0.01,53.566,0.009,107.132-0.024,160.698
		c-0.004,6.089-3.272,10.391-7.939,13.984c-4.665,3.592-9.991,3.546-15.334,3.115c-2.684-0.217-5.193-1.571-7.345-3.268
		c-3.183-2.511-5.877-5.432-7.138-9.435c-0.593-1.882-0.849-3.791-0.83-5.755c0.021-2.34-0.123-4.689,0.048-7.017
		c0.119-1.613-0.625-2.3-1.954-2.711c-3.418-1.058-6.845-2.089-10.253-3.175c-6.638-2.117-13.253-4.3-19.899-6.388
		c-6.398-2.011-12.827-3.929-19.236-5.907c-0.96-0.297-1.879-0.729-2.834-1.045c-1.536-0.509-1.938-0.173-1.738,1.45
		c0.49,3.98-0.489,7.485-2.968,10.699c-3.636,4.716-10.111,6.99-15.573,5.759c-4.675-1.054-9.119-2.832-13.673-4.262
		c-3.353-1.053-6.715-2.078-10.058-3.158c-3.461-1.119-6.898-2.311-10.357-3.434c-4.953-1.608-9.92-3.168-14.873-4.778
		c-2.987-0.97-6.073-1.742-8.908-3.051c-5.212-2.407-8.531-6.402-9.315-12.313C182.492,150.165,183.962,145.892,187.297,142.023z
		 M324.753,115.386c0-19.604,0-39.209,0-58.814c0-0.506-0.011-1.012-0.011-1.517c0-0.716-0.333-0.841-0.976-0.635
		c-4.123,1.315-8.258,2.595-12.38,3.914c-6.465,2.068-12.916,4.179-19.387,6.231c-5.2,1.649-10.425,3.22-15.628,4.859
		c-4.913,1.547-9.807,3.153-14.718,4.703c-5.032,1.588-10.081,3.125-15.113,4.713c-3.836,1.211-7.653,2.48-11.486,3.702
		c-4.547,1.448-9.105,2.86-13.652,4.308c-5.329,1.698-10.646,3.434-15.977,5.123c-4.666,1.478-9.346,2.911-14.019,4.369
		c-3.896,1.215-7.828,2.334-11.666,3.711c-1.406,0.505-3.547,0.343-3.525,2.912c0.069,8.157,0.045,16.316,0.004,24.474
		c-0.006,1.214,0.45,1.874,1.577,2.221c2.999,0.927,5.983,1.899,8.977,2.841c6.407,2.015,12.832,3.978,19.222,6.045
		c4.72,1.528,9.432,3.074,14.19,4.481c3.851,1.139,7.635,2.502,11.461,3.728c6.583,2.109,13.178,4.178,19.761,6.285
		c4.785,1.532,9.55,3.128,14.341,4.643c4.843,1.531,9.73,2.924,14.553,4.517c3.518,1.162,7.073,2.201,10.575,3.421
		c4.915,1.713,9.956,3.062,14.928,4.615c5.635,1.76,11.282,3.492,16.864,5.409c1.915,0.657,2.119,0.103,2.114-1.633
		C324.735,154.469,324.753,134.927,324.753,115.386z M355.116,115.385c0-25.679-0.001-51.358,0.002-77.038
		c0-2.213-0.298-4.35-1.171-6.419c-1.423-3.37-7.024-6.86-10.398-6.282c-6.935,1.188-10.493,5.517-10.506,12.406
		c-0.097,51.421-0.075,102.843-0.013,154.265c0.006,4.545,1.661,8.428,5.907,10.896c4.112,2.389,9.264,1.531,12.604-1.629
		c2.818-2.665,3.571-5.923,3.572-9.542C355.118,166.491,355.116,140.938,355.116,115.385z M253.259,177.869
		c3.74-0.021,6.901-3.154,7.239-7.027c0.238-2.729-2.573-6.291-5.304-7.119c-6.121-1.856-12.199-3.852-18.287-5.813
		c-3.764-1.212-7.511-2.479-11.272-3.698c-4.9-1.588-9.795-3.192-14.715-4.714c-3.594-1.112-7.058-2.619-10.771-3.377
		c-3.333-0.681-7.024,1.243-7.997,4.386c-1.104,3.568,0.135,7.182,3.397,8.764c3.581,1.736,7.499,2.511,11.253,3.745
		c5.89,1.936,11.817,3.778,17.692,5.744c7.986,2.671,16.057,5.081,24.022,7.816C250.091,177.115,251.608,178.099,253.259,177.869z
		 M153.417,115.157c-0.005,0-0.011,0-0.016,0c0,7.138,0,14.276,0,21.414c0,4.018,4.795,7.642,8.648,6.538
		c3.724-1.066,5.565-3.584,5.568-7.701c0.01-13.457,0.01-26.913-0.009-40.37c-0.001-0.934-0.109-1.883-0.302-2.797
		c-0.636-3.017-4.298-5.538-7.434-5.174c-3.386,0.393-6.472,3.705-6.463,6.863C153.431,101.007,153.417,108.082,153.417,115.157z"/>
	<path style="fill-rule:evenodd;clip-rule:evenodd;" d="M315.646,360.369c-0.001-5.944,0.056-11.889-0.036-17.832
		c-0.026-1.75,0.548-2.28,2.273-2.256c6.07,0.086,12.145-0.097,18.211,0.07c6.308,0.174,12.32,3.727,13.375,10.271
		c0.988,6.13-0.281,11.97-6.687,15.173c-1.222,0.61-1.173,1.082-0.44,2.105c2.603,3.633,5.114,7.331,7.615,11.036
		c0.288,0.427,0.913,0.881,0.591,1.489c-0.317,0.597-1.019,0.307-1.556,0.381c-0.124,0.018-0.253,0.006-0.379,0.004
		c-2.778-0.046-5.895,0.678-8.238-0.354c-2.359-1.038-3.253-4.313-4.857-6.558c-0.659-0.923-1.505-1.77-1.929-2.791
		c-1.55-3.732-4.736-2.789-7.585-2.78c-1.131,0.003-0.975,0.96-0.978,1.697c-0.014,2.972-0.056,5.945,0.012,8.915
		c0.031,1.376-0.436,1.949-1.853,1.888c-1.894-0.082-3.796-0.08-5.689,0c-1.396,0.059-1.882-0.475-1.871-1.868
		C315.676,372.764,315.646,366.566,315.646,360.369z M330.75,348.936c-1.449,0-2.898,0.02-4.348-0.007
		c-0.938-0.018-1.393,0.356-1.384,1.334c0.023,2.71,0.018,5.42,0.005,8.13c-0.004,0.86,0.366,1.276,1.244,1.272
		c2.898-0.014,5.805,0.121,8.694-0.046c3.239-0.188,5.44-2.58,5.343-5.474c-0.102-3.063-2.423-5.164-5.773-5.211
		C333.271,348.917,332.011,348.932,330.75,348.936z"/>
	<path style="fill-rule:evenodd;clip-rule:evenodd;" d="M497.937,380.811c-4.649,0.002-4.649,0.002-6.423-4.302
		c-1.824-4.426-1.824-4.426-6.531-4.426c-3.286,0-6.576,0.087-9.858-0.037c-1.632-0.062-2.383,0.595-2.875,2.053
		c-0.602,1.784-1.429,3.492-2.111,5.251c-0.422,1.088-1.122,1.534-2.31,1.481c-1.83-0.08-3.665-0.016-5.498-0.021
		c-2.469-0.006-2.518-0.062-1.535-2.39c1.711-4.058,3.446-8.104,5.178-12.153c3.539-8.271,7.105-16.531,10.596-24.822
		c0.501-1.189,1.164-1.605,2.408-1.533c1.639,0.095,3.292,0.113,4.928-0.004c1.441-0.104,2.162,0.513,2.697,1.782
		c5.253,12.463,10.529,24.916,15.852,37.35c0.575,1.344,0.395,1.848-1.104,1.779C500.214,380.767,499.074,380.809,497.937,380.811z
		 M481.369,351.774c-1.554,3.826-2.962,7.307-4.383,10.782c-0.293,0.718,0.028,0.908,0.677,0.906c2.462-0.007,4.924,0,7.386-0.016
		c0.744-0.005,1.034-0.327,0.714-1.091C484.337,358.952,482.931,355.539,481.369,351.774z"/>
	<path style="fill-rule:evenodd;clip-rule:evenodd;" d="M205.536,372.575c4.027,0,7.608-0.001,11.189,0
		c2.846,0,5.692,0.054,8.535-0.02c1.41-0.036,1.923,0.503,1.854,1.885c-0.08,1.576-0.049,3.161-0.012,4.74
		c0.025,1.073-0.32,1.638-1.506,1.635c-10.369-0.022-20.738-0.021-31.107-0.006c-1.07,0.001-1.456-0.493-1.435-1.505
		c0.031-1.517-0.05-3.038,0.029-4.552c0.115-2.198,2.048-3.274,3.25-4.725c5.258-6.345,10.695-12.542,16.067-18.793
		c0.041-0.048,0.092-0.09,0.126-0.142c0.527-0.805,2.071-1.319,1.563-2.281c-0.388-0.735-1.868-0.24-2.856-0.246
		c-5.121-0.032-10.243-0.062-15.364,0.011c-1.547,0.021-2.193-0.464-2.076-2.052c0.102-1.384,0.1-2.787,0-4.171
		c-0.114-1.57,0.499-2.076,2.062-2.066c8.598,0.057,17.197,0.026,25.796,0.026c5.502,0,5.377,0.004,5.513,5.46
		c0.05,2-1.246,3.001-2.225,4.179c-4.063,4.887-8.282,9.644-12.432,14.458C210.265,367.013,208.046,369.634,205.536,372.575z"/>
	<path style="fill-rule:evenodd;clip-rule:evenodd;" d="M74.637,360.54c0-6.001,0.055-12.003-0.035-18.002
		c-0.026-1.744,0.54-2.286,2.268-2.257c5.431,0.092,10.878-0.214,16.293,0.091c8.677,0.488,14.967,6.622,13.718,16.534
		c-0.877,6.964-7.07,11.194-13.272,11.799c-2.645,0.258-5.277,0.381-7.919,0.319c-1.385-0.033-1.724,0.571-1.696,1.822
		c0.06,2.651-0.058,5.308,0.043,7.957c0.062,1.604-0.567,2.114-2.098,2.029c-1.764-0.098-3.542-0.106-5.304,0.002
		c-1.616,0.099-2.189-0.587-2-2.103c0.008-0.062,0-0.126,0-0.189C74.637,372.542,74.637,366.541,74.637,360.54z M88.508,360.419
		c1.137,0,2.277,0.063,3.409-0.013c2.815-0.19,5.161-2.305,5.471-4.856c0.399-3.293-0.859-5.326-4.095-6.266
		c-2.71-0.786-5.518-0.242-8.28-0.316c-0.986-0.026-0.997,0.771-0.998,1.492c-0.001,1.831-0.003,3.663-0.003,5.494
		C84.011,360.43,84.012,360.43,88.508,360.419z"/>
	<path style="fill-rule:evenodd;clip-rule:evenodd;" d="M410.91,360.369c-0.001-5.944,0.056-11.889-0.036-17.831
		c-0.026-1.748,0.541-2.374,2.273-2.25c1.699,0.122,3.418,0.109,5.118,0.004c1.598-0.1,2.053,0.55,2.044,2.087
		c-0.054,8.852-0.025,17.704-0.025,26.557c0,0.506,0.044,1.016-0.007,1.517c-0.132,1.315,0.425,1.776,1.745,1.764
		c5.311-0.052,10.624,0.053,15.933-0.06c1.884-0.039,2.665,0.476,2.475,2.438c-0.152,1.566-0.061,3.159-0.031,4.739
		c0.02,1.036-0.42,1.479-1.465,1.477c-8.852-0.016-17.704-0.023-26.556,0.005c-1.569,0.005-1.469-1.013-1.469-2.047
		C410.911,372.636,410.91,366.502,410.91,360.369z"/>
	<path style="fill-rule:evenodd;clip-rule:evenodd;" d="M384.226,360.76c0.001,6.004-0.04,12.009,0.028,18.013
		c0.019,1.564-0.499,2.152-2.067,2.062c-1.764-0.103-3.543-0.104-5.307,0c-1.585,0.094-2.067-0.527-2.054-2.076
		c0.063-6.825,0.026-13.651,0.026-20.478c0-5.309,0.046-10.618-0.026-15.926c-0.021-1.565,0.499-2.151,2.068-2.063
		c1.826,0.103,3.667,0.087,5.496,0.005c1.411-0.063,1.866,0.504,1.855,1.882C384.197,348.372,384.225,354.565,384.226,360.76z"/>
	<path style="fill-rule:evenodd;clip-rule:evenodd;fill:none;" d="M28.459,348.352c6.571-0.011,11.874,5.354,11.813,12.184
		c-0.069,7.666-4.965,12.176-11.766,12.335c-6.672,0.157-11.607-5.391-11.662-12.083C16.785,353.565,21.686,348.363,28.459,348.352z
		"/>
	<path style="fill-rule:evenodd;clip-rule:evenodd;fill:none;" d="M138.287,360.303c-0.018-6.646,4.818-12.023,11.73-11.902
		c7.193,0.127,11.695,5.382,11.68,12.24c-0.017,7.922-5.334,12.148-11.842,12.234C143.171,372.964,138.123,367.225,138.287,360.303z
		"/>
	<path style="fill-rule:evenodd;clip-rule:evenodd;fill:none;" d="M257.841,360.603c-0.001-7.053,4.909-12.229,11.621-12.251
		c6.563-0.021,11.874,5.344,11.817,12.179c-0.063,7.657-4.948,12.171-11.76,12.342C262.85,373.039,257.842,367.419,257.841,360.603z
		"/>
	<path style="fill-rule:evenodd;clip-rule:evenodd;fill:none;" d="M324.753,115.386c0,19.542-0.018,39.083,0.03,58.625
		c0.005,1.736-0.199,2.29-2.114,1.633c-5.582-1.917-11.229-3.649-16.864-5.409c-4.972-1.553-10.013-2.902-14.928-4.615
		c-3.502-1.221-7.058-2.259-10.575-3.421c-4.822-1.593-9.71-2.985-14.553-4.517c-4.791-1.515-9.556-3.11-14.341-4.643
		c-6.583-2.107-13.178-4.176-19.761-6.285c-3.826-1.226-7.61-2.589-11.461-3.728c-4.759-1.408-9.471-2.954-14.19-4.481
		c-6.39-2.068-12.814-4.031-19.222-6.045c-2.994-0.941-5.979-1.914-8.977-2.841c-1.126-0.348-1.583-1.007-1.577-2.221
		c0.041-8.158,0.064-16.317-0.004-24.474c-0.022-2.568,2.12-2.407,3.525-2.912c3.838-1.377,7.77-2.496,11.666-3.711
		c4.672-1.458,9.353-2.892,14.019-4.369c5.332-1.689,10.648-3.425,15.977-5.123c4.547-1.448,9.105-2.86,13.652-4.308
		c3.833-1.221,7.65-2.491,11.486-3.702c5.032-1.589,10.081-3.125,15.113-4.713c4.911-1.55,9.805-3.156,14.718-4.703
		c5.203-1.639,10.428-3.209,15.628-4.859c6.471-2.052,12.922-4.164,19.387-6.231c4.122-1.319,8.257-2.598,12.38-3.914
		c0.643-0.206,0.976-0.081,0.976,0.635c0,0.505,0.011,1.011,0.011,1.517C324.753,76.176,324.753,95.781,324.753,115.386z"/>
	<path style="fill-rule:evenodd;clip-rule:evenodd;fill:none;" d="M355.116,115.385c0,25.553,0.002,51.105-0.002,76.658
		c-0.001,3.619-0.754,6.877-3.572,9.542c-3.341,3.16-8.492,4.018-12.604,1.629c-4.246-2.468-5.901-6.351-5.907-10.896
		c-0.063-51.422-0.084-102.843,0.013-154.265c0.013-6.889,3.571-11.218,10.506-12.406c3.374-0.579,8.976,2.912,10.398,6.282
		c0.873,2.069,1.171,4.206,1.171,6.419C355.115,64.027,355.116,89.706,355.116,115.385z"/>
	<path style="fill-rule:evenodd;clip-rule:evenodd;fill:none;" d="M253.259,177.869c-1.651,0.23-3.168-0.754-4.741-1.294
		c-7.965-2.736-16.036-5.145-24.022-7.816c-5.875-1.966-11.803-3.809-17.692-5.744c-3.755-1.234-7.673-2.009-11.253-3.745
		c-3.262-1.582-4.501-5.195-3.397-8.764c0.972-3.143,4.664-5.067,7.997-4.386c3.712,0.758,7.177,2.265,10.771,3.377
		c4.92,1.522,9.815,3.126,14.715,4.714c3.762,1.219,7.508,2.486,11.272,3.698c6.088,1.961,12.166,3.957,18.287,5.813
		c2.73,0.828,5.542,4.39,5.304,7.119C260.16,174.715,256.999,177.848,253.259,177.869z"/>
	<path style="fill-rule:evenodd;clip-rule:evenodd;fill:none;" d="M153.417,115.157c0-7.075,0.014-14.15-0.006-21.226
		c-0.009-3.158,3.077-6.47,6.463-6.863c3.136-0.364,6.798,2.157,7.434,5.174c0.193,0.914,0.301,1.863,0.302,2.797
		c0.019,13.457,0.019,26.913,0.009,40.37c-0.003,4.117-1.845,6.635-5.568,7.701c-3.853,1.104-8.648-2.521-8.648-6.538
		c-0.001-7.138,0-14.276,0-21.414C153.407,115.157,153.413,115.157,153.417,115.157z"/>
	<path style="fill-rule:evenodd;clip-rule:evenodd;fill:none;" d="M330.75,348.934c1.261-0.002,2.521-0.017,3.781,0.001
		c3.351,0.047,5.672,2.147,5.773,5.211c0.098,2.894-2.104,5.285-5.343,5.474c-2.89,0.167-5.796,0.032-8.694,0.046
		c-0.878,0.004-1.248-0.412-1.244-1.272c0.013-2.71,0.019-5.42-0.005-8.13c-0.009-0.978,0.445-1.352,1.384-1.334
		C327.852,348.955,329.301,348.936,330.75,348.934z"/>
	<path style="fill-rule:evenodd;clip-rule:evenodd;fill:none;" d="M481.369,351.774c1.562,3.765,2.968,7.178,4.394,10.582
		c0.32,0.764,0.03,1.086-0.714,1.091c-2.462,0.016-4.924,0.009-7.386,0.016c-0.648,0.002-0.97-0.188-0.677-0.906
		C478.407,359.081,479.815,355.601,481.369,351.774z"/>
	<path style="fill-rule:evenodd;clip-rule:evenodd;fill:none;" d="M88.508,360.419c-4.497,0.011-4.497,0.011-4.496-4.465
		c0-1.831,0.001-3.663,0.003-5.494c0.001-0.722,0.012-1.519,0.998-1.492c2.763,0.074,5.57-0.47,8.28,0.316
		c3.236,0.939,4.495,2.973,4.095,6.266c-0.31,2.552-2.655,4.666-5.471,4.856C90.786,360.482,89.645,360.419,88.508,360.419z"/>
</g>
</svg>
