<?xml version="1.0" encoding="iso-8859-1"?>
<!-- Generator: Adobe Illustrator 16.0.0, SVG Export Plug-In . SVG Version: 6.00 Build 0)  -->
<!DOCTYPE svg PUBLIC "-//W3C//DTD SVG 1.1//EN" "http://www.w3.org/Graphics/SVG/1.1/DTD/svg11.dtd">
<svg version="1.1" id="Layer_1" xmlns="http://www.w3.org/2000/svg" xmlns:xlink="http://www.w3.org/1999/xlink" x="0px" y="0px"
	 width="512px" height="381.059px" viewBox="0 0 512 381.059" style="enable-background:new 0 0 512 381.059;" xml:space="preserve"
	>
<g>
	<path style="fill-rule:evenodd;clip-rule:evenodd;fill:none;" d="M431.157,381.059c-56.172,0-112.344,0-168.516,0
		c3.771-0.932,7.227-2.498,10.309-4.904c0.762-0.595,1.229-1.136,1.223-2.148c-0.036-4.994-0.04-9.989-0.002-14.983
		c0.01-1.248-0.516-1.646-1.703-1.639c-4.868,0.035-9.736,0.052-14.604-0.01c-1.442-0.019-1.893,0.566-1.821,1.915
		c0.074,1.387,0.1,2.787-0.007,4.17c-0.125,1.62,0.409,2.316,2.124,2.198c1.824-0.125,3.665-0.031,5.498-0.019
		c0.495,0.003,1.021-0.058,1.354,0.468c0.827,1.305-0.022,4.904-1.41,5.506c-2.829,1.228-5.774,1.706-8.858,1.153
		c-8.218-1.473-11.404-10.921-8.289-17.488c1.669-3.521,4.135-6.023,8.083-6.701c4.138-0.71,7.873,0.424,11.122,2.972
		c1.122,0.88,1.727,0.636,2.475-0.286c1.189-1.465,2.384-2.927,3.618-4.353c0.995-1.15,0.953-1.926-0.402-2.881
		c-5.552-3.908-11.649-5.18-18.29-4.111c-12.005,1.934-19.363,12.305-17.282,24.782c1.456,8.73,6.814,14.222,15.479,16.359
		c-83.057,0-166.113,0.001-249.169-0.023c-0.555-0.001-1.286,0.438-1.707-0.356c9.985,0.038,19.97,0.074,29.955,0.12
		c1.006,0.005,1.303-0.543,1.295-1.439c-0.014-1.517-0.091-3.042,0.03-4.55c0.14-1.737-0.51-2.294-2.251-2.269
		c-6.005,0.089-12.012,0.008-18.017,0.053c-1.286,0.01-1.869-0.378-1.785-1.731c0.082-1.322,0.104-2.661-0.005-3.979
		c-0.133-1.6,0.509-2.065,2.062-2.041c4.993,0.079,9.989-0.013,14.982,0.053c1.473,0.02,2.066-0.46,1.974-1.962
		c-0.097-1.574-0.097-3.164,0-4.738c0.092-1.502-0.499-1.991-1.973-1.963c-3.855,0.074-7.712,0.023-11.569,0.023
		c-5.483-0.001-5.405-0.002-5.497-5.422c-0.031-1.87,0.589-2.35,2.38-2.319c5.814,0.1,11.632,0.005,17.448,0.057
		c1.396,0.012,1.938-0.48,1.864-1.874c-0.081-1.513-0.083-3.037,0-4.55c0.078-1.417-0.513-1.867-1.886-1.851
		c-4.614,0.055-9.229,0.001-13.845,0.022c-5.054,0.023-10.107,0.085-15.161,0.129c0-112.787,0.003-225.573-0.035-338.36
		c0-1.423,0.32-1.744,1.743-1.743c169.654,0.038,339.309,0.038,508.963,0c1.423,0,1.744,0.32,1.743,1.743
		c-0.038,125.754-0.038,251.509,0,377.263c0.001,1.423-0.32,1.747-1.743,1.744c-22.836-0.052-45.671-0.036-68.507-0.036
		c3.822-0.962,7.04-2.959,9.872-5.664c0.89-0.85,0.916-1.49,0.006-2.332c-1.347-1.243-2.631-2.558-3.9-3.881
		c-0.814-0.848-1.579-0.988-2.396-0.053c-0.981,1.124-2.3,1.789-3.584,2.422c-3.729,1.837-7.569,2.065-11.174-0.196
		c-5.447-3.417-7.389-10.451-4.654-16.335c1.913-4.114,6.092-7.235,11.647-6.506c2.726,0.358,5.053,1.48,7.104,3.229
		c0.993,0.847,1.87,1.263,2.859,0.009c1.091-1.382,2.26-2.701,3.359-4.077c1.384-1.73,1.32-2.019-0.395-3.37
		c-5.263-4.147-11.203-5.312-17.775-4.436c-11.554,1.54-19.426,11.737-17.534,24.447
		C417.276,373.027,422.637,378.613,431.157,381.059z M253.785,40.102c-0.431-0.462-0.859-0.775-1.095-1.196
		c-2.632-4.711-6.26-8.586-10.102-12.314c-7.661-7.435-16.912-11.727-27.162-14.234c-4.888-1.195-9.807-0.458-14.705-0.732
		c-4.576-0.256-8.867,1.147-13.1,2.478c-5.534,1.74-10.581,4.522-15.35,7.918c-8.832,6.289-15.155,14.532-19.86,24.161
		c-1.955,4-3.551,8.146-4.751,12.423c-0.83,2.959-1.551,5.976-1.979,9.015c-0.697,4.944-0.278,9.953-0.489,14.925
		c-0.308,7.227,1.286,14.176,3.334,20.938c1.956,6.457,4.537,12.736,7.903,18.692c3.4,6.017,7.11,11.803,11.536,17.063
		c3.919,4.66,8.347,8.867,12.932,12.921c6.882,6.087,13.318,12.669,20.277,18.684c4.042,3.493,7.692,7.406,11.68,10.968
		c6.803,6.077,13.461,12.318,20.118,18.556c4.648,4.357,9.417,8.583,13.966,13.054c1.684,1.655,3.322,3.45,5.344,4.778
		c1.033,0.678,1.944,0.776,2.902-0.1c4.314-3.942,8.65-7.86,12.957-11.811c3.577-3.281,7.024-6.712,10.706-9.871
		c6.497-5.575,12.611-11.566,19.027-17.227c3.587-3.165,6.921-6.622,10.569-9.709c7.308-6.183,14.093-12.938,21.324-19.208
		c5.936-5.146,11.119-11.048,15.677-17.482c3.441-4.858,6.51-9.932,9.106-15.285c2.639-5.439,4.555-11.15,6.207-16.953
		c1.223-4.291,2.259-8.688,2.48-13.097c0.362-7.232,0.66-14.554-0.755-21.709c-1.537-7.771-3.966-15.288-7.793-22.305
		c-3.028-5.555-6.752-10.517-11.177-15.068c-4.899-5.039-10.434-9.095-16.769-11.985c-7.169-3.27-14.664-5.297-22.68-4.779
		c-2.771,0.179-5.63-0.273-8.319,0.24c-5.973,1.139-11.771,2.867-17.301,5.594c-5.322,2.624-9.997,6.053-14.345,9.972
		C260.045,31.072,256.719,35.376,253.785,40.102z M87.541,355.491c0,1.181,0,1.784,0,2.388c0,6.955,0.035,13.912-0.025,20.867
		c-0.013,1.537,0.445,2.179,2.043,2.089c1.891-0.106,3.794-0.068,5.689-0.014c1.213,0.034,1.679-0.441,1.677-1.664
		c-0.024-12.396-0.024-24.79,0-37.185c0.002-1.22-0.457-1.695-1.673-1.668c-2.275,0.052-4.553,0.047-6.829-0.003
		c-1.128-0.024-1.894,0.366-2.488,1.351c-1.921,3.179-3.873,6.341-5.878,9.468c-1.164,1.814-2.109,3.788-3.618,5.486
		c-0.326-0.433-0.577-0.717-0.774-1.034c-2.656-4.278-5.366-8.525-7.925-12.861c-0.999-1.692-2.109-2.657-4.204-2.436
		c-1.751,0.187-3.546,0.146-5.306,0.01c-1.812-0.141-2.228,0.631-2.22,2.302c0.055,11.952,0.06,23.904-0.004,35.855
		c-0.01,1.767,0.427,2.565,2.317,2.397c1.568-0.139,3.167-0.13,4.738-0.001c1.799,0.146,2.418-0.467,2.392-2.327
		c-0.098-6.828-0.046-13.659-0.025-20.488c0.002-0.582-0.239-1.23,0.286-1.854c0.406,0.642,0.763,1.228,1.141,1.8
		c2.877,4.364,5.752,8.73,8.646,13.084c0.552,0.83,1.12,1.188,1.795,0.017c0.722-1.253,1.575-2.431,2.372-3.64
		C82.187,363.609,84.707,359.788,87.541,355.491z M364.112,356.127c2.82,3.67,5.273,6.851,7.713,10.041
		c2.483,3.248,4.982,6.485,7.421,9.768c3.787,5.099,3.768,5.112,10.016,4.873c0.063-0.002,0.126-0.007,0.189-0.002
		c1.091,0.08,1.614-0.351,1.612-1.519c-0.019-12.452-0.021-24.906,0.005-37.358c0.003-1.262-0.54-1.659-1.716-1.624
		c-1.705,0.051-3.413,0.005-5.12,0.01c-2.534,0.008-2.544,0.011-2.546,2.479c-0.007,6.385,0.005,12.77-0.016,19.154
		c-0.002,0.59,0.228,1.239-0.275,1.886c-4.906-6.466-9.885-12.792-14.58-19.322c-2.139-2.975-4.362-5.078-8.3-4.212
		c-0.482,0.105-1.014,0.065-1.513,0.006c-1.684-0.2-2.351,0.409-2.303,2.204c0.114,4.296,0.036,8.597,0.036,12.895
		c0.001,7.775,0.031,15.551-0.024,23.326c-0.011,1.517,0.406,2.203,2.025,2.104c1.763-0.108,3.542-0.1,5.307-0.002
		c1.538,0.086,2.14-0.438,2.095-2.035c-0.094-3.348-0.026-6.7-0.026-10.051C364.112,364.721,364.112,360.693,364.112,356.127z
		 M178.253,360.54c0,6.134,0.027,12.268-0.021,18.401c-0.011,1.373,0.434,1.948,1.852,1.888c1.957-0.083,3.921-0.063,5.88-0.008
		c1.218,0.033,1.703-0.45,1.672-1.67c-0.053-2.086-0.01-4.174-0.01-6.261c0.001-4.628,0.001-4.564,4.568-4.639
		c1.521-0.025,2.425,0.5,3.233,1.751c2.083,3.226,4.325,6.349,6.437,9.558c0.587,0.894,1.247,1.291,2.318,1.267
		c2.465-0.056,4.932-0.004,7.398-0.027c0.541-0.005,1.236,0.219,1.566-0.357c0.349-0.608-0.287-1.064-0.573-1.488
		c-2.535-3.757-5.077-7.512-7.721-11.192c-0.763-1.062-0.501-1.434,0.524-1.949c6.448-3.246,7.682-9.083,6.704-15.171
		c-1.056-6.57-7.049-10.107-13.36-10.288c-6.065-0.175-12.141,0.011-18.21-0.07c-1.696-0.022-2.322,0.454-2.294,2.235
		C178.311,348.524,178.251,354.532,178.253,360.54z M122.84,360.563c0,6.132,0.006,12.263-0.006,18.394
		c-0.002,1.036,0.076,1.863,1.469,1.859c9.481-0.026,18.962-0.02,28.443-0.005c1.033,0.002,1.499-0.414,1.478-1.461
		c-0.03-1.517-0.098-3.042,0.026-4.549c0.145-1.753-0.534-2.283-2.261-2.259c-6.004,0.086-12.009,0.007-18.014,0.052
		c-1.291,0.01-1.862-0.39-1.779-1.736c0.081-1.322,0.104-2.661-0.006-3.979c-0.135-1.604,0.518-2.061,2.066-2.036
		c4.992,0.077,9.987-0.014,14.979,0.052c1.473,0.02,2.065-0.46,1.973-1.962c-0.097-1.574-0.096-3.163,0-4.737
		c0.092-1.5-0.496-1.992-1.972-1.964c-3.854,0.074-7.711,0.023-11.566,0.023c-5.486-0.001-5.41-0.002-5.5-5.416
		c-0.031-1.861,0.574-2.356,2.374-2.325c5.813,0.101,11.63,0.006,17.444,0.057c1.385,0.012,1.952-0.459,1.873-1.863
		c-0.081-1.449-0.097-2.912,0.005-4.358c0.111-1.578-0.512-2.069-2.067-2.061c-8.975,0.057-17.951,0.057-26.926,0
		c-1.569-0.01-2.079,0.512-2.062,2.071C122.879,348.427,122.839,354.494,122.84,360.563z M299.326,360.457
		c0,6.131,0.007,12.262-0.007,18.393c-0.003,1.1,0.042,1.979,1.554,1.974c9.418-0.037,18.836-0.027,28.254-0.007
		c1.111,0.002,1.624-0.399,1.59-1.551c-0.046-1.579-0.079-3.164,0.015-4.739c0.088-1.481-0.467-1.997-1.959-1.976
		c-4.866,0.069-9.734,0.024-14.602,0.024c-5.526-0.001-5.465-0.001-5.509-5.593c-0.013-1.677,0.506-2.177,2.165-2.146
		c4.992,0.095,9.986,0,14.979,0.053c1.372,0.015,1.96-0.433,1.886-1.851c-0.083-1.576-0.097-3.164,0.005-4.738
		c0.101-1.563-0.486-2.096-2.057-2.072c-5.056,0.075-10.113-0.003-15.17,0.045c-1.281,0.013-1.875-0.371-1.787-1.728
		c0.081-1.259,0.12-2.538-0.009-3.789c-0.182-1.774,0.516-2.271,2.25-2.242c5.813,0.096,11.63,0.001,17.444,0.059
		c1.456,0.015,2.091-0.433,1.982-1.95c-0.098-1.384-0.11-2.787,0.004-4.168c0.137-1.663-0.486-2.186-2.153-2.172
		c-8.912,0.068-17.825,0.067-26.736,0c-1.653-0.012-2.197,0.487-2.174,2.16C299.376,348.446,299.325,354.452,299.326,360.457z
		 M487.578,371.47c0,3.156,0.054,5.309-0.02,7.456c-0.046,1.36,0.401,1.968,1.836,1.903c1.894-0.084,3.796-0.078,5.69,0
		c1.383,0.057,1.908-0.446,1.886-1.855c-0.063-4.047,0.02-8.097-0.041-12.144c-0.021-1.402,0.4-2.573,1.14-3.721
		c4.505-6.987,8.984-13.99,13.475-20.985c0.3-0.468,0.879-0.933,0.532-1.499c-0.329-0.538-1.04-0.295-1.584-0.301
		c-2.214-0.023-4.436,0.101-6.64-0.047c-1.581-0.105-2.387,0.6-3.127,1.854c-2.525,4.285-5.162,8.506-7.694,12.787
		c-0.596,1.009-0.881,0.8-1.368-0.028c-2.396-4.07-4.888-8.085-7.195-12.204c-0.962-1.718-2.027-2.646-4.128-2.417
		c-1.938,0.211-3.917,0.028-5.878,0.056c-0.606,0.008-1.395-0.255-1.763,0.343c-0.379,0.615,0.221,1.156,0.551,1.678
		c3.229,5.11,6.377,10.274,9.711,15.316C485.949,362.182,489.05,366.596,487.578,371.47z"/>
	<path style="fill-rule:evenodd;clip-rule:evenodd;" d="M251.255,381.059c-8.665-2.138-14.023-7.629-15.479-16.359
		c-2.081-12.478,5.277-22.849,17.282-24.782c6.641-1.068,12.738,0.203,18.29,4.111c1.355,0.955,1.397,1.73,0.402,2.881
		c-1.234,1.426-2.429,2.888-3.618,4.353c-0.748,0.922-1.353,1.166-2.475,0.286c-3.249-2.548-6.984-3.682-11.122-2.972
		c-3.948,0.678-6.413,3.181-8.083,6.701c-3.115,6.567,0.071,16.016,8.289,17.488c3.084,0.553,6.029,0.074,8.858-1.153
		c1.388-0.602,2.237-4.201,1.41-5.506c-0.333-0.525-0.858-0.465-1.354-0.468c-1.833-0.013-3.674-0.106-5.498,0.019
		c-1.715,0.118-2.249-0.578-2.124-2.198c0.106-1.383,0.081-2.783,0.007-4.17c-0.071-1.349,0.379-1.934,1.821-1.915
		c4.868,0.062,9.736,0.045,14.604,0.01c1.188-0.008,1.713,0.391,1.703,1.639c-0.038,4.994-0.034,9.989,0.002,14.983
		c0.007,1.013-0.461,1.554-1.223,2.148c-3.082,2.406-6.538,3.973-10.309,4.904C258.847,381.059,255.051,381.059,251.255,381.059z"/>
	<path style="fill-rule:evenodd;clip-rule:evenodd;" d="M0.379,340.447c5.054-0.044,10.107-0.105,15.161-0.129
		c4.615-0.021,9.23,0.032,13.845-0.022c1.373-0.017,1.963,0.434,1.886,1.851c-0.083,1.513-0.081,3.037,0,4.55
		c0.074,1.394-0.467,1.886-1.864,1.874c-5.816-0.052-11.633,0.043-17.448-0.057c-1.792-0.03-2.412,0.449-2.38,2.319
		c0.092,5.42,0.014,5.421,5.497,5.422c3.856,0,7.714,0.051,11.569-0.023c1.474-0.028,2.065,0.461,1.973,1.963
		c-0.097,1.574-0.097,3.164,0,4.738c0.093,1.502-0.5,1.981-1.974,1.962c-4.993-0.065-9.989,0.026-14.982-0.053
		c-1.553-0.024-2.195,0.441-2.062,2.041c0.11,1.318,0.087,2.657,0.005,3.979c-0.083,1.354,0.5,1.741,1.785,1.731
		c6.005-0.045,12.012,0.036,18.017-0.053c1.742-0.025,2.392,0.531,2.251,2.269c-0.122,1.508-0.044,3.033-0.03,4.55
		c0.008,0.896-0.289,1.444-1.295,1.439c-9.985-0.046-19.97-0.082-29.955-0.12C0.379,367.269,0.379,353.857,0.379,340.447z"/>
	<path style="fill-rule:evenodd;clip-rule:evenodd;" d="M431.157,381.059c-8.521-2.445-13.881-8.031-15.178-16.743
		c-1.892-12.71,5.98-22.907,17.534-24.447c6.572-0.876,12.513,0.288,17.775,4.436c1.715,1.352,1.778,1.64,0.395,3.37
		c-1.1,1.376-2.269,2.695-3.359,4.077c-0.989,1.254-1.866,0.838-2.859-0.009c-2.051-1.748-4.378-2.87-7.104-3.229
		c-5.556-0.729-9.734,2.392-11.647,6.506c-2.734,5.884-0.793,12.918,4.654,16.335c3.604,2.262,7.444,2.033,11.174,0.196
		c1.284-0.633,2.603-1.298,3.584-2.422c0.816-0.936,1.581-0.795,2.396,0.053c1.27,1.323,2.554,2.638,3.9,3.881
		c0.91,0.842,0.884,1.482-0.006,2.332c-2.832,2.705-6.05,4.702-9.872,5.664C438.748,381.059,434.953,381.059,431.157,381.059z"/>
	<path style="fill-rule:evenodd;clip-rule:evenodd;" d="M253.785,40.102c2.934-4.726,6.26-9.029,10.316-12.684
		c4.348-3.919,9.022-7.348,14.345-9.972c5.53-2.727,11.328-4.455,17.301-5.594c2.689-0.513,5.549-0.061,8.319-0.24
		c8.016-0.518,15.511,1.509,22.68,4.779c6.335,2.89,11.869,6.947,16.769,11.985c4.425,4.551,8.148,9.513,11.177,15.068
		c3.827,7.017,6.256,14.534,7.793,22.305c1.415,7.155,1.117,14.477,0.755,21.709c-0.222,4.409-1.258,8.806-2.48,13.097
		c-1.652,5.802-3.568,11.514-6.207,16.953c-2.597,5.353-5.665,10.426-9.106,15.285c-4.558,6.434-9.741,12.336-15.677,17.482
		c-7.231,6.269-14.017,13.024-21.324,19.208c-3.648,3.087-6.982,6.544-10.569,9.709c-6.416,5.661-12.53,11.652-19.027,17.227
		c-3.682,3.159-7.129,6.59-10.706,9.871c-4.307,3.951-8.643,7.869-12.957,11.811c-0.958,0.875-1.869,0.777-2.902,0.1
		c-2.022-1.328-3.66-3.123-5.344-4.778c-4.549-4.471-9.317-8.697-13.966-13.054c-6.657-6.238-13.315-12.479-20.118-18.556
		c-3.988-3.562-7.639-7.475-11.68-10.968c-6.958-6.015-13.395-12.597-20.277-18.684c-4.585-4.055-9.012-8.262-12.932-12.921
		c-4.425-5.26-8.135-11.046-11.536-17.063c-3.367-5.956-5.947-12.235-7.903-18.692c-2.048-6.762-3.642-13.711-3.334-20.938
		c0.211-4.972-0.208-9.981,0.489-14.925c0.428-3.04,1.149-6.056,1.979-9.015c1.2-4.277,2.796-8.423,4.751-12.423
		c4.706-9.629,11.029-17.873,19.86-24.161c4.769-3.396,9.816-6.178,15.35-7.918c4.232-1.331,8.524-2.734,13.1-2.478
		c4.897,0.274,9.817-0.463,14.705,0.732c10.25,2.507,19.501,6.799,27.162,14.234c3.842,3.729,7.47,7.603,10.102,12.314
		C252.925,39.327,253.354,39.64,253.785,40.102z M276.653,97.081c-2.504-0.701-4.913-1-7.318-1.297
		c-3.802-0.47-7.614-0.863-11.409-1.38c-5.603-0.763-11.173-1.825-16.795-2.349c-4.64-0.433-9.168-1.553-13.832-1.816
		c-3.188-0.18-6.284-1.288-9.516-1.29c-0.78,0-1.745,0.018-2.045-0.684c-0.358-0.839,0.496-1.441,1.071-2.008
		c5.313-5.238,10.665-10.433,15.75-15.904c5.031-5.414,10.569-10.337,15.503-15.858c1.052-1.178,1.063-2.126,0.425-3.343
		c-0.729-1.39-1.489-2.765-2.163-4.181c-2.27-4.771-5.589-8.836-9.293-12.452c-4.223-4.121-9.042-7.583-14.622-9.814
		c-4.517-1.806-9.155-3.25-13.995-3.644c-6.732-0.548-13.28,0.482-19.64,2.894c-9.052,3.433-16.253,9.241-21.973,16.91
		c-3.76,5.042-6.627,10.586-8.678,16.58c-2.258,6.601-3.626,13.347-3.864,20.293c-0.183,5.361,0.595,10.619,1.675,15.907
		c1.277,6.251,3.319,12.193,5.894,17.944c1.996,4.458,4.396,8.736,7.124,12.846c4.196,6.321,9.144,11.939,14.641,17.113
		c4.13,3.887,8.204,7.843,12.483,11.561c3.19,2.772,6.048,5.876,9.229,8.656c4.457,3.895,8.759,7.969,13.094,12.001
		c2.166,2.014,4.209,4.159,6.394,6.152c4.465,4.076,9.135,7.939,13.446,12.17c4.178,4.1,8.566,7.956,12.841,11.942
		c0.645,0.601,0.912,0.586,1.29-0.326c0.417-1.003,0.565-2.055,0.907-3.062c1.669-4.918,3.432-9.808,4.998-14.759
		c2.172-6.867,4.349-13.73,6.72-20.531c0.223-0.638,0.495-1.218-0.38-1.767c-4.945-3.107-9.845-6.289-14.763-9.441
		c-6.341-4.063-12.676-8.136-19.037-12.167c-0.94-0.595-0.838-0.875-0.08-1.615c3.751-3.656,7.629-7.17,11.492-10.706
		c5.431-4.971,10.676-10.144,16.03-15.199c1.922-1.815,3.947-3.522,5.895-5.312C268.368,105.267,272.65,101.453,276.653,97.081z
		 M235.145,81.415c3.5,0.562,6.63,1.125,9.78,1.554c3.794,0.517,7.612,0.867,11.407,1.384c5.601,0.764,11.186,1.646,16.785,2.414
		c4.666,0.639,9.34,1.224,14.019,1.757c3.06,0.349,6.021,1.369,9.14,1.313c0.479-0.009,1.094-0.1,1.272,0.542
		c0.183,0.659-0.334,1.027-0.754,1.412c-2.696,2.468-5.414,4.912-8.077,7.415c-1.699,1.597-3.263,3.34-4.981,4.915
		c-5.063,4.638-10.355,9.04-15.215,13.879c-5.443,5.421-11.174,10.525-16.772,15.771c-2.104,1.972-4.072,4.107-6.416,5.949
		c0.87,0.644,1.679,1.325,2.566,1.883c2.917,1.836,5.884,3.595,8.792,5.444c6.158,3.915,12.264,7.914,18.459,11.766
		c1.241,0.771,1.48,1.495,1.015,2.763c-0.671,1.824-1.348,3.672-1.867,5.521c-1.358,4.83-3.095,9.532-4.533,14.332
		c-1.469,4.902-3.214,9.721-4.94,14.881c3.857-3.511,7.471-6.818,11.104-10.103c4.201-3.797,8.538-7.453,12.603-11.39
		c4.842-4.69,9.983-9.039,14.932-13.605c7.025-6.483,14.164-12.845,21.124-19.396c5.894-5.549,11.23-11.563,15.636-18.444
		c3.092-4.829,5.724-9.876,7.925-15.093c2.035-4.824,3.585-9.888,4.589-15.093c0.836-4.333,1.447-8.67,1.629-13.076
		c0.112-2.728-0.477-5.385-0.699-8.075c-0.544-6.587-2.488-12.773-5.002-18.808c-2.23-5.354-5.201-10.266-8.886-14.775
		c-2.815-3.445-6.026-6.498-9.627-8.984c-4.865-3.36-10.203-5.803-16.054-7.255c-9.771-2.424-19.11-1.151-28.265,2.46
		c-3.679,1.451-7.062,3.48-10.327,5.781c-3.648,2.571-6.823,5.599-9.588,9.004c-3.89,4.789-6.771,10.219-9.015,15.977
		c-0.189,0.486-0.536,1.114-0.141,1.41c1.645,1.229,0.292,1.909-0.399,2.725c-0.487,0.576-0.95,1.177-1.48,1.71
		c-3.97,3.99-8.05,7.876-11.901,11.978C240.49,75.908,237.974,78.542,235.145,81.415z"/>
	<path style="fill-rule:evenodd;clip-rule:evenodd;" d="M87.541,355.491c-2.833,4.297-5.354,8.118-7.873,11.939
		c-0.797,1.209-1.65,2.387-2.372,3.64c-0.675,1.172-1.243,0.813-1.795-0.017c-2.894-4.354-5.769-8.72-8.646-13.084
		c-0.378-0.572-0.735-1.158-1.141-1.8c-0.525,0.623-0.284,1.271-0.286,1.854c-0.021,6.829-0.073,13.66,0.025,20.488
		c0.026,1.86-0.593,2.474-2.392,2.327c-1.57-0.129-3.169-0.138-4.738,0.001c-1.89,0.168-2.327-0.631-2.317-2.397
		c0.064-11.951,0.059-23.903,0.004-35.855c-0.008-1.671,0.408-2.442,2.22-2.302c1.76,0.137,3.555,0.177,5.306-0.01
		c2.095-0.222,3.206,0.743,4.204,2.436c2.56,4.336,5.269,8.583,7.925,12.861c0.197,0.317,0.448,0.602,0.774,1.034
		c1.509-1.698,2.454-3.672,3.618-5.486c2.005-3.127,3.957-6.289,5.878-9.468c0.595-0.984,1.36-1.375,2.488-1.351
		c2.276,0.05,4.554,0.055,6.829,0.003c1.217-0.027,1.676,0.448,1.673,1.668c-0.024,12.395-0.024,24.789,0,37.185
		c0.002,1.223-0.463,1.698-1.677,1.664c-1.896-0.055-3.798-0.093-5.689,0.014c-1.599,0.09-2.057-0.552-2.043-2.089
		c0.061-6.955,0.026-13.912,0.025-20.867C87.541,357.275,87.541,356.672,87.541,355.491z"/>
	<path style="fill-rule:evenodd;clip-rule:evenodd;" d="M364.112,356.127c0,4.566,0,8.594,0,12.62c0,3.351-0.067,6.703,0.026,10.051
		c0.045,1.598-0.557,2.121-2.095,2.035c-1.765-0.098-3.544-0.106-5.307,0.002c-1.619,0.099-2.036-0.588-2.025-2.104
		c0.056-7.775,0.025-15.551,0.024-23.326c0-4.298,0.078-8.599-0.036-12.895c-0.048-1.795,0.619-2.404,2.303-2.204
		c0.499,0.06,1.03,0.1,1.513-0.006c3.938-0.866,6.161,1.237,8.3,4.212c4.695,6.53,9.674,12.856,14.58,19.322
		c0.503-0.646,0.273-1.296,0.275-1.886c0.021-6.385,0.009-12.77,0.016-19.154c0.002-2.468,0.012-2.471,2.546-2.479
		c1.707-0.005,3.415,0.041,5.12-0.01c1.176-0.035,1.719,0.362,1.716,1.624c-0.026,12.452-0.023,24.906-0.005,37.358
		c0.002,1.168-0.521,1.599-1.612,1.519c-0.063-0.005-0.127,0-0.189,0.002c-6.248,0.239-6.229,0.226-10.016-4.873
		c-2.438-3.282-4.938-6.52-7.421-9.768C369.386,362.978,366.933,359.797,364.112,356.127z"/>
	<path style="fill-rule:evenodd;clip-rule:evenodd;" d="M178.252,360.54c-0.001-6.008,0.059-12.016-0.038-18.021
		c-0.028-1.781,0.598-2.258,2.294-2.235c6.07,0.081,12.145-0.104,18.21,0.07c6.312,0.181,12.304,3.718,13.36,10.288
		c0.978,6.088-0.256,11.925-6.704,15.171c-1.025,0.516-1.287,0.888-0.524,1.949c2.644,3.681,5.186,7.436,7.721,11.192
		c0.286,0.424,0.922,0.88,0.573,1.488c-0.331,0.576-1.026,0.353-1.566,0.357c-2.466,0.023-4.933-0.028-7.398,0.027
		c-1.071,0.024-1.73-0.373-2.318-1.267c-2.111-3.209-4.353-6.332-6.437-9.558c-0.808-1.251-1.713-1.776-3.233-1.751
		c-4.566,0.074-4.567,0.011-4.568,4.639c0,2.087-0.043,4.175,0.01,6.261c0.03,1.22-0.454,1.703-1.672,1.67
		c-1.958-0.055-3.923-0.075-5.88,0.008c-1.417,0.061-1.862-0.515-1.852-1.888C178.28,372.808,178.253,366.674,178.252,360.54z
		 M193.406,348.936c-1.449,0-2.9,0.03-4.348-0.011c-1.064-0.03-1.453,0.445-1.439,1.478c0.034,2.584,0.031,5.168,0,7.752
		c-0.012,0.994,0.293,1.536,1.394,1.522c2.835-0.036,5.678,0.102,8.506-0.053c3.241-0.176,5.459-2.532,5.393-5.429
		c-0.069-3.065-2.392-5.207-5.724-5.26C195.928,348.916,194.667,348.933,193.406,348.936z"/>
	<path style="fill-rule:evenodd;clip-rule:evenodd;" d="M122.84,360.563c0-6.068,0.04-12.136-0.028-18.203
		c-0.018-1.56,0.493-2.081,2.062-2.071c8.975,0.057,17.951,0.057,26.926,0c1.555-0.009,2.179,0.482,2.067,2.061
		c-0.102,1.446-0.085,2.909-0.005,4.358c0.079,1.404-0.488,1.875-1.873,1.863c-5.814-0.051-11.631,0.044-17.444-0.057
		c-1.799-0.031-2.404,0.464-2.374,2.325c0.091,5.414,0.014,5.415,5.5,5.416c3.855,0,7.712,0.051,11.566-0.023
		c1.476-0.028,2.064,0.464,1.972,1.964c-0.096,1.574-0.097,3.163,0,4.737c0.093,1.502-0.5,1.981-1.973,1.962
		c-4.993-0.065-9.987,0.025-14.979-0.052c-1.548-0.024-2.201,0.432-2.066,2.036c0.11,1.317,0.087,2.656,0.006,3.979
		c-0.083,1.347,0.488,1.746,1.779,1.736c6.004-0.045,12.01,0.034,18.014-0.052c1.727-0.024,2.405,0.506,2.261,2.259
		c-0.125,1.507-0.057,3.032-0.026,4.549c0.021,1.047-0.445,1.463-1.478,1.461c-9.481-0.015-18.962-0.021-28.443,0.005
		c-1.393,0.004-1.471-0.823-1.469-1.859C122.847,372.825,122.84,366.694,122.84,360.563z"/>
	<path style="fill-rule:evenodd;clip-rule:evenodd;" d="M299.325,360.457c0-6.005,0.051-12.011-0.033-18.014
		c-0.023-1.673,0.521-2.172,2.174-2.16c8.911,0.067,17.824,0.068,26.736,0c1.667-0.014,2.29,0.509,2.153,2.172
		c-0.114,1.381-0.102,2.784-0.004,4.168c0.108,1.518-0.526,1.965-1.982,1.95c-5.814-0.058-11.631,0.037-17.444-0.059
		c-1.734-0.028-2.432,0.468-2.25,2.242c0.129,1.251,0.09,2.53,0.009,3.789c-0.088,1.356,0.506,1.74,1.787,1.728
		c5.057-0.048,10.114,0.03,15.17-0.045c1.57-0.023,2.157,0.509,2.057,2.072c-0.102,1.574-0.088,3.162-0.005,4.738
		c0.074,1.418-0.514,1.865-1.886,1.851c-4.993-0.053-9.987,0.042-14.979-0.053c-1.659-0.031-2.178,0.469-2.165,2.146
		c0.044,5.592-0.018,5.592,5.509,5.593c4.867,0,9.735,0.045,14.602-0.024c1.492-0.021,2.047,0.494,1.959,1.976
		c-0.094,1.575-0.061,3.16-0.015,4.739c0.034,1.151-0.479,1.553-1.59,1.551c-9.418-0.021-18.836-0.03-28.254,0.007
		c-1.512,0.006-1.557-0.874-1.554-1.974C299.333,372.719,299.326,366.588,299.325,360.457z"/>
	<path style="fill-rule:evenodd;clip-rule:evenodd;" d="M487.578,371.47c1.472-4.874-1.629-9.288-4.617-13.808
		c-3.334-5.042-6.481-10.206-9.711-15.316c-0.33-0.521-0.93-1.063-0.551-1.678c0.368-0.598,1.156-0.335,1.763-0.343
		c1.961-0.027,3.939,0.155,5.878-0.056c2.101-0.229,3.166,0.699,4.128,2.417c2.308,4.119,4.8,8.134,7.195,12.204
		c0.487,0.828,0.772,1.037,1.368,0.028c2.532-4.281,5.169-8.502,7.694-12.787c0.74-1.255,1.546-1.96,3.127-1.854
		c2.204,0.147,4.426,0.023,6.64,0.047c0.544,0.006,1.255-0.237,1.584,0.301c0.347,0.566-0.232,1.031-0.532,1.499
		c-4.49,6.995-8.97,13.998-13.475,20.985c-0.739,1.147-1.16,2.318-1.14,3.721c0.061,4.047-0.022,8.097,0.041,12.144
		c0.022,1.409-0.503,1.912-1.886,1.855c-1.895-0.078-3.797-0.084-5.69,0c-1.435,0.064-1.882-0.543-1.836-1.903
		C487.632,376.778,487.578,374.626,487.578,371.47z"/>
	<path style="fill-rule:evenodd;clip-rule:evenodd;fill:none;" d="M276.653,97.081c-4.003,4.373-8.285,8.186-12.503,12.064
		c-1.947,1.79-3.973,3.497-5.895,5.312c-5.354,5.056-10.599,10.229-16.03,15.199c-3.863,3.536-7.741,7.05-11.492,10.706
		c-0.758,0.739-0.86,1.02,0.08,1.615c6.361,4.031,12.696,8.104,19.037,12.167c4.918,3.152,9.817,6.333,14.763,9.441
		c0.875,0.549,0.603,1.129,0.38,1.767c-2.371,6.801-4.548,13.664-6.72,20.531c-1.566,4.951-3.329,9.84-4.998,14.759
		c-0.342,1.006-0.491,2.059-0.907,3.062c-0.378,0.912-0.645,0.926-1.29,0.326c-4.274-3.986-8.663-7.842-12.841-11.942
		c-4.311-4.231-8.98-8.095-13.446-12.17c-2.184-1.993-4.228-4.138-6.394-6.152c-4.335-4.033-8.637-8.106-13.094-12.001
		c-3.181-2.78-6.038-5.884-9.229-8.656c-4.279-3.718-8.353-7.674-12.483-11.561c-5.497-5.173-10.445-10.792-14.641-17.113
		c-2.728-4.11-5.127-8.387-7.124-12.846c-2.575-5.751-4.617-11.693-5.894-17.944c-1.08-5.288-1.858-10.545-1.675-15.907
		c0.237-6.947,1.605-13.693,3.864-20.293c2.05-5.994,4.917-11.538,8.678-16.58c5.72-7.669,12.921-13.477,21.973-16.91
		c6.36-2.412,12.908-3.442,19.64-2.894c4.839,0.394,9.478,1.837,13.995,3.644c5.579,2.231,10.399,5.694,14.622,9.814
		c3.704,3.615,7.023,7.681,9.293,12.452c0.674,1.416,1.434,2.791,2.163,4.181c0.638,1.217,0.627,2.166-0.425,3.343
		c-4.934,5.521-10.472,10.445-15.503,15.858c-5.084,5.471-10.437,10.666-15.75,15.904c-0.575,0.567-1.429,1.169-1.071,2.008
		c0.3,0.702,1.265,0.684,2.045,0.684c3.232,0.002,6.328,1.11,9.516,1.29c4.663,0.263,9.191,1.383,13.832,1.816
		c5.622,0.524,11.192,1.586,16.795,2.349c3.795,0.517,7.607,0.91,11.409,1.38C271.74,96.081,274.149,96.379,276.653,97.081z"/>
	<path style="fill-rule:evenodd;clip-rule:evenodd;fill:none;" d="M235.145,81.415c2.829-2.873,5.346-5.506,7.835-8.159
		c3.851-4.102,7.931-7.988,11.901-11.978c0.53-0.533,0.994-1.134,1.48-1.71c0.691-0.816,2.044-1.496,0.399-2.725
		c-0.396-0.296-0.049-0.924,0.141-1.41c2.244-5.757,5.125-11.188,9.015-15.977c2.765-3.405,5.939-6.433,9.588-9.004
		c3.266-2.301,6.648-4.33,10.327-5.781c9.154-3.611,18.494-4.884,28.265-2.46c5.851,1.452,11.188,3.895,16.054,7.255
		c3.601,2.487,6.812,5.54,9.627,8.984c3.685,4.509,6.655,9.421,8.886,14.775c2.514,6.035,4.458,12.22,5.002,18.808
		c0.223,2.69,0.812,5.347,0.699,8.075c-0.182,4.405-0.793,8.743-1.629,13.076c-1.004,5.206-2.554,10.269-4.589,15.093
		c-2.201,5.217-4.833,10.264-7.925,15.093c-4.405,6.881-9.742,12.895-15.636,18.444c-6.96,6.552-14.099,12.913-21.124,19.396
		c-4.948,4.567-10.09,8.915-14.932,13.605c-4.064,3.937-8.401,7.593-12.603,11.39c-3.634,3.284-7.247,6.592-11.104,10.103
		c1.727-5.16,3.472-9.979,4.94-14.881c1.438-4.8,3.175-9.502,4.533-14.332c0.52-1.849,1.196-3.696,1.867-5.521
		c0.466-1.268,0.227-1.991-1.015-2.763c-6.195-3.853-12.301-7.852-18.459-11.766c-2.908-1.849-5.875-3.607-8.792-5.444
		c-0.887-0.558-1.696-1.24-2.566-1.883c2.344-1.841,4.312-3.977,6.416-5.949c5.598-5.247,11.329-10.351,16.772-15.771
		c4.859-4.839,10.152-9.242,15.215-13.879c1.719-1.575,3.282-3.318,4.981-4.915c2.663-2.502,5.381-4.947,8.077-7.415
		c0.42-0.384,0.937-0.752,0.754-1.412c-0.179-0.641-0.793-0.55-1.272-0.542c-3.118,0.056-6.08-0.964-9.14-1.313
		c-4.679-0.533-9.353-1.118-14.019-1.757c-5.6-0.767-11.185-1.65-16.785-2.414c-3.794-0.518-7.612-0.867-11.407-1.384
		C241.775,82.54,238.644,81.976,235.145,81.415z"/>
	<path style="fill-rule:evenodd;clip-rule:evenodd;fill:none;" d="M193.406,348.934c1.261-0.001,2.521-0.018,3.782,0.002
		c3.332,0.053,5.655,2.194,5.724,5.26c0.066,2.896-2.152,5.253-5.393,5.429c-2.828,0.154-5.67,0.017-8.506,0.053
		c-1.101,0.014-1.405-0.528-1.394-1.522c0.031-2.584,0.033-5.168,0-7.752c-0.014-1.032,0.375-1.508,1.439-1.478
		C190.506,348.966,191.957,348.936,193.406,348.934z"/>
</g>
</svg>
