<?xml version="1.0" encoding="iso-8859-1"?>
<!-- Generator: Adobe Illustrator 16.0.0, SVG Export Plug-In . SVG Version: 6.00 Build 0)  -->
<!DOCTYPE svg PUBLIC "-//W3C//DTD SVG 1.1//EN" "http://www.w3.org/Graphics/SVG/1.1/DTD/svg11.dtd">
<svg version="1.1" id="Layer_1" xmlns="http://www.w3.org/2000/svg" xmlns:xlink="http://www.w3.org/1999/xlink" x="0px" y="0px"
	 width="512px" height="380.804px" viewBox="0 0 512 380.804" style="enable-background:new 0 0 512 380.804;" xml:space="preserve"
	>
<g>
	<path style="fill-rule:evenodd;clip-rule:evenodd;fill:none;" d="M353.352,0.379c52.566,0,105.133,0.007,157.699-0.036
		c1.423-0.001,1.744,0.321,1.743,1.744c-0.038,125.754-0.038,251.509,0,377.263c0.001,1.423-0.32,1.743-1.743,1.743
		c-169.654-0.038-339.309-0.038-508.963,0c-1.423,0-1.744-0.32-1.743-1.743c0.038-125.754,0.038-251.509,0-377.263
		c0-1.423,0.32-1.744,1.743-1.744C75.149,0.384,148.21,0.379,221.272,0.379c-1.376,1.186-1.992,2.708-2.032,4.504
		c-0.058,2.569-0.068,2.573-2.612,2.573c-22.2,0.001-44.401,0-66.602,0.002c-2.505,0-2.517,0.012-2.517,2.511
		c-0.002,72.547-0.002,145.095,0,217.643c0,2.508,0.011,2.52,2.507,2.52c60.783,0.002,121.566,0.002,182.349,0
		c2.508,0,2.516-0.011,2.52-2.508c0.007-3.991,0.002-7.982,0.002-12.23c1.847,2.387,2.691,4.709,2.426,7.45
		c-0.138,1.422-0.074,2.867,0.279,4.32c0.801,3.295,4.816,3.692,7.027,2.303c1.408-0.885,1.647-2.219,1.681-3.766
		c0.062-2.963-0.623-6.007,1.429-8.737c1.463-1.945,2.579-4.158,3.778-6.292c2.852-5.072,5.627-10.187,8.514-15.239
		c0.612-1.072,1.071-2.069,1.071-3.34c-0.021-60.783-0.019-121.566-0.011-182.349c0-1.231-0.312-2.321-0.919-3.407
		C358.591,3.525,356.329,1.557,353.352,0.379z M308.434,360.576c0,6.005,0.056,12.01-0.035,18.014
		c-0.026,1.75,0.549,2.271,2.272,2.255c7.773-0.075,15.549-0.032,23.323-0.032c5.871-0.001,5.79-0.003,5.872-5.837
		c0.028-1.949-0.597-2.475-2.484-2.44c-5.876,0.108-11.757,0-17.634,0.066c-1.479,0.017-2.084-0.438-1.959-1.947
		c0.1-1.193,0.125-2.412-0.005-3.599c-0.199-1.811,0.571-2.251,2.271-2.219c4.929,0.097,9.86-0.011,14.789,0.059
		c1.494,0.021,2.046-0.496,1.959-1.977c-0.092-1.574-0.099-3.164,0.002-4.737c0.097-1.52-0.53-1.976-1.986-1.949
		c-3.854,0.07-7.711,0.022-11.566,0.022c-5.475-0.001-5.396-0.002-5.487-5.43c-0.032-1.881,0.606-2.342,2.388-2.312
		c5.75,0.1,11.504-0.007,17.255,0.064c1.571,0.02,2.165-0.513,2.054-2.074c-0.1-1.384-0.103-2.786,0-4.169
		c0.117-1.594-0.542-2.055-2.081-2.046c-8.975,0.055-17.951,0.057-26.926-0.001c-1.585-0.011-2.064,0.541-2.048,2.085
		C308.474,348.44,308.435,354.508,308.434,360.576z M172.273,380.813c0.316,0,0.632,0,0.948,0c4.453,0,4.378,0.031,2.64-4.019
		c-4.614-10.751-9.194-21.519-13.712-32.311c-1.889-4.513-1.801-4.549-6.717-4.549c-0.695,0-1.397,0.062-2.084-0.013
		c-1.231-0.132-1.917,0.31-2.419,1.507c-3.506,8.354-7.093,16.672-10.641,25.007c-1.823,4.283-3.588,8.591-5.444,12.859
		c-0.547,1.258-0.135,1.549,1.064,1.526c2.211-0.042,4.425-0.042,6.636-0.004c0.878,0.016,1.437-0.324,1.764-1.115
		c0.77-1.86,1.653-3.683,2.285-5.588c0.524-1.583,1.399-2.131,3.057-2.067c3.219,0.123,6.445,0.036,9.669,0.036
		c4.719,0,4.719,0,6.54,4.41C167.644,380.813,167.644,380.813,172.273,380.813z M91.584,372.575
		c0.761-1.752,2.122-2.722,3.167-3.943c5.156-6.021,10.346-12.014,15.422-18.101c1.008-1.208,2.586-2.145,2.661-3.976
		c0.064-1.578-0.01-3.161,0.021-4.741c0.02-1.018-0.378-1.499-1.442-1.497c-10.116,0.014-20.232,0.016-30.349-0.006
		c-1.192-0.003-1.524,0.575-1.499,1.642c0.037,1.517,0.085,3.039-0.016,4.551c-0.105,1.563,0.483,2.098,2.055,2.074
		c5.057-0.076,10.116-0.059,15.174-0.002c1.079,0.012,2.617-0.617,3.129,0.391c0.391,0.771-1.163,1.443-1.737,2.252
		c-0.037,0.051-0.083,0.095-0.125,0.143c-5.242,6.113-10.555,12.167-15.676,18.38c-1.345,1.632-3.558,2.807-3.555,5.368
		c0.001,1.328,0.04,2.657-0.012,3.983c-0.046,1.166,0.338,1.732,1.61,1.729c10.306-0.028,20.612-0.025,30.918-0.005
		c1.168,0.002,1.557-0.521,1.528-1.613c-0.04-1.517-0.082-3.04,0.016-4.551c0.098-1.529-0.418-2.126-2.025-2.104
		c-5.752,0.074-11.507,0.028-17.261,0.027C92.977,372.575,92.363,372.575,91.584,372.575z M200.266,360.547
		c0,6.127,0.026,12.255-0.02,18.382c-0.011,1.354,0.401,1.964,1.834,1.9c1.892-0.084,3.792-0.076,5.684-0.001
		c1.367,0.055,1.935-0.419,1.895-1.841c-0.076-2.714,0.023-5.433-0.037-8.147c-0.028-1.258,0.326-1.847,1.703-1.815
		c2.705,0.061,5.402-0.025,8.108-0.332c6.125-0.692,12.196-4.841,13.076-11.793c1.251-9.89-5.028-16.04-13.724-16.527
		c-5.416-0.304-10.863,0.002-16.293-0.092c-1.738-0.029-2.287,0.53-2.261,2.264C200.318,348.544,200.265,354.546,200.266,360.547z
		 M382.711,364.91c0-4.743,0.032-9.486-0.021-14.229c-0.015-1.308,0.423-1.802,1.752-1.771c2.908,0.068,5.818-0.014,8.727,0.03
		c1.196,0.019,1.735-0.404,1.695-1.647c-0.059-1.832-0.039-3.668-0.01-5.501c0.018-1.036-0.42-1.495-1.465-1.477
		c-1.644,0.03-3.288-0.001-4.933-0.001c-8.411,0-16.823,0.032-25.234-0.026c-1.573-0.011-2.15,0.516-2.054,2.076
		c0.102,1.639,0.07,3.289,0.013,4.932c-0.044,1.245,0.503,1.669,1.697,1.645c2.339-0.049,4.68-0.022,7.02-0.007
		c3.86,0.025,3.425-0.42,3.432,3.457c0.016,8.791,0.035,17.582-0.021,26.372c-0.01,1.555,0.479,2.164,2.06,2.071
		c1.765-0.104,3.545-0.104,5.31,0c1.582,0.094,2.084-0.52,2.058-2.074C382.658,374.145,382.708,369.527,382.711,364.91z
		 M255.68,360.368c0,6.196,0.006,12.394-0.006,18.59c-0.002,1.038,0.08,1.862,1.472,1.857c8.853-0.027,17.704-0.021,26.557-0.005
		c1.045,0.002,1.483-0.439,1.465-1.477c-0.03-1.58-0.122-3.172,0.03-4.738c0.191-1.963-0.59-2.479-2.474-2.439
		c-5.309,0.112-10.622,0.008-15.933,0.06c-1.319,0.013-1.878-0.447-1.746-1.764c0.051-0.501,0.008-1.011,0.008-1.517
		c-0.001-8.853-0.029-17.704,0.024-26.557c0.01-1.536-0.444-2.187-2.043-2.087c-1.7,0.105-3.42,0.118-5.118-0.004
		c-1.732-0.124-2.3,0.501-2.273,2.25C255.734,348.48,255.677,354.425,255.68,360.368z M418.502,360.569
		c0,6.131,0.029,12.262-0.021,18.392c-0.012,1.393,0.474,1.929,1.87,1.868c1.829-0.08,3.669-0.1,5.496,0.005
		c1.584,0.091,2.07-0.526,2.054-2.075c-0.064-6.319-0.025-12.64-0.025-18.96c0-5.879-0.032-11.757,0.019-17.634
		c0.013-1.393-0.473-1.929-1.869-1.868c-1.83,0.08-3.67,0.1-5.497-0.005c-1.584-0.091-2.071,0.525-2.054,2.075
		C418.54,348.435,418.501,354.502,418.502,360.569z"/>
	<path style="fill-rule:evenodd;clip-rule:evenodd;" d="M353.352,0.379c2.978,1.178,5.239,3.146,6.812,5.958
		c0.607,1.086,0.919,2.175,0.919,3.407c-0.008,60.783-0.01,121.566,0.011,182.349c0,1.271-0.459,2.268-1.071,3.34
		c-2.887,5.052-5.662,10.167-8.514,15.239c-1.199,2.134-2.315,4.347-3.778,6.292c-2.052,2.73-1.367,5.774-1.429,8.737
		c-0.033,1.547-0.272,2.881-1.681,3.766c-2.211,1.389-6.227,0.992-7.027-2.303c-0.354-1.453-0.417-2.898-0.279-4.32
		c0.266-2.741-0.579-5.063-2.426-7.45c0,4.249,0.005,8.24-0.002,12.23c-0.004,2.497-0.012,2.508-2.52,2.508
		c-60.783,0.002-121.566,0.002-182.349,0c-2.496,0-2.507-0.012-2.507-2.52c-0.002-72.547-0.002-145.095,0-217.643
		c0-2.5,0.011-2.511,2.517-2.511c22.2-0.003,44.401-0.001,66.602-0.002c2.543,0,2.554-0.003,2.612-2.573
		c0.041-1.796,0.656-3.318,2.032-4.504c13.031,0,26.062,0,39.092,0c1.57,1.125,2.07,2.698,2.045,4.564
		c-0.033,2.506,0.01,2.512,2.469,2.512c18.207,0.002,36.416-0.023,54.624,0.034c2.166,0.006,3.938,0.004,4.957-2.46
		c1.02-2.465,3.562-3.417,5.741-4.651C337.917,0.379,345.635,0.379,353.352,0.379z M307.294,119.182c0-1.96,0-3.921,0-5.882
		c0-25.173-0.017-50.347,0.034-75.52c0.004-1.773-0.415-2.443-2.306-2.392c-4.677,0.127-9.36,0.09-14.039,0.011
		c-1.337-0.023-1.836,0.364-1.653,1.694c0.235,1.704-0.67,2.151-2.242,2.15c-30.677-0.027-61.352-0.026-92.028-0.001
		c-1.394,0.001-2.226-0.324-2.005-1.897c0.211-1.514-0.466-1.967-1.946-1.942c-4.553,0.077-9.107,0.026-13.661,0.028
		c-2.722,0-2.725,0.002-2.725,2.653c0,53.952,0,107.903,0,161.855c0,2.597,0.004,2.601,2.587,2.601
		c42.44,0.001,84.881,0.001,127.321,0c2.66,0,2.663-0.003,2.663-2.715C307.294,172.944,307.294,146.063,307.294,119.182z
		 M155.745,118.994c0,33.525,0.013,67.05-0.036,100.575c-0.002,1.802,0.466,2.438,2.328,2.369c3.664-0.135,7.336-0.04,11.005-0.04
		c51.49,0,102.979,0,154.468,0c2.758,0,2.76-0.002,2.76-2.808c0.001-5.819-0.012-11.639,0.011-17.458
		c0.004-1.108-0.221-2.066-0.854-3.022c-2.045-3.094-3.048-6.355-3.039-10.25c0.127-56.296,0.087-112.593,0.087-168.89
		c0-0.632-0.031-1.266,0.003-1.897c0.055-1.02-0.334-1.505-1.418-1.503c-10.185,0.018-20.368,0.018-30.553-0.007
		c-0.907-0.002-1.205,0.295-1.187,1.206c0.053,2.592,0.108,5.19-0.015,7.778c-0.066,1.421,0.323,1.818,1.767,1.803
		c7.273-0.076,14.548-0.037,21.822-0.033c2.625,0.001,2.634,0.008,2.634,2.584c0.002,59.839,0.002,119.678,0,179.517
		c0,2.61-0.008,2.619-2.599,2.619c-48.01,0.002-96.02,0.002-144.03,0c-2.766,0-2.793-0.026-2.793-2.736
		c-0.002-59.839-0.002-119.678,0-179.517c0-2.457,0.013-2.465,2.562-2.466c7.337-0.005,14.676-0.072,22.012,0.044
		c1.978,0.031,2.548-0.602,2.406-2.488c-0.151-2.013-0.136-4.052-0.003-6.068c0.114-1.738-0.462-2.28-2.233-2.268
		c-10.815,0.075-21.632,0.037-32.449,0.038c-2.652,0-2.655,0.003-2.655,2.723C155.745,52.196,155.745,85.595,155.745,118.994z
		 M331.093,118.986c0,22.013,0.019,44.026-0.036,66.039c-0.004,1.795,0.457,2.411,2.323,2.375c5.817-0.112,11.639-0.09,17.457-0.01
		c1.606,0.022,2.029-0.541,2.028-2.081c-0.033-44.216-0.033-88.432,0-132.648c0.001-1.541-0.423-2.103-2.028-2.081
		c-5.756,0.081-11.513,0.029-17.269,0.032c-2.471,0.001-2.476,0.006-2.476,2.523C331.092,75.086,331.093,97.036,331.093,118.986z
		 M240.714,30.609c12.517,0,25.033-0.003,37.549,0.006c1.131,0.001,2.141,0.087,2.105-1.592c-0.078-3.791-0.048-7.585-0.01-11.377
		c0.011-1.121-0.381-1.592-1.541-1.583c-4.931,0.035-9.861,0.041-14.792-0.005c-1.245-0.011-1.669,0.462-1.646,1.677
		c0.055,2.78-0.029,5.563,0.03,8.344c0.027,1.304-0.452,1.778-1.766,1.775c-13.211-0.03-26.423-0.03-39.635-0.001
		c-1.292,0.003-1.814-0.431-1.784-1.756c0.063-2.716-0.039-5.438,0.037-8.153c0.038-1.367-0.378-1.915-1.823-1.894
		c-4.803,0.069-9.608,0.059-14.412,0.004c-1.32-0.015-1.782,0.447-1.758,1.763c0.063,3.539,0.117,7.083-0.02,10.618
		c-0.071,1.822,0.61,2.215,2.295,2.207C215.934,30.582,228.324,30.609,240.714,30.609z M341.849,26.813
		c3.095,0,6.19-0.015,9.285,0.008c0.999,0.008,1.725-0.123,1.714-1.401c-0.039-4.358,0.06-8.719-0.057-13.074
		c-0.064-2.423-1.386-3.757-3.808-3.813c-4.798-0.111-9.602-0.096-14.399-0.005c-2.138,0.04-3.467,1.369-3.479,3.205
		c-0.03,4.485,0.019,8.97-0.028,13.455c-0.014,1.245,0.464,1.666,1.677,1.644C335.784,26.776,338.816,26.812,341.849,26.813z
		 M240.67,18.843c3.732,0,7.465-0.062,11.195,0.03c1.527,0.038,2.002-0.503,1.938-1.979c-0.098-2.273-0.06-4.554-0.014-6.83
		c0.022-1.114-0.363-1.597-1.533-1.592c-7.653,0.03-15.307,0.025-22.961,0.005c-1.066-0.003-1.462,0.442-1.446,1.481
		c0.036,2.276,0.084,4.557-0.019,6.83c-0.07,1.539,0.407,2.133,2.023,2.087C233.457,18.772,237.064,18.843,240.67,18.843z
		 M342.018,41.996c2.087,0,4.175,0,6.262,0c4.638,0,4.585,0,4.59-4.615c0.001-1.469-0.415-2.003-1.942-1.979
		c-5.059,0.08-10.12,0.03-15.181,0.03c-4.761,0-4.715,0-4.681,4.71c0.009,1.381,0.413,1.918,1.844,1.879
		C335.943,41.937,338.981,41.995,342.018,41.996z M341.846,209.576c2.436-4.277,4.692-8.252,6.967-12.218
		c0.21-0.365,0.76-0.627,0.51-1.116c-0.245-0.479-0.797-0.255-1.21-0.256c-4.236-0.015-8.474-0.011-12.71-0.002
		c-0.358,0.001-0.781-0.097-1.012,0.426C336.827,200.712,339.281,205.048,341.846,209.576z"/>
	<path style="fill-rule:evenodd;clip-rule:evenodd;fill:none;" d="M330.2,0.379c-2.18,1.233-4.722,2.186-5.741,4.651
		c-1.019,2.464-2.791,2.466-4.957,2.46c-18.208-0.058-36.417-0.032-54.624-0.034c-2.459,0-2.502-0.006-2.469-2.512
		c0.025-1.866-0.475-3.44-2.045-4.564C283.643,0.379,306.922,0.379,330.2,0.379z"/>
	<path style="fill-rule:evenodd;clip-rule:evenodd;" d="M308.434,360.576c0.001-6.068,0.04-12.136-0.026-18.203
		c-0.017-1.544,0.463-2.096,2.048-2.085c8.975,0.058,17.951,0.056,26.926,0.001c1.539-0.009,2.198,0.452,2.081,2.046
		c-0.103,1.383-0.1,2.785,0,4.169c0.111,1.562-0.482,2.094-2.054,2.074c-5.751-0.071-11.505,0.035-17.255-0.064
		c-1.781-0.03-2.42,0.431-2.388,2.312c0.092,5.428,0.013,5.429,5.487,5.43c3.855,0,7.712,0.048,11.566-0.022
		c1.456-0.026,2.083,0.43,1.986,1.949c-0.101,1.573-0.094,3.163-0.002,4.737c0.087,1.48-0.465,1.998-1.959,1.977
		c-4.929-0.069-9.86,0.038-14.789-0.059c-1.7-0.032-2.471,0.408-2.271,2.219c0.13,1.187,0.104,2.405,0.005,3.599
		c-0.125,1.509,0.479,1.964,1.959,1.947c5.877-0.066,11.758,0.042,17.634-0.066c1.888-0.034,2.513,0.491,2.484,2.44
		c-0.082,5.834-0.001,5.836-5.872,5.837c-7.774,0-15.55-0.043-23.323,0.032c-1.724,0.017-2.299-0.505-2.272-2.255
		C308.489,372.586,308.434,366.581,308.434,360.576z"/>
	<path style="fill-rule:evenodd;clip-rule:evenodd;" d="M172.273,380.813c-4.629,0-4.629,0-6.413-4.319
		c-1.821-4.41-1.821-4.41-6.54-4.41c-3.224,0-6.451,0.087-9.669-0.036c-1.658-0.063-2.533,0.484-3.057,2.067
		c-0.632,1.905-1.515,3.728-2.285,5.588c-0.327,0.791-0.886,1.131-1.764,1.115c-2.211-0.038-4.425-0.038-6.636,0.004
		c-1.199,0.022-1.611-0.269-1.064-1.526c1.856-4.269,3.621-8.576,5.444-12.859c3.548-8.335,7.135-16.653,10.641-25.007
		c0.502-1.197,1.188-1.639,2.419-1.507c0.687,0.074,1.389,0.013,2.084,0.013c4.916,0,4.828,0.036,6.717,4.549
		c4.518,10.792,9.098,21.56,13.712,32.311c1.738,4.05,1.813,4.019-2.64,4.019C172.906,380.813,172.589,380.813,172.273,380.813z
		 M155.718,351.762c-1.535,3.809-2.897,7.242-4.309,10.656c-0.312,0.755-0.185,1.053,0.642,1.049
		c2.399-0.012,4.798-0.003,7.197-0.01c0.763-0.003,1.249-0.2,0.856-1.132C158.68,358.933,157.28,355.53,155.718,351.762z"/>
	<path style="fill-rule:evenodd;clip-rule:evenodd;" d="M91.584,372.575c0.779,0,1.392,0,2.005,0
		c5.754,0.001,11.508,0.047,17.261-0.027c1.607-0.021,2.124,0.575,2.025,2.104c-0.097,1.511-0.055,3.034-0.016,4.551
		c0.029,1.092-0.359,1.615-1.528,1.613c-10.306-0.021-20.612-0.023-30.918,0.005c-1.272,0.004-1.656-0.563-1.61-1.729
		c0.052-1.326,0.013-2.655,0.012-3.983c-0.003-2.562,2.21-3.736,3.555-5.368c5.121-6.213,10.434-12.267,15.676-18.38
		c0.042-0.048,0.088-0.092,0.125-0.143c0.575-0.809,2.128-1.481,1.737-2.252c-0.512-1.008-2.05-0.379-3.129-0.391
		c-5.058-0.057-10.117-0.074-15.174,0.002c-1.572,0.023-2.16-0.512-2.055-2.074c0.101-1.512,0.053-3.034,0.016-4.551
		c-0.025-1.066,0.306-1.645,1.499-1.642c10.116,0.021,20.232,0.02,30.349,0.006c1.064-0.002,1.462,0.479,1.442,1.497
		c-0.031,1.58,0.043,3.163-0.021,4.741c-0.074,1.831-1.653,2.768-2.661,3.976c-5.077,6.087-10.267,12.08-15.422,18.101
		C93.706,369.854,92.346,370.823,91.584,372.575z"/>
	<path style="fill-rule:evenodd;clip-rule:evenodd;" d="M200.265,360.547c0-6.001,0.053-12.003-0.034-18.003
		c-0.026-1.733,0.522-2.293,2.261-2.264c5.431,0.094,10.878-0.212,16.293,0.092c8.696,0.487,14.976,6.638,13.724,16.527
		c-0.88,6.952-6.952,11.101-13.076,11.793c-2.707,0.307-5.403,0.393-8.108,0.332c-1.377-0.031-1.731,0.558-1.703,1.815
		c0.06,2.715-0.039,5.434,0.037,8.147c0.04,1.422-0.528,1.896-1.895,1.841c-1.892-0.075-3.792-0.083-5.684,0.001
		c-1.433,0.063-1.845-0.546-1.834-1.9C200.292,372.802,200.266,366.674,200.265,360.547z M209.644,354.604
		c0,1.452,0.031,2.906-0.01,4.357c-0.03,1.041,0.386,1.494,1.448,1.475c2.146-0.039,4.298,0.066,6.44-0.037
		c2.818-0.136,5.171-2.276,5.493-4.825c0.416-3.292-0.853-5.294-4.067-6.297c-2.343-0.731-4.77-0.145-7.145-0.362
		c-1.614-0.148-2.363,0.361-2.186,2.092C209.738,352.194,209.64,353.404,209.644,354.604z"/>
	<path style="fill-rule:evenodd;clip-rule:evenodd;" d="M382.71,364.91c-0.002,4.617-0.052,9.234,0.025,13.85
		c0.026,1.555-0.476,2.168-2.058,2.074c-1.765-0.104-3.545-0.104-5.31,0c-1.58,0.093-2.069-0.517-2.06-2.071
		c0.056-8.79,0.036-17.581,0.021-26.372c-0.007-3.877,0.429-3.432-3.432-3.457c-2.34-0.016-4.681-0.042-7.02,0.007
		c-1.194,0.024-1.741-0.399-1.697-1.645c0.058-1.643,0.089-3.293-0.013-4.932c-0.097-1.561,0.48-2.087,2.054-2.076
		c8.411,0.059,16.823,0.026,25.234,0.026c1.645,0,3.289,0.031,4.933,0.001c1.045-0.019,1.482,0.44,1.465,1.477
		c-0.029,1.833-0.049,3.669,0.01,5.501c0.04,1.243-0.499,1.666-1.695,1.647c-2.908-0.044-5.818,0.038-8.727-0.03
		c-1.329-0.031-1.767,0.463-1.752,1.771C382.743,355.424,382.711,360.167,382.71,364.91z"/>
	<path style="fill-rule:evenodd;clip-rule:evenodd;" d="M255.678,360.368c-0.001-5.943,0.056-11.888-0.036-17.83
		c-0.027-1.749,0.541-2.374,2.273-2.25c1.698,0.122,3.418,0.109,5.118,0.004c1.599-0.1,2.053,0.551,2.043,2.087
		c-0.054,8.853-0.025,17.704-0.024,26.557c0,0.506,0.043,1.016-0.008,1.517c-0.132,1.316,0.427,1.776,1.746,1.764
		c5.311-0.052,10.624,0.053,15.933-0.06c1.884-0.039,2.665,0.477,2.474,2.439c-0.152,1.566-0.061,3.158-0.03,4.738
		c0.019,1.037-0.42,1.479-1.465,1.477c-8.853-0.016-17.704-0.022-26.557,0.005c-1.392,0.005-1.474-0.819-1.472-1.857
		C255.686,372.762,255.68,366.564,255.678,360.368z"/>
	<path style="fill-rule:evenodd;clip-rule:evenodd;" d="M418.502,360.569c-0.001-6.067,0.038-12.135-0.028-18.202
		c-0.018-1.55,0.47-2.166,2.054-2.075c1.827,0.104,3.667,0.085,5.497,0.005c1.396-0.061,1.882,0.476,1.869,1.868
		c-0.051,5.877-0.019,11.755-0.019,17.634c0,6.32-0.039,12.641,0.025,18.96c0.017,1.549-0.47,2.166-2.054,2.075
		c-1.827-0.104-3.667-0.085-5.496-0.005c-1.396,0.061-1.882-0.476-1.87-1.868C418.531,372.831,418.502,366.7,418.502,360.569z"/>
	<path style="fill-rule:evenodd;clip-rule:evenodd;fill:none;" d="M307.294,119.182c0,26.881,0,53.762,0,80.644
		c0,2.711-0.003,2.715-2.663,2.715c-42.44,0-84.881,0-127.321,0c-2.583,0-2.587-0.003-2.587-2.601
		c-0.001-53.952-0.001-107.903,0-161.855c0-2.651,0.003-2.653,2.725-2.653c4.554-0.001,9.108,0.049,13.661-0.028
		c1.48-0.025,2.158,0.428,1.946,1.942c-0.22,1.573,0.611,1.898,2.005,1.897c30.676-0.024,61.351-0.025,92.028,0.001
		c1.572,0.001,2.478-0.446,2.242-2.15c-0.183-1.331,0.316-1.717,1.653-1.694c4.679,0.079,9.362,0.116,14.039-0.011
		c1.891-0.052,2.31,0.619,2.306,2.392c-0.051,25.173-0.034,50.346-0.034,75.52C307.294,115.261,307.294,117.222,307.294,119.182z
		 M199.071,158.519c-2.397-0.014-3.917,0.959-4.566,2.829c-0.698,2.009-0.214,3.406,1.638,4.886
		c0.983,0.786,1.923,1.625,2.885,2.437c2.636,2.225,5.112,4.654,8.011,6.548c2.513,1.643,6.036,0.038,6.361-2.9
		c0.413-3.739,0.592-7.508,1.136-11.227c0.313-2.146,1.016-4.254,2.272-6.122c1.604-2.384,3.564-4.342,6.03-5.862
		c1.693-1.043,2.071-3.315,1.144-5.235c-0.797-1.652-3.585-2.978-5.148-2.292c-3.032,1.331-5.54,3.396-7.625,5.952
		c-3.069,3.762-4.266,8.304-5.309,12.91c-0.487,2.153-0.441,2.021-2.219,0.803C202.18,160.22,201.182,158.228,199.071,158.519z
		 M214.452,65.148c-5.874,0-11.748,0.027-17.621-0.017c-1.731-0.013-3,0.616-3.475,2.28c-0.743,2.596-0.543,5.572,3.168,6.146
		c0.68,0.105,1.372,0.198,2.058,0.198c10.421,0.013,20.842,0.009,31.263,0.007c0.504,0,1.018,0.026,1.513-0.049
		c2.773-0.424,4.678-2.57,4.448-4.975c-0.208-2.179-2.118-3.589-4.871-3.59C225.441,65.146,219.947,65.147,214.452,65.148z
		 M250.816,167.923c1.495,0.289,2.709-0.652,3.525-2.269c0.788-1.56,0.553-2.982-0.427-4.429c-2.208-3.259-6.229-4.868-10.046-4.005
		c-2.42,0.547-4.648,1.532-6.795,2.722c-3.802,2.106-5.616,1.657-7.883-2.015c-1.217-1.971-3.632-2.651-5.801-1.635
		c-1.849,0.867-2.91,3.402-2.122,5.501c1.982,5.282,8.138,8.988,14.07,8.132c2.727-0.394,4.957-1.61,7.199-2.98
		c2.333-1.426,3.185-1.417,5.18,0.328C248.552,168.006,249.467,167.831,250.816,167.923z M225.625,127.277
		c4.359,0,8.719,0.007,13.078-0.003c1.831-0.004,3.437-0.7,4.138-2.394c0.888-2.143,0.138-4.546-1.488-5.702
		c-1.005-0.714-2.197-0.886-3.404-0.89c-3.159-0.01-6.318-0.006-9.477-0.005c-5.181,0.001-10.371-0.185-15.539,0.073
		c-3.488,0.174-4.972,1.594-4.725,4.942c0.191,2.593,1.753,3.973,4.907,3.979C217.286,127.285,221.456,127.279,225.625,127.277z
		 M259.986,91.72c-4.489,0-8.979-0.029-13.467,0.013c-2.144,0.02-4.31,2.148-4.396,4.179c-0.085,2.022,2.025,4.381,4.151,4.392
		c9.042,0.046,18.083,0.051,27.125-0.02c1.33-0.011,2.718-0.225,3.521-1.732c1.775-3.334-0.069-6.754-3.846-6.816
		C268.713,91.666,264.35,91.72,259.986,91.72z M206.725,100.331c3.036,0,6.072,0.02,9.107-0.006
		c3.048-0.026,4.414-1.327,4.434-4.152c0.021-2.896-1.458-4.436-4.389-4.448c-6.135-0.026-12.269-0.025-18.404-0.001
		c-2.962,0.012-4.405,1.422-4.419,4.2c-0.015,3.035,1.285,4.369,4.375,4.399C200.527,100.354,203.626,100.33,206.725,100.331z
		 M227.212,96.187c0.002,2.597,1.571,4.113,4.276,4.132c2.369,0.017,4.33-1.934,4.326-4.303c-0.004-2.286-1.993-4.292-4.403-4.255
		C229.384,91.792,226.92,92.899,227.212,96.187z M292.758,96.065c0.006-2.355-1.865-4.28-4.216-4.337
		c-2.346-0.057-4.37,1.88-4.396,4.208c-0.028,2.531,1.775,4.34,4.377,4.389C290.896,100.369,292.752,98.502,292.758,96.065z
		 M197.046,118.664c-2.582-0.008-3.99,1.441-3.992,4.109c-0.002,2.705,1.629,4.532,4.011,4.494c2.482-0.041,4.232-1.926,4.223-4.549
		C201.279,120.061,199.827,118.672,197.046,118.664z"/>
	<path style="fill-rule:evenodd;clip-rule:evenodd;fill:none;" d="M155.745,118.994c0-33.398,0-66.797,0-100.196
		c0-2.72,0.003-2.723,2.655-2.723c10.817-0.001,21.634,0.037,32.449-0.038c1.771-0.012,2.348,0.53,2.233,2.268
		c-0.132,2.016-0.148,4.055,0.003,6.068c0.143,1.887-0.428,2.52-2.406,2.488c-7.335-0.117-14.674-0.049-22.012-0.044
		c-2.549,0.001-2.562,0.01-2.562,2.466c-0.002,59.839-0.002,119.678,0,179.517c0,2.71,0.028,2.736,2.793,2.736
		c48.01,0.002,96.02,0.002,144.03,0c2.591,0,2.599-0.009,2.599-2.619c0.002-59.839,0.002-119.678,0-179.517
		c0-2.576-0.009-2.583-2.634-2.584c-7.274-0.004-14.549-0.042-21.822,0.033c-1.443,0.015-1.833-0.382-1.767-1.803
		c0.123-2.588,0.067-5.186,0.015-7.778c-0.019-0.911,0.279-1.208,1.187-1.206c10.185,0.024,20.368,0.024,30.553,0.007
		c1.084-0.002,1.473,0.484,1.418,1.503c-0.034,0.631-0.003,1.265-0.003,1.897c0,56.297,0.04,112.594-0.087,168.89
		c-0.009,3.894,0.994,7.155,3.039,10.25c0.633,0.957,0.857,1.915,0.854,3.022c-0.022,5.819-0.01,11.639-0.011,17.458
		c0,2.806-0.002,2.808-2.76,2.808c-51.489,0-102.979,0-154.468,0c-3.668,0-7.341-0.096-11.005,0.04
		c-1.862,0.069-2.331-0.567-2.328-2.369C155.758,186.043,155.745,152.519,155.745,118.994z"/>
	<path style="fill-rule:evenodd;clip-rule:evenodd;fill:none;" d="M331.093,118.986c0-21.95-0.001-43.9,0-65.85
		c0-2.517,0.005-2.522,2.476-2.523c5.756-0.003,11.513,0.049,17.269-0.032c1.605-0.022,2.029,0.54,2.028,2.081
		c-0.033,44.216-0.033,88.432,0,132.648c0.001,1.54-0.422,2.104-2.028,2.081c-5.818-0.081-11.64-0.103-17.457,0.01
		c-1.866,0.036-2.327-0.58-2.323-2.375C331.111,163.013,331.093,140.999,331.093,118.986z"/>
	<path style="fill-rule:evenodd;clip-rule:evenodd;fill:none;" d="M240.714,30.609c-12.39,0-24.78-0.027-37.169,0.032
		c-1.685,0.008-2.366-0.384-2.295-2.207c0.137-3.535,0.082-7.079,0.02-10.618c-0.023-1.316,0.438-1.778,1.758-1.763
		c4.803,0.055,9.608,0.064,14.412-0.004c1.445-0.021,1.861,0.527,1.823,1.894c-0.076,2.716,0.026,5.437-0.037,8.153
		c-0.031,1.325,0.492,1.759,1.784,1.756c13.212-0.029,26.423-0.029,39.635,0.001c1.313,0.003,1.793-0.472,1.766-1.775
		c-0.06-2.78,0.024-5.563-0.03-8.344c-0.023-1.215,0.4-1.688,1.646-1.677c4.931,0.046,9.861,0.04,14.792,0.005
		c1.16-0.009,1.552,0.462,1.541,1.583c-0.038,3.792-0.068,7.586,0.01,11.377c0.035,1.679-0.975,1.593-2.105,1.592
		C265.747,30.605,253.23,30.609,240.714,30.609z"/>
	<path style="fill-rule:evenodd;clip-rule:evenodd;fill:none;" d="M341.849,26.812c-3.032,0-6.064-0.036-9.096,0.018
		c-1.213,0.021-1.69-0.399-1.677-1.644c0.047-4.484-0.002-8.97,0.028-13.455c0.013-1.836,1.342-3.165,3.479-3.205
		c4.798-0.091,9.602-0.106,14.399,0.005c2.422,0.056,3.743,1.39,3.808,3.813c0.116,4.355,0.018,8.716,0.057,13.074
		c0.011,1.278-0.715,1.409-1.714,1.401C348.039,26.798,344.943,26.813,341.849,26.812z"/>
	<path style="fill-rule:evenodd;clip-rule:evenodd;fill:none;" d="M240.67,18.843c-3.605,0-7.213-0.07-10.815,0.032
		c-1.616,0.046-2.093-0.548-2.023-2.087c0.103-2.273,0.054-4.554,0.019-6.83c-0.016-1.039,0.38-1.484,1.446-1.481
		c7.654,0.021,15.308,0.025,22.961-0.005c1.17-0.005,1.556,0.479,1.533,1.592c-0.046,2.276-0.084,4.557,0.014,6.83
		c0.063,1.476-0.412,2.017-1.938,1.979C248.135,18.781,244.402,18.843,240.67,18.843z"/>
	<path style="fill-rule:evenodd;clip-rule:evenodd;fill:none;" d="M342.018,41.995c-3.036,0-6.074-0.058-9.108,0.025
		c-1.431,0.04-1.835-0.498-1.844-1.879c-0.034-4.71-0.08-4.71,4.681-4.71c5.061,0,10.122,0.05,15.181-0.03
		c1.527-0.024,1.943,0.511,1.942,1.979c-0.005,4.615,0.048,4.615-4.59,4.615C346.192,41.996,344.104,41.996,342.018,41.995z"/>
	<path style="fill-rule:evenodd;clip-rule:evenodd;fill:none;" d="M341.846,209.576c-2.564-4.528-5.019-8.864-7.455-13.166
		c0.23-0.523,0.653-0.425,1.012-0.426c4.236-0.009,8.474-0.013,12.71,0.002c0.413,0.001,0.965-0.222,1.21,0.256
		c0.25,0.488-0.3,0.751-0.51,1.116C346.538,201.324,344.281,205.299,341.846,209.576z"/>
	<path style="fill-rule:evenodd;clip-rule:evenodd;fill:none;" d="M155.718,351.762c1.563,3.769,2.962,7.171,4.387,10.563
		c0.392,0.932-0.093,1.129-0.856,1.132c-2.399,0.007-4.798-0.002-7.197,0.01c-0.827,0.004-0.954-0.294-0.642-1.049
		C152.82,359.004,154.183,355.57,155.718,351.762z"/>
	<path style="fill-rule:evenodd;clip-rule:evenodd;fill:none;" d="M209.642,354.604c-0.001-1.2,0.097-2.41-0.025-3.598
		c-0.177-1.73,0.571-2.24,2.186-2.092c2.375,0.218,4.802-0.369,7.145,0.362c3.215,1.003,4.483,3.005,4.067,6.297
		c-0.322,2.549-2.675,4.689-5.493,4.825c-2.143,0.104-4.294-0.002-6.44,0.037c-1.062,0.02-1.478-0.434-1.448-1.475
		C209.674,357.511,209.644,356.057,209.642,354.604z"/>
	<path style="fill-rule:evenodd;clip-rule:evenodd;" d="M199.071,158.519c2.111-0.292,3.109,1.701,4.609,2.729
		c1.778,1.218,1.731,1.35,2.219-0.803c1.043-4.606,2.24-9.148,5.309-12.91c2.086-2.556,4.594-4.621,7.625-5.952
		c1.563-0.687,4.351,0.64,5.148,2.292c0.927,1.92,0.549,4.191-1.144,5.235c-2.466,1.521-4.427,3.478-6.03,5.862
		c-1.256,1.867-1.958,3.976-2.272,6.122c-0.543,3.718-0.723,7.488-1.136,11.227c-0.325,2.938-3.848,4.543-6.361,2.9
		c-2.899-1.895-5.375-4.323-8.011-6.548c-0.962-0.812-1.902-1.651-2.885-2.437c-1.852-1.48-2.336-2.877-1.638-4.886
		C195.154,159.479,196.673,158.505,199.071,158.519z"/>
	<path style="fill-rule:evenodd;clip-rule:evenodd;" d="M214.452,65.148c5.495-0.001,10.989-0.002,16.484,0
		c2.752,0,4.662,1.411,4.871,3.59c0.23,2.404-1.675,4.551-4.448,4.975c-0.496,0.076-1.009,0.049-1.513,0.049
		c-10.421,0.002-20.842,0.005-31.263-0.007c-0.686,0-1.377-0.093-2.058-0.198c-3.711-0.573-3.911-3.549-3.168-6.146
		c0.475-1.664,1.744-2.292,3.475-2.28C202.705,65.176,208.579,65.148,214.452,65.148z"/>
	<path style="fill-rule:evenodd;clip-rule:evenodd;" d="M250.816,167.923c-1.349-0.092-2.264,0.083-3.101-0.65
		c-1.995-1.746-2.847-1.754-5.18-0.328c-2.242,1.371-4.473,2.587-7.199,2.98c-5.933,0.856-12.088-2.85-14.07-8.132
		c-0.788-2.099,0.273-4.634,2.122-5.501c2.169-1.016,4.584-0.335,5.801,1.635c2.268,3.672,4.081,4.121,7.883,2.015
		c2.147-1.189,4.375-2.175,6.795-2.722c3.816-0.863,7.837,0.746,10.046,4.005c0.98,1.447,1.215,2.869,0.427,4.429
		C253.525,167.271,252.311,168.212,250.816,167.923z"/>
	<path style="fill-rule:evenodd;clip-rule:evenodd;" d="M225.625,127.278c-4.17,0-8.34,0.007-12.51-0.001
		c-3.154-0.006-4.716-1.387-4.907-3.979c-0.247-3.348,1.237-4.768,4.725-4.942c5.168-0.257,10.358-0.071,15.539-0.073
		c3.159-0.001,6.318-0.005,9.477,0.005c1.207,0.004,2.399,0.176,3.404,0.89c1.625,1.156,2.375,3.559,1.488,5.702
		c-0.701,1.693-2.307,2.389-4.138,2.394C234.344,127.285,229.984,127.277,225.625,127.278z"/>
	<path style="fill-rule:evenodd;clip-rule:evenodd;" d="M259.986,91.72c4.363,0,8.727-0.054,13.089,0.016
		c3.776,0.062,5.621,3.481,3.846,6.816c-0.804,1.507-2.191,1.721-3.521,1.732c-9.042,0.071-18.083,0.066-27.125,0.02
		c-2.126-0.011-4.236-2.37-4.151-4.392c0.086-2.031,2.252-4.159,4.396-4.179C251.008,91.69,255.498,91.72,259.986,91.72z"/>
	<path style="fill-rule:evenodd;clip-rule:evenodd;" d="M206.725,100.331c-3.099,0-6.198,0.023-9.296-0.007
		c-3.09-0.03-4.39-1.364-4.375-4.399c0.014-2.778,1.457-4.188,4.419-4.2c6.135-0.024,12.269-0.025,18.404,0.001
		c2.931,0.012,4.409,1.551,4.389,4.448c-0.02,2.825-1.385,4.126-4.434,4.152C212.796,100.351,209.761,100.331,206.725,100.331z"/>
	<path style="fill-rule:evenodd;clip-rule:evenodd;" d="M227.212,96.187c-0.292-3.288,2.172-4.395,4.199-4.426
		c2.41-0.037,4.399,1.969,4.403,4.255c0.004,2.369-1.957,4.32-4.326,4.303C228.783,100.3,227.214,98.784,227.212,96.187z"/>
	<path style="fill-rule:evenodd;clip-rule:evenodd;" d="M292.758,96.065c-0.006,2.437-1.862,4.304-4.235,4.259
		c-2.602-0.049-4.405-1.857-4.377-4.389c0.026-2.327,2.051-4.265,4.396-4.208C290.893,91.785,292.764,93.71,292.758,96.065z"/>
	<path style="fill-rule:evenodd;clip-rule:evenodd;" d="M197.046,118.664c2.78,0.009,4.232,1.397,4.241,4.054
		c0.009,2.623-1.741,4.508-4.223,4.549c-2.382,0.039-4.013-1.789-4.011-4.494C193.057,120.105,194.464,118.656,197.046,118.664z"/>
</g>
</svg>
