<?xml version="1.0" encoding="iso-8859-1"?>
<!-- Generator: Adobe Illustrator 16.0.0, SVG Export Plug-In . SVG Version: 6.00 Build 0)  -->
<!DOCTYPE svg PUBLIC "-//W3C//DTD SVG 1.1//EN" "http://www.w3.org/Graphics/SVG/1.1/DTD/svg11.dtd">
<svg version="1.1" id="Layer_1" xmlns="http://www.w3.org/2000/svg" xmlns:xlink="http://www.w3.org/1999/xlink" x="0px" y="0px"
	 width="36.995px" height="27.996px" viewBox="0 0 36.995 27.996" style="enable-background:new 0 0 36.995 27.996;"
	 xml:space="preserve">
<g>
	<path style="fill-rule:evenodd;clip-rule:evenodd;fill:#FFFFFF;" d="M3,0c11.332,0,22.664,0,33.996,0c0,9.332,0,18.665,0,27.996
		c-12.332,0-24.663,0-36.995,0c0-3,0-5.999,0-8.999c7.045,0,14.09,0,21.428,0c-0.86,2.667-1.487,4.614-2.196,6.814
		c5.392-2.962,10.323-5.671,15.052-8.269c-4.943-2.656-9.858-5.296-15.141-8.134c0.714,2.11,1.373,4.06,2.104,6.22
		c-5.982,0-11.687,0-18.246,0C3,10.226,3,5.113,3,0z"/>
	<path style="fill-rule:evenodd;clip-rule:evenodd;" d="M3,0c0,5.113,0,10.226,0,15.63c6.559,0,12.264,0,18.246,0
		c-0.73-2.16-1.39-4.11-2.104-6.22c5.283,2.838,10.198,5.478,15.141,8.134c-4.729,2.597-9.66,5.306-15.052,8.269
		c0.709-2.201,1.336-4.148,2.196-6.814c-7.338,0-14.383,0-21.428,0C0,12.665,0,6.332,0,0C1.044,0,2.022,0,3,0z"/>
</g>
</svg>
