<?xml version="1.0" encoding="iso-8859-1"?>
<!-- Generator: Adobe Illustrator 16.0.0, SVG Export Plug-In . SVG Version: 6.00 Build 0)  -->
<!DOCTYPE svg PUBLIC "-//W3C//DTD SVG 1.1//EN" "http://www.w3.org/Graphics/SVG/1.1/DTD/svg11.dtd">
<svg version="1.1" id="Layer_1" xmlns="http://www.w3.org/2000/svg" xmlns:xlink="http://www.w3.org/1999/xlink" x="0px" y="0px"
	 width="512px" height="512px" viewBox="0 0 512 512" style="enable-background:new 0 0 512 512;" xml:space="preserve">
<g>
	<path style="fill-rule:evenodd;clip-rule:evenodd;fill:none;" d="M256.32,512.64c-84.267,0-168.534-0.012-252.8,0.061
		c-2.4,0.002-2.94-0.541-2.94-2.94c0.066-168.747,0.066-337.493,0-506.24c0-2.399,0.541-2.94,2.94-2.94
		c168.747,0.066,337.493,0.066,506.24,0c2.399,0,2.94,0.541,2.94,2.94c-0.066,168.747-0.066,337.493,0,506.24
		c0,2.399-0.541,2.942-2.94,2.94C425.28,512.628,340.8,512.64,256.32,512.64z M481.505,256.388c0-45.865-0.055-91.73,0.043-137.595
		c0.021-10.009-1.788-19.677-4.817-29.092c-5.567-17.3-15.039-32.174-28.366-44.65c-6.96-6.517-14.499-12.12-22.901-16.551
		c-20.779-10.961-42.863-13.798-65.884-10.18c-19.411,3.052-36.339,11.511-50.959,24.481c-11.674,10.355-20.811,22.67-26.95,37.112
		c-5.201,12.235-8.565,24.927-8.577,38.264c-0.073,89.598-0.029,179.195-0.056,268.792c-0.002,7.024,0.085,14.014,1.275,20.974
		c1.876,10.978,5.302,21.441,10.377,31.311c5.891,11.455,13.825,21.401,23.344,30.082c7.673,6.998,16.252,12.696,25.639,17.053
		c14.999,6.958,30.8,9.758,47.379,9.309c14.181-0.384,27.576-3.536,40.285-9.516c19.048-8.961,34.008-22.68,44.977-40.596
		c9.848-16.085,15.211-33.559,15.2-52.56C481.487,347.479,481.505,301.934,481.505,256.388z M31.775,256.322
		c0,46.719,0.021,93.438-0.044,140.156c-0.005,3.324,0.316,6.623,0.854,9.829c4.028,23.983,14.486,44.581,32.387,61.325
		c9.271,8.67,19.574,15.562,31.285,20.441c19.963,8.318,40.57,9.628,61.579,5.497c17.47-3.435,32.834-11.454,46.177-23.123
		c12.414-10.857,22.043-23.892,28.28-39.24c5.288-13.011,8.001-26.512,7.985-40.654c-0.103-88.317-0.061-176.635-0.034-264.953
		c0.001-7.024-0.083-14.015-1.283-20.973c-1.875-10.864-5.27-21.22-10.262-31.016c-5.953-11.682-14.04-21.775-23.735-30.574
		c-7.606-6.902-16.124-12.513-25.418-16.815c-15.007-6.947-30.809-9.731-47.386-9.277c-14.182,0.388-27.568,3.565-40.277,9.548
		c-19.05,8.967-34,22.7-44.954,40.621c-9.833,16.087-15.181,33.567-15.165,52.573C31.801,165.232,31.775,210.777,31.775,256.322z"/>
	<path style="fill-rule:evenodd;clip-rule:evenodd;" d="M481.505,256.388c0,45.546-0.018,91.091,0.008,136.637
		c0.011,19.001-5.353,36.475-15.2,52.56c-10.969,17.916-25.929,31.635-44.977,40.596c-12.709,5.979-26.104,9.132-40.285,9.516
		c-16.579,0.449-32.38-2.351-47.379-9.309c-9.387-4.356-17.966-10.055-25.639-17.053c-9.519-8.681-17.453-18.627-23.344-30.082
		c-5.075-9.869-8.501-20.333-10.377-31.311c-1.19-6.96-1.277-13.949-1.275-20.974c0.026-89.597-0.018-179.194,0.056-268.792
		c0.012-13.337,3.376-26.029,8.577-38.264c6.14-14.442,15.276-26.756,26.95-37.112c14.62-12.97,31.548-21.429,50.959-24.481
		c23.021-3.619,45.104-0.782,65.884,10.18c8.402,4.432,15.941,10.035,22.901,16.551c13.327,12.476,22.799,27.35,28.366,44.65
		c3.029,9.415,4.838,19.083,4.817,29.092C481.45,164.658,481.505,210.522,481.505,256.388z M377.485,265.825
		c-27.087,0-54.175-0.001-81.262,0.002c-4.149,0-4.157,0.01-4.157,4.27c-0.002,38.924,0.02,77.849-0.025,116.773
		c-0.006,5.646,0.309,11.238,1.248,16.811c3.603,21.383,13.479,39.188,30.27,53.007c17.494,14.397,37.472,21.035,60.208,19.308
		c14.305-1.088,27.433-5.48,39.372-13.304c14.795-9.692,25.673-22.756,32.566-39.068c4-9.466,6.668-19.355,6.714-29.624
		c0.184-41.377,0.039-82.755,0.146-124.132c0.009-3.264-0.909-4.128-4.139-4.113C431.447,265.879,404.466,265.825,377.485,265.825z
		 M377.277,246.815c26.875,0,53.749,0,80.623,0c4.588,0,4.594-0.004,4.594-4.475c0.002-39.458-0.013-78.917,0.017-118.375
		c0.004-5.217-0.31-10.364-1.19-15.536c-3.857-22.65-14.957-41.032-33.082-54.862c-16.892-12.888-36.145-18.671-57.559-16.935
		c-10.636,0.863-20.716,3.549-30.217,8.213c-11.402,5.596-21.163,13.384-29.116,23.347c-11.979,15.006-18.913,32.173-19.135,51.29
		c-0.477,41.159-0.113,82.328-0.213,123.493c-0.007,3.159,1.009,3.912,4.016,3.9C323.102,246.772,350.19,246.815,377.277,246.815z"
		/>
	<path style="fill-rule:evenodd;clip-rule:evenodd;" d="M31.775,256.322c0-45.545,0.026-91.09-0.012-136.635
		c-0.016-19.006,5.333-36.486,15.165-52.573c10.953-17.92,25.903-31.654,44.954-40.621c12.709-5.983,26.096-9.16,40.277-9.548
		c16.577-0.454,32.379,2.331,47.386,9.277c9.295,4.302,17.813,9.914,25.418,16.815c9.695,8.798,17.782,18.892,23.735,30.574
		c4.992,9.796,8.387,20.152,10.262,31.016c1.2,6.958,1.284,13.949,1.283,20.973c-0.026,88.318-0.068,176.635,0.034,264.953
		c0.016,14.143-2.697,27.644-7.985,40.654c-6.237,15.349-15.866,28.383-28.28,39.24c-13.342,11.669-28.707,19.688-46.177,23.123
		c-21.009,4.131-41.616,2.821-61.579-5.497c-11.711-4.88-22.014-11.771-31.285-20.441c-17.901-16.744-28.359-37.342-32.387-61.325
		c-0.538-3.206-0.859-6.505-0.854-9.829C31.796,349.76,31.775,303.041,31.775,256.322z M135.81,246.815c26.874,0,53.749,0,80.623,0
		c4.78,0,4.782-0.002,4.782-4.926c0-39.032-0.025-78.064,0.017-117.096c0.012-11.258-1.698-22.158-5.713-32.721
		c-7.86-20.678-21.609-36.235-41.12-46.391c-16.352-8.511-33.864-11.523-52.177-8.267c-17.17,3.053-32.18,10.412-44.76,22.677
		c-6.459,6.297-11.798,13.331-16.165,21.209c-6.345,11.451-10.255,23.754-10.372,36.712c-0.375,41.588-0.103,83.181-0.211,124.772
		c-0.009,3.284,0.944,4.113,4.153,4.098C81.847,246.762,108.828,246.815,135.81,246.815z M135.994,265.825
		c-26.874,0-53.749-0.001-80.623,0c-4.58,0.001-4.585,0.005-4.585,4.483c-0.002,39.352,0.01,78.703-0.014,118.055
		c-0.003,5.321,0.277,10.577,1.187,15.856c3.917,22.749,15.057,41.18,33.359,55.024c16.867,12.76,35.997,18.493,57.291,16.764
		c10.635-0.864,20.722-3.539,30.214-8.221c10.984-5.417,20.391-12.897,28.259-22.4c12.585-15.201,19.723-32.683,19.973-52.237
		c0.527-41.158,0.126-82.327,0.227-123.492c0.007-3.17-1.028-3.903-4.024-3.892C190.17,265.867,163.082,265.825,135.994,265.825z"/>
	<path style="fill-rule:evenodd;clip-rule:evenodd;fill:none;" d="M377.485,265.825c26.98,0,53.962,0.054,80.941-0.071
		c3.229-0.015,4.147,0.85,4.139,4.113c-0.107,41.377,0.037,82.755-0.146,124.132c-0.046,10.269-2.714,20.158-6.714,29.624
		c-6.894,16.313-17.771,29.376-32.566,39.068c-11.939,7.823-25.067,12.216-39.372,13.304c-22.736,1.728-42.714-4.91-60.208-19.308
		c-16.79-13.818-26.667-31.624-30.27-53.007c-0.939-5.572-1.254-11.164-1.248-16.811c0.045-38.925,0.023-77.85,0.025-116.773
		c0-4.26,0.008-4.27,4.157-4.27C323.311,265.824,350.398,265.825,377.485,265.825z"/>
	<path style="fill-rule:evenodd;clip-rule:evenodd;fill:none;" d="M377.277,246.815c-27.087,0-54.176-0.043-81.263,0.06
		c-3.007,0.011-4.022-0.741-4.016-3.9c0.1-41.165-0.264-82.333,0.213-123.493c0.222-19.116,7.155-36.283,19.135-51.29
		c7.953-9.963,17.714-17.75,29.116-23.347c9.501-4.665,19.581-7.351,30.217-8.213c21.414-1.737,40.667,4.046,57.559,16.935
		c18.125,13.83,29.225,32.212,33.082,54.862c0.881,5.172,1.194,10.318,1.19,15.536c-0.029,39.458-0.015,78.917-0.017,118.375
		c0,4.47-0.006,4.474-4.594,4.475C431.026,246.815,404.152,246.815,377.277,246.815z M429.858,188.797
		c0,11.94-0.038,23.88,0.018,35.82c0.024,5.494,3.797,9.18,9.199,9.207c5.8,0.03,9.746-3.452,9.759-8.956
		c0.058-23.88,0.054-47.761-0.011-71.641c-0.01-3.506-1.476-6.557-4.871-7.948c-6.4-2.625-14.058-0.182-14.086,8.657
		C429.829,165.556,429.856,177.176,429.858,188.797z"/>
	<path style="fill-rule:evenodd;clip-rule:evenodd;fill:none;" d="M135.81,246.815c-26.981,0-53.963-0.053-80.943,0.069
		c-3.209,0.015-4.162-0.814-4.153-4.098c0.109-41.591-0.164-83.184,0.211-124.772c0.117-12.958,4.026-25.261,10.372-36.712
		c4.366-7.879,9.705-14.912,16.165-21.209c12.58-12.265,27.59-19.625,44.76-22.677c18.313-3.256,35.826-0.244,52.177,8.267
		c19.511,10.155,33.26,25.712,41.12,46.391c4.015,10.563,5.726,21.462,5.713,32.721c-0.042,39.032-0.017,78.064-0.017,117.096
		c0,4.924-0.002,4.926-4.782,4.926C189.558,246.815,162.684,246.815,135.81,246.815z"/>
	<path style="fill-rule:evenodd;clip-rule:evenodd;fill:none;" d="M135.994,265.825c27.088,0,54.176,0.042,81.263-0.06
		c2.996-0.012,4.031,0.722,4.024,3.892c-0.101,41.165,0.3,82.334-0.227,123.492c-0.25,19.555-7.388,37.036-19.973,52.237
		c-7.868,9.503-17.274,16.983-28.259,22.4c-9.492,4.682-19.579,7.356-30.214,8.221c-21.294,1.729-40.424-4.004-57.291-16.764
		c-18.302-13.845-29.441-32.275-33.359-55.024c-0.91-5.279-1.189-10.535-1.187-15.856c0.024-39.352,0.012-78.703,0.014-118.055
		c0-4.479,0.005-4.482,4.585-4.483C82.246,265.824,109.12,265.825,135.994,265.825z M63.776,321.604
		c0,11.836,0.006,23.672-0.007,35.508c-0.002,1.505,0.073,2.952,0.857,4.316c2.284,3.975,6.328,5.778,10.854,4.775
		c4.145-0.919,7.279-4.953,7.286-9.691c0.035-23.458,0.038-46.916,0-70.374c-0.009-5.308-4.494-9.74-9.709-9.818
		c-5.104-0.076-9.264,4.274-9.274,9.777C63.762,297.934,63.776,309.769,63.776,321.604z"/>
	<path style="fill-rule:evenodd;clip-rule:evenodd;" d="M429.858,188.797c-0.002-11.621-0.029-23.241,0.008-34.861
		c0.028-8.839,7.686-11.281,14.086-8.657c3.396,1.392,4.861,4.442,4.871,7.948c0.064,23.88,0.068,47.76,0.011,71.641
		c-0.013,5.504-3.959,8.986-9.759,8.956c-5.402-0.027-9.175-3.713-9.199-9.207C429.82,212.677,429.858,200.737,429.858,188.797z"/>
	<path style="fill-rule:evenodd;clip-rule:evenodd;" d="M63.776,321.604c0-11.836-0.014-23.671,0.006-35.507
		c0.01-5.503,4.17-9.854,9.274-9.777c5.215,0.078,9.7,4.511,9.709,9.818c0.038,23.458,0.035,46.916,0,70.374
		c-0.007,4.738-3.141,8.772-7.286,9.691c-4.526,1.003-8.57-0.801-10.854-4.775c-0.784-1.364-0.859-2.812-0.857-4.316
		C63.782,345.276,63.776,333.44,63.776,321.604z"/>
</g>
</svg>
