<?xml version="1.0" encoding="iso-8859-1"?>
<!-- Generator: Adobe Illustrator 16.0.0, SVG Export Plug-In . SVG Version: 6.00 Build 0)  -->
<!DOCTYPE svg PUBLIC "-//W3C//DTD SVG 1.1//EN" "http://www.w3.org/Graphics/SVG/1.1/DTD/svg11.dtd">
<svg version="1.1" id="Layer_1" xmlns="http://www.w3.org/2000/svg" xmlns:xlink="http://www.w3.org/1999/xlink" x="0px" y="0px"
	 width="512px" height="512px" viewBox="0 0 512 512" style="enable-background:new 0 0 512 512;" xml:space="preserve">
<g>
	<path style="fill-rule:evenodd;clip-rule:evenodd;fill:none;" d="M256.64,512.64c-84.373,0-168.746-0.012-253.12,0.061
		c-2.4,0.002-2.94-0.541-2.94-2.94c0.066-168.747,0.066-337.493,0-506.24c0-2.399,0.541-2.94,2.94-2.94
		c168.747,0.066,337.493,0.066,506.24,0c2.399,0,2.94,0.541,2.94,2.94c-0.066,168.747-0.066,337.493,0,506.24
		c0,2.399-0.541,2.942-2.94,2.94C425.387,512.628,341.013,512.64,256.64,512.64z M148.813,33.117
		c-8.466-0.784-17.625,0.611-26.604,2.841c-30.076,7.467-53.512,24.695-71.518,49.59c-10.697,14.789-18.042,31.227-23.049,48.727
		c-3.249,11.355-5.286,22.996-5.948,34.734c-0.652,11.547-0.316,23.125,1.642,34.661c3.437,20.246,9.535,39.598,18.339,58.094
		c6.689,14.052,15.134,27.047,24.612,39.379c5.837,7.595,12.32,14.634,18.982,21.482c4.363,4.484,9.321,8.386,13.85,12.717
		c8.146,7.792,16.582,15.268,24.817,22.957c11.736,10.957,23.476,21.909,35.351,32.717c8.57,7.799,17.024,15.726,25.529,23.598
		c11.549,10.688,23.12,21.353,34.635,32.078c7.629,7.105,15.012,14.486,22.832,21.373c3.908,3.442,7.32,7.421,11.569,10.494
		c1.367,0.988,2.334,1.168,3.612-0.003c7.132-6.531,14.314-13.008,21.449-19.536c5.805-5.311,11.531-10.707,17.357-15.995
		c10.7-9.709,21.465-19.346,32.165-29.054c5.67-5.143,11.237-10.397,16.895-15.556c11.543-10.522,23.12-21.009,34.674-31.52
		c5.11-4.649,10.184-9.341,15.306-13.978c10.867-9.84,21.911-19.494,32.576-29.55c5.784-5.455,10.914-11.589,16.034-17.712
		c10.136-12.121,18.739-25.244,25.979-39.232c8.879-17.154,15.142-35.279,19.11-54.197c3.251-15.498,4.268-31.089,2.8-46.884
		c-1.401-15.086-4.482-29.758-9.766-43.962c-9.431-25.357-24.055-47.026-45.544-63.747c-18.143-14.118-38.715-22.561-61.604-24.381
		c-11.4-0.906-22.929-0.639-34.324,1.679c-23.295,4.74-43.566,15.285-61.069,31.206c-8.931,8.124-16.442,17.496-22.715,27.822
		c-0.978,1.61-1.326,1.425-2.232-0.033c-4.265-6.856-8.927-13.395-14.23-19.542c-10.14-11.758-22.05-21.244-35.762-28.314
		C187.406,37.224,169.194,32.256,148.813,33.117z"/>
	<path style="fill-rule:evenodd;clip-rule:evenodd;" d="M148.813,33.117c20.381-0.861,38.593,4.107,55.75,12.953
		c13.712,7.071,25.622,16.557,35.762,28.314c5.303,6.147,9.965,12.686,14.23,19.542c0.907,1.458,1.254,1.644,2.232,0.033
		c6.272-10.326,13.784-19.698,22.715-27.822c17.503-15.921,37.774-26.466,61.069-31.206c11.396-2.318,22.924-2.585,34.324-1.679
		c22.89,1.82,43.462,10.263,61.604,24.381c21.489,16.72,36.113,38.39,45.544,63.747c5.283,14.204,8.364,28.876,9.766,43.962
		c1.468,15.794,0.451,31.386-2.8,46.884c-3.969,18.918-10.231,37.043-19.11,54.197c-7.24,13.988-15.844,27.111-25.979,39.232
		c-5.12,6.123-10.25,12.257-16.034,17.712c-10.665,10.056-21.709,19.71-32.576,29.55c-5.122,4.637-10.195,9.328-15.306,13.978
		c-11.554,10.511-23.131,20.997-34.674,31.52c-5.657,5.158-11.225,10.413-16.895,15.556c-10.7,9.708-21.465,19.345-32.165,29.054
		c-5.826,5.288-11.553,10.685-17.357,15.995c-7.135,6.528-14.317,13.005-21.449,19.536c-1.278,1.171-2.246,0.991-3.612,0.003
		c-4.249-3.073-7.661-7.052-11.569-10.494c-7.819-6.887-15.202-14.268-22.832-21.373c-11.515-10.726-23.086-21.39-34.635-32.078
		c-8.504-7.872-16.958-15.799-25.529-23.598c-11.875-10.808-23.615-21.76-35.351-32.717c-8.236-7.689-16.672-15.165-24.817-22.957
		c-4.529-4.331-9.487-8.232-13.85-12.717c-6.663-6.849-13.146-13.888-18.982-21.482c-9.478-12.332-17.923-25.327-24.612-39.379
		c-8.805-18.496-14.902-37.848-18.339-58.094c-1.958-11.535-2.294-23.113-1.642-34.661c0.663-11.738,2.699-23.379,5.948-34.734
		c5.008-17.5,12.353-33.938,23.049-48.727c18.005-24.895,41.441-42.123,71.518-49.59C131.188,33.728,140.347,32.333,148.813,33.117z
		 M307.296,216.323c-4.101-0.647-7.311-1.227-10.541-1.65c-13.552-1.779-27.119-3.441-40.662-5.281
		c-13.12-1.783-26.211-3.768-39.324-5.601c-12.378-1.73-24.771-3.365-37.152-5.075c-1.741-0.241-4.456,0.639-4.952-1.149
		c-0.492-1.774,1.734-3.377,3.123-4.814c10.441-10.803,21.372-21.114,31.619-32.124c11.25-12.087,23.491-23.223,34.731-35.344
		c2.274-2.452,2.666-4.233,1.276-7.173c-7.063-14.945-16.108-28.38-28.505-39.496c-7.178-6.436-14.916-12.08-23.582-16.149
		c-17.827-8.371-36.466-12.003-56.296-9.251c-21.741,3.017-40.271,12.371-56.062,27.226c-12.292,11.564-21.606,25.373-28.124,40.961
		c-9.227,22.068-13.876,44.941-11.697,68.971c1.117,12.31,3.761,24.297,7.416,36.074c4.237,13.656,10.167,26.572,17.224,38.991
		c7.752,13.644,17.072,26.131,27.899,37.459c10.52,11.007,21.915,21.104,33.166,31.351c11.791,10.738,23.411,21.663,35.114,32.497
		c8.348,7.728,16.716,15.432,25.063,23.159c11.704,10.835,23.417,21.658,35.086,32.529c7.473,6.96,14.762,14.124,22.371,20.931
		c2.575,2.304,4.997,4.827,7.769,7.063c0.296-0.6,0.532-0.96,0.66-1.355c4.085-12.624,8.125-25.263,12.243-37.876
		c5.142-15.749,10.329-31.483,15.543-47.208c0.609-1.836,0.578-3.044-1.341-4.222c-7.059-4.334-13.989-8.873-20.971-13.331
		c-16.916-10.8-33.813-21.63-50.775-32.356c-2.324-1.469-2.454-2.699-0.343-4.231c4.933-3.582,8.851-8.265,13.382-12.292
		c10.252-9.111,20.134-18.64,30.121-28.048c8.675-8.173,17.119-16.601,26.005-24.535c3.885-3.469,7.515-7.198,11.443-10.625
		C294.617,228.768,300.592,222.708,307.296,216.323z M278.765,432.082c2.888-2.069,5.479-4.405,8.083-6.72
		c9.607-8.546,19.053-17.272,28.563-25.927c11.79-10.728,23.589-21.446,35.378-32.175c9.589-8.727,19.166-17.467,28.755-26.192
		c9.354-8.511,18.847-16.872,28.039-25.553c11.458-10.82,22.287-22.229,31.243-35.294c14.948-21.804,25.724-45.425,31.117-71.371
		c2.752-13.238,4.384-26.539,2.9-40.158c-1.502-13.784-4.119-27.242-9.045-40.223c-8.064-21.246-20.078-39.652-37.952-54.073
		c-17.783-14.347-38.157-21.409-60.773-22.254c-6.451-0.241-12.925,0.618-19.287,1.872c-23.92,4.712-44.006,16.067-60.39,34.237
		c-10.419,11.557-17.718,24.82-23.393,39.134c-0.356,0.901-0.95,1.887-0.125,2.681c2.493,2.399,0.871,4.217-0.722,6.061
		c-0.766,0.886-1.571,1.741-2.4,2.568c-14.174,14.164-28.392,28.286-42.168,42.842c-0.596,0.63-1.691,1.052-1.347,2.345
		c3.047,0.419,6.081,0.835,9.114,1.253c8.292,1.143,16.581,2.312,24.877,3.424c10.292,1.379,20.596,2.669,30.884,4.077
		c11.544,1.58,23.072,3.276,34.615,4.871c11.123,1.537,22.256,3.007,33.383,4.513c0.698,0.094,1.651-0.129,1.83,0.859
		c0.149,0.826-0.587,1.299-1.13,1.798c-7.356,6.761-14.799,13.432-22.049,20.304c-9.728,9.219-19.539,18.346-29.351,27.475
		c-9.811,9.127-19.587,18.295-29.365,27.458c-9.779,9.162-19.435,18.457-29.428,27.39c-1.427,1.275-2.016,1.936,0.177,3.324
		c21.08,13.36,42.043,26.903,63.122,40.266c2.168,1.374,2.593,2.613,1.813,4.917c-2.417,7.141-4.639,14.348-6.985,21.513
		C290.767,395.581,284.761,413.83,278.765,432.082z"/>
	<path style="fill-rule:evenodd;clip-rule:evenodd;fill:none;" d="M307.296,216.323c-6.704,6.384-12.679,12.445-19.072,18.024
		c-3.929,3.428-7.559,7.157-11.443,10.625c-8.887,7.934-17.33,16.362-26.005,24.535c-9.987,9.408-19.869,18.937-30.121,28.048
		c-4.532,4.027-8.45,8.71-13.382,12.292c-2.111,1.532-1.981,2.763,0.343,4.231c16.962,10.727,33.859,21.557,50.775,32.356
		c6.981,4.458,13.912,8.997,20.971,13.331c1.919,1.178,1.95,2.386,1.341,4.222c-5.214,15.725-10.401,31.459-15.543,47.208
		c-4.118,12.613-8.158,25.252-12.243,37.876c-0.128,0.396-0.364,0.756-0.66,1.355c-2.772-2.235-5.193-4.759-7.769-7.063
		c-7.608-6.807-14.898-13.971-22.371-20.931c-11.669-10.871-23.382-21.694-35.086-32.529c-8.348-7.728-16.716-15.432-25.063-23.159
		c-11.703-10.834-23.323-21.759-35.114-32.497c-11.251-10.246-22.646-20.344-33.166-31.351
		C82.86,291.57,73.54,279.083,65.788,265.439c-7.057-12.419-12.987-25.335-17.224-38.991c-3.654-11.777-6.299-23.764-7.416-36.074
		c-2.18-24.03,2.47-46.903,11.697-68.971c6.518-15.589,15.832-29.397,28.124-40.961c15.791-14.855,34.321-24.209,56.062-27.226
		c19.83-2.752,38.469,0.88,56.296,9.251c8.667,4.069,16.404,9.713,23.582,16.149c12.397,11.116,21.442,24.551,28.505,39.496
		c1.39,2.94,0.999,4.721-1.276,7.173c-11.241,12.121-23.482,23.257-34.731,35.344c-10.247,11.01-21.178,21.321-31.619,32.124
		c-1.389,1.437-3.615,3.04-3.123,4.814c0.496,1.788,3.21,0.908,4.952,1.149c12.382,1.71,24.774,3.345,37.152,5.075
		c13.113,1.833,26.205,3.818,39.324,5.601c13.543,1.84,27.11,3.502,40.662,5.281C299.985,215.097,303.195,215.676,307.296,216.323z"
		/>
	<path style="fill-rule:evenodd;clip-rule:evenodd;fill:none;" d="M278.765,432.082c5.996-18.252,12.002-36.501,17.981-54.758
		c2.347-7.165,4.568-14.372,6.985-21.513c0.78-2.304,0.355-3.543-1.813-4.917c-21.078-13.362-42.042-26.905-63.122-40.266
		c-2.192-1.389-1.604-2.049-0.177-3.324c9.993-8.933,19.649-18.228,29.428-27.39c9.778-9.162,19.555-18.33,29.365-27.458
		c9.812-9.129,19.623-18.256,29.351-27.475c7.25-6.872,14.692-13.543,22.049-20.304c0.543-0.499,1.279-0.972,1.13-1.798
		c-0.179-0.988-1.132-0.765-1.83-0.859c-11.127-1.506-22.26-2.977-33.383-4.513c-11.543-1.595-23.071-3.291-34.615-4.871
		c-10.288-1.408-20.592-2.697-30.884-4.077c-8.296-1.112-16.585-2.281-24.877-3.424c-3.033-0.418-6.067-0.834-9.114-1.253
		c-0.344-1.293,0.75-1.715,1.347-2.345c13.776-14.556,27.995-28.678,42.168-42.842c0.829-0.828,1.635-1.683,2.4-2.568
		c1.593-1.844,3.215-3.662,0.722-6.061c-0.825-0.794-0.231-1.78,0.125-2.681c5.675-14.314,12.974-27.577,23.393-39.134
		c16.384-18.17,36.47-29.525,60.39-34.237c6.362-1.253,12.836-2.113,19.287-1.872c22.616,0.845,42.99,7.907,60.773,22.254
		c17.874,14.421,29.888,32.828,37.952,54.073c4.926,12.98,7.543,26.438,9.045,40.223c1.483,13.619-0.148,26.92-2.9,40.158
		c-5.394,25.945-16.169,49.567-31.117,71.371c-8.956,13.064-19.785,24.474-31.243,35.294c-9.192,8.681-18.686,17.042-28.039,25.553
		c-9.589,8.726-19.166,17.466-28.755,26.192c-11.789,10.729-23.588,21.447-35.378,32.175c-9.51,8.654-18.955,17.381-28.563,25.927
		C284.244,427.677,281.652,430.013,278.765,432.082z"/>
</g>
</svg>
