<?xml version="1.0" encoding="iso-8859-1"?>
<!-- Generator: Adobe Illustrator 16.0.0, SVG Export Plug-In . SVG Version: 6.00 Build 0)  -->
<!DOCTYPE svg PUBLIC "-//W3C//DTD SVG 1.1//EN" "http://www.w3.org/Graphics/SVG/1.1/DTD/svg11.dtd">
<svg version="1.1" id="Layer_1" xmlns="http://www.w3.org/2000/svg" xmlns:xlink="http://www.w3.org/1999/xlink" x="0px" y="0px"
	 width="512px" height="512px" viewBox="0 0 512 512" style="enable-background:new 0 0 512 512;" xml:space="preserve">
<g>
	<path style="fill-rule:evenodd;clip-rule:evenodd;fill:none;" d="M0.64,256.64c0-84.373,0.012-168.747-0.061-253.12
		C0.578,1.121,1.121,0.58,3.52,0.58c168.747,0.066,337.493,0.066,506.24,0c2.399,0,2.94,0.541,2.94,2.94
		c-0.066,168.747-0.066,337.493,0,506.24c0,2.399-0.541,2.94-2.94,2.94c-168.747-0.066-337.493-0.066-506.24,0
		c-2.399,0-2.942-0.541-2.94-2.94C0.652,425.387,0.64,341.013,0.64,256.64z M113.864,314.077
		c-7.411,7.904-11.011,16.798-9.808,27.435c1.624,14.341,9.26,23.958,22.83,28.563c16.085,5.46,32.299,10.538,48.453,15.796
		c21.305,6.935,42.616,13.849,63.902,20.842c7.551,2.481,15.118,4.242,23.12,2.467c14.137-3.137,25.087-15.214,25.952-29.415
		c0.208-3.425-0.528-6.83-0.024-10.378c22.237,7.038,44.293,14.001,66.337,21.004c15.986,5.079,31.927,10.299,47.942,15.28
		c8.328,2.591,6.576,1.063,6.806,9.104c0.175,6.174-0.658,12.411,0.355,18.516c1.636,9.862,6.487,17.967,14.11,24.569
		c10.004,8.665,21.72,11.005,34.281,9.212c10.452-1.491,19.144-6.752,25.664-15.205c5.109-6.625,8.562-14.024,8.565-22.528
		c0.051-115.184,0.035-230.368,0.022-345.553c-0.001-1.27-0.051-2.564-0.292-3.806c-1.979-10.148-6.75-18.614-14.856-25.218
		c-9.911-8.074-21.354-10.316-33.585-8.578c-10.627,1.511-19.296,7.015-25.854,15.485c-5.25,6.783-8.453,14.453-8.414,23.231
		c0.023,5.545-0.191,11.101,0.079,16.634c0.155,3.159-1.007,4.399-3.952,5.305c-18.767,5.774-37.472,11.746-56.191,17.672
		c-22.264,7.048-44.523,14.11-66.781,21.175c-22.056,7-44.106,14.02-66.163,21.016c-22.361,7.094-44.73,14.159-67.091,21.256
		c-19.527,6.197-39.059,12.384-58.552,18.686c-2.055,0.665-2.646,0.45-3.104-1.739c-1.512-7.238-4.686-13.772-10.288-18.669
		c-8.508-7.438-18.448-10.018-29.667-7.88c-14.717,2.804-26.38,17.374-26.231,31.452c0.336,31.779,0.055,63.564,0.138,95.345
		c0.024,9.226,4.573,16.531,11.191,22.41c7.083,6.292,15.74,8.801,25.141,7.958c9.04-0.812,16.61-4.729,22.481-11.817
		c3.901-4.709,6.162-10.145,7.412-16.026c0.316-1.486,0.831-1.762,2.109-1.347C97.769,308.879,105.639,311.419,113.864,314.077z"/>
	<path style="fill-rule:evenodd;clip-rule:evenodd;" d="M113.864,314.077c-8.225-2.658-16.095-5.198-23.962-7.746
		c-1.278-0.415-1.793-0.14-2.109,1.347c-1.25,5.882-3.511,11.317-7.412,16.026c-5.871,7.089-13.441,11.006-22.481,11.817
		c-9.401,0.843-18.058-1.666-25.141-7.958c-6.619-5.879-11.167-13.185-11.191-22.41c-0.083-31.781,0.198-63.566-0.138-95.345
		c-0.149-14.078,11.514-28.647,26.231-31.452c11.22-2.138,21.16,0.442,29.667,7.88c5.603,4.897,8.776,11.431,10.288,18.669
		c0.458,2.189,1.048,2.404,3.104,1.739c19.494-6.302,39.025-12.489,58.552-18.686c22.36-7.097,44.73-14.163,67.091-21.256
		c22.057-6.996,44.107-14.016,66.163-21.016c22.258-7.065,44.518-14.127,66.781-21.175c18.72-5.926,37.425-11.897,56.191-17.672
		c2.945-0.906,4.107-2.146,3.952-5.305c-0.271-5.533-0.056-11.088-0.079-16.634c-0.039-8.778,3.164-16.448,8.414-23.231
		c6.559-8.47,15.228-13.975,25.854-15.485c12.231-1.739,23.674,0.504,33.585,8.578c8.106,6.604,12.877,15.069,14.856,25.218
		c0.241,1.241,0.291,2.536,0.292,3.806c0.013,115.185,0.028,230.369-0.022,345.553c-0.004,8.504-3.456,15.903-8.565,22.528
		c-6.521,8.453-15.212,13.714-25.664,15.205c-12.562,1.793-24.277-0.547-34.281-9.212c-7.623-6.603-12.475-14.707-14.11-24.569
		c-1.014-6.104-0.181-12.342-0.355-18.516c-0.229-8.041,1.522-6.514-6.806-9.104c-16.016-4.981-31.956-10.201-47.942-15.28
		c-22.044-7.003-44.1-13.966-66.337-21.004c-0.504,3.548,0.232,6.953,0.024,10.378c-0.865,14.201-11.815,26.278-25.952,29.415
		c-8.002,1.775-15.569,0.015-23.12-2.467c-21.286-6.993-42.597-13.907-63.902-20.842c-16.154-5.258-32.368-10.336-48.453-15.796
		c-13.57-4.605-21.206-14.223-22.83-28.563C102.853,330.875,106.454,321.981,113.864,314.077z M409.375,256.723
		c0-14.826,0-29.653,0-44.479c0-28.16-0.032-56.32,0.049-84.479c0.008-2.842-0.638-3.449-3.42-2.541
		c-10.695,3.49-21.469,6.744-32.196,10.139c-17.105,5.412-34.193,10.876-51.295,16.3c-27.322,8.667-54.65,17.312-81.974,25.977
		c-17,5.391-33.993,10.803-50.99,16.204c-32.581,10.352-65.156,20.721-97.754,31.015c-2.393,0.755-3.331,1.862-3.313,4.499
		c0.122,18.132,0.122,36.266,0.001,54.399c-0.018,2.727,0.875,3.924,3.452,4.72c16.024,4.952,32,10.061,47.99,15.122
		c26.519,8.393,53.038,16.782,79.552,25.188c17.811,5.646,35.612,11.322,53.419,16.981c31.77,10.096,63.538,20.195,95.313,30.277
		c12.345,3.916,24.69,7.83,37.063,11.656c4.059,1.254,4.102,1.124,4.102-3.297C409.375,341.843,409.375,299.283,409.375,256.723z
		 M475.295,256.84c0-54.38,0.001-108.76-0.004-163.139c0-3.505,0.023-6.991-0.602-10.486c-2.537-14.205-17.912-23.879-31.565-18.676
		c-10.656,4.062-16.652,13.205-16.653,25.085c-0.01,111.319-0.013,222.637,0.018,333.955c0.002,5.043,1.102,9.847,3.62,14.342
		c5.257,9.381,18.266,15.427,29.656,10.385c9.761-4.321,15.524-13.011,15.526-24.168C475.3,368.371,475.295,312.605,475.295,256.84z
		 M254.727,392.095c5.013,0,9.73-2.028,12.247-5.123c7.501-9.225,3.823-22.073-7.459-25.753
		c-23.725-7.737-47.479-15.383-71.209-23.102c-13.635-4.435-27.217-9.034-40.885-13.36c-5.079-1.606-10.099-3.796-15.76-1.426
		c-5.733,2.401-11.116,9.43-10.385,15.119c0.951,7.4,4.504,12.842,12.07,15.234c19.438,6.145,38.842,12.399,58.235,18.688
		c19.396,6.288,38.763,12.665,58.137,19.021C251.466,391.966,253.229,392.238,254.727,392.095z M70.814,256.631
		c0-14.822,0.02-29.644-0.007-44.465c-0.017-9.15-7.123-16.67-15.738-16.739c-8.987-0.072-16.37,7.105-16.402,16.438
		c-0.102,29.856-0.096,59.714-0.001,89.57c0.028,8.692,7.172,16.202,15.143,16.417c9.415,0.253,16.962-6.988,16.993-16.436
		C70.849,286.487,70.814,271.56,70.814,256.631z"/>
	<path style="fill-rule:evenodd;clip-rule:evenodd;fill:none;" d="M409.375,256.723c0,42.561,0,85.12-0.001,127.68
		c0,4.421-0.043,4.551-4.102,3.297c-12.373-3.826-24.719-7.74-37.063-11.656c-31.774-10.082-63.543-20.182-95.313-30.277
		c-17.807-5.659-35.609-11.336-53.419-16.981c-26.514-8.406-53.034-16.796-79.552-25.188c-15.99-5.062-31.966-10.17-47.99-15.122
		c-2.577-0.796-3.469-1.993-3.452-4.72c0.121-18.133,0.121-36.267-0.001-54.399c-0.018-2.636,0.92-3.743,3.313-4.499
		c32.599-10.294,65.174-20.663,97.754-31.015c16.997-5.401,33.99-10.813,50.99-16.204c27.324-8.665,54.652-17.31,81.974-25.977
		c17.102-5.424,34.189-10.888,51.295-16.3c10.728-3.395,21.501-6.648,32.196-10.139c2.782-0.908,3.428-0.301,3.42,2.541
		c-0.081,28.16-0.049,56.319-0.049,84.479C409.375,227.07,409.375,241.896,409.375,256.723z"/>
	<path style="fill-rule:evenodd;clip-rule:evenodd;fill:none;" d="M475.295,256.84c0,55.766,0.005,111.531-0.004,167.297
		c-0.002,11.157-5.766,19.847-15.526,24.168c-11.391,5.042-24.399-1.004-29.656-10.385c-2.519-4.495-3.618-9.299-3.62-14.342
		c-0.03-111.318-0.027-222.636-0.018-333.955c0.001-11.88,5.997-21.023,16.653-25.085c13.653-5.203,29.028,4.472,31.565,18.676
		c0.625,3.496,0.602,6.981,0.602,10.486C475.296,148.08,475.295,202.459,475.295,256.84z"/>
	<path style="fill-rule:evenodd;clip-rule:evenodd;fill:none;" d="M254.727,392.095c-1.499,0.144-3.261-0.129-5.01-0.701
		c-19.374-6.356-38.741-12.733-58.137-19.021c-19.393-6.288-38.796-12.543-58.235-18.688c-7.566-2.393-11.12-7.834-12.07-15.234
		c-0.731-5.689,4.651-12.718,10.385-15.119c5.662-2.37,10.682-0.181,15.76,1.426c13.668,4.326,27.25,8.926,40.885,13.36
		c23.73,7.719,47.484,15.364,71.209,23.102c11.282,3.68,14.96,16.528,7.459,25.753C264.457,390.066,259.74,392.095,254.727,392.095z
		"/>
	<path style="fill-rule:evenodd;clip-rule:evenodd;fill:none;" d="M70.814,256.631c0,14.929,0.035,29.856-0.013,44.785
		c-0.03,9.447-7.578,16.688-16.993,16.436c-7.971-0.215-15.115-7.725-15.143-16.417c-0.094-29.856-0.1-59.714,0.001-89.57
		c0.032-9.333,7.415-16.51,16.402-16.438c8.615,0.069,15.721,7.589,15.738,16.739C70.834,226.987,70.814,241.809,70.814,256.631z"/>
</g>
</svg>
