<?xml version="1.0" encoding="utf-8"?>
<!-- Generator: Adobe Illustrator 16.0.0, SVG Export Plug-In . SVG Version: 6.00 Build 0)  -->
<!DOCTYPE svg PUBLIC "-//W3C//DTD SVG 1.1//EN" "http://www.w3.org/Graphics/SVG/1.1/DTD/svg11.dtd">
<svg version="1.1" id="Layer_1" xmlns="http://www.w3.org/2000/svg" xmlns:xlink="http://www.w3.org/1999/xlink" x="0px" y="0px"
	 width="512px" height="184px" viewBox="0 0 512 184" enable-background="new 0 0 512 184" xml:space="preserve">
<g>
	<path fill="none" stroke="#000000" stroke-width="2" stroke-linecap="round" stroke-linejoin="round" stroke-miterlimit="10" d="
		M251.386,102.006c-2.358,4.048-3.459,8.599-4.744,13.007c-2.173,7.456-4.769,14.761-7.277,22.095
		c-1.126,3.293-2.709,6.467-3.917,9.727c-2.387,6.436-7.839,9.045-13.347,11.635c-4.719,2.219-9.832,2.64-14.999,2.59
		c-12.911-0.124-25.797-0.804-38.689-1.454c-4.403-0.222-8.811-0.573-13.23-0.619c-3.194-0.033-6.331-0.929-9.386-1.635
		c-5.491-1.27-10.913-0.961-16.306-0.267c-3.314,0.427-6.646,0.572-9.946,0.815c-8.547,0.63-17.132,0.728-25.697,1.146
		c-2.404,0.118-4.814,0.47-7.127,1.242"/>
	<path fill="none" stroke="#000000" stroke-width="2" stroke-linecap="round" stroke-linejoin="round" stroke-miterlimit="10" d="
		M39.637,78.592c5.564,2.5,11.503,3.851,17.317,5.562c5.764,1.697,11.618,3.042,17.533,4.194c5.915,1.152,11.803,2.235,17.832,2.463
		c8.872,0.336,17.754,0.595,26.467,2.549c4.904,1.1,9.713,2.507,14.747,3.166c4.499,0.588,9.037,1.023,13.508,1.896
		c7.472,1.459,15.104,1.354,22.656,1.954c9.129,0.726,18.296,1.32,27.478,1.122"/>
	<path fill="none" stroke="#000000" stroke-width="2" stroke-linecap="round" stroke-linejoin="round" stroke-miterlimit="10" d="
		M262.584,5.294c-3.563,0.17-7.138,0.211-10.687,0.535c-9.011,0.821-17.778,2.606-24.915,8.662
		c-6.86,5.82-11.21,13.375-14.027,21.853c-0.169,0.509-0.406,1.007-0.498,1.529c-0.368,2.094-1.698,3.214-3.561,4.1
		c-8.455,4.019-16.37,9.013-24.447,13.712c-3.152,1.833-6.061,4.063-9.645,5.175c-1.347,0.417-2.452,0.585-3.58-0.098
		c-4.696-2.844-9.677-2.033-14.778-1.61c-5.308,0.439-10.732,0.542-16.006-0.068c-3.159-0.365-6.132-2.368-9.181-3.654
		c-5.1-2.15-10.14-4.426-15.51-5.909c-2.292-0.633-4.629-0.715-6.894-0.852c-4.675-0.28-9.333-0.716-13.988-1.159
		c-4.608-0.438-8.876-1.366-12.305-5.236c-4.896-5.527-5.171-5.377-12.123-2.853c-5.732,2.08-11.219,4.684-16.31,8.103
		c-3.539,2.377-4.751,5.741-3.975,9.673c0.456,2.309,0.171,4.619,0.658,6.893c0.454,2.121-0.799,3.346-2.158,4.927
		c-2.924,3.404-6.852,5.719-9.528,9.321c-0.35,0.47-0.849,0.168-1.273,0.254"/>
	<path fill="none" stroke="#000000" stroke-width="2" stroke-linecap="round" stroke-linejoin="round" stroke-miterlimit="10" d="
		M72.978,38.125c-0.554-5.353-3.279-8.448-7.122-7.86c-3.09,0.473-6.112,1.302-8.912,2.771c-5.693,2.988-11.235,6.356-17.568,7.858
		c-4.742,1.125-9.354,2.639-14,4.071c-2.905,0.895-5.606,2.138-7.857,4.13c-4.011,3.548-7.923,7.194-10.99,11.666
		c-2.781,4.055-2.524,8.49-2.003,12.995c0.363,3.134,3.501,4.417,8.139,3.586c4.612-0.827,8.623-3.064,12.716-5.122
		c2.837-1.426,5.609-2.873,8.91-3.085c3.914-0.251,7.805-0.841,11.712-1.208c0.934-0.087,1.977-0.303,2.797,0.485"/>
	<path fill="none" stroke="#000000" stroke-width="2" stroke-linecap="round" stroke-linejoin="round" stroke-miterlimit="10" d="
		M381.947,148.072c0,3.309,0.207,6.634-0.059,9.921c-0.271,3.363,1.121,5.375,3.839,7.186c5.962,3.973,12.481,6.486,19.385,8.068
		c11.834,2.713,23.813,2.722,35.885,2.148c9.145-0.435,18.312-0.963,27.48-0.59c3.329,0.136,6.08,2.109,9.142,3.112
		c2.31,0.756,4.513,1.88,6.896,2.467c0.919,0.227,1.658,0.748,2.847,0.098c1.78-0.976,4.32-1.428,5.162-3.083
		c1.842-3.623,4.496-6.816,5.732-10.749"/>
	<path fill="none" stroke="#000000" stroke-width="2" stroke-linecap="round" stroke-linejoin="round" stroke-miterlimit="10" d="
		M263.855,54.159c-1.44,6.278-3.035,12.526-4.276,18.843c-0.953,4.853-2.302,9.662-2.943,14.519
		c-0.669,5.07-3.479,9.107-4.892,13.978c3.021,1.309,6.497,1.386,9.83,1.994c6.338,1.157,12.691,2.301,19.087,3.04
		c8.971,1.037,17.916,2.298,26.97,2.654c10.354,0.409,20.74,0.375,31.043,1.552c3.744,0.428,7.412,1.559,11.202,1.995
		c6.125,0.705,12.221,1.658,18.329,2.506"/>
	<path fill="none" stroke="#000000" stroke-width="2" stroke-linecap="round" stroke-linejoin="round" stroke-miterlimit="10" d="
		M210.665,41.688c0.714,2.211-0.627,4.107-1.089,6.092c-1.96,8.423-5.169,16.504-7.057,24.958
		c-1.299,5.817-2.431,11.664-3.313,17.561c-0.898,6.006-1.797,12.011-2.297,18.07c-0.175,2.127-0.704,4.244-0.693,6.363
		c0.011,2.173-0.982,2.441-2.852,2.602c-7.583,0.649-15.102-0.734-22.656-0.546c-8.263,0.206-16.494,0.757-24.697,1.953
		c-5.976,0.871-12.004,0.678-18.069,0.171c-6.306-0.527-12.559-1.366-18.822-2.163c-3.831-0.487-7.642-1.142-11.453-1.776
		c-1.314-0.219-2.662-0.728-3.797,0.294c-0.635,0.572-1.063-0.007-1.546-0.058c-4.912-0.516-9.807-0.87-14.771-0.571
		c-1.998,0.12-3.329,0.931-4.558,2.149c-2.939,2.914-6.475,5.514-8.521,8.979c-3.742,6.335-9.514,10.57-14.457,15.637
		c-5.409,5.546-9.979,11.581-13.175,18.634c-3.171,7-3.011,13.663,2.019,19.859c1.969,2.425,2.502,2.74,5.077,0.971
		c4.754-3.265,9.328-6.791,14.03-10.134c7.556-5.374,15.435-10.199,23.902-14.04c2.136-0.969,4.087-2.343,6.123-3.53"/>
	<path fill="none" stroke="#000000" stroke-width="2" stroke-linecap="round" stroke-linejoin="round" stroke-miterlimit="10" d="
		M446.083,124.657c4.411,0.747,8.663-0.38,12.987-0.961c6.037-0.812,10.728-4.159,15.876-6.993
		c6.973-3.838,10.129-10.004,12.242-16.771c3.108-9.955,0.167-18.924-6.521-26.661c-3.888-4.496-8.413-8.228-14.481-9.429
		c-6.606-1.307-13.051-0.479-19.336,1.782c-1.896,0.682-3.943,1.219-5.553,2.351c-2.156,1.517-3.894,0.84-5.918-0.042
		c-3.389-1.477-6.237-3.808-9.403-5.63"/>
	<path fill="none" stroke="#000000" stroke-width="2" stroke-linecap="round" stroke-linejoin="round" stroke-miterlimit="10" d="
		M273.02,9.112c4.297,1.538,7.963,4.273,11.988,6.31c6.313,3.196,12.414,6.941,19.563,8.231c3.046,0.549,6.104,0.882,9.171,0.946
		c7.296,0.152,14.61-0.253,21.883,0.578c2.737,0.313,5.587,0.592,8.116,1.577c5.425,2.113,11.017,1.88,16.57,1.635
		c7.563-0.334,15.097-1.261,22.656-1.677c7.171-0.395,13.921,1.822,20.604,4.056c6.942,2.32,13.741,5.004,19.858,9.139
		c4.837,3.269,6.029,6.03,4.823,11.704c-1.86,8.752-4.582,17.237-8.13,25.454c-1.28,2.966-2.543,5.939-3.821,8.906
		c-0.404,0.94-0.419,1.867,0.002,2.8"/>
	<path fill="none" stroke="#000000" stroke-width="2" stroke-linecap="round" stroke-linejoin="round" stroke-miterlimit="10" d="
		M445.064,124.657c-2.936,0.348-5.847,0.777-8.658,1.766c-2.714,0.955-4.771,2.753-6.604,4.859c-1.146,1.318-2.312,2.64-3.297,4.078
		c-2.348,3.42-5.622,5.779-8.911,8.153c-0.457,0.33-0.729-0.011-1.028,0.023c-3.416,0.397-6.786-0.032-10.19-0.202
		c-5.084-0.254-10.078,0.932-15.013,2.185c-5.257,1.334-10.494,2.873-16.032,2.046c-3.416-0.509-4.362-1.224-5.062-4.59
		c-0.805-3.877-1.339-7.808-2.076-11.7c-1.021-5.371-0.61-10.775,0.382-16.014c1-5.274,2.786-10.423,4.495-15.537
		c4.234-12.671,8.626-25.29,12.939-37.935c0.164-0.481,0.181-1.015,0.266-1.523"/>
	<path fill="none" stroke="#000000" stroke-width="2" stroke-linecap="round" stroke-linejoin="round" stroke-miterlimit="10" d="
		M263.094,4.531c-0.047,3.021,1.538,5.613,2.385,8.37c2.377,7.75,4.032,15.543,4.02,23.698c-0.014,6.626-0.757,13.267-0.393,19.842
		c0.312,5.586-1.553,10.205-3.655,15.053c-2.207,5.089-4.447,10.164-6.663,15.25c-0.508,1.163-0.857,2.374-2.057,3.045"/>
	<path fill="none" stroke="#000000" stroke-width="2" stroke-linecap="round" stroke-linejoin="round" stroke-miterlimit="10" d="
		M482.731,168.178c-1.01-6.229-4.962-11.294-10.188-11.55c-4.11-0.201-8.151-0.702-12.207-1.194
		c-11.414-1.382-22.863-2.5-33.145-8.538c-2.679-1.573-6.052-1.963-9.105-2.896"/>
	<path fill="none" stroke="#000000" stroke-width="2" stroke-linecap="round" stroke-linejoin="round" stroke-miterlimit="10" d="
		M93.338,115.75c-0.396,3.337-2.228,6.089-4.147,8.596c-2.609,3.406-2.264,6.911-1.155,10.479
		c1.617,5.202,2.538,10.396,1.226,15.792c-0.734,3.018-1.316,6.059-1.523,9.163"/>
	<path fill="none" stroke="#000000" stroke-width="2" stroke-linecap="round" stroke-linejoin="round" stroke-miterlimit="10" d="
		M376.857,90.808c4.438-0.031,8.867-0.088,13.238,0.996c4.856,1.206,9.021,3.618,12.709,6.906c1.679,1.496,3.235,3.126,4.848,4.696"
		/>
	<path fill="none" stroke="#000000" stroke-width="2" stroke-linecap="round" stroke-linejoin="round" stroke-miterlimit="10" d="
		M261.82,3.513c1.727,1.46,4.064,1.098,5.852,1.075c3.62-0.046,4.693,2.559,5.045,4.681c0.654,3.939,1.91,7.782,2.094,11.805
		c0.201,4.414,0.854,8.801,0.764,13.234c-0.039,1.898-0.045,3.807,0.754,5.6"/>
	<path fill="none" stroke="#000000" stroke-width="2" stroke-linecap="round" stroke-linejoin="round" stroke-miterlimit="10" d="
		M439.466,69.43c0.151,1.625-0.76,3.729,1.785,4.309c1.639,0.374,3.239,0.791,4.861-0.453c1.946-1.493,4.174-0.72,6.337-0.311
		c3.268,0.616,6.382,1.552,8.895,3.846c1.465,1.337,1.493,2.74-0.015,4.033c-1.063,0.911-2.292,1.68-3.558,2.282
		c-1.142,0.543-2.313,0.991-3.315,1.776c0.907,1.509,2.222,2.38,3.843,2.844c2.438,0.698,3.572,2.474,4.094,4.829
		c0.212,0.961,0.508,1.967,1.025,2.786c1.472,2.322,4.61,2.713,7.352,1.036c2.629-1.607,4.438-3.958,5.824-6.632
		c0.521-1.002,0.761-2.142,1.813-2.784"/>
	<path fill="none" stroke="#000000" stroke-width="2" stroke-linecap="round" stroke-linejoin="round" stroke-miterlimit="10" d="
		M430.813,110.405c-0.52,0.841-1.039,1.683-1.566,2.537c0.64,1.32,1.709,1.828,3.095,1.79c3.229-0.089,6.449,0.104,9.684-0.436
		c1.885-0.315,3.909-0.044,5.837,0.221c2.017,0.277,2.691,1.52,1.752,3.251c-1.233,2.271-2.38,4.615-4.037,6.635"/>
	<path fill="none" stroke="#000000" stroke-width="2" stroke-linecap="round" stroke-linejoin="round" stroke-miterlimit="10" d="
		M444.047,74.52c-0.649,1.854-2.297,2.989-3.306,4.583c-0.525,0.829-1.34,0.453-2.039,0.5c-4.803,0.322-9.555,1.007-14.247,2.068
		c-0.718,0.162-1.521,0.502-2.016,1.018c-2.933,3.06-6.426,5.655-7.937,9.893c-1.473,4.132-2.156,8.432-2.436,12.739
		c-0.214,3.278,1.421,4.593,4.747,4.82c0.929,0.063,1.865,0.009,2.799,0.009"/>
	<path fill="none" stroke="#000000" stroke-width="2" stroke-linecap="round" stroke-linejoin="round" stroke-miterlimit="10" d="
		M276.327,11.148c-0.423,2.004,0.724,3.723,1.034,5.596c1.214,7.289,1.658,14.573,0.274,21.897c-0.116,0.621-0.504,0.866-0.8,1.266"
		/>
	<path fill="none" stroke="#000000" stroke-width="2" stroke-linecap="round" stroke-linejoin="round" stroke-miterlimit="10" d="
		M478.66,82.664c-0.723,3.293,1.038,6.25,1.279,9.416c0.582,7.625,0.873,15.203-3.864,21.86c-0.456,0.64-0.416,1.183-0.47,1.81"/>
	<path fill="none" stroke="#000000" stroke-width="2" stroke-linecap="round" stroke-linejoin="round" stroke-miterlimit="10" d="
		M499.402,160.416c-2.483-1.14-5.26-1.247-7.803-2.326c-1.723-0.731-3.133-1.897-4.802-2.625c-3.775-1.646-7.678-2.121-11.701-1.026
		c-1.109,0.303-2.14,0.757-2.801,1.778"/>
	<path fill="none" stroke="#000000" stroke-width="2" stroke-linecap="round" stroke-linejoin="round" stroke-miterlimit="10" d="
		M423.178,112.95c2.138,2.483,4.822,4.213,7.595,5.92c2.009,1.236,3.851,1.295,5.604,0.134c1.69-1.117,3.05-0.604,4.342,0.337
		c1.901,1.387,3.61,3.017,4.856,5.061"/>
	<path fill="none" stroke="#000000" stroke-width="2" stroke-linecap="round" stroke-linejoin="round" stroke-miterlimit="10" d="
		M276.582,40.543c-0.762,6.651-3.461,12.667-6.061,18.727c-0.211,0.489-0.545,0.668-0.813,0.998"/>
	<path fill="none" stroke="#000000" stroke-width="2" stroke-linecap="round" stroke-linejoin="round" stroke-miterlimit="10" d="
		M506.655,167.669c-0.234-1.423,0.552-2.48,1.271-3.563c1.391-2.089,2.195-4.396,3.06-7.271c-3.388,0.811-5.362,2.379-6.633,4.977
		c-2.406,4.923-4.987,9.754-8.153,14.243c-0.32,0.454-0.148,0.863-0.234,1.287"/>
	<path fill="none" stroke="#000000" stroke-width="2" stroke-linecap="round" stroke-linejoin="round" stroke-miterlimit="10" d="
		M412.997,95.389c-0.451,0.105-0.786,0.315-1.027,0.758c-3.975,7.304-7.898,14.634-11.98,21.876
		c-1.866,3.309-3.999,6.466-5.57,9.942"/>
	<path fill="none" stroke="#000000" stroke-width="2" stroke-linecap="round" stroke-linejoin="round" stroke-miterlimit="10" d="
		M424.45,115.241c-7.844,2.996-15.857,4.747-24.307,3.309"/>
	<path fill="none" stroke="#000000" stroke-width="2" stroke-linecap="round" stroke-linejoin="round" stroke-miterlimit="10" d="
		M509.709,161.815c2.768,1.931,2.92,3.126-0.038,4.499c-3.749,1.74-5.891,4.876-8.063,8.001c-2.223,3.193-5.11,4.006-8.694,3.28"/>
	<path fill="none" stroke="#000000" stroke-width="2" stroke-linecap="round" stroke-linejoin="round" stroke-miterlimit="10" d="
		M457.536,100.479c-0.305,1.958-0.902,3.822-1.779,5.6c-1.337,2.71-1.983,3.041-5.093,2.544"/>
	<path fill="none" stroke="#000000" stroke-width="2" stroke-linecap="round" stroke-linejoin="round" stroke-miterlimit="10" d="
		M484.514,160.034c0.595,0.933,1.189,1.865,1.78,2.8c1.655,2.619,4.341,3.313,7.127,3.817"/>
	<path fill="none" stroke="#000000" stroke-width="2" stroke-linecap="round" stroke-linejoin="round" stroke-miterlimit="10" d="
		M425.468,104.042c-0.661,2.549-0.296,5.358-2.02,7.647c-0.617,0.818-1.104,1.726-2.302,0.998c-1.169-0.71-1.474-1.9-0.978-3.025
		c0.563-1.276,1.48-2.396,2.244-3.583"/>
	<path fill="none" stroke="#000000" stroke-width="2" stroke-linecap="round" stroke-linejoin="round" stroke-miterlimit="10" d="
		M413.761,109.896c-0.419,2.715-0.419,5.43,0,8.144"/>
	<path fill="none" stroke="#000000" stroke-width="2" stroke-linecap="round" stroke-linejoin="round" stroke-miterlimit="10" d="
		M505.638,158.761c-0.363-0.57-0.729-1.141-1.096-1.714c-4.479,3.228-8.271,6.204-11.215,10.299
		c-1.641,2.282-3.712,4.443-6.27,5.921"/>
	<path fill="none" stroke="#000000" stroke-width="2" stroke-linecap="round" stroke-linejoin="round" stroke-miterlimit="10" d="
		M447.355,100.988c-2.283,1.68-2.5,4.075-2.291,6.617"/>
</g>
</svg>
