<?xml version="1.0" encoding="utf-8"?>
<!-- Generator: Adobe Illustrator 16.0.0, SVG Export Plug-In . SVG Version: 6.00 Build 0)  -->
<!DOCTYPE svg PUBLIC "-//W3C//DTD SVG 1.1//EN" "http://www.w3.org/Graphics/SVG/1.1/DTD/svg11.dtd">
<svg version="1.1" id="Layer_1" xmlns="http://www.w3.org/2000/svg" xmlns:xlink="http://www.w3.org/1999/xlink" x="0px" y="0px"
	 width="512px" height="512px" viewBox="0 0 512 512" enable-background="new 0 0 512 512" xml:space="preserve">
<g>
	<path fill="#FFFFFF" d="M481.505,256.388c0,45.545-0.018,91.09,0.008,136.637c0.012,19.001-5.353,36.475-15.2,52.56
		c-10.969,17.916-25.929,31.635-44.977,40.596c-12.709,5.979-26.104,9.132-40.285,9.517c-16.579,0.449-32.38-2.352-47.379-9.31
		c-9.387-4.355-17.966-10.055-25.639-17.053c-9.52-8.681-17.453-18.627-23.344-30.082c-5.076-9.869-8.502-20.333-10.377-31.311
		c-1.19-6.96-1.277-13.949-1.275-20.975c0.025-89.597-0.018-179.194,0.056-268.792c0.013-13.337,3.376-26.029,8.577-38.264
		c6.141-14.442,15.275-26.756,26.95-37.112c14.62-12.97,31.548-21.429,50.959-24.481c23.021-3.619,45.104-0.782,65.884,10.18
		c8.402,4.432,15.941,10.035,22.901,16.551c13.327,12.476,22.799,27.35,28.366,44.65c3.028,9.415,4.838,19.083,4.816,29.092
		C481.45,164.658,481.505,210.522,481.505,256.388z M377.485,265.825c-27.087,0-54.176-0.001-81.263,0.002
		c-4.148,0-4.156,0.01-4.156,4.271c-0.002,38.924,0.02,77.848-0.025,116.772c-0.006,5.646,0.309,11.238,1.248,16.811
		c3.604,21.384,13.479,39.188,30.27,53.008c17.494,14.396,37.473,21.034,60.208,19.308c14.306-1.088,27.434-5.48,39.372-13.304
		c14.795-9.692,25.673-22.757,32.566-39.068c4-9.466,6.668-19.354,6.714-29.624c0.184-41.377,0.039-82.755,0.146-124.132
		c0.009-3.265-0.909-4.128-4.14-4.113C431.447,265.879,404.466,265.825,377.485,265.825z M377.277,246.815
		c26.875,0,53.749,0,80.623,0c4.588,0,4.594-0.004,4.594-4.475c0.002-39.458-0.013-78.917,0.017-118.375
		c0.004-5.217-0.31-10.364-1.189-15.536c-3.857-22.65-14.957-41.032-33.082-54.862c-16.893-12.888-36.146-18.671-57.56-16.935
		c-10.636,0.863-20.716,3.549-30.217,8.213c-11.402,5.596-21.163,13.384-29.116,23.347c-11.979,15.006-18.913,32.173-19.135,51.29
		c-0.478,41.159-0.112,82.328-0.213,123.493c-0.007,3.159,1.009,3.912,4.017,3.9C323.102,246.772,350.19,246.815,377.277,246.815z"
		/>
	<path fill="#FFFFFF" d="M31.775,256.322c0-45.545,0.026-91.09-0.012-136.635c-0.016-19.006,5.333-36.486,15.165-52.573
		c10.953-17.92,25.903-31.654,44.954-40.621c12.709-5.983,26.096-9.16,40.277-9.548c16.577-0.454,32.379,2.331,47.386,9.277
		c9.295,4.302,17.813,9.914,25.418,16.815c9.695,8.798,17.782,18.892,23.735,30.574c4.992,9.796,8.387,20.152,10.262,31.016
		c1.2,6.958,1.284,13.949,1.283,20.973c-0.026,88.318-0.068,176.634,0.034,264.953c0.016,14.144-2.697,27.645-7.985,40.654
		c-6.237,15.349-15.866,28.383-28.28,39.24c-13.342,11.669-28.707,19.688-46.177,23.123c-21.009,4.131-41.616,2.82-61.579-5.497
		c-11.711-4.88-22.014-11.771-31.285-20.441c-17.901-16.744-28.359-37.342-32.387-61.325c-0.538-3.206-0.859-6.505-0.854-9.829
		C31.796,349.76,31.775,303.041,31.775,256.322z M135.81,246.815c26.874,0,53.749,0,80.623,0c4.78,0,4.782-0.002,4.782-4.926
		c0-39.032-0.025-78.064,0.017-117.096c0.012-11.258-1.698-22.158-5.713-32.721c-7.86-20.678-21.609-36.235-41.12-46.391
		c-16.352-8.511-33.864-11.523-52.177-8.267c-17.17,3.053-32.18,10.412-44.76,22.677C71.003,66.388,65.664,73.422,61.297,81.3
		c-6.345,11.451-10.255,23.754-10.372,36.712c-0.375,41.588-0.103,83.181-0.211,124.772c-0.009,3.284,0.944,4.113,4.153,4.098
		C81.847,246.762,108.828,246.815,135.81,246.815z M135.994,265.825c-26.874,0-53.749-0.001-80.623,0
		c-4.58,0.001-4.585,0.005-4.585,4.483c-0.002,39.352,0.01,78.703-0.014,118.055c-0.003,5.32,0.277,10.577,1.187,15.855
		c3.917,22.749,15.057,41.181,33.359,55.024c16.867,12.76,35.997,18.493,57.291,16.764c10.635-0.864,20.722-3.539,30.214-8.221
		c10.984-5.417,20.391-12.897,28.259-22.4c12.585-15.201,19.723-32.683,19.973-52.237c0.527-41.157,0.126-82.326,0.227-123.491
		c0.007-3.171-1.028-3.903-4.024-3.892C190.17,265.867,163.082,265.825,135.994,265.825z"/>
	<path fill="#FFFFFF" d="M429.858,188.797c-0.002-11.621-0.029-23.241,0.008-34.861c0.027-8.839,7.686-11.281,14.086-8.657
		c3.396,1.392,4.86,4.442,4.871,7.948c0.063,23.88,0.067,47.76,0.011,71.641c-0.013,5.504-3.959,8.986-9.759,8.956
		c-5.402-0.027-9.175-3.713-9.199-9.207C429.82,212.677,429.858,200.737,429.858,188.797z"/>
	<path fill="#FFFFFF" d="M63.776,321.604c0-11.836-0.014-23.67,0.006-35.506c0.01-5.504,4.17-9.854,9.274-9.777
		c5.215,0.078,9.7,4.511,9.709,9.818c0.038,23.457,0.035,46.916,0,70.373c-0.007,4.738-3.141,8.772-7.286,9.691
		c-4.526,1.003-8.57-0.801-10.854-4.775c-0.784-1.363-0.859-2.812-0.857-4.316C63.782,345.275,63.776,333.439,63.776,321.604z"/>
</g>
</svg>
