<?xml version="1.0" encoding="utf-8"?>
<!-- Generator: Adobe Illustrator 16.0.0, SVG Export Plug-In . SVG Version: 6.00 Build 0)  -->
<!DOCTYPE svg PUBLIC "-//W3C//DTD SVG 1.1//EN" "http://www.w3.org/Graphics/SVG/1.1/DTD/svg11.dtd">
<svg version="1.1" id="Layer_1" xmlns="http://www.w3.org/2000/svg" xmlns:xlink="http://www.w3.org/1999/xlink" x="0px" y="0px"
	 width="512px" height="512px" viewBox="0 0 512 512" enable-background="new 0 0 512 512" xml:space="preserve">
<g>
	<path fill="#FFFFFF" d="M260.035,8.412c68.339,0.883,129.353,26.927,178.334,79.436c47.519,50.942,69.451,111.994,65.989,181.438
		c-3.341,67.008-29.902,124.002-79.335,169.511c-51.112,47.055-112.004,68.997-181.345,65.59
		c-64.382-3.163-119.833-28.153-164.65-74.326C28.837,378.352,5.466,315.563,8.875,243.521
		c2.987-63.143,27.465-117.631,72.002-162.11C129.1,33.251,188.103,9.087,260.035,8.412z M223.924,484.722
		c10.228,1.992,19.898,1.956,29.493,2.68c4.549,0.342,9.13-0.354,13.685-0.482c10.65-0.297,21.129-1.803,31.573-3.627
		c16.587-2.897,32.465-8.188,48.077-14.414c8.161-3.255,15.653-7.063,19.406-15.692c0.541-1.243,1.563-2.271,2.283-3.449
		c2.902-4.758,4.328-9.757,3.215-15.436c-1.736-8.844-8.545-15.837-17.578-17.488c-5.104-0.933-10.232-1.744-15.365-2.511
		c-4.253-0.635-8.369-3.475-8.155-9.192c0.355-9.479,0.077-18.98,0.107-28.474c0.015-4.497,2.076-7.247,6.397-8.263
		c4.123-0.971,8.285-1.811,12.465-2.494c5.489-0.898,10.587-2.759,14.431-6.813c7.895-8.326,8.22-19.877,1.209-29.071
		c-2.959-3.882-5.897-7.788-8.627-11.831c-2.672-3.956-2.134-8.242,1.184-11.575c6.471-6.502,12.962-12.981,19.454-19.461
		c3.926-3.918,7.657-4.344,12.271-1.323c5.601,3.664,11.146,7.411,16.738,11.09c11.023,7.252,27.027,1.801,31.356-10.724
		c1.981-5.733,2.929-11.731,3.788-17.7c1.452-10.084,4.268-12.693,14.551-12.695c6.399,0,12.799,0.004,19.198-0.001
		c4.498-0.004,8.959,0.096,12.407,4.581c-0.338-23.993-2.932-46.98-10.166-70.105c-4.553,9.462-9.546,17.697-15.958,25.009
		c-0.887,1.011-0.407,1.921,0.48,2.763c1.474,1.391,2.92,2.814,4.297,4.298c3.484,3.752,3.355,9.026-0.257,12.602
		c-3.533,3.499-8.494,3.459-12.219-0.121c-1.384-1.331-2.771-2.663-4.064-4.079c-1.239-1.357-2.314-1.619-3.711-0.147
		c-2.652,2.796-5.947,4.835-9.121,6.922c-15.672,10.308-32.722,16.976-51.517,18.77c-3.074,0.293-4.911,1.481-4.271,5.006
		c0.242,1.342,0.079,2.768,0.021,4.15c-0.168,3.98-3.179,7.441-6.928,8.018c-4.909,0.754-8.656-1.39-10.189-5.637
		c-0.907-2.51-0.686-5.076-0.533-7.591c0.187-3.063-1.323-3.966-3.974-3.983c-3.953-0.026-7.789-0.938-11.614-1.752
		c-16.222-3.452-31.06-10.037-44.379-19.961c-2.12-1.58-4.112-4.414-6.293-4.547c-2.53-0.154-3.987,3.412-6.132,5.113
		c-3.732,2.96-8.816,3.117-12.004,0.357c-3.52-3.048-4.073-7.254-1.598-11.79c1.259-2.305,3.343-3.853,5.147-5.638
		c1.298-1.282,1.124-2.043,0.007-3.41c-2.816-3.447-5.623-6.95-7.982-10.713c-9.732-15.514-16.014-32.265-17.508-50.646
		c-0.185-2.248-1.131-3.522-3.655-3.289c-1.797,0.166-3.632,0.126-5.435-0.014c-5.257-0.41-8.334-4.035-8.156-9.476
		c0.158-4.795,3.688-8.121,8.73-8.201c1.813-0.029,3.627-0.05,5.439,0c1.498,0.042,2.371-0.391,2.548-2.088
		c0.264-2.522,0.77-5.019,1.169-7.527c3.3-20.714,11.669-39.142,25.071-55.257c1.287-1.547,1.146-2.488-0.19-3.725
		c-1.563-1.448-3.077-2.959-4.517-4.531c-2.724-2.973-3.047-6.943-0.933-10.287c2.136-3.376,6.185-4.808,9.959-3.863
		c3.625,0.907,5.481,3.908,7.925,6.204c1.197,1.125,2.181,1.652,3.51,0.371c4.635-4.461,10.177-7.65,15.593-10.992
		c2.649-1.636,5.509-2.933,8.696-4.604c-1.148-0.433-1.712-0.688-2.301-0.862c-20.062-5.964-40.638-8.621-61.484-9.219
		c-10.408-0.298-20.784,0.841-31.131,1.938c-4.114,0.437-8.254,0.783-9.875,5.872c-2.732,8.574,1.492,17.299,10.07,20.21
		c4.344,1.475,8.951,1.683,13.366,2.826c5.149,1.334,7.646,4.187,7.725,9.474c0.104,7.039,0.099,14.08,0.003,21.118
		c-0.075,5.545-2.387,8.422-7.833,9.621c-3.716,0.817-7.501,1.366-11.279,1.846c-11.958,1.521-17.779,14.298-12.314,23.278
		c2.216,3.641,4.843,6.976,7.1,10.574c2.896,4.617,2.57,8.576-1.211,12.391c-5.03,5.075-10.085,10.127-15.159,15.159
		c-4.032,4-8.376,4.257-12.853,0.901c-2.293-1.719-4.637-3.374-6.998-4.998c-10.204-7.016-22.254,0.313-23.905,9.79
		c-0.563,3.232-0.97,6.499-1.679,9.699c-1.102,4.976-3.716,7.022-8.712,7.038c-7.786,0.023-15.572,0.023-23.357-0.001
		c-4.071-0.013-7.503-2.949-8.241-6.988c-0.685-3.753-1.259-7.528-2.037-11.262c-2.592-12.429-16.294-16.683-24.723-10.192
		c-3.111,2.396-6.262,4.748-9.502,6.962c-5.032,3.439-8.698,3.023-13.043-1.311c-5.644-5.629-11.27-11.275-17.135-17.145
		c-25.401,45.791-34.973,94.25-27.731,145.97c3.143-6.875,6.635-13.512,10.558-19.924c8.451-13.815,18.889-25.938,31.323-36.273
		c9.423-7.833,19.724-14.392,30.823-19.638c1.615-0.763,2.25-1.533,1.364-3.408c-1.174-2.486-2.037-5.128-2.908-7.744
		c-1.563-4.692,0.729-9.448,5.261-11.108c4.606-1.687,9.263,0.329,11.257,4.954c1.092,2.532,2.086,5.109,3.055,7.691
		c0.568,1.513,1.245,2.207,3.086,1.631c8.827-2.759,17.874-4.371,27.058-5.565c10.517-1.368,21.001-1.408,31.464-0.299
		c11.728,1.242,23.25,3.719,34.317,7.924c2.363,0.898,3.391,0.222,4.311-1.955c1.605-3.803,2.87-7.783,5.233-11.232
		c2.466-3.601,6.878-4.716,10.955-2.808c3.678,1.722,5.708,5.874,4.742,9.765c-0.981,3.947-2.901,7.513-4.663,11.132
		c-1.081,2.219-1.355,3.897,1.539,4.905c1.478,0.515,2.79,1.519,4.161,2.326c16.102,9.475,29.901,21.563,41.456,36.258
		c6.661,8.475,12.446,17.476,16.961,27.262c0.953,2.068,1.983,2.664,4.112,1.667c2.302-1.079,4.716-1.929,7.115-2.783
		c4.81-1.712,9.748,0.483,11.534,5.064c1.802,4.623-0.336,9.411-5.109,11.398c-2.549,1.062-5.118,2.069-7.662,3.142
		c-1.293,0.544-2.019,1.245-1.486,2.944c3.502,11.181,5.335,22.619,6.245,34.332c0.932,11.986-0.162,23.726-1.979,35.481
		c-1.251,8.099-3.412,15.974-6.194,23.673c-0.609,1.689-0.523,2.56,1.412,3.334c3.84,1.538,7.571,3.375,11.25,5.276
		c3.285,1.698,4.941,5.767,4.029,9.232c-1.156,4.394-3.884,6.491-8.103,6.715c-4.076,0.216-7.348-1.809-10.819-3.352
		c-5.944-2.644-5.826-2.576-8.902,2.948c-9.429,16.933-21.947,31.254-37.197,43.158
		C247.886,472.783,236.772,479.398,223.924,484.722z M297.439,347.686c0.08-7.271-0.73-14.425-1.9-21.565
		c-4.02-24.536-14.299-46.187-30.568-64.843c-15.677-17.976-34.891-31.006-57.612-38.558c-10.086-3.352-20.438-5.371-31.091-6.34
		c-10.163-0.924-20.2-0.439-30.171,1.02c-11.04,1.615-21.708,4.739-32.016,9.226c-20.491,8.918-37.806,21.917-51.585,39.47
		c-12.246,15.6-20.43,33.188-24.813,52.563c-0.919,4.063-1.08,7.834,0.44,11.819c4.926,12.914,10.168,25.646,16.937,37.756
		c9.329,16.689,20.472,32.027,33.49,45.966c10.248,10.97,21.582,20.742,33.786,29.561c19.377,14.001,40.452,24.543,63.042,32.188
		c1.656,0.561,3.33,0.854,5.023,0.521c11.189-2.207,22.021-5.586,32.294-10.543c17.457-8.423,32.49-19.959,44.749-35.085
		C287.109,406.574,296.699,378.732,297.439,347.686z M372.376,239.766c1.937,0.295,4.106-0.466,6.322-0.583
		c15.366-0.813,29.624-5.299,42.798-13.117c22.443-13.318,37.564-32.481,45.251-57.464c0.77-2.499,0.906-4.817-0.298-7.358
		c-2.643-5.575-5.417-11.068-8.399-16.469c-9.134-16.545-20.266-31.648-33.091-45.477c-7.38-7.958-15.382-15.285-23.871-22.094
		c-14.746-11.826-30.646-21.761-47.752-29.764c-2.111-0.987-4.166-2.11-6.951-1.322c-28.08,7.946-48.64,25.166-61.971,50.84
		c-8.207,15.807-11.841,32.771-10.371,50.76c0.697,8.533,2.146,16.855,4.925,24.891c6.077,17.569,16.278,32.327,30.632,44.241
		C327.729,231.897,348.718,238.986,372.376,239.766z M389.466,444.813c11.807-8.28,22.287-17.355,32.066-27.275
		c1.309-1.328,0.959-2.341,0.074-3.601c-7.765-11.04-9.839-23.637-8.168-36.521c2.375-18.317,12.228-32.062,28.563-40.935
		c9.254-5.026,19.25-6.459,29.629-5.818c1.991,0.123,3.319-0.25,4.079-2.52c2.6-7.764,4.459-15.718,6.475-23.632
		c0.361-1.419,0.368-2.905-0.773-4.216c-3.857-4.423-6.175-9.625-7.366-15.331c-0.541-2.59-0.962-5.209-1.331-7.829
		c-0.357-2.55-1.313-4.076-4.307-3.684c-2.097,0.275-4.276,0.229-6.386,0.011c-2.911-0.298-3.995,1.021-4.264,3.733
		c-0.237,2.416-0.798,4.805-1.256,7.197c-2.342,12.242-8.474,22.086-19.461,28.123c-15.143,8.316-29.972,6.914-44.128-2.847
		c-2.521-1.737-4.977-4.831-7.74-4.62c-2.964,0.227-4.525,4.165-7.046,6.066c-2.547,1.922-2.396,3.475-0.431,5.9
		c7.271,8.965,11.136,19.02,9.816,30.875c-1.384,12.438-7.166,21.99-17.412,29.006c-5.766,3.945-12.324,5.596-19.069,6.658
		c-2.442,0.383-3.655,1.414-3.304,3.986c0.115,0.837,0.019,1.703,0.019,2.557c0,7.233-0.001,7.235,6.888,8.688
		c0.621,0.13,1.245,0.262,1.874,0.339c14.161,1.753,27.811,13.896,31.63,27.649C389.746,432.57,389.04,438.395,389.466,444.813z
		 M169.198,43.583c3.181,3.797,6.494,7.373,8.826,11.697c8.246,15.291,5.886,37.149-7.686,49.636
		c-12.144,11.174-26.113,14.514-41.862,9.887c-13.059-3.837-21.507-12.841-26.567-25.173c-1.059-2.58-1.793-2.288-3.399-0.635
		c-4.821,4.962-9.883,9.69-14.356,14.991c-0.897,1.063-1.256,1.906-0.911,3.39c2.166,9.285,0.291,17.9-4.731,25.896
		c-2.642,4.207-2.629,4.144,0.961,7.664c1.334,1.309,2.259,1.752,3.987,0.352c7.246-5.87,15.601-8.575,24.924-7.716
		c8.823,0.813,16.118,4.644,22.046,11.337c4.638,5.235,6.791,11.417,7.98,18.085c0.193,1.082,0.254,2.061,1.573,2.463
		c4.353,1.326,6.636-0.136,7.659-4.42c2.441-10.223,8.464-17.834,17.973-22.218c11.469-5.289,22.692-4.224,33.329,2.636
		c0.692,0.446,1.245,1.131,2.277,0.762c3.518-1.257,5.067-5.406,2.926-8.355c-6.415-8.831-7.72-18.677-4.706-28.809
		c4.261-14.325,14.594-21.932,29.186-23.914c1.919-0.26,3.243-0.659,2.775-2.769c-0.465-2.103,1.88-5.337-2.506-5.994
		c-5.4-0.808-10.569-2.508-15.031-5.754c-11.232-8.17-15.518-19.406-14.169-33.124c-5.045,0.712-9.741,2.432-14.43,4
		C179.877,39.301,174.401,40.971,169.198,43.583z M141.115,98.975c5.726,0,8.917-0.868,13.949-4.507
		c7.813-5.651,11.042-13.441,9.806-22.962c-1.085-8.358-6.046-14.046-13.153-18.085c-1.021-0.581-2.042-0.889-3.296-0.202
		c-10.444,5.717-20.545,11.965-30.02,19.194c-1.172,0.894-1.835,2.004-1.672,3.567C118.103,89.15,128.004,99.268,141.115,98.975z
		 M430.334,384.521c0.654,5.152,1.195,10.317,3.642,15.062c0.966,1.87,1.487,2.222,2.975,0.33
		c5.778-7.354,11.18-14.972,16.063-22.94c5.332-8.699,10.281-17.613,14.297-27.017c0.247-0.578,0.753-1.188,0.385-1.776
		c-0.386-0.615-1.198-0.523-1.752-0.285c-1.64,0.707-3.396,0.25-5.046,0.625C442.148,352.784,431.731,366.395,430.334,384.521z"/>
	<path fill="#FFFFFF" d="M232.545,347.408c-0.436,36.816-28.799,66.789-66.677,66.677c-37.597-0.111-66.444-28.463-66.672-66.562
		c-0.227-37.631,29.584-66.784,66.884-66.689C202.992,280.927,232.098,310.287,232.545,347.408z M214.815,347.552
		c-0.186-27.118-21.937-48.872-48.509-49.02c-27.938-0.154-49.484,21.931-49.415,49.007c0.07,27.477,21.412,48.824,48.911,48.847
		C192.93,396.408,214.372,374.945,214.815,347.552z"/>
	<path fill="#FFFFFF" d="M338.975,141.033c-0.985-18.505,14.99-33.881,33.304-33.629c19.164,0.264,33.311,14.402,33.602,33.58
		c0.271,17.813-14.661,34.512-35.856,33.538C354.64,173.813,337.593,159.111,338.975,141.033z M372.447,125.033
		c-9.152,0.692-16.096,6.267-16.125,15.946c-0.028,9.351,6.668,16.021,15.99,15.979c9.719-0.044,15.479-7.017,15.866-16.14
		C388.519,132.818,380.457,125.011,372.447,125.033z"/>
	<path fill="#FFFFFF" d="M165.821,314.016c18.076-0.811,33.947,15.285,33.606,34.025c-0.314,17.271-15.103,33.227-33.56,33.027
		c-18.977-0.205-33.572-14.952-33.627-34.233C132.188,328.953,147.957,313.305,165.821,314.016z M181.534,347.416
		c-0.011-8.813-6.954-15.68-15.846-15.67c-8.646,0.008-15.715,6.992-15.702,15.518c0.014,9.213,6.929,16.053,16.208,16.03
		C174.648,363.273,181.545,356.135,181.534,347.416z"/>
</g>
</svg>
