<?xml version="1.0" encoding="utf-8"?>
<!-- Generator: Adobe Illustrator 16.0.0, SVG Export Plug-In . SVG Version: 6.00 Build 0)  -->
<!DOCTYPE svg PUBLIC "-//W3C//DTD SVG 1.1//EN" "http://www.w3.org/Graphics/SVG/1.1/DTD/svg11.dtd">
<svg version="1.1" id="Layer_1" xmlns="http://www.w3.org/2000/svg" xmlns:xlink="http://www.w3.org/1999/xlink" x="0px" y="0px"
	 width="512px" height="512px" viewBox="0 0 512 512" enable-background="new 0 0 512 512" xml:space="preserve">
<g>
	<path fill="#FFFFFF" d="M261.346,335.419c0,27.306-0.002,54.61,0.002,81.915c0,4.191,0.008,4.198,4.229,4.2
		c10.986,0.004,21.974,0.086,32.957-0.055c2.917-0.037,3.887,0.862,3.83,3.81c-0.165,8.53,0.017,17.066-0.104,25.598
		c-0.033,2.479,0.69,3.402,3.27,3.338c6.183-0.155,12.373,0.021,18.558-0.079c2.292-0.038,3.224,0.686,3.212,3.098
		c-0.076,14.719-0.103,29.438,0.017,44.156c0.023,2.999-1.497,3.174-3.787,3.17c-25.813-0.039-51.624-0.023-77.437-0.023
		c-21.439,0-42.878-0.063-64.316,0.067c-3.237,0.021-4.185-0.924-4.148-4.153c0.161-14.185,0.144-28.372,0.01-42.557
		c-0.028-2.985,0.978-3.862,3.858-3.78c6.075,0.176,12.16-0.02,18.237,0.087c2.238,0.04,2.979-0.772,2.958-2.981
		c-0.086-8.745,0.044-17.493-0.078-26.237c-0.037-2.628,0.824-3.524,3.476-3.499c11.305,0.111,22.612-0.033,33.917,0.101
		c2.768,0.033,3.67-0.738,3.667-3.596c-0.075-55.037-0.079-110.074,0.006-165.111c0.004-3.007-0.94-3.762-3.833-3.755
		c-36.798,0.085-73.596,0.032-110.393,0.105c-2.655,0.006-4.569-0.722-6.459-2.629c-14.863-15.003-29.832-29.9-44.761-44.838
		c-3.01-3.011-3.01-3.083-0.013-6.082c14.777-14.787,29.586-29.543,44.316-44.378c1.706-1.718,3.437-2.509,5.884-2.462
		c7.144,0.139,14.295-0.077,21.436,0.11c2.895,0.076,3.642-0.949,3.576-3.693c-0.166-6.929-0.062-13.865-0.053-20.798
		c0.016-12.377,9.76-23.162,22.092-24.931c5.01-0.719,9.984-0.51,14.974-0.532c16.319-0.073,32.638,0.001,48.957-0.075
		c1.537-0.008,4.115,1.108,4.132-1.925c0.014-2.485,1.351-5.509-2.816-6.643c-10.797-2.938-18.793-9.708-24.373-19.263
		c-6.631-11.356-7.431-23.49-2.846-35.6c5.528-14.595,16.296-23.894,31.776-26.385c12.515-2.014,24.266,0.537,34.267,9.205
		c7.623,6.607,12.67,14.695,14.071,24.581c1.781,12.575-0.512,24.299-9.133,34.31c-5.502,6.387-12.166,10.778-20.191,13.228
		c-2.579,0.788-4.162,5.587-2.652,7.784c0.664,0.968,1.702,0.739,2.629,0.743c5.119,0.022,10.238,0.013,15.358,0.013
		c34.664,0,69.329,0.024,103.994-0.047c2.742-0.006,4.77,0.69,6.754,2.695c14.853,15.013,29.786,29.947,44.799,44.8
		c2.235,2.212,2.441,3.625,0.094,5.945c-14.946,14.768-29.786,29.645-44.584,44.563c-1.731,1.747-3.514,2.414-5.92,2.375
		c-7.251-0.116-14.507,0.033-21.758-0.082c-2.374-0.038-3.174,0.766-3.136,3.137c0.116,7.145,0.05,14.292,0.039,21.438
		c-0.02,12.168-9.857,23.175-21.879,24.804c-3.507,0.475-6.985,0.578-10.491,0.579c-20.586,0.005-41.171,0.001-61.756,0.003
		c-4.425,0-4.431,0.006-4.431,4.318C261.344,280.811,261.346,308.114,261.346,335.419z M234.566,166.625
		c-32.949,0-65.898,0.021-98.847-0.042c-2.42-0.005-4.174,0.663-5.893,2.417c-9.168,9.359-18.555,18.501-27.483,28.1
		c-1.667,1.791-1.186,2.662,0.25,4.083c9.395,9.303,18.76,18.638,28.038,28.059c1.647,1.673,3.343,2.255,5.639,2.253
		c65.152-0.05,130.304-0.038,195.456-0.045c7.026-0.001,11.025-3.807,11.063-10.774c0.077-14.608,0.08-29.218-0.005-43.826
		c-0.032-5.464-3.36-10.373-10.329-10.325C299.826,166.75,267.195,166.625,234.566,166.625z M279.156,116.706
		c-32.525,0-65.049-0.005-97.574,0.004c-7.162,0.002-11.035,3.854-11.104,11.068c-0.054,5.545-0.015,11.09-0.012,16.635
		c0.002,4.477,0.005,4.481,4.587,4.481c53.106,0.001,106.212-0.01,159.318,0.011c8.963,0.003,15.856,4.031,21.133,11.138
		c4.053,5.459,4.831,11.686,4.377,18.192c-0.172,2.471,0.645,3.445,3.238,3.348c4.686-0.176,9.388-0.18,14.072,0.001
		c2.657,0.104,4.573-0.679,6.461-2.614c9.073-9.302,18.403-18.353,27.253-27.88c1.625-1.75,1.292-2.625-0.187-4.085
		c-9.326-9.223-18.622-18.479-27.813-27.834c-1.799-1.831-3.638-2.52-6.175-2.514C344.206,116.73,311.682,116.705,279.156,116.706z
		 M252.438,25.839c-13.525,1.089-24.129,10.276-23.975,24.513c0.165,15.235,11.702,24.23,24.204,24.079
		c14.284-0.173,24.131-11.201,24.008-24.305C276.546,36.404,266.146,26.703,252.438,25.839z M252.738,471.905
		c-8.747,0-17.493,0-26.24,0c-9.28,0-18.561,0.075-27.838-0.048c-2.545-0.033-3.437,0.826-3.271,3.326
		c0.169,2.55,0.035,5.117,0.037,7.678c0.003,4.588,0.004,4.593,4.477,4.593c35.093,0.002,70.186,0,105.279,0
		c0.64,0,1.281-0.042,1.918,0.001c1.792,0.12,2.486-0.718,2.447-2.478c-0.064-2.985-0.211-5.989,0.041-8.954
		c0.271-3.182-0.718-4.228-4.051-4.195C287.938,471.992,270.338,471.905,252.738,471.905z M252.479,454.173
		c9.919,0,19.839-0.044,29.759,0.034c2.177,0.018,3.101-0.654,3.009-2.929c-0.136-3.407-0.085-6.825-0.021-10.237
		c0.033-1.808-0.767-2.43-2.508-2.428c-19.945,0.027-39.892,0.035-59.838-0.007c-2.036-0.005-2.555,0.939-2.513,2.754
		c0.073,3.197,0.163,6.407-0.027,9.597c-0.154,2.594,0.871,3.29,3.339,3.262C233.279,454.108,242.88,454.174,252.479,454.173z"/>
</g>
</svg>
