<?xml version="1.0" encoding="utf-8"?>
<!-- Generator: Adobe Illustrator 16.0.0, SVG Export Plug-In . SVG Version: 6.00 Build 0)  -->
<!DOCTYPE svg PUBLIC "-//W3C//DTD SVG 1.1//EN" "http://www.w3.org/Graphics/SVG/1.1/DTD/svg11.dtd">
<svg version="1.1" id="Layer_1" xmlns="http://www.w3.org/2000/svg" xmlns:xlink="http://www.w3.org/1999/xlink" x="0px" y="0px"
	 width="512px" height="512px" viewBox="0 0 512 512" enable-background="new 0 0 512 512" xml:space="preserve">
<path fill="#FFFFFF" d="M256,130c-5.52,0-10,4.48-10,10s4.48,10,10,10s10-4.48,10-10S261.52,130,256,130z"/>
<path fill="#FFFFFF" d="M90,310c5.52,0,10-4.48,10-10s-4.48-10-10-10s-10,4.48-10,10S84.48,310,90,310z"/>
<path fill="#FFFFFF" d="M336,30c-90.027,0-163.918,62.07-169.633,140.254C80.629,174.555,0,236.379,0,320
	c0,34.945,13.828,68.805,39,95.633c4.98,20.531-1.066,42.293-16.07,57.297c-2.859,2.859-3.715,7.16-2.168,10.898
	C22.309,487.563,25.953,490,30,490c28.52,0,56.004-11.184,76.426-30.891C126.32,465.891,152.277,470,176,470
	c90.016,0,163.898-62.055,169.629-140.223c20.938-0.93,42.715-4.797,59.945-10.668C425.996,338.816,453.48,350,482,350
	c4.047,0,7.691-2.438,9.238-6.172c1.547-3.738,0.691-8.039-2.168-10.898c-15.004-15.004-21.051-36.766-16.07-57.297
	c25.172-26.828,39-60.688,39-95.633C512,93.113,425.16,30,336,30z M176,450c-23.602,0-50.496-4.633-68.512-11.801
	c-3.859-1.539-8.27-0.527-11.078,2.539c-12.074,13.199-27.773,22.402-44.879,26.633c9.426-18.059,11.832-39.348,6.098-59.52
	c-0.453-1.59-1.293-3.043-2.445-4.227C32.496,380.258,20,350.559,20,320c0-70.469,71.438-130,156-130c79.852,0,150,55.527,150,130
	C326,391.684,258.711,450,176,450z M456.816,263.625c-1.152,1.188-1.992,2.641-2.445,4.227c-5.734,20.172-3.328,41.461,6.098,59.52
	c-17.105-4.227-32.805-13.434-44.879-26.633c-2.809-3.063-7.219-4.078-11.078-2.539c-15.613,6.211-37.887,10.512-58.914,11.551
	c-2.922-37.816-21.785-73.359-54.035-99.75H422c5.523,0,10-4.477,10-10s-4.477-10-10-10H260.84
	c-22.699-11.555-48.188-18.293-74.422-19.707C192.164,103.129,257.059,50,336,50c84.563,0,156,59.531,156,130
	C492,210.559,479.504,240.258,456.816,263.625z"/>
<path fill="#FFFFFF" d="M256,290H130c-5.523,0-10,4.477-10,10s4.477,10,10,10h126c5.523,0,10-4.477,10-10S261.523,290,256,290z"/>
<path fill="#FFFFFF" d="M256,350H90c-5.523,0-10,4.477-10,10s4.477,10,10,10h166c5.523,0,10-4.477,10-10S261.523,350,256,350z"/>
<path fill="#FFFFFF" d="M422,130H296c-5.523,0-10,4.477-10,10s4.477,10,10,10h126c5.523,0,10-4.477,10-10S427.523,130,422,130z"/>
</svg>
