<?xml version="1.0" encoding="utf-8"?>
<!-- Generator: Adobe Illustrator 16.0.0, SVG Export Plug-In . SVG Version: 6.00 Build 0)  -->
<!DOCTYPE svg PUBLIC "-//W3C//DTD SVG 1.1//EN" "http://www.w3.org/Graphics/SVG/1.1/DTD/svg11.dtd">
<svg version="1.1" id="Layer_1" xmlns="http://www.w3.org/2000/svg" xmlns:xlink="http://www.w3.org/1999/xlink" x="0px" y="0px"
	 width="512px" height="512px" viewBox="0 0 512 512" enable-background="new 0 0 512 512" xml:space="preserve">
<path fill="#FFFFFF" d="M197.808,409.448c-4.71,0-8.53,3.819-8.53,8.534v8.529c-0.063,14.232,8.752,26.992,22.079,31.977
	c13.33,4.983,28.355,1.136,37.647-9.64c9.291,10.775,24.313,14.623,37.643,9.64c13.33-4.984,22.142-17.744,22.079-31.977v-8.529
	c0-4.715-3.819-8.534-8.53-8.534c-4.714,0-8.533,3.819-8.533,8.534v8.529c0,9.425-7.641,17.064-17.064,17.064
	s-17.064-7.64-17.064-17.064v-27.199c3.004-1.104,5.719-2.882,7.938-5.19l12.771-13.654c4.835-4.952,6.209-12.33,3.476-18.692
	c-3.655-7.62-11.479-12.354-19.927-12.053h-25.578c-8.448-0.301-16.268,4.433-19.923,12.053c-2.73,6.358-1.363,13.736,3.468,18.692
	l12.787,13.654c2.214,2.309,4.925,4.086,7.924,5.19v27.199c0,9.425-7.639,17.064-17.063,17.064c-9.425,0-17.064-7.64-17.064-17.064
	v-8.529C206.342,413.268,202.522,409.448,197.808,409.448z M231.928,368.603c0.102-0.398,1.379-1.816,4.285-1.816h25.578
	c2.91,0,4.184,1.418,3.992,2.02l-12.772,13.65c-2.391,1.726-5.617,1.726-8.007,0L231.928,368.603z"/>
<path fill="#FFFFFF" d="M141.195,320.609c15.186-5.937,27.27-6.64,35.944-2.055c6.05,3.484,10.487,9.214,12.338,15.947
	c1.074,4.523,5.569,7.354,10.112,6.366c4.542-0.984,7.459-5.429,6.562-9.987c-2.914-11.537-10.409-21.387-20.755-27.262
	c-13.275-7.143-30.23-6.775-50.418,1.094c-4.39,1.719-6.558,6.668-4.843,11.058C131.853,320.16,136.801,322.328,141.195,320.609z"/>
<path fill="#FFFFFF" d="M289.881,341.005c2.211,0.469,4.522,0.043,6.421-1.188c1.897-1.233,3.229-3.171,3.702-5.382
	c1.824-6.659,6.195-12.33,12.162-15.795c8.675-4.675,20.825-4.003,36.112,1.961c4.39,1.719,9.343-0.449,11.057-4.839
	c1.719-4.39-0.448-9.343-4.839-11.058c-20.181-7.873-37.139-8.24-50.418-1.098c-10.347,5.879-17.846,15.729-20.755,27.266
	c-0.477,2.211-0.051,4.523,1.175,6.426C285.729,339.197,287.666,340.532,289.881,341.005z"/>
<path fill="#FFFFFF" d="M27.169,332.658c7.765,0.008,15.525,0.496,23.231,1.457c-4.011,13.369-6.089,27.246-6.167,41.205v0.074
	c-7.69,2.27-15.025,5.601-21.797,9.889c-2.566,1.68-4.035,4.605-3.847,7.668c0.188,3.062,2.003,5.783,4.757,7.135
	s6.019,1.121,8.558-0.602c4.288-2.741,8.893-4.96,13.713-6.607c1.496,10.361,4.464,20.457,8.819,29.979
	c-15.798,10.357-25.875,27.477-27.266,46.317c0,26.313,26.152,42.658,68.256,42.658c18.989,1.167,37.854-3.805,53.801-14.178
	c32.354,9.74,65.994,14.521,99.778,14.178c33.784,0.344,67.424-4.438,99.774-14.178c15.947,10.373,34.812,15.345,53.801,14.178
	c42.104,0,68.256-16.346,68.256-42.658c-1.387-18.841-11.467-35.96-27.266-46.317c4.354-9.522,7.323-19.618,8.819-29.979
	c4.819,1.647,9.424,3.866,13.717,6.607c2.534,1.723,5.8,1.953,8.553,0.602c2.754-1.352,4.57-4.073,4.762-7.135
	c0.188-3.063-1.281-5.988-3.852-7.668c-6.772-4.288-14.107-7.619-21.798-9.889v-0.074c-0.074-13.959-2.151-27.836-6.167-41.205
	c7.706-0.961,15.467-1.445,23.231-1.457c4.714,0,8.534-3.819,8.534-8.529c0-4.715-3.82-8.534-8.534-8.534
	c-9.737,0.004-19.462,0.691-29.105,2.054c-3.585-8.791-7.831-17.302-12.693-25.457c5.612-18.22,27.602-94.876,8.647-121.017
	c-4.027-5.831-10.698-9.264-17.783-9.155c-12.705,0.968-25.059,4.632-36.236,10.748c-21.829-30.854-60.319-52.531-104.191-59.495
	c-0.145-11.623-1.605-23.192-4.352-34.491c-1.914-9.467,1.598-19.216,9.107-25.293c10.644-7.171,28.023,3.925,34.996,9.022
	c7.381,5.48,17.13,6.581,25.547,2.886c8.416-3.69,14.209-11.615,15.169-20.758c0.965-9.14-3.05-18.095-10.51-23.461
	c-46.829-34.272-81.133-18.615-93.764-10.256c-25.325,18.06-37.26,49.614-30.226,79.914c1.695,6.921,2.679,13.994,2.929,21.114
	c-47.95,5.085-90.608,27.637-114.011,60.761c-11.108-6.069-23.379-9.713-35.999-10.689c-7.097-0.109-13.783,3.332-17.822,9.167
	c-18.88,26.031,3,102.465,8.597,120.658c-4.937,8.261-9.241,16.885-12.874,25.797c-9.639-1.358-19.36-2.042-29.093-2.046
	c-4.714,0-8.534,3.819-8.534,8.534C18.635,328.839,22.455,332.658,27.169,332.658z M44.233,469.174
	c0-19.204,23.622-42.662,51.192-42.662c27.57,0,51.191,23.458,51.191,42.662c0,12.42-11.475,19.552-26.359,22.996
	c0.488-1.94,0.746-3.933,0.766-5.933v-17.063c0-4.714-3.82-8.534-8.534-8.534c-4.71,0-8.53,3.82-8.53,8.534v17.063
	c0,4.711-3.82,8.53-8.534,8.53c-4.71,0-8.534-3.819-8.534-8.53v-17.063c0-4.714-3.82-8.534-8.53-8.534
	c-4.714,0-8.534,3.82-8.534,8.534v17.063c0.02,2,0.277,3.992,0.766,5.933C55.708,488.726,44.233,481.594,44.233,469.174z
	 M453.771,469.174c0,12.42-11.475,19.552-26.355,22.996c0.484-1.94,0.742-3.933,0.762-5.933v-17.063
	c0-4.714-3.819-8.534-8.534-8.534c-4.71,0-8.529,3.82-8.529,8.534v17.063c0,4.711-3.82,8.53-8.534,8.53
	c-4.71,0-8.53-3.819-8.53-8.53v-17.063c0-4.714-3.819-8.534-8.533-8.534c-4.711,0-8.53,3.82-8.53,8.534v17.063
	c0.02,2,0.273,3.992,0.762,5.933c-14.885-3.444-26.359-10.576-26.359-22.996c0-19.204,23.621-42.662,51.191-42.662
	S453.771,449.978,453.771,469.174z M242.013,86.772c-5.479-23.34,3.652-47.685,23.13-61.659c11.924-7.885,37.4-17.106,74.215,9.839
	c2.461,1.8,3.777,4.772,3.449,7.807c-0.324,3.031-2.246,5.656-5.034,6.89c-2.785,1.234-6.022,0.883-8.483-0.914
	c-21.188-15.494-40.568-18.833-54.559-9.425c-13.459,10.073-19.79,27.086-16.189,43.505c2.293,9.346,3.594,18.908,3.891,28.523
	c-4.449-0.305-8.917-0.516-13.428-0.516c-1.211,0-2.406,0.082-3.613,0.105C245.083,102.782,243.95,94.689,242.013,86.772z
	 M249.004,127.888c49.738,0,95.482,20.54,119.459,52.941c-11.436,6.472-24.055,14.486-38.029,24.282
	c-51.742-23.208-110.925-23.235-162.688-0.074c-14.045-9.799-26.711-17.814-38.166-24.278
	C153.494,148.4,199.218,127.888,249.004,127.888z M86.551,290.34c-15.638-47.887-21.114-96.837-12.201-109.132
	c0.84-1.402,2.382-2.218,4.011-2.125c12.174,1.352,23.895,5.394,34.312,11.831c0.074,0.047,0.109,0.121,0.183,0.168
	c0.277,0.137,0.563,0.258,0.852,0.363c16.708,9.061,32.808,19.2,48.196,30.351c2.511,1.781,5.784,2.07,8.565,0.754
	c49.719-23.747,107.516-23.719,157.211,0.074c2.793,1.332,6.089,1.046,8.608-0.754c38.213-27.191,68.693-42.787,83.612-42.787
	c1.609-0.089,3.137,0.723,3.965,2.105c8.959,12.357,3.46,61.472-12.248,109.483c-0.789,2.406-0.469,5.035,0.875,7.18
	c4.585,7.354,8.615,15.037,12.068,22.98c-18.81,3.93-36.698,11.42-52.695,22.067c-3.676,2.851-4.387,8.12-1.602,11.846
	c2.784,3.726,8.042,4.534,11.814,1.816c14.822-9.511,31.3-16.146,48.575-19.563c3.448,11.045,5.425,22.5,5.878,34.064
	c-14.014-2.644-28.227-4.073-42.482-4.276c-4.714,0-8.533,3.819-8.533,8.534c0,4.71,3.819,8.529,8.533,8.529
	c14.053,0.25,28.059,1.746,41.846,4.469c-1.129,9.065-3.577,17.915-7.269,26.273c-8.269-3.382-17.114-5.128-26.047-5.144
	c-38.443,0-68.256,32.104-68.256,59.726c-0.031,4.886,0.973,9.725,2.941,14.201c-28.758,7.831-58.456,11.666-88.261,11.393
	c-29.804,0.273-59.503-3.562-88.265-11.393c1.969-4.477,2.972-9.315,2.941-14.201c0-27.621-29.812-59.726-68.255-59.726
	c-8.933,0.016-17.779,1.762-26.047,5.144c-3.69-8.358-6.14-17.208-7.268-26.273c13.791-2.723,27.792-4.219,41.849-4.469
	c4.71,0,8.53-3.819,8.53-8.529c0-4.715-3.82-8.534-8.53-8.534c-14.26,0.203-28.476,1.633-42.486,4.276
	c0.449-11.561,2.425-23.016,5.874-34.061c17.275,3.413,33.753,10.049,48.575,19.56c3.772,2.714,9.03,1.909,11.814-1.816
	c2.789-3.722,2.078-8.995-1.597-11.846c-16.002-10.651-33.89-18.142-52.708-22.071c3.496-8.064,7.589-15.861,12.249-23.313
	C87.02,295.371,87.34,292.742,86.551,290.34z"/>
</svg>
