<?xml version="1.0" encoding="utf-8"?>
<!-- Generator: Adobe Illustrator 16.0.0, SVG Export Plug-In . SVG Version: 6.00 Build 0)  -->
<!DOCTYPE svg PUBLIC "-//W3C//DTD SVG 1.1//EN" "http://www.w3.org/Graphics/SVG/1.1/DTD/svg11.dtd">
<svg version="1.1" id="Layer_1" xmlns="http://www.w3.org/2000/svg" xmlns:xlink="http://www.w3.org/1999/xlink" x="0px" y="0px"
	 width="512px" height="512px" viewBox="0 0 512 512" enable-background="new 0 0 512 512" xml:space="preserve">
<g>
	<g>
		<path fill="none" stroke="#FFFFFF" d="M256.32,512.64c-84.267,0-168.534-0.012-252.8,0.062c-2.4,0.002-2.94-0.541-2.94-2.94
			c0.066-168.747,0.066-337.493,0-506.24c0-2.399,0.541-2.94,2.94-2.94c168.747,0.066,337.493,0.066,506.24,0
			c2.399,0,2.94,0.541,2.94,2.94c-0.066,168.747-0.066,337.493,0,506.24c0,2.399-0.541,2.942-2.94,2.94
			C425.28,512.628,340.8,512.64,256.32,512.64z M430.305,471.263c3.396,5.078,7.674,9.79,6.641,16.604
			c-0.316,2.085-0.18,4.271-0.004,6.389c0.155,1.886,0.349,3.866,1.057,5.585c1.608,3.9,5.709,5.579,10.455,4.622
			c3.532-0.713,6.17-4.165,6.16-8.234c-0.018-7.514-0.202-14.716,4.219-21.728c8.092-12.832,15.277-26.242,22.604-39.543
			c2.352-4.267,5.889-7.963,5.885-13.465c-0.069-130.026-0.052-260.053-0.059-390.08c-0.001-11.767-10.946-22.662-22.749-22.675
			c-12.053-0.014-24.105,0.002-36.16-0.004c-9.447-0.005-16.229,4.583-20.622,12.605c-1.473,2.689-3.05,3.458-5.931,3.451
			c-40.105-0.083-80.213-0.056-120.319-0.056c-7.059,0-7.059,0-7.342-7.176c-0.014-0.32,0.002-0.643-0.035-0.959
			c-0.556-4.677-3.75-7.848-8.071-7.852c-25.28-0.021-50.56-0.02-75.84,0c-3.768,0.003-6.356,2.147-7.375,5.814
			c-0.519,1.868-0.67,3.748-0.655,5.677c0.036,4.489,0.003,4.494-4.56,4.494c-48.426,0.001-96.853-0.005-145.279,0.007
			c-6.232,0.002-5.659-0.558-5.659,5.692c-0.009,156.16-0.007,312.32-0.007,468.479c0,0.96,0.069,1.925-0.002,2.88
			c-0.157,2.104,0.847,2.888,2.856,2.757c1.168-0.075,2.346-0.006,3.519-0.005c79.68,0,159.36,0,239.041,0
			c51.094,0,102.187,0.001,153.278-0.001c4.948,0,4.954-0.007,4.956-4.807C430.308,490.245,430.305,480.754,430.305,471.263z"/>
		<path fill="#FFFFFF" stroke="#FFFFFF" d="M430.305,471.263c0,9.491,0.003,18.982-0.001,28.476c-0.002,4.8-0.008,4.807-4.956,4.807
			c-51.093,0.002-102.186,0.001-153.279,0.001c-79.679,0-159.359,0-239.04,0c-1.173-0.001-2.351-0.07-3.519,0.005
			c-2.009,0.131-3.014-0.652-2.856-2.757c0.071-0.955,0.002-1.92,0.002-2.88c0-156.159-0.002-312.319,0.007-468.479
			c0-6.25-0.573-5.69,5.659-5.692c48.426-0.012,96.853-0.006,145.279-0.007c4.563,0,4.596-0.005,4.56-4.494
			c-0.016-1.93,0.136-3.81,0.655-5.677c1.019-3.667,3.607-5.811,7.375-5.814c25.28-0.021,50.56-0.021,75.84,0
			c4.322,0.004,7.517,3.174,8.072,7.852c0.037,0.316,0.021,0.639,0.035,0.959c0.282,7.176,0.282,7.176,7.34,7.176
			c40.107,0,80.215-0.027,120.32,0.056c2.881,0.006,4.458-0.762,5.93-3.451c4.394-8.021,11.176-12.611,20.623-12.604
			c12.055,0.006,24.107-0.009,36.16,0.004c11.803,0.014,22.748,10.908,22.749,22.675c0.007,130.026-0.012,260.054,0.059,390.08
			c0.004,5.502-3.533,9.198-5.885,13.465c-7.325,13.301-14.512,26.711-22.604,39.543c-4.421,7.012-4.235,14.214-4.219,21.729
			c0.01,4.068-2.628,7.521-6.16,8.233c-4.746,0.957-8.847-0.722-10.455-4.622c-0.708-1.719-0.9-3.698-1.057-5.585
			c-0.176-2.118-0.313-4.304,0.004-6.389C437.979,481.053,433.699,476.341,430.305,471.263z M371.615,264.957
			c0-31.997,0-63.994,0-95.991c0-27.091-0.035-54.182,0.053-81.272c0.008-2.742-0.691-3.729-3.577-3.689
			c-10.982,0.152-21.97,0.107-32.955,0.025c-2.332-0.017-3.502,0.433-3.453,3.154c0.094,5.192-0.063,5.2-5.345,5.201
			c-65.381,0.001-130.762,0.001-196.142,0c-4.924,0-5.09-0.012-4.919-4.778c0.103-2.87-0.906-3.633-3.673-3.597
			c-10.771,0.138-21.544,0.055-32.316,0.056c-4.576,0.001-4.582,0.004-4.582,4.488c-0.001,117.643-0.001,235.286,0,352.928
			c0,4.365,0.007,4.371,4.376,4.371c92.685,0.003,185.37,0.003,278.055,0.002c4.474-0.002,4.478-0.007,4.478-4.594
			C371.615,382.494,371.615,323.725,371.615,264.957z M43.745,264.699c0,72.74,0,145.479,0.001,218.221
			c0,4.529,0.004,4.534,4.534,4.534c66.234,0.001,132.468,0.001,198.702,0.001c53.756,0,107.511,0.001,161.266-0.001
			c4.32,0,4.325-0.007,4.326-4.423c0.002-13.119-0.089-26.238,0.06-39.356c0.041-3.576-0.767-6.65-2.781-9.577
			c-3.991-5.794-5.766-11.979-5.753-19.31c0.219-122.122,0.155-244.244,0.155-366.367c0-0.96-0.087-1.93,0.015-2.878
			c0.262-2.395-0.78-3.123-3.129-3.115c-22.078,0.066-44.155,0.079-66.232-0.014c-2.659-0.011-3.255,1.008-3.201,3.401
			c0.125,5.65,0.178,11.31-0.02,16.956c-0.099,2.838,0.852,3.641,3.646,3.621c16.317-0.116,32.637-0.06,48.955-0.054
			c4.396,0.002,4.413,0.015,4.413,4.386c0.003,129.481,0.003,258.963,0,388.444c0,4.398-0.016,4.414-4.385,4.414
			c-104.099,0.004-208.195,0.004-312.292,0c-4.393,0-4.408-0.015-4.408-4.392c-0.003-129.481-0.003-258.963,0-388.445
			c0-4.392,0.015-4.406,4.392-4.408c16.639-0.006,33.277-0.044,49.916,0.041c2.474,0.013,3.416-0.682,3.339-3.265
			c-0.165-5.542-0.246-11.101,0.024-16.634c0.163-3.328-0.991-4.1-4.173-4.083c-24.211,0.125-48.422,0.068-72.633,0.069
			c-4.732,0-4.736,0.003-4.736,4.653C43.745,119.646,43.745,192.172,43.745,264.699z M421.985,264.961
			c0,48.105,0.024,96.213-0.061,144.318c-0.006,3.026,0.773,4.041,3.916,4.005c13.545-0.162,27.093-0.155,40.64-0.003
			c3.02,0.034,3.75-0.959,3.747-3.843c-0.063-96.319-0.063-192.64,0-288.958c0.003-2.886-0.731-3.875-3.75-3.841
			c-13.332,0.153-26.666,0.064-39.999,0.066c-4.488,0.001-4.493,0.006-4.493,4.576C421.985,169.175,421.985,217.068,421.985,264.961
			z M228.182,74.654c27.399,0,54.798-0.034,82.196,0.053c2.729,0.008,3.758-0.665,3.698-3.564
			c-0.174-8.526-0.128-17.058-0.021-25.585c0.03-2.373-0.77-3.152-3.137-3.133c-11.193,0.093-22.389,0.113-33.581-0.011
			c-2.616-0.029-3.284,0.933-3.233,3.369c0.127,6.18-0.037,12.367,0.074,18.548c0.043,2.383-0.865,3.128-3.182,3.124
			c-28.572-0.053-57.144-0.054-85.715,0c-2.365,0.005-3.176-0.833-3.138-3.167c0.105-6.288-0.034-12.58,0.066-18.869
			c0.034-2.202-0.707-3.004-2.95-2.988c-11.3,0.079-22.602,0.091-33.901-0.007c-2.417-0.021-3.12,0.855-3.091,3.177
			c0.102,8.314,0.177,16.635-0.032,24.944c-0.08,3.176,0.748,4.2,4.07,4.185C173.597,74.597,200.889,74.655,228.182,74.654z
			 M446.09,66.334c6.927,0,13.856-0.083,20.781,0.044c2.454,0.045,3.392-0.649,3.354-3.247c-0.133-9.377-0.023-18.757-0.063-28.136
			c-0.022-5.481-3.019-8.962-8.501-9.081c-10.546-0.228-21.104-0.19-31.65-0.021c-4.998,0.08-7.996,3.479-8.014,8.481
			c-0.033,9.485,0.093,18.973-0.074,28.455c-0.051,2.905,0.979,3.625,3.705,3.559C432.445,66.225,439.269,66.334,446.09,66.334z
			 M228.178,25.827c-8.426,0-16.853,0.05-25.278-0.034c-2.157-0.021-3.075,0.617-3.032,2.908c0.114,5.971,0.125,11.947-0.004,17.917
			c-0.052,2.4,0.822,3.125,3.164,3.114c16.745-0.074,33.49-0.072,50.235-0.001c2.304,0.01,3.249-0.638,3.193-3.077
			c-0.135-5.863-0.152-11.734,0.007-17.596c0.069-2.565-0.836-3.315-3.329-3.279C244.817,25.903,236.498,25.826,228.178,25.827z
			 M445.794,84.067c-6.934,0-13.867,0.056-20.799-0.033c-2.143-0.027-3.146,0.583-3.043,2.894c0.142,3.193,0.087,6.399,0.021,9.598
			c-0.036,1.781,0.705,2.465,2.476,2.461c14.398-0.033,28.799-0.041,43.196,0.007c2.007,0.006,2.596-0.876,2.549-2.721
			c-0.079-3.091-0.119-6.19,0.014-9.277c0.096-2.234-0.757-2.995-2.974-2.964C460.088,84.128,452.94,84.067,445.794,84.067z
			 M446.145,430.305c-4.157,0-8.315,0-12.475,0c-5.178,0-5.28,0.059-2.778,4.584c4.569,8.27,9.291,16.452,13.904,24.696
			c0.687,1.223,1.247,1.818,2.138,0.256c5.205-9.127,10.385-18.27,15.611-27.384c1.003-1.75,0.452-2.193-1.367-2.172
			C456.167,430.345,451.155,430.307,446.145,430.305z"/>
		<path fill="none" stroke="#FFFFFF" d="M371.615,264.957c0,58.768,0,117.537-0.001,176.305c0,4.587-0.004,4.592-4.478,4.594
			c-92.686,0.001-185.37,0.001-278.055-0.002c-4.37,0-4.376-0.006-4.376-4.371c-0.001-117.644-0.001-235.286,0-352.929
			c0-4.483,0.005-4.486,4.582-4.488c10.772-0.001,21.545,0.082,32.316-0.056c2.768-0.036,3.776,0.727,3.673,3.597
			c-0.171,4.766-0.005,4.777,4.919,4.778c65.38,0.001,130.761,0.001,196.142,0c5.28,0,5.438-0.009,5.345-5.201
			c-0.049-2.721,1.121-3.171,3.453-3.154c10.985,0.082,21.973,0.127,32.955-0.025c2.886-0.04,3.585,0.947,3.577,3.689
			c-0.088,27.09-0.053,54.182-0.053,81.272C371.615,200.963,371.615,232.96,371.615,264.957z M152.44,359.874
			c-3.228-1.622-5.48-4.031-7.927-6.144c-2.518-2.172-5.139-3.696-8.636-3.229c-3.174,0.425-6.708,3.284-7.703,6.385
			c-1.02,3.179-0.292,6.074,2.114,8.152c7.789,6.726,15.705,13.308,23.65,19.847c2.993,2.465,6.561,2.614,9.942,1.092
			c2.727-1.229,4.415-3.586,4.644-6.756c0.422-5.818,0.744-11.646,1.322-17.447c1.326-13.293,5.898-24.709,18.314-31.68
			c4.225-2.373,5.166-6.982,2.796-11.359c-2.085-3.854-7.061-5.838-10.909-4.149c-9.799,4.295-16.515,11.656-20.995,21.259
			C155.531,343.393,153.613,351.377,152.44,359.874z M170.649,166.625c11.398,0,22.796-0.021,34.193,0.021
			c1.83,0.007,3.595-0.215,5.345-0.69c3.846-1.043,6.73-5.265,6.316-9.243c-0.469-4.51-3.758-7.683-8.209-7.795
			c-3.087-0.079-6.178-0.022-9.267-0.022c-21.838,0-43.675-0.011-65.512,0.011c-4.995,0.005-8.229,3.207-8.298,8.076
			c-0.091,6.322,3.205,9.588,9.959,9.623C147,166.665,158.825,166.622,170.649,166.625z M247.996,370.145
			c7.609-0.002,11.561-6.22,8.41-12.707c-3.57-7.351-13.304-11.738-21.637-9.826c-5.03,1.154-9.577,3.449-14.103,5.796
			c-2.188,1.135-4.461,2.046-6.824,2.64c-4.832,1.215-8.239-0.859-11.845-6.971c-2.234-3.786-5.416-5.21-9.418-4.213
			c-3.831,0.953-6.541,4.346-6.546,8.422c-0.011,7.785,5.165,12.521,10.802,16.281c10.479,6.99,21.368,6.548,31.952-0.196
			c2.262-1.442,4.677-2.478,7.092-3.582c2.38-1.088,4.189-0.929,5.835,1.295C243.313,369.241,245.451,370.579,247.996,370.145z
			 M269.445,224.223c9.277,0,18.554,0.013,27.828-0.007c3.35-0.007,6.343-0.876,8.199-3.96c3.893-6.468-0.324-13.717-8.082-13.741
			c-18.766-0.056-37.531-0.033-56.295-0.01c-5.441,0.006-9.281,3.683-9.325,8.798c-0.043,5.202,3.877,8.9,9.528,8.914
			C250.681,224.241,260.063,224.224,269.445,224.223z M195.192,281.82c9.808,0,19.616,0.035,29.423-0.014
			c4.657-0.024,7.582-3.188,7.974-7.752c0.61-7.131-4.02-9.783-9.6-9.918c-6.606-0.156-13.219-0.043-19.828-0.041
			c-11.94,0-23.881-0.066-35.819,0.036c-5.826,0.05-9.551,3.864-9.48,9.308c0.066,5.112,3.743,8.373,9.507,8.381
			C176.643,281.834,185.917,281.824,195.192,281.82z M154.248,224.224c6.604,0,13.208,0.019,19.813-0.005
			c5.668-0.021,9.183-3.337,9.204-8.627c0.023-5.621-3.376-9.076-9.059-9.087c-13.314-0.026-26.629-0.026-39.944,0
			c-5.567,0.011-9.038,3.426-9.044,8.783c-0.007,5.571,3.416,8.91,9.22,8.931C141.04,224.243,147.644,224.224,154.248,224.224z
			 M216.533,215.257c-0.053-5.009-4.122-8.835-9.292-8.74c-4.64,0.085-8.471,4.164-8.414,8.957c0.058,4.905,4.045,8.793,8.961,8.738
			C212.696,224.158,216.585,220.175,216.533,215.257z M339.425,215.272c0.752-5.39-4.424-8.64-8.439-8.743
			c-5.035-0.128-8.679,3.691-8.646,8.958c0.03,5.043,3.639,8.731,8.542,8.731C335.902,224.218,339.432,220.522,339.425,215.272z
			 M133.663,264.736c-5.668-0.022-8.418,2.558-8.447,7.926c-0.031,5.71,3.023,9.14,8.156,9.158c5.492,0.021,8.924-3.245,8.931-8.498
			C142.311,267.648,139.401,264.759,133.663,264.736z"/>
		<path fill="none" stroke="#FFFFFF" d="M43.745,264.699c0-72.527,0-145.054,0-217.581c0-4.65,0.004-4.653,4.736-4.653
			c24.211-0.001,48.422,0.056,72.633-0.069c3.182-0.017,4.336,0.755,4.173,4.083c-0.271,5.533-0.189,11.092-0.024,16.634
			c0.077,2.583-0.866,3.277-3.339,3.265c-16.638-0.085-33.277-0.047-49.916-0.041c-4.377,0.002-4.392,0.016-4.392,4.408
			c-0.003,129.482-0.003,258.964,0,388.445c0,4.377,0.015,4.392,4.408,4.392c104.097,0.004,208.194,0.004,312.292,0
			c4.369,0,4.385-0.016,4.385-4.414c0.003-129.48,0.003-258.963,0-388.444c0-4.371-0.017-4.384-4.413-4.386
			c-16.318-0.006-32.638-0.062-48.955,0.054c-2.796,0.02-3.745-0.782-3.646-3.621c0.195-5.646,0.144-11.306,0.019-16.956
			c-0.054-2.394,0.542-3.413,3.201-3.401c22.077,0.093,44.155,0.08,66.232,0.014c2.349-0.008,3.391,0.72,3.129,3.115
			c-0.102,0.949-0.015,1.918-0.015,2.878c0,122.123,0.063,244.245-0.155,366.367c-0.013,7.329,1.762,13.516,5.753,19.31
			c2.016,2.927,2.822,6.001,2.781,9.577c-0.147,13.118-0.058,26.237-0.06,39.356c-0.001,4.416-0.006,4.423-4.326,4.423
			c-53.755,0.002-107.511,0.001-161.266,0.001c-66.234,0-132.468,0-198.702-0.001c-4.53,0-4.534-0.005-4.534-4.534
			C43.745,410.18,43.745,337.439,43.745,264.699z"/>
		<path fill="none" stroke="#FFFFFF" d="M421.985,264.961c0-47.893,0-95.786,0-143.679c0-4.57,0.005-4.575,4.493-4.576
			c13.333-0.002,26.667,0.087,39.999-0.066c3.019-0.035,3.753,0.955,3.75,3.841c-0.063,96.319-0.063,192.639,0,288.958
			c0.003,2.884-0.729,3.877-3.747,3.843c-13.547-0.152-27.095-0.159-40.64,0.003c-3.143,0.036-3.922-0.979-3.916-4.005
			C422.011,361.174,421.985,313.066,421.985,264.961z"/>
		<path fill="none" stroke="#FFFFFF" d="M228.182,74.654c-27.292,0-54.585-0.058-81.876,0.076c-3.323,0.016-4.15-1.008-4.07-4.185
			c0.209-8.31,0.134-16.63,0.032-24.944c-0.028-2.322,0.674-3.198,3.091-3.177c11.3,0.098,22.602,0.086,33.901,0.007
			c2.243-0.016,2.984,0.787,2.95,2.988c-0.1,6.289,0.039,12.581-0.066,18.869c-0.039,2.334,0.773,3.172,3.138,3.167
			c28.572-0.055,57.143-0.053,85.715,0c2.315,0.004,3.226-0.741,3.183-3.124c-0.111-6.181,0.053-12.368-0.074-18.548
			c-0.051-2.437,0.615-3.398,3.232-3.369c11.193,0.124,22.389,0.104,33.581,0.011c2.367-0.019,3.167,0.76,3.137,3.133
			c-0.105,8.527-0.151,17.059,0.021,25.585c0.06,2.899-0.971,3.572-3.698,3.564C282.98,74.621,255.581,74.654,228.182,74.654z"/>
		<path fill="none" stroke="#FFFFFF" d="M446.09,66.334c-6.821,0-13.645-0.11-20.462,0.054c-2.726,0.066-3.756-0.654-3.705-3.559
			c0.167-9.482,0.041-18.97,0.074-28.455c0.018-5.002,3.016-8.401,8.014-8.481c10.548-0.169,21.104-0.207,31.65,0.021
			c5.482,0.118,8.479,3.6,8.501,9.081c0.039,9.378-0.069,18.759,0.063,28.136c0.037,2.598-0.899,3.292-3.354,3.247
			C459.946,66.251,453.017,66.334,446.09,66.334z"/>
		<path fill="none" stroke="#FFFFFF" d="M228.178,25.827c8.319,0,16.639,0.077,24.957-0.047c2.493-0.037,3.398,0.713,3.329,3.279
			c-0.159,5.862-0.142,11.733-0.007,17.596c0.057,2.438-0.89,3.087-3.193,3.077c-16.745-0.071-33.491-0.073-50.235,0.001
			c-2.342,0.011-3.216-0.714-3.164-3.114c0.129-5.97,0.119-11.946,0.004-17.917c-0.043-2.291,0.875-2.929,3.032-2.908
			C211.326,25.876,219.752,25.827,228.178,25.827z"/>
		<path fill="none" stroke="#FFFFFF" d="M445.794,84.067c7.146,0,14.294,0.061,21.438-0.036c2.217-0.031,3.068,0.729,2.974,2.964
			c-0.133,3.087-0.093,6.186-0.014,9.277c0.047,1.845-0.542,2.728-2.549,2.721c-14.397-0.048-28.798-0.041-43.196-0.007
			c-1.771,0.004-2.512-0.681-2.476-2.461c0.066-3.199,0.121-6.404-0.021-9.598c-0.103-2.311,0.9-2.921,3.043-2.894
			C431.927,84.123,438.86,84.067,445.794,84.067z"/>
		<path fill="none" stroke="#FFFFFF" d="M446.145,430.306c5.012,0.001,10.022,0.039,15.033-0.021
			c1.819-0.021,2.37,0.422,1.367,2.172c-5.228,9.114-10.406,18.257-15.611,27.384c-0.891,1.563-1.451,0.967-2.138-0.256
			c-4.613-8.244-9.335-16.428-13.904-24.696c-2.502-4.525-2.398-4.584,2.778-4.584C437.828,430.305,441.986,430.305,446.145,430.306
			z"/>
		<path fill="#FFFFFF" stroke="#FFFFFF" d="M152.44,359.874c1.173-8.497,3.09-16.481,6.613-24.031
			c4.48-9.603,11.196-16.964,20.995-21.259c3.848-1.688,8.824,0.296,10.909,4.148c2.369,4.377,1.429,8.987-2.796,11.359
			c-12.416,6.971-16.989,18.389-18.314,31.68c-0.578,5.803-0.9,11.631-1.322,17.447c-0.229,3.17-1.917,5.528-4.644,6.758
			c-3.381,1.521-6.949,1.371-9.942-1.093c-7.945-6.54-15.861-13.121-23.65-19.847c-2.407-2.078-3.134-4.975-2.114-8.152
			c0.995-3.102,4.528-5.96,7.703-6.385c3.498-0.467,6.119,1.059,8.636,3.23C146.96,355.843,149.213,358.252,152.44,359.874z"/>
		<path fill="#FFFFFF" stroke="#FFFFFF" d="M170.649,166.623c-11.824-0.001-23.648,0.042-35.472-0.018
			c-6.754-0.035-10.05-3.301-9.959-9.623c0.07-4.87,3.304-8.071,8.298-8.076c21.837-0.021,43.674-0.011,65.512-0.011
			c3.088,0,6.18-0.057,9.267,0.022c4.451,0.113,7.74,3.286,8.209,7.795c0.414,3.978-2.471,8.2-6.316,9.243
			c-1.75,0.475-3.515,0.697-5.345,0.69C193.445,166.604,182.047,166.625,170.649,166.623z"/>
		<path fill="#FFFFFF" stroke="#FFFFFF" d="M247.996,370.145c-2.545,0.436-4.683-0.902-6.281-3.063
			c-1.646-2.223-3.455-2.383-5.835-1.295c-2.415,1.105-4.83,2.14-7.092,3.582c-10.584,6.744-21.473,7.188-31.952,0.195
			c-5.637-3.76-10.813-8.494-10.802-16.28c0.005-4.076,2.715-7.468,6.546-8.423c4.002-0.996,7.184,0.428,9.418,4.214
			c3.605,6.11,7.013,8.187,11.845,6.971c2.363-0.594,4.636-1.505,6.824-2.64c4.525-2.348,9.073-4.643,14.103-5.797
			c8.333-1.911,18.067,2.478,21.637,9.826C259.557,363.925,255.604,370.143,247.996,370.145z"/>
		<path fill="#FFFFFF" stroke="#FFFFFF" d="M269.445,224.223c-9.383,0-18.764,0.018-28.146-0.006
			c-5.651-0.014-9.572-3.711-9.528-8.914c0.043-5.115,3.884-8.792,9.325-8.798c18.765-0.023,37.531-0.046,56.294,0.01
			c7.76,0.024,11.976,7.272,8.082,13.741c-1.855,3.083-4.85,3.953-8.197,3.96C287.999,224.236,278.723,224.223,269.445,224.223z"/>
		<path fill="#FFFFFF" stroke="#FFFFFF" d="M195.192,281.823c-9.275,0.001-18.549,0.011-27.824-0.003
			c-5.764-0.008-9.441-3.269-9.507-8.381c-0.071-5.442,3.655-9.258,9.48-9.308c11.938-0.103,23.879-0.036,35.819-0.036
			c6.609-0.002,13.222-0.115,19.828,0.041c5.58,0.135,10.21,2.787,9.6,9.918c-0.392,4.563-3.316,7.728-7.974,7.752
			C214.808,281.855,205,281.82,195.192,281.823z"/>
		<path fill="#FFFFFF" stroke="#FFFFFF" d="M154.248,224.224c-6.604,0-13.208,0.019-19.812-0.005
			c-5.804-0.021-9.227-3.36-9.22-8.931c0.007-5.357,3.477-8.772,9.044-8.783c13.315-0.026,26.63-0.026,39.944,0
			c5.683,0.011,9.083,3.466,9.059,9.087c-0.021,5.29-3.535,8.606-9.204,8.627C167.456,224.243,160.852,224.224,154.248,224.224z"/>
		<path fill="#FFFFFF" stroke="#FFFFFF" d="M216.533,215.257c0.052,4.917-3.837,8.9-8.745,8.955
			c-4.916,0.056-8.903-3.833-8.961-8.738c-0.057-4.793,3.773-8.872,8.414-8.957C212.411,206.422,216.48,210.249,216.533,215.257z"/>
		<path fill="#FFFFFF" stroke="#FFFFFF" d="M339.425,215.272c0.007,5.25-3.521,8.946-8.544,8.946c-4.903,0-8.512-3.688-8.542-8.731
			c-0.032-5.267,3.61-9.086,8.646-8.958C335.001,206.632,340.177,209.882,339.425,215.272z"/>
		<path fill="#FFFFFF" d="M133.663,264.736c5.738,0.021,8.647,2.912,8.64,8.586c-0.007,5.253-3.439,8.521-8.931,8.498
			c-5.133-0.02-8.187-3.448-8.156-9.158C125.245,267.294,127.995,264.714,133.663,264.736z"/>
	</g>
</g>
</svg>
