<?xml version="1.0" encoding="utf-8"?>
<!-- Generator: Adobe Illustrator 16.0.0, SVG Export Plug-In . SVG Version: 6.00 Build 0)  -->
<!DOCTYPE svg PUBLIC "-//W3C//DTD SVG 1.1//EN" "http://www.w3.org/Graphics/SVG/1.1/DTD/svg11.dtd">
<svg version="1.1" id="Layer_1" xmlns="http://www.w3.org/2000/svg" xmlns:xlink="http://www.w3.org/1999/xlink" x="0px" y="0px"
	 width="512px" height="512px" viewBox="0 0 512 512" enable-background="new 0 0 512 512" xml:space="preserve">
<g id="Measuring_tape">
	<path fill="#FFFFFF" d="M376,128c-70.658,0.084-127.916,57.342-128,128v56H24v-24c0-4.418-3.582-8-8-8s-8,3.582-8,8v88
		c0,4.418,3.582,8,8,8h360c70.692,0,128-57.308,128-128S446.692,128,376,128z M24,328h24v16c0,4.418,3.582,8,8,8s8-3.582,8-8v-16h24
		v8c0,4.418,3.582,8,8,8s8-3.582,8-8v-8h24v16c0,4.418,3.582,8,8,8s8-3.582,8-8v-16h24v8c0,4.418,3.582,8,8,8s8-3.582,8-8v-8h24v16
		c0,4.418,3.582,8,8,8s8-3.582,8-8v-16h24v40H24V328z M376,368H264V256c0-61.856,50.145-112,112-112s112,50.144,112,112
		C488,317.855,437.855,368,376,368z"/>
	<path fill="#FFFFFF" d="M376,192c-35.347,0-64,28.654-64,64c0,35.346,28.653,64,64,64s64-28.654,64-64
		C439.96,220.67,411.33,192.04,376,192z M376,304c-26.51,0-48-21.49-48-48s21.49-48,48-48s48,21.49,48,48
		C423.974,282.498,402.499,303.974,376,304z"/>
	<path fill="#FFFFFF" d="M368,336h-48c-4.418,0-8,3.582-8,8s3.582,8,8,8h48c4.418,0,8-3.582,8-8S372.418,336,368,336z"/>
	<path fill="#FFFFFF" d="M296,336h-8c-4.418,0-8,3.582-8,8s3.582,8,8,8h8c4.418,0,8-3.582,8-8S300.418,336,296,336z"/>
</g>
</svg>
