<?xml version="1.0" encoding="utf-8"?>
<!-- Generator: Adobe Illustrator 16.0.0, SVG Export Plug-In . SVG Version: 6.00 Build 0)  -->
<!DOCTYPE svg PUBLIC "-//W3C//DTD SVG 1.1//EN" "http://www.w3.org/Graphics/SVG/1.1/DTD/svg11.dtd">
<svg version="1.1" id="Capa_1" xmlns="http://www.w3.org/2000/svg" xmlns:xlink="http://www.w3.org/1999/xlink" x="0px" y="0px"
	 width="512px" height="512px" viewBox="0 0 512 512" enable-background="new 0 0 512 512" xml:space="preserve">
<g>
	<g>
		<path fill="#FFFFFF" d="M123.673,250.92l-90.687,90.688c-27.927,27.927-27.927,73.365,0,101.293
			c13.963,13.964,32.305,20.944,50.646,20.944c18.341,0,36.684-6.98,50.646-20.944l90.688-90.688
			c27.926-27.927,27.926-73.367,0-101.294C197.04,222.992,151.599,222.993,123.673,250.92z M214.36,341.607l-40.041,40.041
			l-51.375-51.377c-2.929-2.929-7.677-2.929-10.605,0c-2.929,2.93-2.929,7.679,0,10.605l51.375,51.376l-40.041,40.04
			c-10.695,10.695-24.916,16.585-40.041,16.585s-29.346-5.891-40.041-16.585c-10.695-10.694-16.584-24.915-16.584-40.04
			c0-15.126,5.89-29.346,16.585-40.041l40.041-40.041l6.034,6.033c1.464,1.464,3.384,2.196,5.302,2.196
			c1.919,0,3.839-0.731,5.303-2.196c2.929-2.929,2.929-7.679,0-10.604l-6.033-6.033l40.041-40.041
			c10.696-10.696,24.916-16.585,40.041-16.585s29.345,5.89,40.04,16.585c10.694,10.695,16.585,24.916,16.585,40.041
			S225.055,330.912,214.36,341.607z"/>
		<path fill="#FFFFFF" d="M491.917,111.703C491.917,50.11,441.807,0,380.213,0S268.51,50.11,268.51,111.703
			c0,61.594,50.11,111.704,111.703,111.704S491.917,173.298,491.917,111.703z M283.509,111.703
			c0-53.323,43.382-96.704,96.704-96.704s96.704,43.382,96.704,96.704c0,53.323-43.382,96.705-96.704,96.705
			S283.509,165.027,283.509,111.703z"/>
		<path fill="#FFFFFF" d="M496.973,435.775c-6.143-24.234-21.242-49.299-42.52-70.576c-16.769-16.768-35.934-29.754-55.422-37.555
			c-3.846-1.539-8.211,0.33-9.75,4.176s0.331,8.211,4.176,9.75c17.622,7.053,35.047,18.892,50.391,34.234
			c19.396,19.396,33.1,42,38.586,63.654c5.141,20.278,2.371,37.047-7.798,47.216c-10.168,10.168-26.937,12.938-47.216,7.797
			c-21.653-5.486-44.26-19.189-63.654-38.586c-19.394-19.395-33.098-42.001-38.586-63.653c-5.14-20.279-2.371-37.047,7.798-47.217
			c7.199-7.199,17.897-10.75,30.922-10.25c4.159,0.137,7.622-3.072,7.777-7.211c0.156-4.14-3.071-7.621-7.211-7.777
			c-17.314-0.652-31.866,4.404-42.095,14.634c-14.056,14.056-18.223,35.899-11.73,61.507c6.144,24.233,21.243,49.298,42.521,70.575
			c21.276,21.276,46.341,36.377,70.575,42.52c7.887,1.999,15.415,2.987,22.469,2.987c15.854,0,29.312-4.992,39.038-14.718
			C499.298,483.227,503.464,461.384,496.973,435.775z"/>
		<path fill="#FFFFFF" d="M115.695,167.298c35.074,0,63.61-28.536,63.61-63.61c0-11.271-2.989-22.348-8.644-32.031
			c-2.088-3.577-6.682-4.784-10.258-2.695c-3.577,2.088-4.784,6.681-2.695,10.257c4.315,7.391,6.597,15.854,6.597,24.468
			c0,26.805-21.807,48.61-48.61,48.61c-26.803,0-48.61-21.807-48.61-48.61s21.807-48.61,48.61-48.61
			c6.658,0,13.104,1.319,19.164,3.921c3.805,1.635,8.217-0.125,9.851-3.932c1.635-3.806-0.125-8.215-3.932-9.85
			c-7.938-3.41-16.378-5.139-25.082-5.139c-35.074,0-63.609,28.535-63.609,63.609C52.085,138.763,80.621,167.298,115.695,167.298z"
			/>
		<path fill="#FFFFFF" d="M340.174,117.737c-2.929-2.928-7.678-2.929-10.605,0c-2.929,2.929-2.93,7.678,0,10.606l5.668,5.667
			c1.465,1.464,3.384,2.197,5.304,2.197c1.919,0,3.839-0.732,5.303-2.196c2.93-2.929,2.93-7.677,0-10.605L340.174,117.737z"/>
		<path fill="#FFFFFF" d="M391.914,77.331c1.464,1.464,3.384,2.197,5.303,2.197s3.839-0.732,5.303-2.197
			c2.93-2.929,2.93-7.678,0-10.605l-5.666-5.668c-2.931-2.929-7.679-2.929-10.605,0c-2.93,2.929-2.93,7.678,0,10.605L391.914,77.331
			z"/>
		<path fill="#FFFFFF" d="M438.724,105.979c-0.029-4.123-3.383-7.443-7.498-7.443c-0.02,0-0.037,0-0.059,0
			c-4.142,0.031-7.474,3.415-7.442,7.557c0.094,12.306-5.304,24.813-14.808,34.316c-9.503,9.503-21.989,14.935-34.316,14.807
			c-4.18-0.004-7.523,3.302-7.556,7.443c-0.031,4.142,3.302,7.525,7.443,7.556c0.14,0.001,0.278,0.001,0.419,0.001
			c16.158,0,32.396-6.983,44.615-19.202C431.849,138.689,438.847,122.275,438.724,105.979z"/>
	</g>
</g>
</svg>
