<?xml version="1.0" encoding="utf-8"?>
<!-- Generator: Adobe Illustrator 16.0.0, SVG Export Plug-In . SVG Version: 6.00 Build 0)  -->
<!DOCTYPE svg PUBLIC "-//W3C//DTD SVG 1.1//EN" "http://www.w3.org/Graphics/SVG/1.1/DTD/svg11.dtd">
<svg version="1.1" id="Layer_1" xmlns="http://www.w3.org/2000/svg" xmlns:xlink="http://www.w3.org/1999/xlink" x="0px" y="0px"
	 width="512px" height="512px" viewBox="0 0 512 512" enable-background="new 0 0 512 512" xml:space="preserve">
<g>
	<path fill="#FFFFFF" d="M377.412,125.316l20.236-35.2c1.926-3.352,0.771-7.629-2.58-9.556l-28.612-16.436
		c-3.353-1.925-7.631-0.769-9.556,2.584l-20.204,35.164c-18.218-7.858-37.489-12.998-57.2-15.256V65.22h14.199c3.867,0,7-3.134,7-7
		V25.228c0.003-3.864-3.127-6.998-6.991-7c-0.003,0-0.005,0-0.009,0h-75.391c-3.864-0.002-6.998,3.128-7,6.992
		c0,0.003,0,0.006,0,0.008V58.22c0,3.866,3.134,7,7,7h14.2v21.376c-19.71,2.258-38.983,7.398-57.2,15.256L155.1,66.688
		c-1.922-3.352-6.198-4.51-9.549-2.588c-0.002,0.001-0.004,0.002-0.007,0.004L116.932,80.54c-3.351,1.927-4.506,6.205-2.58,9.556
		l20.236,35.22C43.854,192.37,24.656,320.283,91.71,411.018c67.054,90.734,194.967,109.932,285.702,42.878
		s109.932-194.968,42.878-285.702C408.21,151.848,393.758,137.396,377.412,125.316L377.412,125.316z M365.552,79.716L382.02,89.2
		l-16.191,28.184c-5.333-3.408-10.817-6.57-16.452-9.488L365.552,79.716z M225.304,32.228h61.391V51.22h-61.391V32.228z
		 M246.504,65.22h18.992v20.229C262.348,85.3,259.2,85.2,256,85.2s-6.348,0.096-9.496,0.244V65.22z M129.98,89.2l16.468-9.46
		l16.176,28.156c-5.64,2.912-11.124,6.075-16.452,9.488L129.98,89.2z M256,479.772c-105.091,0-190.284-85.193-190.284-190.284
		c0-105.091,85.193-190.284,190.284-190.284s190.284,85.193,190.284,190.284c0,0.001,0,0.002,0,0.004
		C446.163,394.532,361.04,479.653,256,479.772z"/>
	<path fill="#FFFFFF" d="M393.632,368.244c28.178-49.035,28.013-109.388-0.432-158.268c-0.093-0.24-0.2-0.473-0.32-0.7
		c-0.124-0.187-0.258-0.367-0.399-0.54c-13.772-23.169-33.183-42.478-56.425-56.128c-0.19-0.157-0.391-0.303-0.6-0.436
		c-0.227-0.118-0.461-0.222-0.7-0.312c-49.031-28.179-109.381-28.015-158.26,0.428c-0.243,0.096-0.481,0.206-0.712,0.328
		c-0.184,0.124-0.362,0.257-0.532,0.4c-23.173,13.772-42.485,33.182-56.14,56.424c-0.332,0.378-0.584,0.819-0.744,1.296
		C90.191,259.77,90.355,320.121,118.8,369c0.094,0.24,0.201,0.476,0.32,0.704c0.088,0.151,0.22,0.264,0.316,0.399
		c13.774,23.225,33.21,42.58,56.492,56.257c0.195,0.159,0.4,0.307,0.612,0.443c0.176,0.101,0.368,0.141,0.548,0.229
		c49.125,28.294,109.638,28.121,158.601-0.452c0.172-0.084,0.355-0.12,0.523-0.22c0.168-0.101,0.353-0.261,0.532-0.4
		c23.225-13.802,42.572-33.267,56.231-56.576c0.108-0.155,0.244-0.272,0.341-0.44C393.437,368.718,393.542,368.484,393.632,368.244z
		 M335.052,410.532l-8.996-15.332c-1.955-3.336-6.244-4.455-9.58-2.5c-3.335,1.955-4.455,6.244-2.5,9.58l9.009,15.368
		c-18.568,9.759-39.048,15.332-60,16.327v-17.859c0-3.866-3.135-7-7-7s-7,3.134-7,7v17.859
		c-20.672-0.991-40.886-6.441-59.256-15.976l8.92-15.412c1.892-3.371,0.692-7.639-2.679-9.529c-3.308-1.857-7.493-0.74-9.437,2.518
		l-8.908,15.396c-17.019-11.022-31.551-25.474-42.668-42.432l15.348-8.992c3.327-1.97,4.427-6.263,2.458-9.589
		c-1.957-3.306-6.211-4.417-9.534-2.491l-15.368,9.009c-9.761-18.567-15.335-39.048-16.332-60h17.86c3.866,0,7-3.135,7-7
		c0-3.867-3.134-7-7-7h-17.86c0.987-20.678,6.433-40.897,15.964-59.272l15.416,8.916c3.387,1.863,7.644,0.627,9.507-2.76
		c1.807-3.285,0.705-7.41-2.499-9.356l-15.392-8.908c11.022-17.013,25.471-31.54,42.424-42.652l8.996,15.348
		c1.969,3.327,6.262,4.429,9.589,2.46c3.307-1.957,4.419-6.213,2.491-9.537l-9.008-15.368c18.566-9.762,39.047-15.335,60-16.328
		v17.856c0.005,3.866,3.144,6.995,7.01,6.99c3.858-0.006,6.983-3.132,6.989-6.99V145.02c20.678,0.986,40.896,6.43,59.272,15.96
		l-8.937,15.42c-1.98,3.32-0.895,7.617,2.426,9.598c3.319,1.98,7.617,0.895,9.598-2.425c0.031-0.053,0.063-0.107,0.093-0.161
		L334.376,168c17.02,11.025,31.552,25.479,42.668,42.44l-15.348,8.992c-3.345,1.939-4.484,6.222-2.545,9.567
		c1.938,3.344,6.222,4.484,9.566,2.545c0.019-0.011,0.036-0.021,0.055-0.032l15.371-9.008c9.758,18.568,15.331,39.048,16.328,60
		h-17.859c-3.866,0-7,3.135-7,7c0,3.866,3.134,7,7,7h17.859c-0.989,20.672-6.435,40.885-15.964,59.256l-15.412-8.92
		c-3.347-1.936-7.629-0.793-9.565,2.555c-1.937,3.346-0.793,7.629,2.554,9.565l0,0l15.392,8.908
		C366.456,384.885,352.007,399.416,335.052,410.532z"/>
	<path fill="#FFFFFF" d="M361.576,289.492c0-3.866-3.134-7-7-7h-67.4c-2.728-12.045-12.132-21.451-24.176-24.18v-67.396
		c0-3.866-3.134-7-7-7s-7,3.134-7,7v67.396c-17.227,3.857-28.064,20.949-24.206,38.176s20.95,28.064,38.177,24.207
		c12.072-2.704,21.5-12.131,24.205-24.203h67.4C358.441,296.49,361.574,293.357,361.576,289.492z M256,307.464
		c-9.928,0.003-17.978-8.044-17.98-17.972c-0.002-9.928,8.044-17.979,17.972-17.98c9.928-0.002,17.978,8.045,17.98,17.973
		c0,0.002,0,0.005,0,0.008C273.957,299.411,265.92,307.449,256,307.464z"/>
</g>
</svg>
