<?xml version="1.0" encoding="iso-8859-1"?>
<!-- Generator: Adobe Illustrator 16.0.0, SVG Export Plug-In . SVG Version: 6.00 Build 0)  -->
<!DOCTYPE svg PUBLIC "-//W3C//DTD SVG 1.1//EN" "http://www.w3.org/Graphics/SVG/1.1/DTD/svg11.dtd">
<svg version="1.1" id="Layer_1" xmlns="http://www.w3.org/2000/svg" xmlns:xlink="http://www.w3.org/1999/xlink" x="0px" y="0px"
	 width="499.188px" height="499.833px" viewBox="11.563 9.667 499.188 499.833"
	 style="enable-background:new 11.563 9.667 499.188 499.833;" xml:space="preserve">
<g id="Layer_1_1_">
	<g>
		<path style="fill:#386A72;" d="M230.777,173.276c4.215,0.158,7.304,2.41,10.144,5.253c23.722,23.745,47.382,47.555,71.254,71.147
			c7.855,7.764,6.376,14.188-0.905,21.363c-23.112,22.77-45.93,45.839-68.906,68.747c-4.858,4.843-10.298,10.341-17.179,4.092
			c-7.375-6.696-3.091-12.899,2.542-18.507c19.026-18.943,37.721-38.23,57.13-56.773c6.813-6.509,7.147-10.482,0.166-17.161
			c-19.807-18.939-38.885-38.639-58.297-57.991c-3.765-3.752-6.413-7.716-4.671-13.37
			C223.396,175.719,226.836,174.221,230.777,173.276z"/>
	</g>
</g>
<g id="Layer_2">
	<circle style="fill:none;stroke:#000000;stroke-width:18;stroke-miterlimit:10;" cx="260.994" cy="259.717" r="240"/>
</g>
</svg>
