<?xml version="1.0" encoding="iso-8859-1"?>
<!-- Generator: Adobe Illustrator 19.0.1, SVG Export Plug-In . SVG Version: 6.00 Build 0)  -->
<svg version="1.1" id="ICON" xmlns="http://www.w3.org/2000/svg" xmlns:xlink="http://www.w3.org/1999/xlink" x="0px" y="0px"
	 viewBox="0 0 521 521" style="enable-background:new 0 0 521 521; background-color: #262626;" xml:space="preserve">
<g id="ICON">
	<g>
		<g id="DA_icon_7_">
			<path style="fill:#C43E56;" d="M136.49,330.94c-0.51-0.89-0.56-1.83-0.56-2.81c0.01-7.71,0.01-15.42,0.01-23.13v-6.67
				l12.39-13.81c0.02,14.4,0.02,28.82,0,43.22c-0.01,3.08-2.05,5.71-4.76,6.31C140.62,334.7,137.98,333.53,136.49,330.94z"/>
			<path style="fill:#C43E56;" d="M148.51,393.51l-8.58,9.44c-1.09-0.91-2.16-1.85-3.21-2.83c-11.68-10.9-18.51-24.32-21.13-39.95
				c-0.35-2.08-0.56-4.23-0.56-6.4v-32.13l0.02-0.02l12.41-13.84c0,13.57,0,27.14-0.01,40.71c0,3.46,0.18,6.89,0.78,10.32
				C130.67,373.01,137.45,384.62,148.51,393.51z"/>
			<path style="fill:#C43E56;" d="M251.08,177.31c-0.01,34.46-0.02,68.92-0.02,103.37l-12.35,13.59c-0.01-7.7-0.02-15.41,0-23.11
				c0-2.07-0.67-2.55-2.63-2.54c-17.67,0.07-35.35,0.04-53.02,0.04h-20.5l11.1-12.38h61.88c3.12,0,3.12,0,3.12-3.21
				c0-23.09-0.01-46.18,0.02-69.27l12.26-13.66C251.07,172.53,251.08,174.92,251.08,177.31z"/>
			<path style="fill:#C43E56;" d="M389.95,127.88l-8.57,9.43c-2.28-2.47-4.82-4.78-7.63-6.92c-11.03-8.4-23.59-12.16-37.56-11.03
				c-6.94,0.56-13.52,2.31-19.72,5.35c-7.44,3.64-13.81,8.72-19,15.21c-7.81,9.77-12.34,20.96-12.48,33.41
				c-0.27,23.39-0.12,46.78-0.13,70.17l-12.37,13.61c-0.01-28.21,0-56.42,0.02-84.63c0.01-8.69,2.21-16.96,5.6-24.93
				c4.01-9.41,9.97-17.43,17.59-24.17c9.53-8.45,20.58-13.96,33.24-15.95c4.07-0.64,8.1-0.97,12.07-0.97
				c10.7,0,21.03,2.39,30.92,7.6c5.49,2.89,10.4,6.54,14.95,10.78C387.94,125.83,388.96,126.84,389.95,127.88z"/>
			<path style="fill:#65394A;" d="M251.1,349.91c0.01,9.22-1.76,18.01-5.21,26.48c-4.07,10-10.35,18.49-18.45,25.57
				c-8.71,7.6-18.73,12.82-30.13,15.06c-4.95,0.97-9.86,1.48-14.74,1.48c-8.62,0-17.11-1.6-25.44-5.06
				c-6.31-2.63-12-6.15-17.2-10.49l8.58-9.44c0.48,0.39,0.98,0.77,1.48,1.15c11.01,8.31,23.49,12.04,37.39,10.92
				c6.94-0.56,13.52-2.31,19.71-5.36c7.17-3.53,13.3-8.4,18.44-14.59c8.21-9.9,12.87-21.29,13.03-34.03
				c0.24-19.11,0.18-38.22,0.15-57.33l12.35-13.59C251.06,303.76,251.08,326.83,251.1,349.91z"/>
			<path style="fill:#65394A;" d="M340.49,256.28h30.78l-11.26,12.39c-6.46,0-12.92-0.01-19.38-0.01h-53.02
				c-2.71,0-2.72,0.01-2.72,2.78c0,25.36,0.02,50.72-0.01,76.07c0,1.24,0.02,2.48,0.08,3.72l-11.22,12.34
				c-0.15-0.77-0.3-1.55-0.43-2.33c-0.78-4.53-0.83-9.09-0.83-13.66c0.01-30.16,0-60.31,0.01-90.47l12.37-13.61
				c0,3.43,0,6.85-0.01,10.28c0,2.05,0.66,2.54,2.62,2.54C305.14,256.25,322.82,256.28,340.49,256.28z"/>
			<path style="fill:#65394A;" d="M387.18,195.31c0.04,14.49,0.04,28.97,0,43.46l-8.02,8.84c-2.62-0.64-4.33-2.8-4.35-5.79
				c-0.03-7.78-0.01-15.56-0.01-23.34c0-7.57-0.02-15.14,0.01-22.71c0.01-5.75,5.01-7.35,9.19-5.64
				C386.21,191.04,387.17,193.03,387.18,195.31z"/>
			<path style="fill:#65394A;" d="M408.53,172.8v42.49l-0.04,0.04l-12.39,13.63c0-17.57,0-35.14,0.01-52.71
				c0-3.4-0.21-6.75-0.78-10.12c-1.92-11.26-6.59-20.89-13.95-28.82l8.57-9.43c7.09,7.47,12.24,16.15,15.43,26.05
				C407.35,160.03,408.53,166.31,408.53,172.8z"/>
			<path style="fill:#49D3A3;" d="M337.52,405.69l-10.44,11.48c-5.14-0.98-10.15-2.57-15.04-4.83c-6.12-2.84-11.72-6.55-16.73-11.11
				c-6.21-5.65-11.39-12.13-15.23-19.59c-2.95-5.73-5.05-11.77-6.34-18.07l11.22-12.34c0.1,2.42,0.32,4.83,0.73,7.23
				c2.35,13.93,8.8,25.53,19.75,34.53C314.97,400.82,325.63,405.14,337.52,405.69z"/>
			<path style="fill:#49D3A3;" d="M380.81,247.81c-0.58,0-1.13-0.07-1.65-0.2l8.02-8.84c0.01,1.07,0,2.14,0,3.21
				C387.17,245.57,384.6,247.83,380.81,247.81z"/>
			<path style="fill:#49D3A3;" d="M408.53,215.29v112.27l-0.03,0.03l-12.42,13.66c0.07-23.32,0-46.64,0.06-69.95
				c0.01-2.13-0.59-2.69-2.7-2.68c-11.14,0.05-22.29,0.05-33.43,0.05l11.26-12.39h21.83c2.99,0,3-0.01,3-2.92v-24.4l12.39-13.63
				L408.53,215.29z"/>
			<path style="fill:#2E646C;" d="M408.5,327.59v23.93c0.01,12.38-3.49,23.76-9.91,34.24c-7.16,11.67-16.92,20.61-29.35,26.45
				c-8.29,3.89-17.03,5.94-26.28,6.2c-5.42,0.15-10.72-0.24-15.88-1.24l10.44-11.48c2.35,0.1,4.76,0.07,7.21-0.12
				c9.33-0.71,17.9-3.57,25.69-8.66c9.65-6.32,16.75-14.83,21.25-25.45c2.61-6.17,4.35-12.61,4.38-19.3
				c0.02-3.64,0.03-7.27,0.03-10.91L408.5,327.59z"/>
			<path style="fill:#EED586;" d="M206.2,110.42l-9.34,10.41c-7.33-1.99-14.95-2.35-22.79-0.96c-11.2,1.99-20.99,6.78-29.2,14.77
				c-4.22,4.1-7.7,8.68-10.55,13.82c-4.14,7.46-6.69,15.47-6.77,23.91c-0.08,8.61-0.11,17.23-0.12,25.85L115.07,212
				c0-12.85-0.01-25.69-0.02-38.54c-0.01-12.38,3.48-23.77,9.9-34.24c7.14-11.68,16.9-20.62,29.33-26.47
				c8.29-3.89,17.02-5.96,26.28-6.22C189.45,106.29,197.99,107.47,206.2,110.42z"/>
			<path style="fill:#E06A56;" d="M148.33,281.89v2.63l-12.39,13.81c0-5.49-0.01-10.97,0-16.46c0.01-3.59,2.72-6.42,6.05-6.37
				C145.4,275.55,148.32,278.44,148.33,281.89z"/>
			<path style="fill:#E06A56;" d="M173.66,256.28l-11.1,12.38h-32.11c-2.98,0-2.99,0-2.99,2.92v36.2l-12.41,13.84l-0.02,0.02v-109.6
				l0.04-0.04l12.36-13.78c-0.03,18.48,0.04,36.96-0.01,55.43c-0.01,2.14,0.61,2.68,2.71,2.67
				C144.64,256.25,159.14,256.27,173.66,256.28z"/>
			<path style="fill:#E06A56;" d="M250.94,170.13v0.01l-12.26,13.66c-0.01-2.34,0-4.67,0-7.01c0-7.33-1.11-14.44-3.73-21.32
				c-5.13-13.47-14.1-23.6-26.83-30.22c-3.67-1.91-7.42-3.39-11.26-4.42l9.34-10.41c1.77,0.63,3.54,1.35,5.28,2.16
				c6.06,2.8,11.62,6.46,16.58,10.95c6.33,5.73,11.6,12.31,15.49,19.92c3.25,6.38,5.47,13.13,6.69,20.2
				C250.62,165.81,250.82,167.96,250.94,170.13z"/>
		</g>
	</g>
</g>
</svg>
