<?xml version="1.0" encoding="iso-8859-1"?>
<?xml-stylesheet type="text/css" href="../../font-styles.css" ?>
<svg version="1.1" id="Splash" xmlns="http://www.w3.org/2000/svg" xmlns:xlink="http://www.w3.org/1999/xlink" x="0px" y="0px"
	 viewBox="0 0 320 480" style="enable-background:new 0 0 320 480; background-color: #262626;" xml:space="preserve">
	<text id="Verzija" transform="matrix(1 0 0 1 122.3755 445)"><tspan x="0" y="0" style="fill:#FFFFFF; font-family:'brandon_grotesque_regularRg'; font-size:10px;">V&#160;E&#160;R&#160;Z&#160;I&#160;J&#160;A&#160;&#160;&#160;</tspan><tspan x="57.939" y="0" style="fill:#FFFFFF; font-family:'brandon_grotesquemedium'; font-size:10px;">v101</tspan></text>
	<text id="SplashTekst" transform="matrix(1 0 0 1 55.5361 284.3999)"><tspan x="0" y="0" style="fill:#FFFFFF; font-family:'brandon_grotesque_regularRg'; font-size:12px;">Aplikacija informira in osve&#x161;&#x10D;a o manj tvegani </tspan><tspan x="14.95" y="17" style="fill:#FFFFFF; font-family:'brandon_grotesque_regularRg'; font-size:12px;">uporabi drog. Informacije v aplikaciji so </tspan><tspan x="17.232" y="34" style="fill:#FFFFFF; font-family:'brandon_grotesque_regularRg'; font-size:12px;">informativne narave, vsi uporabniki jih </tspan><tspan x="25.605" y="51" style="fill:#FFFFFF; font-family:'brandon_grotesque_regularRg'; font-size:12px;">uporabljajo na lastno odgovornost.</tspan><tspan x="25.143" y="89" style="fill:#FFFFFF; font-family:'brandon_grotesque_regularRg'; font-size:12px;">Edina varna uporaba je neuporaba.</tspan></text>
	<text id="Naslov" transform="matrix(1 0 0 1 72.1143 230.1276)"><tspan x="0" y="0" style="fill:#FFFFFF; font-family:'brandon_grotesque_regularRg'; font-size:19px;">D&#160;&#160;&#160;R&#160;&#160;&#160;O&#160;&#160;&#160;G&#160;&#160;&#160;</tspan><tspan x="106.781" y="0" style="fill:#FFFFFF; font-family:'gotham_mediumregular'; font-size:19px;">A</tspan><tspan x="121.782" y="0" style="fill:#FFFFFF; font-family:'brandon_grotesque_regularRg'; font-size:19px;">   </tspan><tspan x="134.418" y="0" style="fill:#FFFFFF; font-family:'gotham_mediumregular'; font-size:19px;">P</tspan><tspan x="147.109" y="0" style="fill:#FFFFFF; font-family:'brandon_grotesque_regularRg'; font-size:19px;">   </tspan><tspan x="159.745" y="0" style="fill:#FFFFFF; font-family:'gotham_mediumregular'; font-size:19px;">P</tspan></text>
	<g id="Ikona">
		<g>
			<g id="DA_icon_7_">
				<path style="fill:#C43E56;" d="M112.22,147.046c-0.196-0.342-0.215-0.703-0.215-1.079c0.004-2.96,0.004-5.921,0.004-8.881v-2.561
					l4.757-5.303c0.008,5.529,0.008,11.066,0,16.595c-0.004,1.183-0.787,2.192-1.828,2.423
					C113.806,148.49,112.792,148.04,112.22,147.046z"/>
				<path style="fill:#C43E56;" d="M116.836,171.071l-3.294,3.625c-0.418-0.35-0.829-0.71-1.232-1.087
					c-4.485-4.185-7.107-9.338-8.113-15.34c-0.134-0.799-0.215-1.624-0.215-2.457v-12.337l0.008-0.008l4.765-5.314
					c0,5.21,0,10.421-0.004,15.631c0,1.329,0.069,2.645,0.3,3.963C109.986,163.2,112.589,167.658,116.836,171.071z"/>
				<path style="fill:#C43E56;" d="M156.219,88.056c-0.004,13.232-0.008,26.463-0.008,39.691l-4.742,5.218
					c-0.004-2.957-0.008-5.917,0-8.874c0-0.795-0.257-0.979-1.01-0.975c-6.785,0.027-13.573,0.015-20.358,0.015h-7.871l4.262-4.754
					h23.76c1.198,0,1.198,0,1.198-1.232c0-8.866-0.004-17.732,0.008-26.598l4.708-5.245
					C156.216,86.221,156.219,87.139,156.219,88.056z"/>
				<path style="fill:#C43E56;" d="M209.542,69.077l-3.291,3.621c-0.875-0.949-1.851-1.835-2.93-2.657
					c-4.235-3.225-9.058-4.669-14.422-4.235c-2.665,0.215-5.191,0.887-7.572,2.054c-2.857,1.398-5.303,3.348-7.296,5.84
					c-2.999,3.751-4.738,8.048-4.792,12.828c-0.104,8.981-0.046,17.962-0.05,26.943l-4.75,5.226c-0.004-10.832,0-21.664,0.008-32.496
					c0.004-3.337,0.848-6.512,2.15-9.572c1.54-3.613,3.828-6.693,6.754-9.281c3.659-3.244,7.902-5.36,12.763-6.124
					c1.563-0.246,3.11-0.373,4.634-0.373c4.109,0,8.075,0.918,11.872,2.918c2.108,1.11,3.993,2.511,5.74,4.139
					C208.77,68.289,209.162,68.677,209.542,69.077z"/>
				<path style="fill:#65394A;" d="M156.227,154.33c0.004,3.54-0.676,6.915-2,10.168c-1.563,3.84-3.974,7.1-7.084,9.818
					c-3.344,2.918-7.192,4.923-11.569,5.783c-1.901,0.372-3.786,0.568-5.66,0.568c-3.31,0-6.57-0.614-9.768-1.943
					c-2.423-1.01-4.608-2.361-6.604-4.028l3.294-3.625c0.184,0.15,0.376,0.296,0.568,0.441c4.227,3.191,9.019,4.623,14.357,4.193
					c2.665-0.215,5.191-0.887,7.568-2.058c2.753-1.355,5.107-3.225,7.08-5.602c3.152-3.801,4.942-8.175,5.003-13.067
					c0.092-7.338,0.069-14.675,0.057-22.013l4.742-5.218C156.212,136.61,156.219,145.468,156.227,154.33z"/>
				<path style="fill:#65394A;" d="M190.55,118.379h11.819l-4.324,4.757c-2.48,0-4.961-0.004-7.441-0.004h-20.358
					c-1.04,0-1.044,0.004-1.044,1.067c0,9.738,0.008,19.475-0.004,29.209c0,0.476,0.008,0.952,0.031,1.428l-4.308,4.738
					c-0.057-0.296-0.115-0.595-0.165-0.895c-0.299-1.74-0.319-3.49-0.319-5.245c0.004-11.581,0-23.157,0.004-34.738l4.75-5.226
					c0,1.317,0,2.63-0.004,3.947c0,0.787,0.253,0.975,1.006,0.975C176.977,118.367,183.766,118.379,190.55,118.379z"/>
				<path style="fill:#65394A;" d="M208.478,94.968c0.015,5.564,0.015,11.124,0,16.687l-3.079,3.394
					c-1.006-0.246-1.663-1.075-1.67-2.223c-0.012-2.987-0.004-5.975-0.004-8.962c0-2.907-0.008-5.813,0.004-8.72
					c0.004-2.208,1.924-2.822,3.529-2.166C208.106,93.328,208.474,94.093,208.478,94.968z"/>
				<path style="fill:#65394A;" d="M216.676,86.325v16.315l-0.015,0.015l-4.757,5.233c0-6.746,0-13.493,0.004-20.239
					c0-1.306-0.081-2.592-0.299-3.886c-0.737-4.324-2.53-8.021-5.356-11.066l3.291-3.621c2.722,2.868,4.7,6.201,5.925,10.002
					C216.223,81.421,216.676,83.833,216.676,86.325z"/>
				<path style="fill:#49D3A3;" d="M189.41,175.748l-4.009,4.408c-1.974-0.376-3.897-0.987-5.775-1.854
					c-2.35-1.09-4.5-2.515-6.424-4.266c-2.384-2.169-4.373-4.658-5.848-7.522c-1.133-2.2-1.939-4.519-2.434-6.938l4.308-4.738
					c0.038,0.929,0.123,1.854,0.28,2.776c0.902,5.349,3.379,9.803,7.583,13.259C180.751,173.878,184.845,175.537,189.41,175.748z"/>
				<path style="fill:#49D3A3;" d="M206.032,115.126c-0.223,0-0.434-0.027-0.633-0.077l3.079-3.394c0.004,0.411,0,0.822,0,1.232
					C208.474,114.266,207.487,115.134,206.032,115.126z"/>
				<path style="fill:#49D3A3;" d="M216.676,102.64v43.108l-0.011,0.012l-4.769,5.245c0.027-8.954,0-17.909,0.023-26.859
					c0.004-0.818-0.226-1.033-1.037-1.029c-4.277,0.019-8.559,0.019-12.836,0.019l4.324-4.757h8.382c1.148,0,1.152-0.004,1.152-1.121
					v-9.369l4.757-5.233L216.676,102.64z"/>
				<path style="fill:#2E646C;" d="M216.664,145.76v9.188c0.004,4.754-1.34,9.123-3.805,13.147
					c-2.749,4.481-6.497,7.914-11.27,10.156c-3.183,1.494-6.539,2.281-10.091,2.381c-2.081,0.057-4.116-0.092-6.098-0.476
					l4.009-4.408c0.902,0.038,1.828,0.027,2.768-0.046c3.582-0.273,6.873-1.371,9.864-3.325c3.705-2.427,6.431-5.694,8.159-9.772
					c1.002-2.369,1.67-4.842,1.682-7.411c0.008-1.398,0.012-2.791,0.012-4.189L216.664,145.76z"/>
				<path style="fill:#EED586;" d="M138.987,62.373l-3.586,3.997c-2.814-0.764-5.74-0.902-8.751-0.369
					c-4.301,0.764-8.06,2.603-11.212,5.671c-1.62,1.574-2.957,3.333-4.051,5.307c-1.59,2.864-2.569,5.94-2.599,9.181
					c-0.031,3.306-0.042,6.616-0.046,9.926l-4.746,5.291c0-4.934-0.004-9.864-0.008-14.798c-0.004-4.754,1.336-9.127,3.801-13.147
					c2.742-4.485,6.489-7.918,11.262-10.164c3.183-1.494,6.535-2.288,10.091-2.388C132.555,60.787,135.834,61.24,138.987,62.373z"/>
				<path style="fill:#E06A56;" d="M116.766,128.212v1.01l-4.757,5.303c0-2.108-0.004-4.212,0-6.32
					c0.004-1.378,1.044-2.465,2.323-2.446C115.641,125.778,116.763,126.887,116.766,128.212z"/>
				<path style="fill:#E06A56;" d="M126.492,118.379l-4.262,4.754h-12.329c-1.144,0-1.148,0-1.148,1.121v13.9l-4.765,5.314
					l-0.008,0.008v-42.083l0.015-0.015l4.746-5.291c-0.011,7.096,0.015,14.192-0.004,21.284c-0.004,0.822,0.234,1.029,1.04,1.025
					C115.35,118.367,120.917,118.375,126.492,118.379z"/>
				<path style="fill:#E06A56;" d="M156.166,85.3v0.004l-4.708,5.245c-0.004-0.898,0-1.793,0-2.692c0-2.814-0.426-5.545-1.432-8.186
					c-1.97-5.172-5.414-9.062-10.302-11.604c-1.409-0.733-2.849-1.302-4.324-1.697l3.587-3.997c0.68,0.242,1.359,0.518,2.027,0.829
					c2.327,1.075,4.462,2.48,6.366,4.204c2.43,2.2,4.454,4.727,5.948,7.649c1.248,2.45,2.1,5.041,2.569,7.756
					C156.043,83.641,156.12,84.466,156.166,85.3z"/>
			</g>
		</g>
	</g>
</svg>
