<?xml version="1.0" encoding="iso-8859-1"?>
<!-- Generator: Adobe Illustrator 16.0.0, SVG Export Plug-In . SVG Version: 6.00 Build 0)  -->
<!DOCTYPE svg PUBLIC "-//W3C//DTD SVG 1.1//EN" "http://www.w3.org/Graphics/SVG/1.1/DTD/svg11.dtd">
<svg version="1.1" id="Layer_1" xmlns="http://www.w3.org/2000/svg" xmlns:xlink="http://www.w3.org/1999/xlink" x="0px" y="0px"
	 width="341.063px" height="446.5px" viewBox="0 0 341.063 446.5" style="enable-background:new 0 0 341.063 446.5;"
	 xml:space="preserve">
<g>
	<path style="fill:none;" d="M1,230.09C1,155.123,1.038,80.156,0.889,5.189C0.881,1.421,1.863,0.912,5.308,0.916
		c110.45,0.103,220.902,0.103,331.354-0.003c3.476-0.003,4.405,0.553,4.4,4.288c-0.125,149.767-0.125,299.535-0.003,449.302
		c0.003,3.886-1.02,4.531-4.659,4.527c-110.452-0.107-220.903-0.106-331.354,0c-3.319,0.004-4.154-0.521-4.148-4.039
		C1.033,380.023,1,305.059,1,230.09z M212.471,196.946c3.357,0.255,6.158,0.204,8.853,0.715
		c14.383,2.726,26.263-5.265,28.913-19.633c1.081-5.856,1.853-11.779,3.169-17.58c1.046-4.612,4.483-6.332,9.049-5.781
		c5.354,0.646,8.104-1.05,8.752-5.512c0.779-5.361-2.004-9.848-6.934-10.336c-12.707-1.259-21.656,1.152-25.668,15.948
		c-1.905,7.029-3.372,14.18-4.962,21.292c-0.803,3.588-2.919,5.534-6.598,5.552c-2.812,0.015-5.608,0.215-8.423-0.576
		c-5.675-1.594-11.592-2.294-17.147-0.146c-3.686,1.428-5.913-0.069-8.465-1.952c-26.287-19.399-55.837-26.631-87.923-21.964
		c-29.308,4.264-53.924,17.73-72.959,40.848C8.13,226.966,1.209,260.341,9.543,296.475C20.272,343,59.8,377.725,108.915,382.986
		c26.108,2.796,51.318-1.662,74.231-15.723c19.329-11.861,34.436-27.736,44.347-48.027c8.545-17.495,12.26-36.142,10.985-55.871
		c-0.803-12.429-3.275-24.239-7.727-35.78C226.478,216.507,219.88,206.826,212.471,196.946z M283.619,183.675
		c-3.503,0.218-6.379,1.835-7.51,4.968c-1.313,3.635-0.689,7.516,2.697,9.905c10.03,7.077,20.129,14.071,30.404,20.785
		c4.898,3.2,9.212,2.236,11.758-1.782c2.637-4.163,1.436-8.844-3.146-12.027c-8.995-6.25-18.005-12.478-27.02-18.701
		C288.611,185.309,286.34,183.941,283.619,183.675z M204.277,75.679c-6.49,0.088-10.196,5.478-7.713,10.982
		c4.903,10.87,10.026,21.642,15.12,32.424c0.548,1.16,1.331,2.327,2.295,3.149c3.509,2.995,7.521,2.998,10.977,0.37
		c3.977-3.024,3.191-7.397,1.427-11.298c-4.71-10.413-9.623-20.735-14.55-31.049C210.263,76.973,207.638,75.169,204.277,75.679z
		 M287.223,85.36c0.131-5.554-1.217-8.53-5.029-9.359c-3.645-0.791-7.58-0.868-9.582,3.152
		c-5.61,11.262-11.194,22.545-16.406,33.993c-2.177,4.78-0.41,8.848,3.527,10.5c4.646,1.951,9.018,0.463,11.316-4.041
		c3.467-6.788,7.166-13.488,10.092-20.508C283.281,93.962,286.764,89.306,287.223,85.36z M292.191,157.269
		c0.334,0,0.677,0.056,0.996-0.008c12.846-2.511,25.364-6.315,38.008-9.627c2.318-0.607,3.388-2.6,3.898-4.789
		c1.798-7.687-3.024-11.892-11.687-9.813c-11.267,2.703-22.464,5.701-33.657,8.691c-4.878,1.303-6.77,4.505-6.036,9.858
		C284.398,156.577,288.169,157.161,292.191,157.269z"/>
	<path d="M212.471,196.946c7.409,9.88,14.006,19.561,18.279,30.64c4.452,11.541,6.924,23.351,7.727,35.78
		c1.275,19.729-2.439,38.376-10.985,55.87c-9.911,20.291-25.018,36.166-44.347,48.029c-22.913,14.06-48.123,18.518-74.231,15.721
		C59.8,377.725,20.272,343,9.542,296.477c-8.334-36.135-1.412-69.51,22.585-98.654c19.035-23.117,43.651-36.583,72.959-40.848
		c32.086-4.667,61.636,2.565,87.923,21.964c2.552,1.882,4.779,3.379,8.465,1.952c5.555-2.149,11.472-1.449,17.147,0.146
		c2.815,0.791,5.611,0.591,8.423,0.576c3.679-0.019,5.795-1.964,6.598-5.552c1.591-7.112,3.057-14.263,4.962-21.292
		c4.012-14.796,12.962-17.207,25.669-15.948c4.929,0.488,7.711,4.975,6.933,10.336c-0.647,4.462-3.397,6.157-8.752,5.512
		c-4.567-0.551-8.003,1.169-9.049,5.781c-1.316,5.801-2.088,11.723-3.169,17.58c-2.65,14.368-14.53,22.359-28.913,19.633
		C218.629,197.15,215.828,197.201,212.471,196.946z M33.342,273.27c0.006,5.513,5.914,12.101,12.683,12.351
		c7.002,0.258,12.243-5.343,12.677-13.151c1.061-19.093,8.586-34.943,24.339-46.226c5.998-4.295,7.514-11.95,4.142-16.909
		c-4.407-6.484-11.448-7.885-18.245-3.184c-5.854,4.049-11.043,8.816-15.687,14.36C40.84,235.33,34.752,252.444,33.342,273.27z"/>
	<path d="M283.619,183.675c2.721,0.266,4.992,1.633,7.186,3.149c9.014,6.223,18.023,12.451,27.02,18.701
		c4.581,3.183,5.783,7.864,3.146,12.027c-2.546,4.018-6.858,4.981-11.758,1.782c-10.276-6.714-20.374-13.708-30.405-20.785
		c-3.387-2.39-4.01-6.27-2.697-9.905C277.24,185.511,280.116,183.894,283.619,183.675z"/>
	<path d="M204.277,75.679c3.361-0.509,5.986,1.294,7.555,4.579c4.927,10.313,9.839,20.636,14.55,31.049
		c1.764,3.901,2.55,8.274-1.427,11.298c-3.457,2.628-7.468,2.625-10.977-0.37c-0.964-0.822-1.747-1.989-2.295-3.149
		c-5.093-10.783-10.217-21.555-15.12-32.424C194.081,81.157,197.787,75.767,204.277,75.679z"/>
	<path d="M287.223,85.36c-0.459,3.946-3.94,8.602-6.082,13.737c-2.926,7.02-6.625,13.72-10.092,20.508
		c-2.3,4.503-6.67,5.992-11.316,4.041c-3.938-1.652-5.705-5.721-3.527-10.5c5.212-11.448,10.796-22.73,16.406-33.993
		c2.002-4.02,5.938-3.943,9.582-3.152C286.006,76.83,287.354,79.806,287.223,85.36z"/>
	<path d="M292.191,157.269c-4.022-0.108-7.793-0.692-8.478-5.688c-0.733-5.353,1.158-8.556,6.036-9.858
		c11.193-2.99,22.392-5.988,33.657-8.691c8.661-2.079,13.483,2.126,11.687,9.813c-0.512,2.189-1.58,4.181-3.898,4.789
		c-12.644,3.312-25.162,7.116-38.008,9.627C292.868,157.325,292.525,157.269,292.191,157.269z"/>
	<path style="fill:none;" d="M33.342,273.27c1.411-20.826,7.499-37.939,19.91-52.76c4.643-5.544,9.833-10.311,15.687-14.36
		c6.796-4.701,13.838-3.3,18.245,3.184c3.372,4.959,1.855,12.614-4.142,16.909c-15.753,11.283-23.278,27.133-24.339,46.226
		c-0.434,7.809-5.674,13.409-12.677,13.151C39.255,285.369,33.348,278.781,33.342,273.27z"/>
</g>
</svg>
