<?xml version="1.0" encoding="iso-8859-1"?>
<!-- Generator: Adobe Illustrator 16.0.0, SVG Export Plug-In . SVG Version: 6.00 Build 0)  -->
<!DOCTYPE svg PUBLIC "-//W3C//DTD SVG 1.1//EN" "http://www.w3.org/Graphics/SVG/1.1/DTD/svg11.dtd">
<svg version="1.1" id="Layer_1" xmlns="http://www.w3.org/2000/svg" xmlns:xlink="http://www.w3.org/1999/xlink" x="0px" y="0px"
	 width="340.972px" height="458.95px" viewBox="0 0 340.972 458.95" style="enable-background:new 0 0 340.972 458.95;"
	 xml:space="preserve">
<g>
	<path style="fill:none;" d="M1,229.901C1,154.91,1.034,79.919,0.896,4.93C0.889,1.362,1.797,0.912,5.069,0.915
		c110.653,0.103,221.306,0.108,331.958-0.019c3.565-0.004,4.017,0.901,4.014,4.173c-0.097,149.981-0.101,299.962,0.02,449.943
		c0.003,3.566-0.9,4.019-4.174,4.016c-110.652-0.104-221.305-0.108-331.957,0.019c-3.566,0.004-4.02-0.899-4.015-4.174
		C1.025,379.882,1,304.893,1,229.901z M170.929,67.673C82.262,65.458,13.326,139.889,8.477,217.386
		C2.075,319.707,84.058,386.807,158.766,391.494c102.311,6.421,170.089-75.338,174.859-150.678
		C339.969,140.604,255.846,64.304,170.929,67.673z"/>
	<path d="M170.929,67.673c84.917-3.369,169.04,72.932,162.696,173.144c-4.77,75.34-72.548,157.099-174.859,150.678
		C84.058,386.807,2.075,319.707,8.477,217.386C13.326,139.889,82.262,65.458,170.929,67.673z M170.925,374.635
		c81.087,0.75,142.352-64.719,145.753-137.114c4.17-88.694-66.216-150.05-137.646-153.307
		C89.923,80.149,28.257,150.65,25.162,222.413C21.429,309.008,92.274,376.083,170.925,374.635z"/>
	<path style="fill:none;" d="M170.925,374.635c-78.65,1.448-149.496-65.627-145.763-152.222
		c3.095-71.763,64.761-142.264,153.87-138.199c71.43,3.257,141.814,64.613,137.646,153.307
		C313.275,309.916,252.012,375.385,170.925,374.635z M183.288,246.576c0-13.988-0.077-27.977,0.053-41.964
		c0.033-3.603-1.157-5.163-4.888-4.997c-4.654,0.208-9.331,0.211-13.984,0c-3.769-0.17-4.862,1.465-4.85,5.031
		c0.092,27.977,0.086,55.954,0.012,83.931c-0.009,3.371,1.116,4.875,4.623,4.733c4.489-0.179,9.008-0.285,13.482,0.035
		c4.508,0.323,5.699-1.553,5.635-5.805C183.163,273.891,183.292,260.23,183.288,246.576z M171.369,165.672
		c-2.662,0-5.33,0.121-7.982-0.031c-3.352-0.191-4.903,1.062-4.753,4.584c0.183,4.318,0.132,8.65,0.022,12.972
		c-0.076,3.014,1.275,4.186,4.199,4.102c3.49-0.101,6.986,0.021,10.479-0.011c11.097-0.104,9.897,1.203,9.95-9.798
		C183.34,165.661,183.297,165.661,171.369,165.672z"/>
	<path d="M183.291,246.576c0.002,13.654-0.128,27.313,0.079,40.966c0.064,4.252-1.127,6.128-5.635,5.806
		c-4.474-0.32-8.993-0.215-13.482-0.035c-3.507,0.141-4.632-1.363-4.623-4.734c0.074-27.979,0.08-55.954-0.012-83.931
		c-0.012-3.566,1.082-5.201,4.85-5.031c4.653,0.211,9.331,0.208,13.984,0c3.731-0.166,4.921,1.394,4.888,4.997
		C183.211,218.6,183.288,232.588,183.291,246.576z"/>
	<path d="M171.369,165.667c11.928-0.006,11.972-0.006,11.915,11.825c-0.053,11,1.147,9.694-9.95,9.798
		c-3.493,0.032-6.989-0.09-10.479,0.011c-2.924,0.084-4.275-1.088-4.199-4.102c0.109-4.322,0.161-8.654-0.022-12.972
		c-0.149-3.523,1.401-4.776,4.753-4.584C166.039,165.793,168.707,165.672,171.369,165.667z"/>
</g>
</svg>
